<svg width="160" height="160" viewBox="0 0 160 160" fill="none" xmlns="http://www.w3.org/2000/svg">
  <!-- 背景圆 -->
  <circle cx="80" cy="80" r="80" fill="#F0FFF5"/>
  
  <!-- 中央控制器 -->
  <circle cx="80" cy="80" r="15" fill="#0FD05D"/>
  <circle cx="80" cy="80" r="7" fill="white"/>
  
  <!-- 左上集群 -->
  <circle cx="40" cy="40" r="12" fill="#0FD05D" opacity="0.8"/>
  <circle cx="40" cy="40" r="6" fill="white" opacity="0.8"/>
  
  <!-- 右上集群 -->
  <circle cx="120" cy="40" r="12" fill="#0FD05D" opacity="0.8"/>
  <circle cx="120" cy="40" r="6" fill="white" opacity="0.8"/>
  
  <!-- An icon that looks like a server rack or compute node. -->
  <rect x="38" y="38" width="4" height="4" rx="1" fill="#0FD05D" opacity="0.9"/>
  <rect x="118" y="38" width="4" height="4" rx="1" fill="#0FD05D" opacity="0.9"/>
  
  <!-- 左下集群 -->
  <circle cx="40" cy="120" r="12" fill="#0FD05D" opacity="0.8"/>
  <circle cx="40" cy="120" r="6" fill="white" opacity="0.8"/>
  
  <!-- 右下集群 -->
  <circle cx="120" cy="120" r="12" fill="#0FD05D" opacity="0.8"/>
  <circle cx="120" cy="120" r="6" fill="white" opacity="0.8"/>
  
  <!-- 左下右下集群的小服务器图标 -->
  <rect x="38" y="118" width="4" height="4" rx="1" fill="#0FD05D" opacity="0.9"/>
  <rect x="118" y="118" width="4" height="4" rx="1" fill="#0FD05D" opacity="0.9"/>
  
  <!-- 连接线 -->
  <path d="M55 55L70 70" stroke="#0FD05D" stroke-width="1.5" stroke-dasharray="3 2"/>
  <path d="M105 55L90 70" stroke="#0FD05D" stroke-width="1.5" stroke-dasharray="3 2"/>
  <path d="M55 105L70 90" stroke="#0FD05D" stroke-width="1.5" stroke-dasharray="3 2"/>
  <path d="M105 105L90 90" stroke="#0FD05D" stroke-width="1.5" stroke-dasharray="3 2"/>
  
  <!-- 外围环 -->
  <circle cx="80" cy="80" r="55" stroke="#0FD05D" stroke-width="1.5" stroke-dasharray="3 3" opacity="0.6"/>
</svg> 