<svg viewBox="0 0 1024 1024" version="1.1" xmlns="http://www.w3.org/2000/svg">
  <path d="M928.841143 242.5856H565.0432l-41.6768-72.9088a58.514286 58.514286 0 0 0-50.805029-29.4912h-275.163428c-32.314514 0-71.855543 27.018971-71.855543 59.333486v628.209371h-29.257143V262.100114a29.257143 29.257143 0 0 0-58.514286 0v585.142857c0 16.149943 10.664229 38.999771 26.8288 38.999772h864.226743c32.314514 0 45.173029-25.380571 45.173029-57.695086v-526.628571c0.014629-32.314514-12.843886-59.333486-45.1584-59.333486z m-13.341257 585.142857h-731.428572v-629.028571h282.389943l64.6144 102.4h384.4096v526.628571z" fill="#0FD05D" />
  <path d="M871.614171 657.071543a14.628571 14.628571 0 0 0 14.628572-14.628572v-29.257142a14.628571 14.628571 0 1 0-29.257143 0v29.257142a14.628571 14.628571 0 0 0 14.628571 14.628572zM518.100114 769.214171a14.628571 14.628571 0 0 0 14.628572 14.628572h336.457143c20.728686 0 17.056914-16.2816 17.056914-24.3712v-58.514286a14.628571 14.628571 0 1 0-29.257143 0v53.628343H532.728686a14.628571 14.628571 0 0 0-14.628572 14.628571z" fill="#0FD05D" />
</svg> 