<svg t="1741852653123" class="icon" viewBox="0 0 1024 1024" version="1.1" xmlns="http://www.w3.org/2000/svg" p-id="7005" width="200" height="200"><path d="M736 736c-17.664 0-32 14.336-32 32v36.544c0 24.832-17.856 27.712-31.296 27.712L210.88 832c-10.944 0-18.88-8.768-18.88-20.736V149.952c0-10.88 6.144-21.952 17.792-21.952H576v96c0 17.664 12.032 32 29.76 32H704v64c0 17.664 14.336 32 32 32s32-14.336 32-32V211.136L611.968 64H209.792C163.968 64 128 101.76 128 149.952v661.312C128 858.752 164.416 896 210.816 896l461.824 0.256c65.792 0 95.296-46.08 95.296-91.712V768c0.064-17.664-14.272-32-31.936-32z m-96-557.632L654.4 192H640v-13.632zM285.184 320h192c17.664 0 32-14.336 32-32s-14.336-32-32-32h-192c-17.664 0-32 14.336-32 32s14.336 32 32 32z m0 192h256c17.664 0 32-14.336 32-32s-14.336-32-32-32h-256c-17.664 0-32 14.336-32 32s14.336 32 32 32z m711.168-158.528l-55.104-55.168c-21.824-21.824-60.096-21.888-82.048 0l-232.64 232.64L594.368 640H285.184c-17.664 0-32 14.336-32 32s14.336 32 32 32h342.4c0.768 0 1.408-0.384 2.176-0.448 2.368 0.384 4.544 1.728 6.976 1.728l127.104-37.312 232.576-232.576c22.528-22.528 22.528-59.328-0.064-81.92zM729.856 611.52l-66.432 20.544 19.904-67.392L823.104 424.96l46.656 46.656L729.856 611.52z m185.088-185.088l-46.656-46.656 31.936-32 46.656 46.656-31.936 32z" p-id="7006" fill="#0FD05D"></path></svg>