<svg t="1741852433643" class="icon" viewBox="0 0 1024 1024" version="1.1" xmlns="http://www.w3.org/2000/svg" p-id="8573" width="200" height="200"><path d="M352 736h-32c-17.6 0-32-14.4-32-32s14.4-32 32-32h32c17.6 0 32 14.4 32 32s-14.4 32-32 32zM352 480h-32c-17.6 0-32-14.4-32-32s14.4-32 32-32h32c17.6 0 32 14.4 32 32s-14.4 32-32 32zM704 736H480c-17.6 0-32-14.4-32-32s14.4-32 32-32h224c17.6 0 32 14.4 32 32s-14.4 32-32 32zM704 480H480c-17.6 0-32-14.4-32-32s14.4-32 32-32h224c17.6 0 32 14.4 32 32s-14.4 32-32 32z" fill="#0FD05D" p-id="8574"></path><path d="M800 960H224c-52.8 0-96-43.2-96-96V224c0-52.8 43.2-96 96-96 17.6 0 32 14.4 32 32s-14.4 32-32 32-32 14.4-32 32v640c0 17.6 14.4 32 32 32h576c17.6 0 32-14.4 32-32V224c0-17.6-14.4-32-32-32s-32-14.4-32-32 14.4-32 32-32c52.8 0 96 43.2 96 96v640c0 52.8-43.2 96-96 96z" fill="#0FD05D" p-id="8575"></path><path d="M608 256H416c-52.8 0-96-43.2-96-96s43.2-96 96-96h192c52.8 0 96 43.2 96 96s-43.2 96-96 96zM416 128c-17.6 0-32 14.4-32 32s14.4 32 32 32h192c17.6 0 32-14.4 32-32s-14.4-32-32-32H416z" fill="#0FD05D" p-id="8576"></path></svg>