<svg width="24" height="24" viewBox="0 0 24 24" fill="none" xmlns="http://www.w3.org/2000/svg">
<path d="M14.9922 0C15.9001 1.07478 16.9853 1.9513 18.227 2.6087C19.5001 3.28696 20.8774 3.68348 22.3174 3.81913L22.234 4.74783C20.6688 4.61217 19.1766 4.16348 17.7992 3.43304C17.6009 3.3287 17.4131 3.22435 17.2253 3.10957C16.8392 3.50609 16.4948 3.93391 16.1922 4.39304C17.9766 5.28 19.4583 6.67826 20.4705 8.47304C21.8166 10.8522 22.1609 13.6278 21.4514 16.2887C20.7418 18.9496 19.0514 21.193 16.7035 22.5809C15.1174 23.52 13.354 24 11.5801 24C10.714 24 9.84788 23.8852 9.00267 23.6557C6.38353 22.9565 4.20266 21.2661 2.85658 18.8765C1.50006 16.5078 1.14527 13.7322 1.86527 11.0609C2.57484 8.4 4.26527 6.15652 6.6131 4.7687C8.97136 3.37043 11.7053 2.99478 14.3244 3.68348C14.6688 3.77739 14.9922 3.88174 15.3157 4.00696C15.6392 3.49565 16.0148 3.01565 16.4218 2.57739C15.6288 2.01391 14.9088 1.34609 14.2722 0.594783L14.9922 0ZM11.747 4.27826C10.1296 4.27826 8.5331 4.71652 7.0931 5.57217C4.94353 6.83478 3.40962 8.88 2.76266 11.3009C2.11571 13.7217 2.42875 16.2574 3.64962 18.4278C4.87049 20.5878 6.8531 22.1322 9.2218 22.7583C9.99397 22.967 10.7766 23.0713 11.5592 23.0713C13.1766 23.0713 14.7731 22.633 16.2131 21.7774C18.3522 20.5043 19.8861 18.4696 20.5435 16.0487C21.2009 13.6278 20.8774 11.0922 19.6566 8.92174C18.4357 6.76174 16.4531 5.21739 14.0844 4.5913C13.3122 4.38261 12.5192 4.27826 11.747 4.27826ZM11.1522 5.06087C14.794 8.4313 17.1522 12.9287 17.8409 17.8852C17.914 18.3965 17.9661 18.9704 18.0079 19.5548C17.7261 19.8783 17.434 20.1704 17.1209 20.4417C17.1001 19.607 17.027 18.7409 16.9331 18.0104C16.307 13.4817 14.2201 9.34956 10.9957 6.18783C12.8844 9.00522 14.0844 12.2296 14.4809 15.6417C14.7418 17.8122 14.6688 19.9722 14.2722 22.08C13.7088 22.2783 13.114 22.4139 12.5192 22.487C12.5296 22.2783 12.5296 22.0696 12.5296 21.8713C12.5296 21.5791 12.5192 21.287 12.5088 21.0052C12.1748 21.0365 11.8305 21.0574 11.4966 21.0574C11.1105 21.0574 10.7348 21.0365 10.3592 20.9948C10.3905 20.6817 10.4218 20.3791 10.4322 20.0661C11.1001 20.1496 11.7783 20.1496 12.4461 20.0765C12.2479 17.7391 11.6531 15.4852 10.6827 13.3357C9.68093 11.1652 8.33484 9.20348 6.66527 7.49217C8.74179 10.873 9.82701 14.7235 9.82701 18.7304C9.82701 19.9409 9.72267 21.1409 9.5244 22.3304C9.4618 22.32 9.38875 22.2991 9.32614 22.2783C9.08614 22.2157 8.85658 22.1426 8.62701 22.0591C8.70006 21.6104 8.76266 21.1513 8.8044 20.6922C8.18875 20.5148 7.59397 20.2852 7.02006 20.0035C7.04093 19.6591 7.05136 19.3148 7.05136 18.9704C7.62527 19.2939 8.23049 19.5548 8.86701 19.7426C8.88788 19.4087 8.88788 19.0643 8.88788 18.7304C8.88788 14.7443 7.76093 10.9043 5.61136 7.58609C6.02875 7.17913 6.47745 6.80348 6.95745 6.49043C8.86701 8.35826 10.4009 10.5287 11.507 12.9704C12.7174 15.6313 13.3644 18.4696 13.427 21.4122C13.7192 19.5548 13.7609 17.6661 13.5314 15.767C13.0827 11.9583 11.6009 8.4 9.24266 5.41565C9.86875 5.21739 10.5053 5.10261 11.1522 5.06087ZM4.31745 9.44348C4.9331 10.7478 5.4131 12.1043 5.74701 13.5026C6.15397 15.193 6.36266 16.9357 6.36266 18.6887C6.36266 19.3357 6.33136 19.9826 6.27919 20.6296C5.97658 20.3791 5.6844 20.0974 5.42353 19.8052C5.4444 19.4296 5.45484 19.0643 5.45484 18.6887C5.45484 15.8817 4.88093 13.0852 3.79571 10.5287C3.95223 10.153 4.12962 9.78783 4.31745 9.44348ZM17.9035 8.93217C18.7383 10.2052 19.2914 11.6765 19.5001 13.1896L18.5818 13.3148C18.394 11.9374 17.8931 10.5913 17.1314 9.44348L17.9035 8.93217ZM15.9627 6.7513C16.4009 7.11652 16.8079 7.52348 17.1835 7.96174L16.474 8.55652C16.1401 8.16 15.7644 7.78435 15.3679 7.46087L15.9627 6.7513Z" fill="#0FD05D"/>
</svg>
