<svg width="200" height="200" viewBox="0 0 200 200" fill="none" xmlns="http://www.w3.org/2000/svg">
  <rect x="35" y="35" width="130" height="130" rx="10" stroke="#0FD05D" stroke-width="3"/>
  <rect x="50" y="50" width="40" height="40" rx="5" fill="#0FD05D" opacity="0.1" stroke="#0FD05D" stroke-width="3"/>
  <rect x="110" y="50" width="40" height="40" rx="5" fill="#0FD05D" opacity="0.1" stroke="#0FD05D" stroke-width="3"/>
  <rect x="50" y="110" width="40" height="40" rx="5" fill="#0FD05D" opacity="0.1" stroke="#0FD05D" stroke-width="3"/>
  <rect x="110" y="110" width="40" height="40" rx="5" fill="#0FD05D" opacity="0.1" stroke="#0FD05D" stroke-width="3"/>
  <path d="M95 50V150" stroke="#0FD05D" stroke-width="3" stroke-dasharray="6 6"/>
  <path d="M50 95H150" stroke="#0FD05D" stroke-width="3" stroke-dasharray="6 6"/>
  <circle cx="70" cy="70" r="10" stroke="#0FD05D" stroke-width="2"/>
  <path d="M65 70L68 73L75 66" stroke="#0FD05D" stroke-width="2" stroke-linecap="round" stroke-linejoin="round"/>
  <circle cx="130" cy="70" r="10" stroke="#0FD05D" stroke-width="2"/>
  <path d="M125 70L128 73L135 66" stroke="#0FD05D" stroke-width="2" stroke-linecap="round" stroke-linejoin="round"/>
  <circle cx="70" cy="130" r="10" stroke="#0FD05D" stroke-width="2"/>
  <path d="M65 130L68 133L75 126" stroke="#0FD05D" stroke-width="2" stroke-linecap="round" stroke-linejoin="round"/>
  <circle cx="130" cy="130" r="10" stroke="#0FD05D" stroke-width="2"/>
  <path d="M125 130L128 133L135 126" stroke="#0FD05D" stroke-width="2" stroke-linecap="round" stroke-linejoin="round"/>
</svg> 