<svg xmlns="http://www.w3.org/2000/svg" version="1.1" xmlns:xlink="http://www.w3.org/1999/xlink" width="400" height="400"><svg xmlns="http://www.w3.org/2000/svg" version="1.1" xmlns:xlink="http://www.w3.org/1999/xlink" width="400" height="400"><svg width="400" height="400" viewBox="0 0 400 400" fill="none" xmlns="http://www.w3.org/2000/svg">
<path d="M328.658 200.689H290.338C291.388 260.169 294.958 265.429 280.418 281.939C263.188 293.639 249.938 292.979 199.968 290.819V332.309C237.448 331.799 262.778 333.849 291.068 340.319C316.028 347.449 338.338 351.939 344.438 345.619C350.758 339.519 346.248 326.979 340.008 301.739C332.548 270.299 328.138 241.169 328.648 203.689" fill="#76B900"></path>
<path d="M70.8282 199.949H109.148C108.098 140.469 104.528 135.209 119.068 118.699C136.298 106.999 149.548 107.659 199.518 109.819V68.3293C162.038 68.8393 136.708 66.7893 108.418 60.3193C83.4582 53.1893 61.1482 48.6993 55.0482 55.0193C48.7282 61.1193 53.2382 73.6593 59.4782 98.8993C66.9382 130.339 71.3482 159.469 70.8382 196.949" fill="#76B900"></path>
<path d="M317.529 194.859C306.919 194.859 298.789 194.909 289.829 194.859C289.079 157.129 292.639 129.839 280.489 118.729C269.379 106.589 242.619 110.159 204.889 109.409V81.5793C234.669 81.3393 264.069 77.7293 283.719 75.4393C303.659 73.1493 315.669 72.3393 321.199 78.0193C326.879 83.5493 326.079 95.5693 323.789 115.499C321.499 135.139 317.729 162.699 317.499 192.489" fill="#04345C"></path>
<path d="M81.6183 205.949C92.2283 205.949 100.358 205.899 109.318 205.949C110.068 243.679 106.508 270.949 118.658 282.059C129.768 294.199 156.528 290.629 194.258 291.379V319.209C164.478 319.449 135.078 323.059 115.428 325.349C95.4883 327.639 83.4783 328.449 77.9483 322.769C72.2683 317.239 73.0684 305.219 75.3584 285.289C77.6484 265.649 81.4183 238.089 81.6483 208.299" fill="#04345C"></path>
<path fill-rule="evenodd" clip-rule="evenodd" d="M235.668 225.509C235.668 230.809 231.378 235.099 226.078 235.099H173.868C168.568 235.099 164.278 230.809 164.278 225.509V173.299C164.278 167.999 168.568 163.709 173.868 163.709H226.078C231.368 163.709 235.668 167.999 235.668 173.299V225.509Z" fill="#76B900"></path>
</svg></svg><style>@media (prefers-color-scheme: light) { :root { filter: none; } }
@media (prefers-color-scheme: dark) { :root { filter: none; } }
</style></svg>