<svg width="768" height="151" viewBox="0 0 768 151" fill="none" xmlns="http://www.w3.org/2000/svg">
<path d="M63.312 102.588H71.124C70.874 105.567 70.041 108.223 68.624 110.556C67.208 112.869 65.218 114.692 62.656 116.025C60.093 117.358 56.979 118.025 53.312 118.025C50.5 118.025 47.968 117.525 45.718 116.525C43.468 115.504 41.541 114.067 39.937 112.212C38.333 110.338 37.104 108.077 36.25 105.431C35.416 102.785 35 99.827 35 96.556V92.775C35 89.504 35.427 86.546 36.281 83.9C37.156 81.254 38.406 78.994 40.031 77.119C41.656 75.223 43.604 73.775 45.874 72.775C48.166 71.775 50.739 71.275 53.593 71.275C57.218 71.275 60.281 71.942 62.781 73.275C65.281 74.608 67.218 76.452 68.593 78.806C69.989 81.16 70.843 83.858 71.156 86.9H63.343C63.135 84.942 62.677 83.265 61.968 81.869C61.281 80.473 60.26 79.41 58.906 78.681C57.552 77.931 55.781 77.556 53.593 77.556C51.802 77.556 50.239 77.89 48.906 78.556C47.572 79.223 46.458 80.202 45.562 81.494C44.666 82.785 43.989 84.379 43.531 86.275C43.093 88.15 42.874 90.296 42.874 92.712V96.556C42.874 98.848 43.072 100.931 43.468 102.806C43.885 104.66 44.51 106.254 45.343 107.588C46.197 108.921 47.281 109.952 48.593 110.681C49.906 111.41 51.479 111.775 53.312 111.775C55.541 111.775 57.343 111.421 58.718 110.712C60.114 110.004 61.166 108.973 61.874 107.619C62.604 106.244 63.083 104.567 63.312 102.588ZM85.062 90.025V117.4H77.531V83.588H84.718L85.062 90.025ZM95.406 83.369L95.343 90.369C94.885 90.285 94.385 90.223 93.843 90.181C93.322 90.14 92.802 90.119 92.281 90.119C90.989 90.119 89.854 90.306 88.874 90.681C87.895 91.035 87.072 91.556 86.406 92.244C85.76 92.91 85.26 93.723 84.906 94.681C84.552 95.64 84.343 96.712 84.281 97.9L82.562 98.025C82.562 95.9 82.77 93.931 83.187 92.119C83.604 90.306 84.229 88.712 85.062 87.338C85.916 85.962 86.979 84.89 88.25 84.119C89.541 83.348 91.031 82.962 92.718 82.962C93.177 82.962 93.666 83.004 94.187 83.088C94.729 83.171 95.135 83.265 95.406 83.369ZM114.406 118.025C111.906 118.025 109.645 117.619 107.624 116.806C105.624 115.973 103.916 114.817 102.5 113.338C101.104 111.858 100.031 110.119 99.281 108.119C98.531 106.119 98.156 103.962 98.156 101.65V100.4C98.156 97.754 98.541 95.358 99.312 93.212C100.083 91.067 101.156 89.233 102.531 87.712C103.906 86.171 105.531 84.994 107.406 84.181C109.281 83.369 111.312 82.962 113.5 82.962C115.916 82.962 118.031 83.369 119.843 84.181C121.656 84.994 123.156 86.14 124.343 87.619C125.552 89.077 126.447 90.817 127.031 92.838C127.635 94.858 127.937 97.088 127.937 99.525V102.744H101.812V97.338H120.5V96.744C120.458 95.39 120.187 94.119 119.687 92.931C119.208 91.744 118.468 90.785 117.468 90.056C116.468 89.327 115.135 88.962 113.468 88.962C112.218 88.962 111.104 89.233 110.124 89.775C109.166 90.296 108.364 91.056 107.718 92.056C107.072 93.056 106.572 94.265 106.218 95.681C105.885 97.077 105.718 98.65 105.718 100.4V101.65C105.718 103.129 105.916 104.504 106.312 105.775C106.729 107.025 107.333 108.119 108.124 109.056C108.916 109.994 109.874 110.733 111 111.275C112.124 111.796 113.406 112.056 114.843 112.056C116.656 112.056 118.27 111.692 119.687 110.962C121.104 110.233 122.333 109.202 123.374 107.869L127.343 111.712C126.614 112.775 125.666 113.796 124.5 114.775C123.333 115.733 121.906 116.515 120.218 117.119C118.552 117.723 116.614 118.025 114.406 118.025ZM152.874 110.619V94.494C152.874 93.285 152.656 92.244 152.218 91.369C151.781 90.494 151.114 89.817 150.218 89.338C149.343 88.858 148.239 88.619 146.906 88.619C145.677 88.619 144.614 88.827 143.718 89.244C142.822 89.66 142.124 90.223 141.624 90.931C141.124 91.64 140.874 92.442 140.874 93.338H133.374C133.374 92.004 133.697 90.712 134.343 89.462C134.989 88.212 135.927 87.098 137.156 86.119C138.385 85.14 139.854 84.369 141.562 83.806C143.27 83.244 145.187 82.962 147.312 82.962C149.854 82.962 152.104 83.39 154.062 84.244C156.041 85.098 157.593 86.39 158.718 88.119C159.864 89.827 160.437 91.973 160.437 94.556V109.588C160.437 111.129 160.541 112.515 160.75 113.744C160.979 114.952 161.302 116.004 161.718 116.9V117.4H154C153.645 116.588 153.364 115.556 153.156 114.306C152.968 113.035 152.874 111.806 152.874 110.619ZM153.968 96.838L154.031 101.494H148.624C147.229 101.494 146 101.629 144.937 101.9C143.874 102.15 142.989 102.525 142.281 103.025C141.572 103.525 141.041 104.129 140.687 104.838C140.333 105.546 140.156 106.348 140.156 107.244C140.156 108.14 140.364 108.962 140.781 109.712C141.197 110.442 141.802 111.015 142.593 111.431C143.406 111.848 144.385 112.056 145.531 112.056C147.072 112.056 148.416 111.744 149.562 111.119C150.729 110.473 151.645 109.692 152.312 108.775C152.979 107.838 153.333 106.952 153.374 106.119L155.812 109.462C155.562 110.317 155.135 111.233 154.531 112.212C153.927 113.192 153.135 114.129 152.156 115.025C151.197 115.9 150.041 116.619 148.687 117.181C147.354 117.744 145.812 118.025 144.062 118.025C141.854 118.025 139.885 117.588 138.156 116.712C136.427 115.817 135.072 114.619 134.093 113.119C133.114 111.598 132.624 109.879 132.624 107.962C132.624 106.171 132.958 104.588 133.624 103.212C134.312 101.817 135.312 100.65 136.624 99.712C137.958 98.775 139.583 98.067 141.5 97.588C143.416 97.088 145.604 96.838 148.062 96.838H153.968ZM183.812 83.588V89.088H164.75V83.588H183.812ZM170.25 75.306H177.781V108.056C177.781 109.098 177.927 109.9 178.218 110.462C178.531 111.004 178.958 111.369 179.5 111.556C180.041 111.744 180.677 111.838 181.406 111.838C181.927 111.838 182.427 111.806 182.906 111.744C183.385 111.681 183.77 111.619 184.062 111.556L184.093 117.306C183.468 117.494 182.739 117.66 181.906 117.806C181.093 117.952 180.156 118.025 179.093 118.025C177.364 118.025 175.833 117.723 174.5 117.119C173.166 116.494 172.124 115.483 171.374 114.088C170.624 112.692 170.25 110.838 170.25 108.525V75.306ZM187.437 100.869V100.15C187.437 97.712 187.791 95.452 188.5 93.369C189.208 91.265 190.229 89.442 191.562 87.9C192.916 86.338 194.562 85.129 196.5 84.275C198.458 83.4 200.666 82.962 203.124 82.962C205.604 82.962 207.812 83.4 209.75 84.275C211.708 85.129 213.364 86.338 214.718 87.9C216.072 89.442 217.104 91.265 217.812 93.369C218.52 95.452 218.874 97.712 218.874 100.15V100.869C218.874 103.306 218.52 105.567 217.812 107.65C217.104 109.733 216.072 111.556 214.718 113.119C213.364 114.66 211.718 115.869 209.781 116.744C207.843 117.598 205.645 118.025 203.187 118.025C200.708 118.025 198.489 117.598 196.531 116.744C194.593 115.869 192.947 114.66 191.593 113.119C190.239 111.556 189.208 109.733 188.5 107.65C187.791 105.567 187.437 103.306 187.437 100.869ZM194.968 100.15V100.869C194.968 102.39 195.124 103.827 195.437 105.181C195.75 106.535 196.239 107.723 196.906 108.744C197.572 109.765 198.427 110.567 199.468 111.15C200.51 111.733 201.75 112.025 203.187 112.025C204.583 112.025 205.791 111.733 206.812 111.15C207.854 110.567 208.708 109.765 209.374 108.744C210.041 107.723 210.531 106.535 210.843 105.181C211.177 103.827 211.343 102.39 211.343 100.869V100.15C211.343 98.65 211.177 97.233 210.843 95.9C210.531 94.546 210.031 93.348 209.343 92.306C208.677 91.265 207.822 90.452 206.781 89.869C205.76 89.265 204.541 88.962 203.124 88.962C201.708 88.962 200.479 89.265 199.437 89.869C198.416 90.452 197.572 91.265 196.906 92.306C196.239 93.348 195.75 94.546 195.437 95.9C195.124 97.233 194.968 98.65 194.968 100.15ZM232.75 90.025V117.4H225.218V83.588H232.406L232.75 90.025ZM243.093 83.369L243.031 90.369C242.572 90.285 242.072 90.223 241.531 90.181C241.01 90.14 240.489 90.119 239.968 90.119C238.677 90.119 237.541 90.306 236.562 90.681C235.583 91.035 234.76 91.556 234.093 92.244C233.447 92.91 232.947 93.723 232.593 94.681C232.239 95.64 232.031 96.712 231.968 97.9L230.25 98.025C230.25 95.9 230.458 93.931 230.874 92.119C231.291 90.306 231.916 88.712 232.75 87.338C233.604 85.962 234.666 84.89 235.937 84.119C237.229 83.348 238.718 82.962 240.406 82.962C240.864 82.962 241.354 83.004 241.874 83.088C242.416 83.171 242.822 83.265 243.093 83.369ZM266.781 108.244C266.781 107.494 266.593 106.817 266.218 106.212C265.843 105.588 265.124 105.025 264.062 104.525C263.02 104.025 261.479 103.567 259.437 103.15C257.645 102.754 256 102.285 254.5 101.744C253.02 101.181 251.75 100.504 250.687 99.712C249.624 98.921 248.802 97.983 248.218 96.9C247.635 95.817 247.343 94.567 247.343 93.15C247.343 91.775 247.645 90.473 248.25 89.244C248.854 88.015 249.718 86.931 250.843 85.994C251.968 85.056 253.333 84.317 254.937 83.775C256.562 83.233 258.374 82.962 260.374 82.962C263.208 82.962 265.635 83.442 267.656 84.4C269.697 85.338 271.26 86.619 272.343 88.244C273.427 89.848 273.968 91.66 273.968 93.681H266.437C266.437 92.785 266.208 91.952 265.75 91.181C265.312 90.39 264.645 89.754 263.75 89.275C262.854 88.775 261.729 88.525 260.374 88.525C259.083 88.525 258.01 88.733 257.156 89.15C256.322 89.546 255.697 90.067 255.281 90.712C254.885 91.358 254.687 92.067 254.687 92.838C254.687 93.4 254.791 93.91 255 94.369C255.229 94.806 255.604 95.212 256.124 95.588C256.645 95.942 257.354 96.275 258.25 96.588C259.166 96.9 260.312 97.202 261.687 97.494C264.27 98.035 266.489 98.733 268.343 99.588C270.218 100.421 271.656 101.504 272.656 102.838C273.656 104.15 274.156 105.817 274.156 107.838C274.156 109.338 273.833 110.712 273.187 111.962C272.562 113.192 271.645 114.265 270.437 115.181C269.229 116.077 267.781 116.775 266.093 117.275C264.427 117.775 262.552 118.025 260.468 118.025C257.406 118.025 254.812 117.483 252.687 116.4C250.562 115.296 248.947 113.89 247.843 112.181C246.76 110.452 246.218 108.66 246.218 106.806H253.5C253.583 108.202 253.968 109.317 254.656 110.15C255.364 110.962 256.239 111.556 257.281 111.931C258.343 112.285 259.437 112.462 260.562 112.462C261.916 112.462 263.052 112.285 263.968 111.931C264.885 111.556 265.583 111.056 266.062 110.431C266.541 109.785 266.781 109.056 266.781 108.244ZM311.187 100.869V100.15C311.187 97.712 311.541 95.452 312.25 93.369C312.958 91.265 313.979 89.442 315.312 87.9C316.666 86.338 318.312 85.129 320.25 84.275C322.208 83.4 324.416 82.962 326.874 82.962C329.354 82.962 331.562 83.4 333.5 84.275C335.458 85.129 337.114 86.338 338.468 87.9C339.822 89.442 340.854 91.265 341.562 93.369C342.27 95.452 342.624 97.712 342.624 100.15V100.869C342.624 103.306 342.27 105.567 341.562 107.65C340.854 109.733 339.822 111.556 338.468 113.119C337.114 114.66 335.468 115.869 333.531 116.744C331.593 117.598 329.395 118.025 326.937 118.025C324.458 118.025 322.239 117.598 320.281 116.744C318.343 115.869 316.697 114.66 315.343 113.119C313.989 111.556 312.958 109.733 312.25 107.65C311.541 105.567 311.187 103.306 311.187 100.869ZM318.718 100.15V100.869C318.718 102.39 318.874 103.827 319.187 105.181C319.5 106.535 319.989 107.723 320.656 108.744C321.322 109.765 322.177 110.567 323.218 111.15C324.26 111.733 325.5 112.025 326.937 112.025C328.333 112.025 329.541 111.733 330.562 111.15C331.604 110.567 332.458 109.765 333.124 108.744C333.791 107.723 334.281 106.535 334.593 105.181C334.927 103.827 335.093 102.39 335.093 100.869V100.15C335.093 98.65 334.927 97.233 334.593 95.9C334.281 94.546 333.781 93.348 333.093 92.306C332.427 91.265 331.572 90.452 330.531 89.869C329.51 89.265 328.291 88.962 326.874 88.962C325.458 88.962 324.229 89.265 323.187 89.869C322.166 90.452 321.322 91.265 320.656 92.306C319.989 93.348 319.5 94.546 319.187 95.9C318.874 97.233 318.718 98.65 318.718 100.15ZM359.124 117.4H351.593V80.338C351.593 77.817 352.062 75.702 353 73.994C353.958 72.265 355.322 70.962 357.093 70.088C358.864 69.192 360.958 68.744 363.374 68.744C364.124 68.744 364.864 68.796 365.593 68.9C366.322 68.983 367.031 69.119 367.718 69.306L367.531 75.119C367.114 75.015 366.656 74.942 366.156 74.9C365.677 74.858 365.156 74.838 364.593 74.838C363.447 74.838 362.458 75.056 361.624 75.494C360.812 75.91 360.187 76.525 359.75 77.338C359.333 78.15 359.124 79.15 359.124 80.338V117.4ZM366.093 83.588V89.088H346.406V83.588H366.093Z" fill="#04345C"/>
<path d="M585.052 57.5759L583.862 94.7139L584.872 116.888H572.822L573.822 96.1739L573.642 91.6119H550.552L550.452 94.7139L551.462 116.888H539.412L540.412 96.1739L539.412 59.6739L551.642 57.5759L550.822 82.5779H573.462L572.822 59.6739L585.052 57.5759ZM634.702 117.801L630.502 101.011H609.782L605.222 117.344L594.182 116.523L601.752 95.6269L613.342 58.6709L628.772 57.5759L639.912 94.3489L647.122 115.884L634.702 117.801ZM621.012 68.7079H619.922L612.522 91.8859H627.862L621.012 68.7079ZM682.172 91.3379H683.082L695.952 58.0319L708.092 58.3969L708.452 96.0829L710.102 118.713H698.232L698.692 95.9009L697.682 72.8139L687.102 101.832L676.322 102.379L666.472 72.8139L665.652 95.9009L666.282 118.713H655.332L656.612 97.3609L657.162 59.7659L671.122 57.5759L682.172 91.3379ZM732.002 74.0009L730.912 95.9009L731.912 116.523L720.142 118.713L721.232 97.3609L720.232 76.1909L732.002 74.0009Z" fill="#1B1C1D"/>
<path d="M718.312 61.682C718.312 59.674 719.132 57.849 720.782 56.298C722.422 54.747 724.242 53.926 726.442 53.926C728.632 53.926 730.182 54.473 731.272 55.568C732.372 56.663 732.922 58.306 732.922 60.496C732.922 62.686 732.092 64.602 730.542 66.153C728.992 67.704 727.072 68.526 724.982 68.526C722.882 68.526 721.232 67.887 720.052 66.609C718.862 65.332 718.312 63.598 718.312 61.682Z" fill="#0FD05D"/>
<path d="M477.344 18C481.726 23.201 487.02 27.49 493.042 30.684C499.252 33.969 505.912 35.976 512.942 36.524L512.582 40.995C505.002 40.356 497.702 38.166 490.945 34.607C490.032 34.151 489.028 33.604 488.115 33.056C486.289 34.972 484.555 37.071 483.095 39.352C491.766 43.641 498.972 50.485 503.902 59.154C510.482 70.742 512.122 84.247 508.652 97.205C505.182 110.162 496.972 121.021 485.559 127.865C477.801 132.427 469.221 134.8 460.641 134.8C456.442 134.8 452.243 134.252 448.045 133.157C435.266 129.781 424.678 121.477 418.106 109.889C411.625 98.3 409.891 84.795 413.359 71.837C416.828 58.88 425.043 48.021 436.452 41.177C447.953 34.425 461.28 32.6 474.058 35.976C475.701 36.432 477.344 36.98 478.896 37.527C480.448 35.064 482.273 32.691 484.281 30.592C480.448 27.855 476.888 24.57 473.876 20.92L477.344 18ZM461.462 38.805C453.612 38.805 445.854 40.904 438.826 45.101C428.42 51.306 420.935 61.161 417.741 73.024C414.546 84.886 416.098 97.114 422.031 107.699C427.964 118.192 437.639 125.675 449.14 128.777C452.882 129.781 456.716 130.237 460.549 130.237C468.399 130.237 476.158 128.139 483.186 123.941C493.592 117.736 501.072 107.881 504.272 96.019C507.462 84.156 505.912 71.929 499.982 61.344C494.052 50.85 484.373 43.367 472.872 40.265C469.129 39.352 465.296 38.805 461.462 38.805ZM458.633 42.637C476.34 59.062 487.841 80.871 491.218 105.052C491.583 107.516 491.862 110.345 492.042 113.174C490.671 114.725 489.21 116.185 487.75 117.462C487.659 113.356 487.293 109.159 486.837 105.691C483.642 83.609 473.511 63.534 457.811 48.112C467.03 61.8 472.781 77.495 474.789 94.194C476.066 104.779 475.701 115.272 473.785 125.584C471.046 126.587 468.125 127.226 465.205 127.591C465.205 126.587 465.205 125.584 465.205 124.58C465.205 123.211 465.205 121.751 465.113 120.382C463.47 120.565 461.827 120.656 460.184 120.656C458.359 120.656 456.442 120.565 454.616 120.291C454.799 118.831 454.89 117.28 454.982 115.82C458.268 116.185 461.553 116.276 464.839 115.911C463.835 104.505 461.006 93.555 456.259 83.152C451.422 72.385 444.941 62.804 436.818 54.5C446.949 70.925 452.243 89.722 452.243 109.159C452.243 114.999 451.787 120.93 450.783 126.679C450.418 126.587 450.144 126.496 449.779 126.405C448.592 126.131 447.497 125.766 446.402 125.31C446.767 123.12 447.041 120.93 447.223 118.649C444.211 117.827 441.29 116.641 438.552 115.272C438.643 113.63 438.734 111.896 438.734 110.254C441.473 111.805 444.485 113.082 447.588 113.995C447.679 112.352 447.679 110.71 447.679 109.067C447.679 89.631 442.203 71.016 431.706 54.774C433.714 52.766 435.905 50.941 438.278 49.39C447.588 58.515 455.073 69.1 460.458 80.962C466.391 93.92 469.495 107.699 469.86 122.025C471.32 112.991 471.503 103.775 470.407 94.559C468.125 76.126 460.915 58.789 449.414 44.28C452.335 43.367 455.438 42.82 458.633 42.637ZM425.317 63.99C428.329 70.286 430.611 76.947 432.254 83.791C434.262 92.004 435.266 100.49 435.266 108.976C435.266 112.079 435.083 115.272 434.809 118.375C433.349 117.097 431.889 115.82 430.611 114.36C430.702 112.535 430.793 110.71 430.793 108.885C430.793 95.197 428.055 81.601 422.761 69.191C423.582 67.366 424.404 65.632 425.317 63.99ZM491.492 61.435C495.602 67.64 498.242 74.757 499.252 82.149L494.782 82.787C493.862 76.035 491.401 69.556 487.75 63.899L491.492 61.435ZM482.091 50.85C484.19 52.675 486.198 54.591 488.024 56.781L484.555 59.701C482.912 57.785 481.087 55.96 479.17 54.317L482.091 50.85Z" fill="#0FD05D"/>
</svg>
