<svg width="698" height="117" viewBox="0 0 698 117" fill="none" xmlns="http://www.w3.org/2000/svg">
<path d="M28.312 84.588H36.124C35.874 87.567 35.041 90.223 33.624 92.556C32.208 94.869 30.218 96.692 27.656 98.025C25.093 99.358 21.979 100.025 18.312 100.025C15.5 100.025 12.968 99.525 10.718 98.525C8.46802 97.504 6.54101 96.067 4.93701 94.212C3.33301 92.338 2.104 90.077 1.25 87.431C0.416 84.785 0 81.827 0 78.556V74.775C0 71.504 0.427006 68.546 1.28101 65.9C2.15601 63.254 3.40601 60.994 5.03101 59.119C6.65601 57.223 8.60402 55.775 10.874 54.775C13.166 53.775 15.739 53.275 18.593 53.275C22.218 53.275 25.281 53.942 27.781 55.275C30.281 56.608 32.218 58.452 33.593 60.806C34.989 63.16 35.843 65.858 36.156 68.9H28.343C28.135 66.942 27.677 65.265 26.968 63.869C26.281 62.473 25.26 61.41 23.906 60.681C22.552 59.931 20.781 59.556 18.593 59.556C16.802 59.556 15.239 59.89 13.906 60.556C12.572 61.223 11.458 62.202 10.562 63.494C9.66601 64.785 8.98901 66.379 8.53101 68.275C8.09301 70.15 7.87402 72.296 7.87402 74.712V78.556C7.87402 80.848 8.07202 82.931 8.46802 84.806C8.88502 86.66 9.51002 88.254 10.343 89.588C11.197 90.921 12.281 91.952 13.593 92.681C14.906 93.41 16.479 93.775 18.312 93.775C20.541 93.775 22.343 93.421 23.718 92.712C25.114 92.004 26.166 90.973 26.874 89.619C27.604 88.244 28.083 86.567 28.312 84.588ZM50.062 72.025V99.4H42.531V65.588H49.718L50.062 72.025ZM60.406 65.369L60.343 72.369C59.885 72.285 59.385 72.223 58.843 72.181C58.322 72.14 57.802 72.119 57.281 72.119C55.989 72.119 54.854 72.306 53.874 72.681C52.895 73.035 52.072 73.556 51.406 74.244C50.76 74.91 50.26 75.723 49.906 76.681C49.552 77.64 49.343 78.712 49.281 79.9L47.562 80.025C47.562 77.9 47.77 75.931 48.187 74.119C48.604 72.306 49.229 70.712 50.062 69.338C50.916 67.962 51.979 66.89 53.25 66.119C54.541 65.348 56.031 64.962 57.718 64.962C58.177 64.962 58.666 65.004 59.187 65.088C59.729 65.171 60.135 65.265 60.406 65.369ZM79.406 100.025C76.906 100.025 74.645 99.619 72.624 98.806C70.624 97.973 68.916 96.817 67.5 95.338C66.104 93.858 65.031 92.119 64.281 90.119C63.531 88.119 63.156 85.962 63.156 83.65V82.4C63.156 79.754 63.541 77.358 64.312 75.212C65.083 73.067 66.156 71.233 67.531 69.712C68.906 68.171 70.531 66.994 72.406 66.181C74.281 65.369 76.312 64.962 78.5 64.962C80.916 64.962 83.031 65.369 84.843 66.181C86.656 66.994 88.156 68.14 89.343 69.619C90.552 71.077 91.447 72.817 92.031 74.838C92.635 76.858 92.937 79.088 92.937 81.525V84.744H66.812V79.338H85.5V78.744C85.458 77.39 85.187 76.119 84.687 74.931C84.208 73.744 83.468 72.785 82.468 72.056C81.468 71.327 80.135 70.962 78.468 70.962C77.218 70.962 76.104 71.233 75.124 71.775C74.166 72.296 73.364 73.056 72.718 74.056C72.072 75.056 71.572 76.265 71.218 77.681C70.885 79.077 70.718 80.65 70.718 82.4V83.65C70.718 85.129 70.916 86.504 71.312 87.775C71.729 89.025 72.333 90.119 73.124 91.056C73.916 91.994 74.874 92.733 76 93.275C77.124 93.796 78.406 94.056 79.843 94.056C81.656 94.056 83.27 93.692 84.687 92.962C86.104 92.233 87.333 91.202 88.374 89.869L92.343 93.712C91.614 94.775 90.666 95.796 89.5 96.775C88.333 97.733 86.906 98.515 85.218 99.119C83.552 99.723 81.614 100.025 79.406 100.025ZM117.874 92.619V76.494C117.874 75.285 117.656 74.244 117.218 73.369C116.781 72.494 116.114 71.817 115.218 71.338C114.343 70.858 113.239 70.619 111.906 70.619C110.677 70.619 109.614 70.827 108.718 71.244C107.822 71.66 107.124 72.223 106.624 72.931C106.124 73.64 105.874 74.442 105.874 75.338H98.374C98.374 74.004 98.697 72.712 99.343 71.462C99.989 70.212 100.927 69.098 102.156 68.119C103.385 67.14 104.854 66.369 106.562 65.806C108.27 65.244 110.187 64.962 112.312 64.962C114.854 64.962 117.104 65.39 119.062 66.244C121.041 67.098 122.593 68.39 123.718 70.119C124.864 71.827 125.437 73.973 125.437 76.556V91.588C125.437 93.129 125.541 94.515 125.75 95.744C125.979 96.952 126.302 98.004 126.718 98.9V99.4H119C118.645 98.588 118.364 97.556 118.156 96.306C117.968 95.035 117.874 93.806 117.874 92.619ZM118.968 78.838L119.031 83.494H113.624C112.229 83.494 111 83.629 109.937 83.9C108.874 84.15 107.989 84.525 107.281 85.025C106.572 85.525 106.041 86.129 105.687 86.838C105.333 87.546 105.156 88.348 105.156 89.244C105.156 90.14 105.364 90.962 105.781 91.712C106.197 92.442 106.802 93.015 107.593 93.431C108.406 93.848 109.385 94.056 110.531 94.056C112.072 94.056 113.416 93.744 114.562 93.119C115.729 92.473 116.645 91.692 117.312 90.775C117.979 89.838 118.333 88.952 118.374 88.119L120.812 91.462C120.562 92.317 120.135 93.233 119.531 94.212C118.927 95.192 118.135 96.129 117.156 97.025C116.197 97.9 115.041 98.619 113.687 99.181C112.354 99.744 110.812 100.025 109.062 100.025C106.854 100.025 104.885 99.588 103.156 98.712C101.427 97.817 100.072 96.619 99.093 95.119C98.114 93.598 97.624 91.879 97.624 89.962C97.624 88.171 97.958 86.588 98.624 85.212C99.312 83.817 100.312 82.65 101.624 81.712C102.958 80.775 104.583 80.067 106.5 79.588C108.416 79.088 110.604 78.838 113.062 78.838H118.968ZM148.812 65.588V71.088H129.75V65.588H148.812ZM135.25 57.306H142.781V90.056C142.781 91.098 142.927 91.9 143.218 92.462C143.531 93.004 143.958 93.369 144.5 93.556C145.041 93.744 145.677 93.838 146.406 93.838C146.927 93.838 147.427 93.806 147.906 93.744C148.385 93.681 148.77 93.619 149.062 93.556L149.093 99.306C148.468 99.494 147.739 99.66 146.906 99.806C146.093 99.952 145.156 100.025 144.093 100.025C142.364 100.025 140.833 99.723 139.5 99.119C138.166 98.494 137.124 97.483 136.374 96.088C135.624 94.692 135.25 92.838 135.25 90.525V57.306ZM152.437 82.869V82.15C152.437 79.712 152.791 77.452 153.5 75.369C154.208 73.265 155.229 71.442 156.562 69.9C157.916 68.338 159.562 67.129 161.5 66.275C163.458 65.4 165.666 64.962 168.124 64.962C170.604 64.962 172.812 65.4 174.75 66.275C176.708 67.129 178.364 68.338 179.718 69.9C181.072 71.442 182.104 73.265 182.812 75.369C183.52 77.452 183.874 79.712 183.874 82.15V82.869C183.874 85.306 183.52 87.567 182.812 89.65C182.104 91.733 181.072 93.556 179.718 95.119C178.364 96.66 176.718 97.869 174.781 98.744C172.843 99.598 170.645 100.025 168.187 100.025C165.708 100.025 163.489 99.598 161.531 98.744C159.593 97.869 157.947 96.66 156.593 95.119C155.239 93.556 154.208 91.733 153.5 89.65C152.791 87.567 152.437 85.306 152.437 82.869ZM159.968 82.15V82.869C159.968 84.39 160.124 85.827 160.437 87.181C160.75 88.535 161.239 89.723 161.906 90.744C162.572 91.765 163.427 92.567 164.468 93.15C165.51 93.733 166.75 94.025 168.187 94.025C169.583 94.025 170.791 93.733 171.812 93.15C172.854 92.567 173.708 91.765 174.374 90.744C175.041 89.723 175.531 88.535 175.843 87.181C176.177 85.827 176.343 84.39 176.343 82.869V82.15C176.343 80.65 176.177 79.233 175.843 77.9C175.531 76.546 175.031 75.348 174.343 74.306C173.677 73.265 172.822 72.452 171.781 71.869C170.76 71.265 169.541 70.962 168.124 70.962C166.708 70.962 165.479 71.265 164.437 71.869C163.416 72.452 162.572 73.265 161.906 74.306C161.239 75.348 160.75 76.546 160.437 77.9C160.124 79.233 159.968 80.65 159.968 82.15ZM197.75 72.025V99.4H190.218V65.588H197.406L197.75 72.025ZM208.093 65.369L208.031 72.369C207.572 72.285 207.072 72.223 206.531 72.181C206.01 72.14 205.489 72.119 204.968 72.119C203.677 72.119 202.541 72.306 201.562 72.681C200.583 73.035 199.76 73.556 199.093 74.244C198.447 74.91 197.947 75.723 197.593 76.681C197.239 77.64 197.031 78.712 196.968 79.9L195.25 80.025C195.25 77.9 195.458 75.931 195.874 74.119C196.291 72.306 196.916 70.712 197.75 69.338C198.604 67.962 199.666 66.89 200.937 66.119C202.229 65.348 203.718 64.962 205.406 64.962C205.864 64.962 206.354 65.004 206.874 65.088C207.416 65.171 207.822 65.265 208.093 65.369ZM231.781 90.244C231.781 89.494 231.593 88.817 231.218 88.212C230.843 87.588 230.124 87.025 229.062 86.525C228.02 86.025 226.479 85.567 224.437 85.15C222.645 84.754 221 84.285 219.5 83.744C218.02 83.181 216.75 82.504 215.687 81.712C214.624 80.921 213.802 79.983 213.218 78.9C212.635 77.817 212.343 76.567 212.343 75.15C212.343 73.775 212.645 72.473 213.25 71.244C213.854 70.015 214.718 68.931 215.843 67.994C216.968 67.056 218.333 66.317 219.937 65.775C221.562 65.233 223.374 64.962 225.374 64.962C228.208 64.962 230.635 65.442 232.656 66.4C234.697 67.338 236.26 68.619 237.343 70.244C238.427 71.848 238.968 73.66 238.968 75.681H231.437C231.437 74.785 231.208 73.952 230.75 73.181C230.312 72.39 229.645 71.754 228.75 71.275C227.854 70.775 226.729 70.525 225.374 70.525C224.083 70.525 223.01 70.733 222.156 71.15C221.322 71.546 220.697 72.067 220.281 72.712C219.885 73.358 219.687 74.067 219.687 74.838C219.687 75.4 219.791 75.91 220 76.369C220.229 76.806 220.604 77.212 221.124 77.588C221.645 77.942 222.354 78.275 223.25 78.588C224.166 78.9 225.312 79.202 226.687 79.494C229.27 80.035 231.489 80.733 233.343 81.588C235.218 82.421 236.656 83.504 237.656 84.838C238.656 86.15 239.156 87.817 239.156 89.838C239.156 91.338 238.833 92.712 238.187 93.962C237.562 95.192 236.645 96.265 235.437 97.181C234.229 98.077 232.781 98.775 231.093 99.275C229.427 99.775 227.552 100.025 225.468 100.025C222.406 100.025 219.812 99.483 217.687 98.4C215.562 97.296 213.947 95.89 212.843 94.181C211.76 92.452 211.218 90.66 211.218 88.806H218.5C218.583 90.202 218.968 91.317 219.656 92.15C220.364 92.962 221.239 93.556 222.281 93.931C223.343 94.285 224.437 94.462 225.562 94.462C226.916 94.462 228.052 94.285 228.968 93.931C229.885 93.556 230.583 93.056 231.062 92.431C231.541 91.785 231.781 91.056 231.781 90.244ZM276.187 82.869V82.15C276.187 79.712 276.541 77.452 277.25 75.369C277.958 73.265 278.979 71.442 280.312 69.9C281.666 68.338 283.312 67.129 285.25 66.275C287.208 65.4 289.416 64.962 291.874 64.962C294.354 64.962 296.562 65.4 298.5 66.275C300.458 67.129 302.114 68.338 303.468 69.9C304.822 71.442 305.854 73.265 306.562 75.369C307.27 77.452 307.624 79.712 307.624 82.15V82.869C307.624 85.306 307.27 87.567 306.562 89.65C305.854 91.733 304.822 93.556 303.468 95.119C302.114 96.66 300.468 97.869 298.531 98.744C296.593 99.598 294.395 100.025 291.937 100.025C289.458 100.025 287.239 99.598 285.281 98.744C283.343 97.869 281.697 96.66 280.343 95.119C278.989 93.556 277.958 91.733 277.25 89.65C276.541 87.567 276.187 85.306 276.187 82.869ZM283.718 82.15V82.869C283.718 84.39 283.874 85.827 284.187 87.181C284.5 88.535 284.989 89.723 285.656 90.744C286.322 91.765 287.177 92.567 288.218 93.15C289.26 93.733 290.5 94.025 291.937 94.025C293.333 94.025 294.541 93.733 295.562 93.15C296.604 92.567 297.458 91.765 298.124 90.744C298.791 89.723 299.281 88.535 299.593 87.181C299.927 85.827 300.093 84.39 300.093 82.869V82.15C300.093 80.65 299.927 79.233 299.593 77.9C299.281 76.546 298.781 75.348 298.093 74.306C297.427 73.265 296.572 72.452 295.531 71.869C294.51 71.265 293.291 70.962 291.874 70.962C290.458 70.962 289.229 71.265 288.187 71.869C287.166 72.452 286.322 73.265 285.656 74.306C284.989 75.348 284.5 76.546 284.187 77.9C283.874 79.233 283.718 80.65 283.718 82.15ZM324.124 99.4H316.593V62.338C316.593 59.817 317.062 57.702 318 55.994C318.958 54.265 320.322 52.962 322.093 52.088C323.864 51.192 325.958 50.744 328.374 50.744C329.124 50.744 329.864 50.796 330.593 50.9C331.322 50.983 332.031 51.119 332.718 51.306L332.531 57.119C332.114 57.015 331.656 56.942 331.156 56.9C330.677 56.858 330.156 56.838 329.593 56.838C328.447 56.838 327.458 57.056 326.624 57.494C325.812 57.91 325.187 58.525 324.75 59.338C324.333 60.15 324.124 61.15 324.124 62.338V99.4ZM331.093 65.588V71.088H311.406V65.588H331.093Z" fill="#04345C"/>
<path d="M550.052 39.5759L548.862 76.7139L549.872 98.8879H537.822L538.822 78.1739L538.642 73.6119H515.552L515.452 76.7139L516.462 98.8879H504.412L505.412 78.1739L504.412 41.6739L516.642 39.5759L515.822 64.5779H538.462L537.822 41.6739L550.052 39.5759ZM599.702 99.8009L595.502 83.0109H574.782L570.222 99.3439L559.182 98.5229L566.752 77.6269L578.342 40.6709L593.772 39.5759L604.912 76.3489L612.122 97.8839L599.702 99.8009ZM586.012 50.7079H584.922L577.522 73.8859H592.862L586.012 50.7079ZM647.172 73.3379H648.082L660.952 40.0319L673.092 40.3969L673.452 78.0829L675.102 100.713H663.232L663.692 77.9009L662.682 54.8139L652.102 83.8319L641.322 84.3789L631.472 54.8139L630.652 77.9009L631.282 100.713H620.332L621.612 79.3609L622.162 41.7659L636.122 39.5759L647.172 73.3379ZM697.002 56.0009L695.912 77.9009L696.912 98.5229L685.142 100.713L686.232 79.3609L685.232 58.1909L697.002 56.0009Z" fill="#1B1C1D"/>
<path d="M683.312 43.682C683.312 41.674 684.132 39.849 685.782 38.298C687.422 36.747 689.242 35.926 691.442 35.926C693.632 35.926 695.182 36.473 696.272 37.568C697.372 38.663 697.922 40.306 697.922 42.496C697.922 44.686 697.092 46.602 695.542 48.153C693.992 49.704 692.072 50.526 689.982 50.526C687.882 50.526 686.232 49.887 685.052 48.609C683.862 47.332 683.312 45.598 683.312 43.682Z" fill="#0FD05D"/>
<path d="M442.344 0C446.726 5.201 452.02 9.48999 458.042 12.684C464.252 15.969 470.912 17.976 477.942 18.524L477.582 22.995C470.002 22.356 462.702 20.166 455.945 16.607C455.032 16.151 454.028 15.604 453.115 15.056C451.289 16.972 449.555 19.071 448.095 21.352C456.766 25.641 463.972 32.485 468.902 41.154C475.482 52.742 477.122 66.247 473.652 79.205C470.182 92.162 461.972 103.021 450.559 109.865C442.801 114.427 434.221 116.8 425.641 116.8C421.442 116.8 417.243 116.252 413.045 115.157C400.266 111.781 389.678 103.477 383.106 91.889C376.625 80.3 374.891 66.795 378.359 53.837C381.828 40.88 390.043 30.021 401.452 23.177C412.953 16.425 426.28 14.6 439.058 17.976C440.701 18.432 442.344 18.98 443.896 19.527C445.448 17.064 447.273 14.691 449.281 12.592C445.448 9.855 441.888 6.57 438.876 2.92L442.344 0ZM426.462 20.805C418.612 20.805 410.854 22.904 403.826 27.101C393.42 33.306 385.935 43.161 382.741 55.024C379.546 66.886 381.098 79.114 387.031 89.699C392.964 100.192 402.639 107.675 414.14 110.777C417.882 111.781 421.716 112.237 425.549 112.237C433.399 112.237 441.158 110.139 448.186 105.941C458.592 99.736 466.072 89.881 469.272 78.019C472.462 66.156 470.912 53.929 464.982 43.344C459.052 32.85 449.373 25.367 437.872 22.265C434.129 21.352 430.296 20.805 426.462 20.805ZM423.633 24.637C441.34 41.062 452.841 62.871 456.218 87.052C456.583 89.516 456.862 92.345 457.042 95.174C455.671 96.725 454.21 98.185 452.75 99.462C452.659 95.356 452.293 91.159 451.837 87.691C448.642 65.609 438.511 45.534 422.811 30.112C432.03 43.8 437.781 59.495 439.789 76.194C441.066 86.779 440.701 97.272 438.785 107.584C436.046 108.587 433.125 109.226 430.205 109.591C430.205 108.587 430.205 107.584 430.205 106.58C430.205 105.211 430.205 103.751 430.113 102.382C428.47 102.565 426.827 102.656 425.184 102.656C423.359 102.656 421.442 102.565 419.616 102.291C419.799 100.831 419.89 99.28 419.982 97.82C423.268 98.185 426.553 98.276 429.839 97.911C428.835 86.505 426.006 75.555 421.259 65.152C416.422 54.385 409.941 44.804 401.818 36.5C411.949 52.925 417.243 71.722 417.243 91.159C417.243 96.999 416.787 102.93 415.783 108.679C415.418 108.587 415.144 108.496 414.779 108.405C413.592 108.131 412.497 107.766 411.402 107.31C411.767 105.12 412.041 102.93 412.223 100.649C409.211 99.827 406.29 98.641 403.552 97.272C403.643 95.63 403.734 93.896 403.734 92.254C406.473 93.805 409.485 95.082 412.588 95.995C412.679 94.352 412.679 92.71 412.679 91.067C412.679 71.631 407.203 53.016 396.706 36.774C398.714 34.766 400.905 32.941 403.278 31.39C412.588 40.515 420.073 51.1 425.458 62.962C431.391 75.92 434.495 89.699 434.86 104.025C436.32 94.991 436.503 85.775 435.407 76.559C433.125 58.126 425.915 40.789 414.414 26.28C417.335 25.367 420.438 24.82 423.633 24.637ZM390.317 45.99C393.329 52.286 395.611 58.947 397.254 65.791C399.262 74.004 400.266 82.49 400.266 90.976C400.266 94.079 400.083 97.272 399.809 100.375C398.349 99.097 396.889 97.82 395.611 96.36C395.702 94.535 395.793 92.71 395.793 90.885C395.793 77.197 393.055 63.601 387.761 51.191C388.582 49.366 389.404 47.632 390.317 45.99ZM456.492 43.435C460.602 49.64 463.242 56.757 464.252 64.149L459.782 64.787C458.862 58.035 456.401 51.556 452.75 45.899L456.492 43.435ZM447.091 32.85C449.19 34.675 451.198 36.591 453.024 38.781L449.555 41.701C447.912 39.785 446.087 37.96 444.17 36.317L447.091 32.85Z" fill="#0FD05D"/>
</svg>
