<svg width="2340" height="452" viewBox="0 0 2340 452" fill="none" xmlns="http://www.w3.org/2000/svg">
  <g clip-path="url(#clip0_44_2)">
    <path d="M365.61 226.399H324.11C325.248 290.563 329.114 296.238 313.367 314.048C294.708 326.669 280.359 325.957 226.243 323.627V368.385C266.833 367.835 294.264 370.046 324.901 377.026C351.932 384.717 376.093 389.561 382.699 382.743C389.543 376.163 384.659 362.635 377.901 335.407C369.822 301.491 365.046 270.067 365.599 229.635" fill="#76B900"/>
    <path d="M86.3902 225.601H127.889C126.752 161.437 122.886 155.762 138.632 137.952C157.292 125.331 171.641 126.043 225.756 128.373V83.6153C185.167 84.1655 157.736 81.954 127.099 74.9745C100.068 67.283 75.9072 62.4394 69.3011 69.2571C62.4568 75.8375 67.341 89.3651 74.0986 116.593C82.1775 150.509 86.9534 181.933 86.4011 222.364" fill="#76B900"/>
    <path d="M353.556 220.11C342.066 220.11 333.261 220.164 323.558 220.11C322.746 179.408 326.601 149.97 313.443 137.985C301.412 124.888 272.431 128.74 231.571 127.931V97.9088C263.822 97.6499 295.661 93.7556 316.941 91.2853C338.535 88.8149 351.542 87.9411 357.531 94.0684C363.682 100.034 362.815 113.001 360.335 134.5C357.855 155.687 353.773 185.417 353.524 217.553" fill="#04345C"/>
    <path d="M98.0763 232.073C109.566 232.073 118.371 232.019 128.074 232.073C128.887 272.775 125.031 302.192 138.189 314.177C150.221 327.273 179.201 323.422 220.061 324.231V354.253C187.81 354.512 155.971 358.406 134.691 360.877C113.097 363.347 100.091 364.221 94.1018 358.093C87.9506 352.128 88.8171 339.161 91.297 317.662C93.777 296.475 97.8597 266.744 98.1088 234.608" fill="#04345C"/>
    <path fill-rule="evenodd" clip-rule="evenodd" d="M264.905 253.174C264.905 258.891 260.259 263.519 254.519 263.519H197.978C192.238 263.519 187.592 258.891 187.592 253.174V196.852C187.592 191.135 192.238 186.507 197.978 186.507H254.519C260.248 186.507 264.905 191.135 264.905 196.852V253.174Z" fill="#76B900"/>

    <!-- Wordmark: tighten perceived tracking via horizontal scale (best practice for path-outlined logos) -->
    <!-- Adjust 0.93 -> 0.92/0.90 if you want tighter; 0.94/0.95 if you want looser -->
    <g id="wordmark" transform="translate(484 0) scale(0.93 1) translate(-484 0)">
      <path d="M484 300.011V144.679C484 140.034 485.251 136.437 487.778 133.91C490.328 131.36 493.833 129.266 498.271 127.627C507.786 124.485 517.892 122.436 528.59 121.48C539.243 120.501 548.803 120 557.248 120C574.592 120 590.298 122.117 604.388 126.329C618.454 130.541 630.54 137.052 640.625 145.84C650.708 154.627 658.493 165.646 664.001 178.873C669.509 192.146 672.264 207.9 672.264 226.113C672.264 243.871 669.622 259.351 664.319 272.556C659.016 285.782 651.436 296.869 641.58 305.886C631.723 314.879 619.91 321.595 606.139 326.034C592.391 330.473 577.187 332.682 560.479 332.682C556.701 332.682 552.355 332.566 547.507 332.364C542.656 332.159 537.603 331.68 532.392 330.973C527.178 330.268 521.988 329.426 516.822 328.469C511.611 327.491 506.784 326.124 502.37 324.393C490.147 319.749 484.024 311.6 484.024 299.99L484 300.011ZM541.815 168.241V284.099C544.318 284.531 547.346 284.896 550.919 285.214C554.492 285.556 557.794 285.714 560.8 285.714C568.4 285.714 575.365 284.599 581.693 282.39C588.045 280.183 593.485 276.745 598.06 272.078C602.59 267.433 606.139 261.378 608.689 253.956C611.216 246.534 612.467 237.61 612.467 227.206C612.467 207.263 607.824 192.26 598.515 182.152C589.205 172.021 576.777 166.944 561.186 166.944C558.044 166.944 554.881 167.057 551.671 167.263C548.461 167.467 545.183 167.809 541.838 168.241H541.815ZM715.906 140.649C718.84 136.619 722.778 132.954 727.787 129.653C732.795 126.352 738.963 124.713 746.314 124.713C754.964 124.713 762.021 126.465 767.437 129.972C772.832 133.523 777.977 140.148 782.87 149.892L810.457 205.441H812.392C815.534 198.634 818.266 192.373 820.608 186.682C822.954 181.013 825.23 175.367 827.439 169.721C829.645 164.075 831.99 158.202 834.424 152.078C836.862 145.976 839.638 138.964 842.78 131.042C846.787 129.106 851.225 127.558 856.094 126.42C860.966 125.282 865.632 124.713 870.094 124.713C877.879 124.713 884.478 126.784 889.873 130.905C895.292 135.003 898 141.127 898 149.254C898 151.964 897.432 155.219 896.293 158.998C895.155 162.777 892.605 168.515 888.666 176.141C884.73 183.791 878.902 194.149 871.209 207.24C863.537 220.33 853.136 237.382 840.025 258.395V326.01C837.522 326.649 833.765 327.309 828.759 327.946C823.706 328.582 818.742 328.924 813.873 328.924C803.698 328.924 796.05 327.217 790.904 323.802C785.762 320.409 783.188 313.149 783.188 301.991V257.12C777.635 248.902 771.649 239.795 765.207 229.847C758.766 219.875 752.461 209.653 746.314 199.203C740.123 188.754 734.341 178.509 728.994 168.424C723.643 158.338 719.274 149.095 715.927 140.649H715.906ZM965.93 306.022V139.646C969.07 135.184 973.85 131.837 980.29 129.606C986.74 127.398 993.59 126.283 1000.85 126.283C1009.06 126.283 1016.89 127.603 1024.32 130.221C1031.71 132.816 1037.63 138.645 1042.12 147.728L1075.39 214.843C1078.76 221.673 1081.74 228.161 1084.41 234.262C1087.09 240.386 1089.94 247.467 1092.97 255.48L1094.76 255.162C1093.9 243.141 1093.33 231.143 1093.06 219.168C1092.78 207.216 1092.65 195.264 1092.65 183.357V129.424C1095.15 128.787 1098.88 128.104 1103.87 127.398C1108.83 126.692 1113.75 126.328 1118.62 126.328C1128.38 126.328 1135.8 128.058 1140.88 131.542C1145.96 135.002 1148.5 142.151 1148.5 152.987V324.075C1145.36 327.217 1140.88 329.607 1135.05 331.246C1129.2 332.839 1122.15 333.66 1113.88 333.66C1105.67 333.66 1097.93 332.453 1090.69 330.018C1083.43 327.58 1077.46 321.708 1072.8 312.417L1039.82 245.304C1036.45 238.474 1033.47 231.963 1030.8 225.793C1028.16 219.601 1025.25 212.566 1022.11 204.666L1020.17 204.985C1021.04 217.006 1021.54 229.208 1021.65 241.639C1021.74 254.023 1021.79 266.18 1021.79 278.11V329.789C1019.28 330.425 1015.57 331.088 1010.61 331.724C1005.63 332.361 1000.69 332.702 995.82 332.702C990.92 332.702 986.6 332.384 982.89 331.724C979.16 331.088 976.08 329.744 973.65 327.74C971.21 325.737 969.32 323.028 967.96 319.612C966.59 316.199 965.93 311.689 965.93 306.067V306.022ZM1225.8 312.668C1225.8 309.528 1226.23 306.41 1227.09 303.336C1227.96 300.217 1228.98 296.551 1230.15 292.338C1231.69 286.398 1233.83 278.975 1236.56 270.119C1239.34 261.218 1242.39 251.61 1245.76 241.32C1249.13 231.03 1252.66 220.444 1256.39 209.561C1260.12 198.679 1263.65 188.434 1267.02 178.782C1270.39 169.129 1273.44 160.546 1276.21 153.033C1278.99 145.475 1281.13 139.715 1282.63 135.708C1286.41 133.545 1292.15 131.451 1299.77 129.379C1307.42 127.307 1315.14 126.283 1322.92 126.283C1333.94 126.283 1343.75 127.922 1352.31 131.178C1360.87 134.41 1366.4 139.442 1368.9 146.294C1372.91 157.746 1377.23 171.155 1381.88 186.499C1386.52 201.821 1391.19 217.621 1395.83 233.921C1400.52 250.222 1405.07 266.317 1409.51 282.208C1413.95 298.076 1417.77 312.124 1421 324.349C1418.3 327.489 1414.29 329.995 1408.99 331.838C1403.68 333.66 1397.4 334.57 1390.14 334.57C1384.83 334.57 1380.35 334.136 1376.69 333.271C1373 332.406 1369.97 331.086 1367.63 329.287C1365.31 327.512 1363.42 325.167 1361.94 322.3C1360.48 319.432 1359.23 316.108 1358.16 312.329L1352.15 289.401H1292.03C1290.3 296.004 1288.55 302.857 1286.78 309.96C1285 317.041 1283.18 323.939 1281.32 330.655C1278.17 331.725 1274.89 332.659 1271.48 333.432C1268.07 334.16 1263.92 334.547 1259.05 334.547C1247.81 334.547 1239.46 332.635 1233.97 328.811C1228.51 324.962 1225.8 319.568 1225.8 312.623V312.668ZM1301.62 244.416H1342.88C1339.75 232.396 1336.58 220.717 1333.42 209.334C1330.21 197.973 1327.25 187.729 1324.54 178.599H1322.61C1319.46 187.933 1315.96 198.315 1312.11 209.744C1308.26 221.149 1304.76 232.692 1301.62 244.416ZM1492.38 312.031L1502.12 142.378C1503.87 139.441 1507.77 136.345 1513.77 133.044C1519.78 129.743 1528.18 128.104 1538.99 128.104C1550.83 128.104 1560.07 129.925 1566.72 133.568C1573.36 137.21 1578.21 143.13 1581.22 151.371C1583.2 156.675 1585.36 162.754 1587.73 169.629C1590.09 176.505 1592.46 183.608 1594.81 190.938C1597.15 198.246 1599.43 205.486 1601.64 212.703C1603.84 219.92 1605.82 226.431 1607.55 232.259H1609.17C1614.47 213.659 1619.8 195.628 1625.15 178.189C1630.5 160.75 1635.41 146.18 1639.9 134.478C1643.27 132.748 1647.52 131.268 1652.69 129.993C1657.9 128.764 1663.68 128.149 1670.06 128.149C1680.89 128.149 1689.75 129.743 1696.62 132.953C1703.52 136.118 1707.55 140.693 1708.73 146.681C1709.59 151.12 1710.51 157.95 1711.5 167.148C1712.49 176.368 1713.56 186.727 1714.69 198.246C1715.81 209.766 1716.9 221.991 1718.01 234.9C1719.08 247.785 1720.13 260.148 1721.16 272.008C1722.2 283.87 1723.05 294.728 1723.71 304.586C1724.34 314.445 1724.78 322.026 1725 327.33C1721.22 329.494 1717.27 331.088 1713.12 332.134C1709.03 333.157 1703.77 333.66 1697.37 333.66C1688.93 333.66 1681.85 332.224 1676.11 329.358C1670.35 326.489 1667.26 320.843 1666.83 312.396C1665.53 288.241 1664.71 266.522 1664.32 247.239C1663.91 227.956 1663.39 211.769 1662.75 198.656H1661.13C1658.97 207.307 1655.76 218.189 1651.48 231.28C1647.2 244.416 1642.08 261.149 1636.14 281.525C1633.2 284.029 1629.49 285.963 1625.01 287.352C1620.51 288.764 1615.22 289.471 1609.17 289.471C1601.16 289.471 1594.56 288.469 1589.34 286.466C1584.13 284.462 1580.78 281.024 1579.26 276.152C1573.09 256.641 1568.01 240.864 1564.01 228.776C1560 216.687 1556.86 206.123 1554.59 197.017H1552.97C1552.33 210.108 1551.83 222.014 1551.49 232.737C1551.17 243.46 1550.97 253.932 1550.85 264.154C1550.76 274.422 1550.53 284.735 1550.22 295.117C1549.87 305.52 1549.37 317.064 1548.74 329.72C1545.8 330.791 1542.02 331.724 1537.38 332.497C1532.73 333.226 1528.07 333.615 1523.42 333.615C1513.66 333.615 1506.06 332.066 1500.6 328.992C1495.11 325.918 1492.38 320.251 1492.38 312.031ZM1810.18 301.287V125.669C1812.69 125.236 1816.58 124.622 1821.88 123.825C1827.21 122.982 1832.31 122.573 1837.18 122.573C1842.26 122.573 1846.76 122.982 1850.68 123.825C1854.57 124.622 1857.83 126.033 1860.47 128.036C1863.1 130.04 1865.11 132.794 1866.47 136.301C1867.84 139.852 1868.5 144.474 1868.5 150.211V326.01C1866 326.649 1862.17 327.309 1857.01 327.946C1851.79 328.582 1846.65 328.924 1841.57 328.924C1836.5 328.924 1831.99 328.561 1828.07 327.809C1824.16 327.036 1820.88 325.648 1818.24 323.644C1815.6 321.64 1813.6 318.884 1812.23 315.379C1810.87 311.826 1810.21 307.138 1810.21 301.287H1810.18ZM1945.73 309.344C1945.73 306.204 1946.17 303.086 1947.03 300.012C1947.9 296.893 1948.92 293.227 1950.13 289.014C1951.63 283.074 1953.77 275.651 1956.55 266.795C1959.28 257.894 1962.33 248.286 1965.7 237.996C1969.07 227.706 1972.62 217.12 1976.37 206.237C1980.11 195.355 1983.63 185.11 1987 175.458C1990.37 165.805 1993.42 157.222 1996.2 149.709C1998.93 142.151 2001.07 136.391 2002.57 132.384C2006.39 130.221 2012.11 128.127 2019.71 126.055C2027.36 123.983 2035.08 122.959 2042.86 122.959C2053.92 122.959 2063.73 124.598 2072.29 127.854C2080.83 131.086 2086.34 136.118 2088.84 142.97C2092.85 154.422 2097.19 167.831 2101.86 183.175C2106.5 198.497 2111.16 214.297 2115.81 230.597C2120.46 246.898 2125.01 262.993 2129.46 278.884C2133.87 294.752 2137.74 308.8 2141 321.025C2138.29 324.165 2134.29 326.671 2128.98 328.514C2123.67 330.336 2117.39 331.246 2110.13 331.246C2104.85 331.246 2100.36 330.812 2096.65 329.947C2092.98 329.082 2089.98 327.762 2087.63 325.963C2085.29 324.188 2083.4 321.843 2081.94 318.976C2080.46 316.108 2079.19 312.784 2078.12 309.005L2072.11 286.077H2011.99C2010.26 292.68 2008.51 299.533 2006.74 306.636C2004.96 313.717 2003.14 320.615 2001.27 327.331C1998.13 328.401 1994.88 329.335 1991.49 330.108C1988.07 330.836 1983.93 331.223 1979.06 331.223C1967.79 331.223 1959.41 329.311 1953.97 325.487C1948.49 321.638 1945.76 316.244 1945.76 309.299L1945.73 309.344ZM2021.6 241.092H2062.87C2059.73 229.072 2056.56 217.393 2053.35 206.01C2050.14 194.649 2047.21 184.405 2044.52 175.275H2042.54C2039.4 184.609 2035.92 194.991 2032.09 206.42C2028.25 217.825 2024.74 229.368 2021.6 241.092Z" fill="#04345C"/>
    </g>
  </g>

  <defs>
    <clipPath id="clip0_44_2">
      <rect width="2340" height="452" fill="white"/>
    </clipPath>
  </defs>
</svg>
