<?xml version="1.0" standalone="no"?>
<!DOCTYPE svg PUBLIC "-//W3C//DTD SVG 1.1//EN" "http://www.w3.org/Graphics/SVG/1.1/DTD/svg11.dtd">
<svg xmlns="http://www.w3.org/2000/svg" width="384" height="139" viewBox="0 0 384 139" fill="none">
<path d="M132.005 109.229V94.5938C132.005 94.1563 132.124 93.8177 132.364 93.5781C132.604 93.3385 132.932 93.1406 133.354 92.9844C134.249 92.6875 135.203 92.4948 136.208 92.4063C137.213 92.3125 138.114 92.2656 138.911 92.2656C140.546 92.2656 142.025 92.4688 143.354 92.8646C144.682 93.2604 145.817 93.875 146.77 94.7031C147.718 95.5313 148.453 96.5677 148.973 97.8177C149.494 99.0677 149.749 100.552 149.749 102.266C149.749 103.943 149.505 105.401 149.005 106.646C148.505 107.891 147.791 108.938 146.859 109.786C145.932 110.63 144.817 111.266 143.52 111.682C142.223 112.104 140.791 112.307 139.213 112.307C138.859 112.307 138.447 112.297 137.989 112.281C137.536 112.26 137.057 112.214 136.567 112.151C136.078 112.083 135.588 112.005 135.098 111.911C134.609 111.823 134.15 111.693 133.734 111.531C132.583 111.094 132.01 110.323 132.01 109.229H132.005ZM137.453 96.8125V107.729C137.692 107.771 137.979 107.807 138.312 107.839C138.65 107.87 138.963 107.885 139.244 107.885C139.963 107.885 140.619 107.781 141.213 107.573C141.812 107.365 142.328 107.036 142.76 106.599C143.182 106.161 143.52 105.589 143.76 104.891C143.999 104.193 144.114 103.349 144.114 102.37C144.114 100.49 143.677 99.0781 142.802 98.125C141.921 97.1719 140.749 96.6927 139.281 96.6927C138.984 96.6927 138.687 96.7031 138.385 96.7188C138.083 96.7396 137.775 96.7708 137.458 96.8125H137.453ZM156.697 94.2135C156.979 93.8333 157.348 93.4896 157.822 93.1771C158.291 92.8646 158.874 92.7135 159.567 92.7135C160.38 92.7135 161.046 92.875 161.557 93.2083C162.067 93.5417 162.552 94.1667 163.015 95.0833L165.614 100.318H165.796C166.093 99.6771 166.348 99.0885 166.572 98.5521C166.791 98.0156 167.005 97.4844 167.213 96.9531C167.421 96.4219 167.645 95.8698 167.874 95.2917C168.104 94.7135 168.364 94.0521 168.661 93.3073C169.036 93.125 169.458 92.9792 169.916 92.8698C170.374 92.7656 170.812 92.7135 171.234 92.7135C171.968 92.7135 172.593 92.9062 173.098 93.2969C173.609 93.6823 173.864 94.2604 173.864 95.026C173.864 95.2813 173.812 95.5885 173.703 95.9427C173.598 96.2969 173.359 96.8385 172.984 97.5573C172.614 98.2813 172.067 99.2552 171.343 100.49C170.619 101.724 169.635 103.328 168.4 105.307V111.682C168.166 111.74 167.812 111.802 167.338 111.865C166.864 111.922 166.395 111.958 165.937 111.958C164.973 111.958 164.255 111.797 163.77 111.474C163.286 111.151 163.041 110.469 163.041 109.417V105.188C162.52 104.417 161.958 103.557 161.348 102.62C160.739 101.677 160.145 100.714 159.567 99.7292C158.984 98.7448 158.437 97.7813 157.932 96.8281C157.432 95.8802 157.02 95.0104 156.703 94.2135H156.697ZM182.76 109.448V93.7708C183.057 93.349 183.51 93.0313 184.114 92.8229C184.723 92.6146 185.369 92.5104 186.052 92.5104C186.828 92.5104 187.567 92.6354 188.265 92.8802C188.963 93.125 189.52 93.6771 189.942 94.5313L193.083 100.854C193.395 101.5 193.682 102.109 193.932 102.688C194.182 103.26 194.453 103.932 194.739 104.688L194.906 104.656C194.828 103.521 194.77 102.391 194.744 101.266C194.718 100.135 194.708 99.0104 194.708 97.8906V92.8073C194.942 92.7448 195.296 92.6823 195.765 92.6146C196.234 92.5469 196.697 92.5156 197.156 92.5156C198.078 92.5156 198.775 92.6771 199.255 93.0052C199.734 93.3333 199.973 94.0052 199.973 95.026V111.151C199.677 111.443 199.255 111.672 198.703 111.823C198.15 111.974 197.489 112.052 196.708 112.052C195.932 112.052 195.208 111.938 194.525 111.708C193.838 111.479 193.275 110.927 192.838 110.052L189.729 103.724C189.411 103.083 189.13 102.469 188.874 101.885C188.63 101.302 188.354 100.641 188.057 99.8958L187.874 99.9271C187.958 101.057 188.005 102.208 188.015 103.38C188.025 104.547 188.025 105.693 188.025 106.818V111.688C187.791 111.75 187.442 111.813 186.973 111.87C186.505 111.932 186.036 111.964 185.578 111.964C185.119 111.964 184.708 111.932 184.359 111.87C184.01 111.813 183.718 111.682 183.489 111.495C183.26 111.307 183.083 111.052 182.953 110.729C182.822 110.406 182.76 109.984 182.76 109.453V109.448ZM209.067 110.047C209.067 109.75 209.109 109.453 209.187 109.167C209.27 108.87 209.369 108.526 209.479 108.13C209.624 107.568 209.822 106.87 210.083 106.036C210.343 105.198 210.63 104.292 210.947 103.323C211.265 102.349 211.598 101.354 211.947 100.328C212.302 99.3021 212.635 98.3385 212.953 97.4271C213.27 96.5156 213.557 95.7083 213.817 95C214.078 94.2865 214.281 93.7448 214.421 93.3698C214.781 93.1667 215.322 92.9688 216.041 92.7708C216.76 92.5781 217.489 92.4792 218.223 92.4792C219.26 92.4792 220.187 92.6354 220.989 92.9427C221.796 93.2448 222.322 93.7188 222.557 94.3646C222.932 95.4427 223.343 96.7083 223.781 98.1563C224.218 99.599 224.656 101.089 225.093 102.625C225.536 104.161 225.963 105.677 226.385 107.172C226.802 108.667 227.161 109.995 227.468 111.146C227.213 111.443 226.833 111.677 226.333 111.849C225.833 112.021 225.244 112.109 224.557 112.109C224.057 112.109 223.635 112.068 223.291 111.984C222.942 111.906 222.656 111.781 222.437 111.609C222.218 111.443 222.041 111.224 221.9 110.953C221.76 110.682 221.645 110.37 221.541 110.01L220.979 107.854H215.312C215.145 108.474 214.984 109.12 214.812 109.786C214.645 110.458 214.473 111.104 214.302 111.74C214.005 111.839 213.692 111.927 213.374 112C213.052 112.068 212.661 112.104 212.203 112.104C211.14 112.104 210.354 111.927 209.838 111.568C209.322 111.203 209.067 110.693 209.067 110.042V110.047ZM216.213 103.615H220.104C219.807 102.479 219.51 101.38 219.213 100.307C218.906 99.2344 218.63 98.2708 218.374 97.4115H218.192C217.895 98.2917 217.562 99.2656 217.203 100.344C216.838 101.422 216.51 102.505 216.213 103.615ZM235.963 110.016L236.88 94.026C237.046 93.75 237.411 93.4583 237.979 93.1458C238.546 92.8333 239.338 92.6823 240.359 92.6823C241.473 92.6823 242.343 92.8542 242.968 93.1979C243.598 93.5417 244.052 94.099 244.338 94.875C244.525 95.375 244.729 95.9479 244.953 96.5938C245.171 97.2448 245.395 97.9115 245.619 98.6042C245.838 99.2917 246.052 99.974 246.26 100.656C246.468 101.333 246.656 101.948 246.822 102.495H246.973C247.473 100.745 247.973 99.0469 248.479 97.401C248.984 95.7604 249.447 94.3854 249.869 93.2813C250.187 93.1198 250.588 92.9792 251.072 92.8594C251.567 92.7448 252.109 92.6875 252.713 92.6875C253.734 92.6875 254.567 92.8333 255.213 93.1406C255.864 93.4375 256.244 93.8698 256.359 94.4323C256.437 94.849 256.525 95.4948 256.619 96.3594C256.713 97.2292 256.812 98.2083 256.921 99.2917C257.025 100.375 257.13 101.531 257.234 102.745C257.333 103.958 257.432 105.125 257.531 106.245C257.63 107.359 257.708 108.385 257.77 109.313C257.828 110.24 257.869 110.958 257.89 111.458C257.536 111.661 257.161 111.812 256.77 111.906C256.385 112.005 255.89 112.052 255.286 112.052C254.489 112.052 253.822 111.917 253.281 111.646C252.739 111.375 252.447 110.844 252.406 110.047C252.286 107.771 252.208 105.724 252.171 103.906C252.135 102.094 252.083 100.568 252.025 99.3281H251.869C251.666 100.146 251.364 101.172 250.963 102.406C250.557 103.641 250.072 105.219 249.515 107.141C249.239 107.375 248.89 107.557 248.463 107.688C248.041 107.823 247.541 107.891 246.973 107.891C246.218 107.891 245.593 107.792 245.104 107.604C244.614 107.417 244.296 107.094 244.15 106.635C243.572 104.797 243.093 103.307 242.713 102.167C242.338 101.031 242.041 100.031 241.828 99.1771H241.677C241.614 100.411 241.567 101.531 241.536 102.542C241.505 103.552 241.484 104.542 241.473 105.5C241.468 106.469 241.442 107.443 241.416 108.422C241.385 109.401 241.333 110.49 241.275 111.682C240.999 111.781 240.64 111.87 240.203 111.943C239.765 112.01 239.328 112.047 238.89 112.047C237.968 112.047 237.255 111.901 236.739 111.615C236.218 111.323 235.963 110.786 235.963 110.016ZM267.703 109.349V92.8021C267.942 92.7604 268.307 92.7031 268.807 92.6302C269.307 92.5469 269.791 92.5104 270.249 92.5104C270.729 92.5104 271.15 92.5469 271.52 92.6302C271.89 92.7031 272.192 92.8333 272.442 93.026C272.692 93.2135 272.88 93.474 273.01 93.8021C273.14 94.1406 273.203 94.5729 273.203 95.1146V111.682C272.963 111.74 272.604 111.802 272.119 111.865C271.624 111.922 271.14 111.958 270.661 111.958C270.182 111.958 269.76 111.922 269.39 111.849C269.02 111.776 268.713 111.646 268.463 111.458C268.213 111.271 268.025 111.01 267.895 110.677C267.77 110.344 267.708 109.901 267.708 109.349H267.703ZM282.281 110.047C282.281 109.75 282.322 109.453 282.4 109.167C282.484 108.87 282.578 108.526 282.692 108.13C282.838 107.568 283.036 106.87 283.296 106.036C283.557 105.198 283.843 104.292 284.161 103.323C284.479 102.349 284.812 101.354 285.166 100.328C285.52 99.3021 285.854 98.3385 286.171 97.4271C286.489 96.5156 286.775 95.7083 287.036 95C287.296 94.2865 287.494 93.7448 287.635 93.3698C287.999 93.1667 288.536 92.9688 289.255 92.7708C289.973 92.5781 290.703 92.4792 291.437 92.4792C292.479 92.4792 293.4 92.6354 294.208 92.9427C295.015 93.2448 295.536 93.7188 295.77 94.3646C296.145 95.4427 296.557 96.7083 296.994 98.1563C297.437 99.599 297.874 101.089 298.312 102.625C298.749 104.161 299.177 105.677 299.598 107.172C300.015 108.667 300.38 109.995 300.687 111.146C300.432 111.443 300.057 111.677 299.557 111.849C299.052 112.021 298.458 112.109 297.775 112.109C297.275 112.109 296.854 112.068 296.505 111.984C296.161 111.906 295.874 111.781 295.656 111.609C295.437 111.443 295.255 111.224 295.119 110.953C294.979 110.682 294.859 110.37 294.76 110.01L294.192 107.854H288.525C288.364 108.474 288.197 109.12 288.031 109.786C287.864 110.458 287.692 111.104 287.515 111.74C287.218 111.839 286.911 111.927 286.593 112C286.27 112.068 285.88 112.104 285.421 112.104C284.359 112.104 283.567 111.927 283.057 111.568C282.541 111.203 282.281 110.693 282.281 110.042V110.047ZM289.432 103.615H293.322C293.025 102.479 292.729 101.38 292.427 100.307C292.124 99.2344 291.843 98.2708 291.593 97.4115H291.406C291.109 98.2917 290.781 99.2656 290.421 100.344C290.057 101.422 289.729 102.505 289.432 103.615ZM308.874 109.26C308.874 108.385 309.145 107.651 309.697 107.068C310.239 106.479 310.984 106.188 311.921 106.188C312.859 106.188 313.604 106.479 314.14 107.068C314.682 107.651 314.953 108.385 314.953 109.26C314.953 110.141 314.682 110.875 314.14 111.458C313.598 112.047 312.859 112.339 311.921 112.339C310.984 112.339 310.239 112.047 309.697 111.458C309.15 110.875 308.874 110.141 308.874 109.26ZM323.171 110.047C323.171 109.75 323.213 109.453 323.296 109.167C323.374 108.87 323.473 108.526 323.588 108.13C323.729 107.568 323.932 106.87 324.192 106.036C324.453 105.198 324.739 104.292 325.057 103.323C325.374 102.349 325.708 101.354 326.062 100.328C326.411 99.3021 326.744 98.3385 327.062 97.4271C327.38 96.5156 327.666 95.7083 327.927 95C328.187 94.2865 328.39 93.7448 328.536 93.3698C328.89 93.1667 329.432 92.9688 330.145 92.7708C330.869 92.5781 331.593 92.4792 332.328 92.4792C333.369 92.4792 334.296 92.6354 335.104 92.9427C335.911 93.2448 336.427 93.7188 336.661 94.3646C337.041 95.4427 337.447 96.7083 337.89 98.1563C338.328 99.599 338.765 101.089 339.203 102.625C339.645 104.161 340.072 105.677 340.489 107.172C340.906 108.667 341.27 109.995 341.583 111.146C341.322 111.443 340.947 111.677 340.447 111.849C339.947 112.021 339.354 112.109 338.671 112.109C338.171 112.109 337.749 112.068 337.4 111.984C337.052 111.906 336.77 111.781 336.546 111.609C336.328 111.443 336.15 111.224 336.01 110.953C335.874 110.682 335.755 110.37 335.65 110.01L335.088 107.854H329.416C329.255 108.474 329.088 109.12 328.921 109.786C328.755 110.458 328.583 111.104 328.406 111.74C328.114 111.839 327.807 111.927 327.484 112C327.166 112.068 326.775 112.104 326.312 112.104C325.249 112.104 324.463 111.927 323.947 111.568C323.432 111.203 323.177 110.693 323.177 110.042L323.171 110.047ZM330.322 103.615H334.213C333.916 102.479 333.619 101.38 333.317 100.307C333.02 99.2344 332.739 98.2708 332.484 97.4115H332.296C331.999 98.2917 331.671 99.2656 331.312 100.344C330.953 101.422 330.619 102.505 330.322 103.615ZM350.489 109.354V92.8021C350.723 92.7604 351.088 92.7031 351.588 92.6302C352.088 92.5521 352.572 92.5104 353.031 92.5104C353.51 92.5104 353.932 92.5521 354.302 92.6302C354.671 92.7031 354.979 92.8385 355.229 93.026C355.479 93.2135 355.666 93.474 355.791 93.8073C355.921 94.1406 355.984 94.5781 355.984 95.1146V111.682C355.749 111.745 355.385 111.807 354.895 111.865C354.406 111.927 353.921 111.958 353.437 111.958C352.963 111.958 352.536 111.922 352.171 111.854C351.802 111.781 351.494 111.651 351.244 111.458C350.994 111.271 350.807 111.01 350.677 110.682C350.546 110.349 350.489 109.906 350.489 109.354Z" fill="#04345C"/>
<path d="M103.156 70.3645H92.3328C92.6296 87.1666 93.6348 88.651 89.5255 93.3124C84.6609 96.6197 80.9161 96.4322 66.8015 95.8228V107.542C77.3901 107.396 84.5463 107.979 92.5359 109.807C99.588 111.818 105.89 113.088 107.614 111.302C109.4 109.578 108.124 106.036 106.364 98.9062C104.255 90.026 103.01 81.7968 103.15 71.2135" fill="#76B900"/>
<path d="M30.3173 70.1563H41.1454C40.8485 53.3542 39.8381 51.8698 43.9475 47.2031C48.8121 43.901 52.5568 44.0886 66.6714 44.6979V32.9792C56.0881 33.1198 48.9318 32.5417 40.9371 30.7136C33.885 28.6979 27.5829 27.4323 25.8589 29.2188C24.0777 30.9427 25.3485 34.4844 27.1141 41.6094C29.2183 50.4948 30.4631 58.7188 30.3225 69.3073" fill="#76B900"/>
<path d="M100.01 68.7187C97.0151 68.7187 94.7182 68.7291 92.1869 68.7187C91.9734 58.0573 92.9786 50.3489 89.5463 47.2135C86.4109 43.7864 78.8484 44.7916 68.1921 44.5781V36.7187C76.6036 36.651 84.9109 35.6302 90.463 34.9843C96.0932 34.3385 99.489 34.1093 101.052 35.7135C102.65 37.276 102.427 40.6718 101.781 46.3021C101.135 51.8489 100.067 59.6354 100.005 68.0468" fill="#04345C"/>
<path d="M33.3693 71.8489C36.3641 71.8489 38.661 71.8332 41.1922 71.8489C41.4058 82.5051 40.4006 90.2082 43.8329 93.3489C46.9683 96.7759 54.5308 95.7707 65.187 95.9791V103.844C56.7756 103.911 48.4683 104.927 42.9162 105.578C37.286 106.224 33.8901 106.453 32.3276 104.849C30.7235 103.286 30.9526 99.8905 31.5985 94.2603C32.2443 88.7134 33.312 80.927 33.3745 72.5155" fill="#04345C"/>
<path fill-rule="evenodd" clip-rule="evenodd" d="M76.8849 77.375C76.8849 78.8698 75.6766 80.0833 74.1766 80.0833H59.4266C57.9318 80.0833 56.7183 78.8698 56.7183 77.375V62.625C56.7183 61.1302 57.9318 59.9166 59.4266 59.9166H74.1766C75.6714 59.9166 76.8849 61.1302 76.8849 62.625V77.375Z" fill="#76B900"/>
<path d="M152.395 65H158.552V75.6406H170.973V66.125H177.067V83.3802H170.973V81.3125H134.348V66.2396H140.442V75.6406H152.395V65ZM180.088 32.1979V42.5417H174.171V37.5729H136.421V42.7188H130.505V32.1979H151.447C150.973 31.25 150.442 30.3646 149.854 29.5365L156.536 28.474C157.01 29.5938 157.541 30.8385 158.015 32.1979H180.088ZM153.755 37.9271C156.062 40.5885 157.901 42.8958 159.197 44.8438L154.76 47.9167C153.401 45.7917 151.567 43.3698 149.317 40.7083L153.755 37.9271ZM166.833 39.4063L171.39 42.8333C166.416 48.6875 160.145 53.651 152.63 57.6719H162.276C163.343 57.6719 164.052 57.4323 164.526 57.0208C165.119 56.4896 165.473 54.9531 165.708 52.349L171.213 54.1823C170.739 58.5573 169.848 61.1563 168.666 61.9844C167.484 62.8125 165.765 63.2292 163.401 63.2292H150.088C147.723 63.2292 146.067 62.5156 145.119 61.2188C140.739 62.9896 136.067 64.5885 131.093 65.8854L128.671 60.5104C134.291 59.0885 139.437 57.375 144.114 55.3646V44.7865H149.854V52.6458C156.713 48.9844 162.338 44.5469 166.833 39.4063ZM172.927 45.4948C176.833 49.6302 179.911 53.2969 182.041 56.4323L177.13 59.7969C174.937 56.4896 172.041 52.7656 168.432 48.7448L172.927 45.4948ZM137.604 42.0104L143.166 43.1302C141.625 48.5677 139.437 53.2969 136.598 57.2552L131.333 53.9479C134.291 50.1667 136.421 46.2031 137.604 42.0104ZM224.166 61.9844C226.531 67.4844 228.661 73.8073 230.437 80.9583L224.937 82.3802C224.463 80.3698 223.932 78.4792 223.395 76.6458C219.135 78.6563 214.64 80.3698 210.026 81.7865L208.072 76.1719C209.671 74.8698 210.5 73.0365 210.5 70.6771V38.6406L201.859 38.9948V51.8802C201.447 65 198.192 75.4635 192.156 83.2656L188.015 78.8906C192.984 72.3906 195.645 63.3438 196.005 51.8802V33.4375C210.203 33.2604 222.807 32.1354 233.869 30.0104L236.947 35.4479C234.994 35.8021 233.041 36.1563 231.151 36.4531C231.385 53.0625 234.875 67.1302 241.562 78.5938L237.182 82.9688C229.848 70.1406 226 54.8906 225.645 37.2813C222.63 37.6354 219.552 37.9896 216.473 38.224V73.6875C218.25 72.9792 220.026 72.2708 221.739 71.4427C220.854 68.7813 219.906 66.1823 218.901 63.6979L224.166 61.9844ZM255.286 37.6927C254.223 39.2292 253.041 40.5313 251.859 41.7135H259.546C259.786 40.4115 259.963 39.1094 260.083 37.6927H255.286ZM257.776 47.3281H247.182V41.7135H249.786L246.885 38.1094C249.609 35.7448 251.973 32.375 254.046 28L259.609 29.2396C259.192 30.3073 258.781 31.3698 258.307 32.3125H274.223V37.6927H265.88C265.76 39.1094 265.645 40.4115 265.463 41.7135H275.88V47.3281H264.223L264.046 47.8594C268.421 50.1042 272.093 52.2917 275.109 54.5365L271.619 58.026H294.338V83.5H288.067V81.3125H260.734V83.5H254.52V59.4427C253.098 60.2708 251.619 61.099 250.083 61.8698L245.942 56.8438C251.973 54.1823 255.937 50.9896 257.776 47.3281ZM260.734 75.875H288.067V72.4479H260.734V75.875ZM260.734 67.1302H288.067V63.4635H260.734V67.1302ZM256.588 58.026H269.723C267.593 56.1354 265.052 54.3021 262.036 52.4115C260.671 54.4219 258.838 56.3125 256.588 58.026ZM277.479 32.4896H298.661V55.1302H277.479V32.4896ZM292.625 49.75V37.9271H283.51V49.75H292.625ZM314.869 63.5833V67.4219H326.468V63.5833H314.869ZM326.468 58.5V54.4219H314.869V58.5H326.468ZM314.869 72.5052V83.4427H308.895V49.099H332.442V76.526C332.442 80.8385 330.432 83.026 326.406 83.026H321.854L320.312 77.2969L324.458 77.5885C325.76 77.5885 326.468 76.7604 326.468 75.224V72.5052H314.869ZM352.442 55.0104H342.796C338.479 55.0104 336.348 52.5885 336.348 47.8021V28.8854H342.442V35.625C348.359 34.6771 353.213 33.7344 357 32.7292L359.01 38.1667C354.156 39.2292 348.656 40.2344 342.442 41.1823V46.5573C342.442 48.4479 343.093 49.4531 344.515 49.4531H351.26C352.088 49.4531 352.677 49.1615 353.093 48.5677C353.505 47.9167 353.802 46.026 353.921 42.8333L359.661 44.7292C359.187 49.6927 358.416 52.7083 357.354 53.651C356.286 54.5365 354.63 55.0104 352.442 55.0104ZM342.442 68.724V75.4635C342.442 76.4688 343.093 77 344.453 77H351.26C352.088 77 352.739 76.7031 353.093 76.1146C353.567 75.4635 353.864 73.5729 354.041 70.3802L359.661 72.151C359.187 77.1771 358.359 80.1302 357.296 81.0781C356.229 81.9635 354.63 82.4375 352.442 82.4375H342.739C338.479 82.4375 336.348 80.5469 336.348 76.8229V56.9635H342.442V63.1667C347.885 62.5781 352.739 61.6302 357 60.3333L359.01 65.8281C353.864 67.1875 348.359 68.1354 342.442 68.724ZM328.244 32.7292C331.677 37.3958 334.276 41.4167 336.171 44.8438L331.083 48.4479C330.489 47.2708 329.838 46.026 329.187 44.7865C323.036 45.7292 315.697 46.5 307.239 46.974L305.583 41.8281C306.645 41.474 307.593 41.0052 308.364 40.2917C311.911 36.1563 314.515 32.1979 316.291 28.5313L322.208 30.3073C319.838 34.9167 317.177 38.6406 314.161 41.5365C318.067 41.2969 322.208 40.8854 326.588 40.4115C325.64 38.875 324.572 37.3385 323.51 35.7448L328.244 32.7292Z" fill="#04345C"/>
</svg>