<svg width="2340" height="452" viewBox="0 0 2340 452" fill="none" xmlns="http://www.w3.org/2000/svg">
<path d="M365.61 226.399H324.11C325.248 290.563 329.114 296.238 313.367 314.048C294.708 326.669 280.359 325.957 226.243 323.627V368.385C266.833 367.835 294.264 370.046 324.901 377.026C351.932 384.717 376.093 389.561 382.699 382.743C389.543 376.163 384.659 362.635 377.901 335.407C369.822 301.491 365.046 270.067 365.599 229.635" fill="#76B900"/>
<path d="M86.3902 225.601H127.889C126.752 161.437 122.886 155.762 138.632 137.952C157.292 125.331 171.641 126.043 225.756 128.373V83.6153C185.167 84.1655 157.736 81.954 127.099 74.9745C100.068 67.283 75.9072 62.4394 69.3011 69.2571C62.4568 75.8375 67.341 89.3651 74.0986 116.593C82.1775 150.509 86.9534 181.933 86.4011 222.364" fill="#76B900"/>
<path d="M353.556 220.11C342.066 220.11 333.261 220.164 323.558 220.11C322.746 179.408 326.601 149.97 313.443 137.985C301.412 124.888 272.431 128.74 231.571 127.931V97.9088C263.822 97.6499 295.661 93.7556 316.941 91.2853C338.535 88.8149 351.542 87.9411 357.531 94.0684C363.682 100.034 362.815 113.001 360.335 134.5C357.855 155.687 353.773 185.417 353.524 217.553" fill="#04345C"/>
<path d="M98.0763 232.073C109.566 232.073 118.371 232.019 128.074 232.073C128.887 272.775 125.031 302.192 138.189 314.177C150.221 327.273 179.201 323.422 220.061 324.231V354.253C187.81 354.512 155.971 358.406 134.691 360.877C113.097 363.347 100.091 364.221 94.1018 358.093C87.9506 352.128 88.8171 339.161 91.297 317.662C93.777 296.475 97.8597 266.744 98.1088 234.608" fill="#04345C"/>
<path fill-rule="evenodd" clip-rule="evenodd" d="M264.905 253.174C264.905 258.891 260.259 263.519 254.519 263.519H197.978C192.238 263.519 187.592 258.891 187.592 253.174V196.852C187.592 191.135 192.238 186.507 197.978 186.507H254.519C260.248 186.507 264.905 191.135 264.905 196.852V253.174Z" fill="#76B900"/>
<path d="M484 300.011V144.679C484 140.034 485.251 136.437 487.778 133.91C490.328 131.36 493.833 129.266 498.271 127.627C507.786 124.485 517.892 122.436 528.59 121.48C539.243 120.501 548.803 120 557.248 120C574.592 120 590.298 122.117 604.388 126.329C618.454 130.541 630.54 137.052 640.625 145.84C650.708 154.627 658.493 165.646 664.001 178.873C669.509 192.146 672.264 207.9 672.264 226.113C672.264 243.871 669.622 259.351 664.319 272.556C659.016 285.782 651.436 296.869 641.58 305.886C631.723 314.879 619.91 321.595 606.139 326.034C592.391 330.473 577.187 332.682 560.479 332.682C556.701 332.682 552.355 332.566 547.507 332.364C542.656 332.159 537.603 331.68 532.392 330.973C527.178 330.268 521.988 329.426 516.822 328.469C511.611 327.491 506.784 326.124 502.37 324.393C490.147 319.749 484.024 311.6 484.024 299.99L484 300.011ZM541.815 168.241V284.099C544.318 284.531 547.346 284.896 550.919 285.214C554.492 285.556 557.794 285.714 560.8 285.714C568.4 285.714 575.365 284.599 581.693 282.39C588.045 280.183 593.485 276.745 598.06 272.078C602.59 267.433 606.139 261.378 608.689 253.956C611.216 246.534 612.467 237.61 612.467 227.206C612.467 207.263 607.824 192.26 598.515 182.152C589.205 172.021 576.777 166.944 561.186 166.944C558.044 166.944 554.881 167.057 551.671 167.263C548.461 167.467 545.183 167.809 541.838 168.241H541.815ZM745.967 140.649C748.901 136.619 752.839 132.954 757.848 129.653C762.856 126.352 769.024 124.713 776.375 124.713C785.025 124.713 792.082 126.465 797.498 129.972C802.893 133.523 808.038 140.148 812.931 149.892L840.518 205.441H842.453C845.595 198.634 848.327 192.373 850.669 186.682C853.015 181.013 855.291 175.367 857.5 169.721C859.706 164.075 862.051 158.202 864.485 152.078C866.923 145.976 869.699 138.964 872.841 131.042C876.848 129.106 881.286 127.558 886.155 126.42C891.027 125.282 895.693 124.713 900.155 124.713C907.94 124.713 914.539 126.784 919.934 130.905C925.353 135.003 928.061 141.127 928.061 149.254C928.061 151.964 927.493 155.219 926.354 158.998C925.216 162.777 922.666 168.515 918.727 176.141C914.791 183.791 908.963 194.149 901.27 207.24C893.598 220.33 883.197 237.382 870.086 258.395V326.01C867.583 326.649 863.826 327.309 858.82 327.946C853.767 328.582 848.803 328.924 843.934 328.924C833.759 328.924 826.111 327.217 820.965 323.802C815.823 320.409 813.249 313.149 813.249 301.991V257.12C807.696 248.902 801.71 239.795 795.268 229.847C788.827 219.875 782.522 209.653 776.375 199.203C770.184 188.754 764.402 178.509 759.055 168.424C753.704 158.338 749.335 149.095 745.988 140.649H745.967ZM1022.43 302.312V135.936C1025.57 131.474 1030.35 128.127 1036.79 125.896C1043.24 123.688 1050.09 122.573 1057.35 122.573C1065.56 122.573 1073.39 123.893 1080.82 126.511C1088.21 129.106 1094.13 134.935 1098.62 144.018L1131.89 211.133C1135.26 217.963 1138.24 224.451 1140.91 230.552C1143.59 236.676 1146.44 243.757 1149.47 251.77L1151.26 251.452C1150.4 239.431 1149.83 227.433 1149.56 215.458C1149.28 203.506 1149.15 191.554 1149.15 179.647V125.714C1151.65 125.077 1155.38 124.394 1160.37 123.688C1165.33 122.982 1170.25 122.618 1175.12 122.618C1184.88 122.618 1192.3 124.348 1197.38 127.832C1202.46 131.292 1205 138.441 1205 149.277V320.365C1201.86 323.507 1197.38 325.897 1191.55 327.536C1185.7 329.129 1178.65 329.95 1170.38 329.95C1162.17 329.95 1154.43 328.743 1147.19 326.308C1139.93 323.87 1133.96 317.998 1129.3 308.707L1096.32 241.594C1092.95 234.764 1089.97 228.253 1087.3 222.083C1084.66 215.891 1081.75 208.856 1078.61 200.956L1076.67 201.275C1077.54 213.296 1078.04 225.498 1078.15 237.929C1078.24 250.313 1078.29 262.47 1078.29 274.4V326.079C1075.78 326.715 1072.07 327.378 1067.11 328.014C1062.13 328.651 1057.19 328.992 1052.32 328.992C1047.42 328.992 1043.1 328.674 1039.39 328.014C1035.66 327.378 1032.58 326.034 1030.15 324.03C1027.71 322.027 1025.82 319.318 1024.46 315.902C1023.09 312.489 1022.43 307.979 1022.43 302.357V302.312ZM1301.47 308.639C1301.47 305.499 1301.9 302.381 1302.76 299.307C1303.63 296.188 1304.65 292.522 1305.82 288.309C1307.36 282.369 1309.5 274.946 1312.23 266.09C1315.01 257.189 1318.06 247.581 1321.43 237.291C1324.8 227.001 1328.33 216.415 1332.06 205.532C1335.79 194.65 1339.32 184.405 1342.69 174.753C1346.06 165.1 1349.11 156.517 1351.88 149.004C1354.66 141.446 1356.8 135.686 1358.3 131.679C1362.08 129.516 1367.82 127.422 1375.44 125.35C1383.09 123.278 1390.81 122.254 1398.59 122.254C1409.61 122.254 1419.42 123.893 1427.98 127.149C1436.54 130.381 1442.07 135.413 1444.57 142.265C1448.58 153.717 1452.9 167.126 1457.55 182.47C1462.19 197.792 1466.86 213.592 1471.5 229.892C1476.19 246.193 1480.74 262.288 1485.18 278.179C1489.62 294.047 1493.44 308.095 1496.67 320.32C1493.97 323.46 1489.96 325.966 1484.66 327.809C1479.35 329.631 1473.07 330.541 1465.81 330.541C1460.5 330.541 1456.02 330.107 1452.36 329.242C1448.67 328.377 1445.64 327.057 1443.3 325.258C1440.98 323.483 1439.09 321.138 1437.61 318.271C1436.15 315.403 1434.9 312.079 1433.83 308.3L1427.82 285.372H1367.7C1365.97 291.975 1364.22 298.828 1362.45 305.931C1360.67 313.012 1358.85 319.91 1356.99 326.626C1353.84 327.696 1350.56 328.63 1347.15 329.403C1343.74 330.131 1339.59 330.518 1334.72 330.518C1323.48 330.518 1315.13 328.606 1309.64 324.782C1304.18 320.933 1301.47 315.539 1301.47 308.594V308.639ZM1377.29 240.387H1418.55C1415.42 228.367 1412.25 216.688 1409.09 205.305C1405.88 193.944 1402.92 183.7 1400.21 174.57H1398.28C1395.13 183.904 1391.63 194.286 1387.78 205.715C1383.93 217.12 1380.43 228.663 1377.29 240.387ZM1586.79 308.321L1596.53 138.668C1598.28 135.731 1602.18 132.635 1608.18 129.334C1614.19 126.033 1622.59 124.394 1633.4 124.394C1645.24 124.394 1654.48 126.215 1661.13 129.858C1667.77 133.5 1672.62 139.42 1675.63 147.661C1677.61 152.965 1679.77 159.044 1682.14 165.919C1684.5 172.795 1686.87 179.898 1689.22 187.228C1691.56 194.536 1693.84 201.776 1696.05 208.993C1698.25 216.21 1700.23 222.721 1701.96 228.549H1703.58C1708.88 209.949 1714.21 191.918 1719.56 174.479C1724.91 157.04 1729.82 142.47 1734.31 130.768C1737.68 129.038 1741.93 127.558 1747.1 126.283C1752.31 125.054 1758.09 124.439 1764.47 124.439C1775.3 124.439 1784.16 126.033 1791.03 129.243C1797.93 132.408 1801.96 136.983 1803.14 142.971C1804 147.41 1804.92 154.24 1805.91 163.438C1806.9 172.658 1807.97 183.017 1809.1 194.536C1810.22 206.056 1811.31 218.281 1812.42 231.19C1813.49 244.075 1814.54 256.438 1815.57 268.298C1816.61 280.16 1817.46 291.018 1818.12 300.876C1818.75 310.735 1819.19 318.316 1819.41 323.62C1815.63 325.784 1811.68 327.378 1807.53 328.424C1803.44 329.447 1798.18 329.95 1791.78 329.95C1783.34 329.95 1776.26 328.514 1770.52 325.648C1764.76 322.779 1761.67 317.133 1761.24 308.686C1759.94 284.531 1759.12 262.812 1758.73 243.529C1758.32 224.246 1757.8 208.059 1757.16 194.946H1755.54C1753.38 203.597 1750.17 214.479 1745.89 227.57C1741.61 240.706 1736.49 257.439 1730.55 277.815C1727.61 280.319 1723.9 282.253 1719.42 283.642C1714.92 285.054 1709.63 285.761 1703.58 285.761C1695.57 285.761 1688.97 284.759 1683.75 282.756C1678.54 280.752 1675.19 277.314 1673.67 272.442C1667.5 252.931 1662.42 237.154 1658.42 225.066C1654.41 212.977 1651.27 202.413 1649 193.307H1647.38C1646.74 206.398 1646.24 218.304 1645.9 229.027C1645.58 239.75 1645.38 250.222 1645.26 260.444C1645.17 270.712 1644.94 281.025 1644.63 291.407C1644.28 301.81 1643.78 313.354 1643.15 326.01C1640.21 327.081 1636.43 328.014 1631.79 328.787C1627.14 329.516 1622.48 329.905 1617.83 329.905C1608.07 329.905 1600.47 328.356 1595.01 325.282C1589.52 322.208 1586.79 316.541 1586.79 308.321ZM1923.5 301.287V125.669C1926.01 125.236 1929.9 124.622 1935.2 123.825C1940.53 122.982 1945.63 122.573 1950.5 122.573C1955.58 122.573 1960.08 122.982 1964 123.825C1967.89 124.622 1971.15 126.033 1973.79 128.036C1976.42 130.04 1978.43 132.794 1979.79 136.301C1981.16 139.852 1981.82 144.474 1981.82 150.211V326.01C1979.32 326.649 1975.49 327.309 1970.33 327.946C1965.11 328.582 1959.97 328.924 1954.89 328.924C1949.82 328.924 1945.31 328.561 1941.39 327.809C1937.48 327.036 1934.2 325.648 1931.56 323.644C1928.92 321.64 1926.92 318.884 1925.55 315.379C1924.19 311.826 1923.53 307.138 1923.53 301.287H1923.5ZM2078.12 308.639C2078.12 305.499 2078.56 302.381 2079.42 299.307C2080.29 296.188 2081.31 292.522 2082.52 288.309C2084.02 282.369 2086.16 274.946 2088.94 266.09C2091.67 257.189 2094.72 247.581 2098.09 237.291C2101.46 227.001 2105.01 216.415 2108.76 205.532C2112.5 194.65 2116.02 184.405 2119.39 174.753C2122.76 165.1 2125.81 156.517 2128.59 149.004C2131.32 141.446 2133.46 135.686 2134.96 131.679C2138.78 129.516 2144.5 127.422 2152.1 125.35C2159.75 123.278 2167.47 122.254 2175.25 122.254C2186.31 122.254 2196.12 123.893 2204.68 127.149C2213.22 130.381 2218.73 135.413 2221.23 142.265C2225.24 153.717 2229.58 167.126 2234.25 182.47C2238.89 197.792 2243.55 213.592 2248.2 229.892C2252.85 246.193 2257.4 262.288 2261.85 278.179C2266.26 294.047 2270.13 308.095 2273.39 320.32C2270.68 323.46 2266.68 325.966 2261.37 327.809C2256.06 329.631 2249.78 330.541 2242.52 330.541C2237.24 330.541 2232.75 330.107 2229.04 329.242C2225.37 328.377 2222.37 327.057 2220.02 325.258C2217.68 323.483 2215.79 321.138 2214.33 318.271C2212.85 315.403 2211.58 312.079 2210.51 308.3L2204.5 285.372H2144.38C2142.65 291.975 2140.9 298.828 2139.13 305.931C2137.35 313.012 2135.53 319.91 2133.66 326.626C2130.52 327.696 2127.27 328.63 2123.88 329.403C2120.46 330.131 2116.32 330.518 2111.45 330.518C2100.18 330.518 2091.8 328.606 2086.36 324.782C2080.88 320.933 2078.15 315.539 2078.15 308.594L2078.12 308.639ZM2153.99 240.387H2195.26C2192.12 228.367 2188.95 216.688 2185.74 205.305C2182.53 193.944 2179.6 183.7 2176.91 174.57H2174.93C2171.79 183.904 2168.31 194.286 2164.48 205.715C2160.64 217.12 2157.13 228.663 2153.99 240.387Z" fill="#04345C"/>
</svg>
