<svg xmlns="http://www.w3.org/2000/svg" viewBox="-2.08 -2.08 108.16 34.03"><title>prep-logo.svg</title><g clip-path="url(#a)"><path fill="#1479f3" d="M0 6.001V3.17A3.17 3.17 0 0 1 3.17 0h27.046v26.83a3.17 3.17 0 0 1-3.17 3.17h-14.96v-5.952h10.986c.603 0 1.094-.49 1.094-1.094V6z"/><path fill="#1479f3" d="M0 24.936v3.17C0 29.858 1.418 30 3.17 30h2.875V12.002H0v12.94z"/><path fill="#515151" d="M36.295 23.783a.6.6 0 0 1-.176-.437V6.698c0-.187.054-.344.166-.462a.59.59 0 0 1 .447-.176h6.855c2.06 0 3.685.486 4.857 1.457q1.767 1.456 1.767 4.245c0 1.86-.589 3.233-1.767 4.18q-1.766 1.42-4.857 1.418h-3.759v5.986a.58.58 0 0 1-.177.447.64.64 0 0 1-.46.167h-2.454a.6.6 0 0 1-.437-.182m7.164-9.283c.991 0 1.742-.236 2.262-.702q.78-.699.78-2.061c0-.908-.25-1.575-.755-2.07-.506-.496-1.266-.742-2.292-.742h-3.685v5.575zm10.991 9.288a.6.6 0 0 1-.176-.437V6.698c0-.187.054-.344.167-.462a.59.59 0 0 1 .446-.176h6.624c2.095 0 3.74.486 4.922 1.457q1.775 1.456 1.776 4.141c0 1.247-.3 2.287-.898 3.131q-.897 1.264-2.507 1.83l3.71 6.521a.7.7 0 0 1 .078.28q.001.228-.167.383a.54.54 0 0 1-.373.152h-2.35q-.411 0-.638-.192a1.8 1.8 0 0 1-.408-.5l-3.272-6.06h-3.504v6.138a.6.6 0 0 1-.176.437.63.63 0 0 1-.462.177h-2.355a.6.6 0 0 1-.437-.177m6.983-9.49q1.536 0 2.301-.677.765-.678.765-1.982c0-1.304-.255-1.54-.765-2.007-.51-.47-1.28-.702-2.301-.702h-3.553v5.373h3.553zm11.535 9.495a.6.6 0 0 1-.176-.437V6.698a.65.65 0 0 1 .167-.462.6.6 0 0 1 .446-.181h11.28c.187 0 .344.059.462.181a.63.63 0 0 1 .177.462V8.41a.58.58 0 0 1-.177.447.64.64 0 0 1-.461.167H76.3v4.475h7.826a.62.62 0 0 1 .642.642v1.61a.57.57 0 0 1-.181.446.64.64 0 0 1-.461.167H76.3v4.627h8.592a.65.65 0 0 1 .461.167q.177.168.177.446v1.737a.58.58 0 0 1-.177.447.64.64 0 0 1-.46.167H73.41a.6.6 0 0 1-.436-.177m17.212.005a.6.6 0 0 1-.181-.437V6.698c0-.187.054-.344.167-.462a.59.59 0 0 1 .446-.176h6.855c2.06 0 3.685.486 4.858 1.457q1.766 1.456 1.766 4.245c0 1.86-.589 3.233-1.766 4.18q-1.767 1.42-4.858 1.418h-3.759v5.986a.57.57 0 0 1-.181.447.64.64 0 0 1-.461.167h-2.454a.6.6 0 0 1-.436-.182m7.158-9.283q1.481-.002 2.263-.702.78-.699.78-2.061c0-.908-.251-1.575-.756-2.07q-.757-.743-2.286-.742h-3.685v5.575z"/><path fill="#ff9e00" d="M17.311 11.977H12.9a.82.82 0 0 0-.82.82v4.411c0 .452.364.82.82.82h4.411c.452 0 .82-.364.82-.82v-4.411a.82.82 0 0 0-.82-.82"/></g><defs><clipPath id="a"><path fill="#fff" d="M0 0h104.097v30H0z"/></clipPath></defs></svg>