<svg width="300" height="300" viewBox="0 0 300 300" fill="none" xmlns="http://www.w3.org/2000/svg">
<path d="M38 83.4388V62.4746C38 56.2487 40.4703 50.2779 44.8674 45.8755C49.2645 41.4732 55.2283 39 61.4467 39H261.491V237.682C261.491 243.908 259.021 249.879 254.624 254.281C250.227 258.684 244.263 261.157 238.044 261.157H127.393V217.081H208.651C213.111 217.081 216.743 213.452 216.743 208.98V83.4314L38 83.4388Z" fill="#1479F3"/>
<path d="M38 223.657V247.131C38 260.105 48.4882 261.157 61.4467 261.157H82.7115V127.877H38V223.701V223.657Z" fill="#1479F3"/>
<path d="M166.04 127.692H133.414C132.618 127.692 131.829 127.849 131.093 128.155C130.357 128.46 129.689 128.907 129.126 129.471C128.562 130.035 128.116 130.704 127.811 131.441C127.506 132.178 127.349 132.967 127.349 133.765V166.429C127.349 169.776 130.041 172.501 133.414 172.501H166.04C169.383 172.501 172.105 169.806 172.105 166.429V133.765C172.105 132.154 171.466 130.61 170.329 129.471C169.191 128.332 167.649 127.692 166.04 127.692Z" fill="#FF9E00"/>
</svg>
