<svg t="1741421162893" class="icon" viewBox="0 0 3538 1024" version="1.1" xmlns="http://www.w3.org/2000/svg" p-id="6697" width="200" height="200"><path d="M1446.409189 673.998564h76.910265v61.289304h-76.910265z" fill="#07285A" p-id="6698"></path><path d="M1446.592965 755.319454h77.185929l-0.183776 162.366117-77.002153 25.636755V755.319454z" fill="#07285A" p-id="6699"></path><path d="M1878.190955 673.079684l-20.582915 57.889447h-158.50682v57.062456h167.971285l-24.809763 58.440775h-143.161522v74.429289l-83.250538 23.339555V673.079684h262.340273zM1955.009332 675.836324l81.229003 0.183777v202.613065l166.041636-0.367552-24.809763 63.127064-222.460876-0.091888V675.836324zM2135.385499 672.895908h98.963388l83.434315 101.995693 79.94257-101.995693h99.147164l-139.853553 178.446518v72.591529l-80.218234 20.491027V851.893754l-141.41565-178.997846zM2844.393396 673.079684l-24.717876 61.93252h-83.61809v188.737975l-80.769562 20.491027V735.012204h-104.844221v-61.93252h293.949749zM2892.450826 675.652548h274.01005l-20.858579 56.235463h-171.003589v51.732951h180.19239l-17.826274 50.630294h-162.366116v52.192391h191.862168l-20.858579 55.224695h-253.151471V675.652548zM3210.475233 675.468772h82.239771v99.698493h20.30725l104.476669-100.617373h104.384781l-132.961952 129.562097 149.22613 135.718592h-114.12491l-111.000718-104.017229h-20.30725v89.958364l-82.239771 16.999282V675.468772zM1449.533381 587.807609l19.755923-255.540559h64.505384l-18.010051 236.703517-66.251256 18.837042zM1836.106246 148.582915h73.234745V459.440057l35.928212-1.745872-20.858578 57.705671-15.069634 1.194545v71.213208l-73.234745 27.658292V519.534817l-132.594401 8.821249v-57.062455l132.594401-8.913137V148.582915zM1681.458722 332.26705l16.815506 246.167982-63.31084-28.301507-15.71285-217.866475h62.208184z" fill="#07285A" p-id="6700"></path><path d="M1611.164393 306.997846v270.242642l-70.386216 32.34458V306.997846h-89.498924v-54.765254h89.498924v-37.122757l-84.812635 7.626705V164.479541l242.308686-20.582915-15.620962 57.062455-71.488873 8.269921v43.00359h87.109835l-26.739411 54.765254h-60.370424zM1756.990668 327.029433l58.716439 51.181622-54.581479 54.765255-58.716439-51.27351 54.581479-54.673367zM1757.633884 179.824838l58.716439 51.181623-54.673367 54.213927-59.267767-50.722183 55.224695-54.673367zM2612.008615 155.015075l57.521895 50.078967-54.030151 53.57071-57.521895-50.078966 54.030151-53.570711zM2708.491027 348.806892h52.927494V218.050251h-49.43575v-59.451543h292.387653v386.848528h38.409188l-29.128499 56.511127-92.89878 0.551328 0.551328-384.45944h-77.369706v130.756641h65.699929l-29.58794 58.900215h-36.111989v161.814788l-82.515434 35.928213V407.707107h-52.927494v-58.900215zM2546.400574 306.997846h113.849247l0.643216 218.417804 51.73295-8.821249-27.933955 66.52692-106.957646 28.209619V365.898062h-31.333812v-58.900216zM2293.524767 231.006461h199.305097l-30.139268 59.451543h-163.376885l199.948313 312.051687h-108.152189l-142.977746-226.044508-137.096913 226.044508h-109.346734l194.802585-312.051687h-181.938263v-59.451543h187.727207v-75.991386h90.693468l0.551328 75.991386zM3396.180905 552.522613l138.934673 0.643216-30.874372 55.959799H3396.180905z m0-65.975592V394.107681l30.231155 30.04738a66.98636 66.98636 0 0 0 20.307251 15.25341 93.174444 93.174444 0 0 0 26.739411 2.940416h61.656856v56.603015H3454.989232a150.604451 150.604451 0 0 1-44.106246-4.13496 40.982053 40.982053 0 0 1-14.518305-8.269921m0-169.625269v-61.748744a69.651113 69.651113 0 0 0 11.669777-14.702082l49.987078-79.48313h77.277818l-73.510409 128.643216a90.785355 90.785355 0 0 1-10.934674 13.599426 44.106246 44.106246 0 0 1-14.242641 10.842785 122.670495 122.670495 0 0 1-31.4257 2.940417z m-108.703518-156.20962l-76.083274 391.534817h184.603016v56.511127l-281.177316-0.275664 79.666906-389.237617H3096.625987v-58.256999z m108.519742 94.460876c-0.551328 0.551328-1.745872 1.194544-2.297201 1.745872a30.04738 30.04738 0 0 1-15.71285 3.491745h-109.806173l-11.11845 56.511127h138.934674z m0 138.934673l-30.782484-30.598708h-85.547739L3381.478823 472.396267a110.725054 110.725054 0 0 0 14.518305 14.150754zM827.819095 880.011486c-273.366834 137.832017-553.625269 174.127782-627.778894-45.944006a66.98636 66.98636 0 0 1-2.113424-6.799713 299.371141 299.371141 0 0 1 1.102656-127.816224C275.020818 302.495334 769.102656 0 769.102656 0c-16.907394 9.188801-33.171572 19.020818-49.251974 28.577172-362.314429 207.207466-534.420675 427.371141-596.445083 590.931801C77.002154 741.903805 91.888011 821.203159 98.595836 845.369706a219.520459 219.520459 0 0 0 49.895191 90.234027c110.265614 122.762383 299.738693 96.206748 447.310839 47.965542a1188.847093 1188.847093 0 0 0 232.017229-103.557789" fill="#07285A" p-id="6701"></path><path d="M1268.054559 189.564968c10.934673-2.940416 4.043073-1.653984 30.414931-7.994257-42.452261-8.637473-300.657574 3.859296-497.849246 257.286432L626.951902 182.857143h-67.262024l206.56425 303.230438c-5.237617 7.810481-10.383345 15.620962-15.437186 23.798995l-3.399857 5.697056L519.902369 182.857143h-67.170136L717.461594 569.705671q-7.626705 13.507538-16.815506 28.760948l-284.852836-415.88514H349.174444L668.393396 649.648241c-74.613065 110.265614-199.029433 249.751615-385.194545 287.701364 0 0 320.321608 27.566403 509.886576-227.422828L947.549174 937.257717h67.262025L826.165111 660.215363c3.032304-5.145729 6.064609-10.383345 9.188801-15.71285l7.259153-12.864322L1051.198851 937.257717h67.262025L873.487437 578.894472c5.880833-9.188801 12.221106-19.664034 19.020819-30.323043l265.923905 388.686288h67.262024l-300.198133-438.305815c83.61809-121.567839 211.342426-274.101938 342.742283-309.386934" fill="#07285A" p-id="6702"></path></svg>