<svg width="166" height="68" viewBox="0 0 166 68" fill="none" xmlns="http://www.w3.org/2000/svg">
<g clip-path="url(#clip0_903_2895)">
<path fill-rule="evenodd" clip-rule="evenodd" d="M45.9954 36.5396C44.6557 36.5396 43.6543 35.5399 43.6543 34.2682C43.6543 32.9957 44.6557 31.9426 45.9954 31.9426C47.2759 31.9426 48.2797 32.9957 48.2797 34.2682C48.2797 35.5399 47.223 36.5396 45.9954 36.5396Z" fill="#D41324"/>
<path fill-rule="evenodd" clip-rule="evenodd" d="M36.9088 16.8208C41.2006 16.8208 45.2156 17.9858 48.6157 19.9768L52.6836 16.8208C48.167 13.7744 42.7595 12.0005 36.9088 12.0005C31.1133 12.0005 25.6498 13.7744 21.1885 16.8208L25.2035 19.9768C28.6579 17.9858 32.6722 16.8208 36.9088 16.8208Z" fill="black"/>
<path fill-rule="evenodd" clip-rule="evenodd" d="M25.2035 47.7295L21.1885 50.833C25.649 53.8779 31.1133 55.6494 36.9088 55.6494C42.7595 55.6494 48.167 53.8779 52.6836 50.833L48.6149 47.7295C45.2149 49.7244 41.1998 50.833 36.9088 50.833C32.6714 50.833 28.6572 49.7244 25.2035 47.7295Z" fill="black"/>
<path fill-rule="evenodd" clip-rule="evenodd" d="M19.7949 33.8249C19.7949 29.6173 20.9658 25.6307 22.9733 22.1957L19.7949 18.2052C16.7867 22.6407 15 28.0103 15 33.8249C15 39.6434 16.7867 45.0168 19.7949 49.501L22.9733 45.458C20.9658 42.0261 19.7949 38.0904 19.7949 33.8249Z" fill="black"/>
<path fill-rule="evenodd" clip-rule="evenodd" d="M50.9014 45.4576L54.023 49.5006C57.088 45.0172 58.8708 39.6437 58.8708 33.8245C58.8708 28.0099 57.088 22.6411 54.023 18.2056L50.9014 22.1961C52.9089 25.6303 54.023 29.6169 54.023 33.8245C54.023 38.0908 52.9089 42.0264 50.9014 45.4576Z" fill="black"/>
<path fill-rule="evenodd" clip-rule="evenodd" d="M29.8295 44.2957C27.5996 44.2957 25.6488 43.6862 23.9204 42.4114H23.8652V42.3009V38.5337V38.1466L24.1444 38.4216C24.5891 39.032 26.4839 40.9148 29.5503 40.9148C31.8914 40.9148 32.1145 39.1989 32.1145 38.4216C32.1145 36.929 30.5533 36.0977 28.8241 35.264L28.7122 35.2122C26.4271 34.1051 23.8652 32.8844 23.8652 29.6171C23.8652 26.6263 26.3719 24.4074 29.8295 24.2421H30.2734C33.2847 24.2421 34.7899 25.35 35.0659 25.5733L35.125 25.6304V25.7386V28.9518V29.2833L34.8475 29.0623C33.7869 28.1228 32.0578 27.565 30.4421 27.565C29.7159 27.565 29.0481 27.6786 28.6026 27.8996C27.8787 28.2318 27.5436 28.785 27.5436 29.6171C27.5436 30.6129 28.7705 31.2233 30.2734 31.9998L30.5533 32.111C32.5064 33.161 35.8489 34.8229 35.8489 38.5908C35.8489 40.1979 35.1802 41.8574 34.1221 42.8C33.0615 43.7426 31.5011 44.2957 29.8295 44.2957Z" fill="black"/>
<path fill-rule="evenodd" clip-rule="evenodd" d="M41.6998 44.4059H41.5342H38.1342H37.9678V44.2405V25.6301V25.5173L38.0805 25.4601C38.1894 25.4029 41.3134 24.1899 44.5999 24.1899C48.1663 24.1899 49.953 25.5173 49.953 25.5173L50.0082 25.5729V25.6842V28.9515V29.2273L49.785 29.0627C49.4515 28.8418 47.8918 27.7346 44.9917 27.679H44.8246C43.3178 27.679 42.2588 28.0097 41.7565 28.1766L41.6998 28.2314V28.2871V44.2405V44.4059Z" fill="black"/>
<path fill-rule="evenodd" clip-rule="evenodd" d="M95.4507 49.369H93.4525V47.0674H87.8584V45.3986H93.4525V43.0166H89.3769V41.2705H93.4525V38.8901H88.258V37.2221H93.4525V35.0781H95.4507V37.2221H100.643V38.8901H95.4507V41.2705H99.524V43.0166H95.4507V45.3986H101.042V47.0674H95.4507V49.369Z" fill="black"/>
<mask id="mask0_903_2895" style="mask-type:luminance" maskUnits="userSpaceOnUse" x="15" y="12" width="136" height="44">
<path d="M15 55.6497H150.859V12H15V55.6497Z" fill="white"/>
</mask>
<g mask="url(#mask0_903_2895)">
<path fill-rule="evenodd" clip-rule="evenodd" d="M68.0703 49.2083H69.6696V35.3995H68.0703V49.2083Z" fill="black"/>
</g>
<mask id="mask1_903_2895" style="mask-type:luminance" maskUnits="userSpaceOnUse" x="15" y="12" width="136" height="44">
<path d="M15 55.6497H150.859V12H15V55.6497Z" fill="white"/>
</mask>
<g mask="url(#mask1_903_2895)">
<path fill-rule="evenodd" clip-rule="evenodd" d="M65.0347 35.3995H63.517V45.2394C63.517 46.6734 63.2768 47.3865 62.7178 47.7797L63.4377 49.2083C64.2362 48.73 64.9554 47.7797 65.0347 45.7964V45.7169V45.2394V35.3995Z" fill="black"/>
</g>
<mask id="mask2_903_2895" style="mask-type:luminance" maskUnits="userSpaceOnUse" x="15" y="12" width="136" height="44">
<path d="M15 55.6497H150.859V12H15V55.6497Z" fill="white"/>
</mask>
<g mask="url(#mask2_903_2895)">
<path fill-rule="evenodd" clip-rule="evenodd" d="M74.6995 45.7164V40.5577H73.1834V45.7164C73.1025 46.5918 73.1025 47.6232 70.7871 47.6232V49.2086H70.8672C72.4634 49.1321 73.4205 48.6538 73.9033 48.0999C74.46 48.6538 75.4187 49.1321 76.9364 49.2086H77.0958V47.6232C74.7804 47.6232 74.6995 46.5918 74.6995 45.7164Z" fill="black"/>
</g>
<mask id="mask3_903_2895" style="mask-type:luminance" maskUnits="userSpaceOnUse" x="15" y="12" width="136" height="44">
<path d="M15 55.6497H150.859V12H15V55.6497Z" fill="white"/>
</mask>
<g mask="url(#mask3_903_2895)">
<path fill-rule="evenodd" clip-rule="evenodd" d="M70.3867 36.9854V35.4773H77.4946V36.9854H74.3022L73.8241 38.0956H74.6218H77.1782V46.2713H75.4996V39.6053H72.3841V46.2713H70.7063V38.0956H72.2232L72.7052 36.9854H70.3867Z" fill="black"/>
</g>
<mask id="mask4_903_2895" style="mask-type:luminance" maskUnits="userSpaceOnUse" x="15" y="12" width="136" height="44">
<path d="M15 55.6497H150.859V12H15V55.6497Z" fill="white"/>
</mask>
<g mask="url(#mask4_903_2895)">
<path fill-rule="evenodd" clip-rule="evenodd" d="M65.752 47.1454H67.3521V36.3499H65.752V47.1454Z" fill="black"/>
</g>
<mask id="mask5_903_2895" style="mask-type:luminance" maskUnits="userSpaceOnUse" x="15" y="12" width="136" height="44">
<path d="M15 55.6497H150.859V12H15V55.6497Z" fill="white"/>
</mask>
<g mask="url(#mask5_903_2895)">
<path fill-rule="evenodd" clip-rule="evenodd" d="M150.175 38.9706H146.636V40.5699H149.812V42.3121C149.228 43.7105 148.367 44.9513 147.23 46.0368C147.23 46.0368 148.285 46.726 149.9 47.3989V49.3451C147.5 48.5377 145.577 47.1826 145.577 47.1826C145.577 47.1826 142.966 48.7139 140.921 49.4309V47.5573C142.58 46.8736 143.917 46.0082 143.917 46.0082C143.106 45.2349 142.369 44.3641 141.707 43.3945L143.345 42.4288C143.934 43.3505 144.665 44.1671 145.535 44.8779C146.414 44.1285 147.076 43.2925 147.52 42.3701H141.329V40.5699H144.548V38.9706H141.359V37.2415H144.548V35.1818H146.636V37.2415H150.175V38.9706ZM136.24 37.7167H137.864V35.1818H139.734V37.7167H140.966V39.5895H139.734V41.7582L141.04 41.4777V43.3652L139.734 43.6673V47.4422C139.734 48.0711 139.577 48.5439 139.263 48.8584C138.949 49.1721 137.612 49.3297 136.229 49.3297L136.226 47.4484H137.206C137.467 47.4484 137.633 47.3603 137.725 47.256C137.817 47.1494 137.864 46.967 137.864 46.7082V44.1208L136.099 44.5179L136.096 42.4566L137.864 42.1329V39.5895H136.24V37.7167Z" fill="black"/>
</g>
<mask id="mask6_903_2895" style="mask-type:luminance" maskUnits="userSpaceOnUse" x="15" y="12" width="136" height="44">
<path d="M15 55.6497H150.859V12H15V55.6497Z" fill="white"/>
</mask>
<g mask="url(#mask6_903_2895)">
<path fill-rule="evenodd" clip-rule="evenodd" d="M119.621 36.2325L122.072 38.2505L120.723 39.5755L118.403 37.4571L119.621 36.2325ZM119.129 39.8915L121.609 41.9242L120.246 43.2353L117.896 41.1462L119.129 39.8915ZM122.189 43.991V35.2103H124.233V43.804V45.649V49.3729H122.189V45.829V43.991ZM117.357 44.3039C117.357 44.3039 115.926 43.8256 115.508 43.3837V49.3729H113.623V44.1493C113.092 45.2889 111.408 46.7855 111.408 46.7855L111.419 44.8485C113.289 42.7803 113.557 41.2034 113.557 41.2034H111.549V39.3445H113.623V37.7313L111.868 37.8905L111.535 36.1761C113.537 36.0216 115.382 35.8253 117.075 35.5843L117.626 37.2709C116.973 37.362 116.267 37.4501 115.508 37.5359V39.3445H117.393V41.2034H115.508C115.508 41.2034 115.978 41.9181 117.357 42.4566V44.3039Z" fill="black"/>
</g>
<mask id="mask7_903_2895" style="mask-type:luminance" maskUnits="userSpaceOnUse" x="15" y="12" width="136" height="44">
<path d="M15 55.6497H150.859V12H15V55.6497Z" fill="white"/>
</mask>
<g mask="url(#mask7_903_2895)">
<path fill-rule="evenodd" clip-rule="evenodd" d="M117.497 46.3582H125.731V44.4769H117.497V46.3582Z" fill="black"/>
</g>
<mask id="mask8_903_2895" style="mask-type:luminance" maskUnits="userSpaceOnUse" x="15" y="12" width="136" height="44">
<path d="M15 55.6497H150.859V12H15V55.6497Z" fill="white"/>
</mask>
<g mask="url(#mask8_903_2895)">
<path fill-rule="evenodd" clip-rule="evenodd" d="M64.9982 21.1034H62.7178V18.3174H70.1375V21.1034H67.8571V32.0118H64.9982V21.1034Z" fill="black"/>
</g>
<mask id="mask9_903_2895" style="mask-type:luminance" maskUnits="userSpaceOnUse" x="15" y="12" width="136" height="44">
<path d="M15 55.6497H150.859V12H15V55.6497Z" fill="white"/>
</mask>
<g mask="url(#mask9_903_2895)">
<path fill-rule="evenodd" clip-rule="evenodd" d="M71.3359 18.3169H77.8429V21.0249H74.1342V23.6533H77.6609V26.3605H74.1342V29.3048H78.0411V32.012H71.3359V18.3169Z" fill="black"/>
</g>
<mask id="mask10_903_2895" style="mask-type:luminance" maskUnits="userSpaceOnUse" x="15" y="12" width="136" height="44">
<path d="M15 55.6497H150.859V12H15V55.6497Z" fill="white"/>
</mask>
<g mask="url(#mask10_903_2895)">
<path fill-rule="evenodd" clip-rule="evenodd" d="M86.6283 31.7176C85.7318 32.0707 84.8183 32.2476 84.0136 32.2476C80.9269 32.2476 78.7227 29.8734 78.7227 25.0662C78.7227 21.0248 80.5171 18.0819 83.998 18.0819C85.382 18.0819 86.3095 18.5725 86.5669 18.71L86.416 21.7309C86.0809 21.476 85.2444 20.9467 84.3471 20.9467C82.5239 20.9467 81.6717 22.4765 81.6717 25.145C81.6717 27.4992 82.6755 29.3047 84.4692 29.3047C85.4877 29.3047 86.2326 28.774 86.5062 28.5391L86.6283 31.7176Z" fill="black"/>
</g>
<mask id="mask11_903_2895" style="mask-type:luminance" maskUnits="userSpaceOnUse" x="15" y="12" width="136" height="44">
<path d="M15 55.6497H150.859V12H15V55.6497Z" fill="white"/>
</mask>
<g mask="url(#mask11_903_2895)">
<path fill-rule="evenodd" clip-rule="evenodd" d="M92.3884 26.4399H90.1694V32.0119H87.3105V18.3168H90.1694V23.5759H92.3884V18.3168H95.2465V32.0119H92.3884V26.4399Z" fill="black"/>
</g>
<mask id="mask12_903_2895" style="mask-type:luminance" maskUnits="userSpaceOnUse" x="15" y="12" width="136" height="44">
<path d="M15 55.6497H150.859V12H15V55.6497Z" fill="white"/>
</mask>
<g mask="url(#mask12_903_2895)">
<path fill-rule="evenodd" clip-rule="evenodd" d="M98.9984 22.5157H98.9378V32.0118H96.4443V18.3167H99.7596L102.541 27.754H102.571V18.3167H105.065V32.0118H101.719L98.9984 22.5157Z" fill="black"/>
</g>
<mask id="mask13_903_2895" style="mask-type:luminance" maskUnits="userSpaceOnUse" x="15" y="12" width="136" height="44">
<path d="M15 55.6497H150.859V12H15V55.6497Z" fill="white"/>
</mask>
<g mask="url(#mask13_903_2895)">
<path fill-rule="evenodd" clip-rule="evenodd" d="M110.429 29.6186H110.445C111.644 29.6186 112.224 27.8717 112.224 25.1645C112.224 22.4959 111.644 20.7112 110.445 20.7112C109.228 20.7112 108.651 22.4959 108.651 25.1645C108.651 27.8717 109.228 29.6186 110.429 29.6186ZM110.459 18.0813C112.77 18.0813 115.174 20.0831 115.174 25.1645C115.174 30.2459 112.77 32.247 110.459 32.247C108.149 32.247 105.747 30.2459 105.747 25.1645C105.747 20.0831 108.149 18.0813 110.459 18.0813Z" fill="black"/>
</g>
<mask id="mask14_903_2895" style="mask-type:luminance" maskUnits="userSpaceOnUse" x="15" y="12" width="136" height="44">
<path d="M15 55.6497H150.859V12H15V55.6497Z" fill="white"/>
</mask>
<g mask="url(#mask14_903_2895)">
<path fill-rule="evenodd" clip-rule="evenodd" d="M115.854 18.3169H118.713V29.2253H122.208V32.012H115.854V18.3169Z" fill="black"/>
</g>
<mask id="mask15_903_2895" style="mask-type:luminance" maskUnits="userSpaceOnUse" x="15" y="12" width="136" height="44">
<path d="M15 55.6497H150.859V12H15V55.6497Z" fill="white"/>
</mask>
<g mask="url(#mask15_903_2895)">
<path fill-rule="evenodd" clip-rule="evenodd" d="M127.056 29.6186H127.072C128.272 29.6186 128.851 27.8717 128.851 25.1645C128.851 22.4959 128.272 20.7112 127.072 20.7112C125.856 20.7112 125.278 22.4959 125.278 25.1645C125.278 27.8717 125.856 29.6186 127.056 29.6186ZM127.087 18.0813C129.398 18.0813 131.8 20.0831 131.8 25.1645C131.8 30.2459 129.398 32.247 127.087 32.247C124.776 32.247 122.374 30.2459 122.374 25.1645C122.374 20.0831 124.776 18.0813 127.087 18.0813Z" fill="black"/>
</g>
<mask id="mask16_903_2895" style="mask-type:luminance" maskUnits="userSpaceOnUse" x="15" y="12" width="136" height="44">
<path d="M15 55.6497H150.859V12H15V55.6497Z" fill="white"/>
</mask>
<g mask="url(#mask16_903_2895)">
<path fill-rule="evenodd" clip-rule="evenodd" d="M137.3 24.0851H141.42V31.482C140.812 31.8745 139.565 32.2468 138.213 32.2468C134.945 32.2468 132.481 29.8139 132.481 25.2424C132.481 21.1036 134.366 18.0812 138.349 18.0812C139.732 18.0812 140.66 18.4358 141.102 18.6305L140.948 21.5548C140.402 21.1036 139.596 20.7891 138.623 20.7891C136.419 20.7891 135.43 22.5939 135.43 25.2625C135.43 27.9311 136.479 29.4616 137.817 29.4616C138.182 29.4616 138.516 29.4021 138.744 29.2252V26.6362H137.3V24.0851Z" fill="black"/>
</g>
<mask id="mask17_903_2895" style="mask-type:luminance" maskUnits="userSpaceOnUse" x="15" y="12" width="136" height="44">
<path d="M15 55.6497H150.859V12H15V55.6497Z" fill="white"/>
</mask>
<g mask="url(#mask17_903_2895)">
<path fill-rule="evenodd" clip-rule="evenodd" d="M144.793 27.0284L141.585 18.3173H144.839L146.299 23.5756H146.329L147.712 18.3173H150.859L147.652 27.0284V32.0116H144.793V27.0284Z" fill="black"/>
</g>
</g>
<defs>
<clipPath id="clip0_903_2895">
<rect width="136" height="44" fill="white" transform="translate(15 12)"/>
</clipPath>
</defs>
</svg>
