<svg t="1741421231314" class="icon" viewBox="0 0 7191 1024" version="1.1" xmlns="http://www.w3.org/2000/svg" p-id="8158" width="200" height="200"><path d="M4633.489428 912.129739c5.585321 72.911715 7.423823 74.820033 68.652907 74.820032 27.833518 0 55.643763 1.838502 83.547097 0 87.200828-3.816636 133.582267-52.362387 133.582267-140.214835V54.224393h-918.552625c-1.93159 5.585321-5.585321 7.516912-5.585322 9.355413 0 299.093953-1.861774 596.279589-1.861773 895.280454 0 7.516912 5.585321 24.365964 9.308869 24.365964 22.248196 1.908318 44.519665 5.585321 64.929359 0 7.400551-1.908318 11.124098-28.042967 11.124098-43.053518V181.336996c0-16.82578 1.908318-31.766515 1.908318-48.615567h742.242651c1.861774 5.585321 3.723548 9.355413 3.723548 11.263731 0 235.467835 1.861774 469.166986 0 704.634822 0 41.098656-24.133242 63.533029-66.86095 63.533029H4633.489428z m-1144.967586-491.578088h161.462329v46.707249c0 158.879118 1.861774 319.666553 0 478.568944 0 33.605016 11.14737 42.960429 42.681163 42.960429s46.381439-3.74682 46.381439-43.030246c-1.861774-143.891839 0-287.830222 0-433.630379 0-85.990675 0-85.990675 79.777005-100.93141v-67.303121h-315.384474c-3.793364-9.332141-5.631866-11.170643-5.631865-14.940734V207.494918c0-67.349666 16.686147-84.128901 85.408871-84.128902h211.497498V50.454301h-257.948754c-77.938504 1.908318-124.319942 48.638839-126.158443 127.112603 0 104.678229 1.908318 207.44814 0 312.12637-3.723548 164.534255 16.686147 332.69897-61.229085 489.739586 83.477281 16.849052 100.1867 9.355413 116.872848-69.118351 12.985872-65.487892 24.133242-130.882695 25.971743-196.277498 0-95.322816-3.700275-194.415724-3.700275-293.48536z m-231.907193-205.609638c-72.422999-11.170643-74.214956-9.332141-87.270645 56.062662-3.723548 16.82578-3.723548 33.674833-9.262324 48.615567-3.723548 9.332141-14.847646 22.434374-22.271469 22.434374-51.943488 1.908318-103.886975 1.908318-157.692237 1.908318-7.447095-29.928013-12.985872-56.132479-18.571193-80.405354-11.124098-57.947708-14.89419-59.809482-81.685323-44.868748 5.585321 41.121928 11.124098 82.243856 18.547921 127.112603H2792.66063v72.888443h200.443216c11.124098 0 31.533793 5.585321 31.533793 9.355413 3.723548 31.766515 5.585321 63.533029 0 95.322816-1.93159 7.447095-35.25734 13.102233-53.805261 13.102233-52.013304 1.908318-103.956792 0-154.061778 0v74.726944h211.567315c0 89.760767 1.861774 175.751442-1.908318 261.672301-1.791957 18.734098-27.763701 37.421652-46.311623 52.362387-9.285597 7.493639-26.064833 5.585321-42.750979 7.493639 7.447095 24.296147 13.055688 46.730521 20.479511 67.256577 103.886975 7.493639 157.692237-42.983702 159.554011-142.053338v-248.546796h198.581443c14.847646-71.073213 12.985872-72.911715-53.805262-72.911714-39.027432 0-77.985048 1.908318-115.08089-1.908318-9.308869 0-25.995016-11.170643-27.833518-20.526056-3.723548-31.789787-1.861774-61.671256-1.861773-99.092908h220.852911c9.262324-71.049941 9.262324-71.049941-55.667035-71.049941-14.847646 0-31.603609-1.861774-50.151531-3.677003 7.423823-44.868747 14.89419-84.152174 24.179787-125.204285v-0.069816z m2208.226576 697.210998h-92.762877c-35.303885 0-61.275629-16.849052-61.275629-54.224161-1.861774-69.141623 0-138.306518 0-211.19496 40.81939 0 79.82355-1.908318 118.804438 0 22.248196 0 33.395567-7.493639 31.533793-29.858196-1.93159-13.172049 0-26.204466 0-46.777066h-150.338231v-84.082357c1.908318-71.073213-12.985872-69.211439 68.699452-69.211439 63.067586 0 68.652907-7.447095 48.243212-72.911715h-180.033522c-57.575353 0-70.514681 11.263731-81.638779 71.049941 16.639603 1.908318 35.25734 3.74682 53.805262 5.585321v149.570249h-85.339055c-22.248196-1.908318-29.672019 7.493639-27.833517 29.858197 1.861774 13.148777 1.861774 26.181193 1.861774 46.777065h113.172572v218.642055c1.861774 65.441347 46.381439 112.171869 109.472296 119.665508 20.479511 1.908318 40.865934 1.908318 61.275629 1.908318 63.067586 0 63.067586 0 72.306638-74.820032h0.046544z m925.999721-418.712917V998.143686h100.163428V472.890766c0-31.766515 9.308869-50.454069 37.119114-65.46462 12.985872-7.447095 27.833518-24.272875 31.533793-37.375108 5.585321-26.181193 1.93159-54.224161 1.93159-89.667678-94.694468 59.739665-183.757069 114.033642-270.934625 170.073032-7.493639 3.74682-13.055688 14.940734-13.055689 22.434374-1.791957 27.973151 0 56.062662 0 91.529452a1774.270387 1774.270387 0 0 1 113.219117-70.980124zM3317.820461 95.323049h-154.131594c-53.805261 0-53.805261 0-55.643764-56.03939 0-11.263731-1.861774-20.595872-3.723547-31.789787h-81.615507a14784.578095 14784.578095 0 0 0-5.585321 89.690951h-202.281718v69.11835h501.049861c1.861774-24.249603 1.861774-44.775659 1.861774-70.980124h0.069816z m2033.755104-91.575997c-20.386423 0-31.533793 1.908318-40.796118 0-40.81939-7.493639-64.92936 11.170643-83.500553 46.707249-29.672019 54.224161-63.067586 106.516731-96.463152 158.90239a3865.833565 3865.833565 0 0 0-55.667035 91.575997c64.92936 14.940734 109.40248 5.585321 133.582266-56.062662 1.861774-5.655138 5.585321-9.332141 9.285597-14.987279 9.262324-24.272875 25.971744-31.789787 51.943488-31.789787 44.519665 1.908318 90.901103 0 135.490585 0 61.229084 0 66.791133-7.447095 48.243212-76.565446h-170.747925c22.271469-39.283426 44.519665-74.820033 68.652907-117.757189zM6552.25673 0.000233c-76.053458 46.707249-152.130188 93.414498-228.183645 142.053337-57.598625 35.513334-66.86095 61.647983-44.612754 134.606242 66.86095-41.121928 131.79031-87.898993 200.443217-123.365783 64.92936-33.674833 96.486425-74.796761 72.376454-153.293796z" fill="#616161" p-id="8159"></path><path d="M3187.822109 691.323372c7.447095 86.89829 14.847646 168.164714 22.271468 247.499548 5.585321 60.391286 12.985872 68.024559 81.685324 49.08101-9.285597-98.208565-18.547921-196.440403-27.833518-298.442332-25.971744 1.861774-48.289757 1.861774-76.100002 1.861774z m-276.45013 7.563455c-64.92936-18.873731-76.053458-11.35682-81.615507 45.380736a384.99154 384.99154 0 0 1-7.423823 45.264374 10983.487712 10983.487712 0 0 1-29.672019 205.958722c31.533793-1.93159 68.652907 22.667095 77.915231-20.758778 18.547921-90.691654 27.810245-183.268354 40.796118-275.845054z m4209.84281 238.004503c-44.519665 54.805965-103.863703 66.162785-170.654836 60.507647-27.810245-1.908318-57.575353 0-87.247373 0-74.191684 0-74.191684 0-81.615507-85.036517h163.30083c66.791133 0 85.339054-18.897004 85.339055-86.921562V485.36465c0-13.218594-1.861774-28.252417-1.861774-45.287646H6636.990708v-90.761471h482.362307c1.908318 194.648446 1.908318 391.088849 1.908319 587.529252l-0.069817 0.046545zM6651.838354 162.323632h469.399707V69.816748h-469.399707v92.506884z" fill="#616161" p-id="8160"></path><path d="M6724.005359 451.084741H7191.101121v-90.784743h-467.095762v90.784743z m-1118.786393 125.855906v146.195784c0 46.241806-1.838502 94.391929 1.908318 140.633734 1.791957 40.726301 22.108563 59.204405 62.695232 59.204406 44.35676 1.908318 90.528749 0 134.815691 0 1.838502 62.927953-7.400551 74.075323-62.765047 74.075323-35.071163 0-72.050644 0-107.121807-1.885046-66.442051-3.723548-114.429269-49.965353-114.42927-114.731807-1.861774-259.112362-1.861774-516.36295-1.861774-775.428769 0-20.409695 3.723548-35.187524 27.693885-35.187524 162.486304 0 323.087563 1.885046 485.573867 1.885046 1.838502 0 5.538777 1.838502 12.916055 5.538777v353.457747c0 85.152877-47.987218 135.11823-134.815691 136.93346h-101.513214c35.071163 55.573947 66.465323 103.654254 99.674712 155.434836 60.903274-42.54153 118.199361-81.359513 177.264133-123.97086 11.077554 57.389176 7.377278 103.654254-49.848992 129.625998-25.832111 12.916055-47.987218 35.14098-75.727647 53.619084 44.35676 70.351776 88.666975 136.93346 136.654193 211.008783-35.071163 0-62.765048 3.723548-90.458932-1.908318-12.916055-1.861774-27.693885-14.777829-36.909665-27.693885-75.727647-111.054804-153.247252-222.109609-221.551076-336.841416-31.370888-57.389176-75.727647-64.812999-142.192971-50.03517v0.069817z m3.770092-431.233346v136.93346h330.464841c7.354006 0 18.43156-12.9626 18.431561-20.316606 1.908318-38.911071 0-75.890553 0-116.616854h-348.896402z m-1.861774 214.639242c0 40.726301-1.838502 77.775599 1.908319 116.593581 0 7.447095 14.708013 20.409695 22.108563 20.409695 90.482204 1.885046 180.941137 1.885046 271.353524-1.885046 20.386423-1.838502 48.010491-25.878655 53.525996-44.380032 9.239052-25.9252 1.93159-57.389176 1.93159-88.853152-118.199361-1.861774-232.62863-1.861774-350.827992-1.861774z m-972.893146 562.6513h129.207098c40.679757-1.908318 66.511867-22.224924 66.511867-62.927953V162.370176c0-1.861774-1.908318-5.585321-3.700275-11.124098h-738.542376c0 16.686147-1.861774 31.463976-1.861773 48.150124v751.34207c0 14.847646-3.677003 40.726301-11.054282 42.588075-20.316606 5.562049-42.448442 3.723548-64.603549 0-3.700275 0-9.239052-14.847646-9.239053-24.086698 0-296.068571 0-590.321913 1.861774-886.460301 0-1.885046 1.838502-5.538777 5.538777-9.239052h913.828375v784.691093c0 86.968106-46.148717 135.11823-132.884102 138.818505-27.693885 1.838502-55.387769 0-83.128198 0-62.765048 0-66.465323-3.770092-71.911011-74.052051z m-1139.079727-486.760748c0 98.115477 3.700275 196.207681-1.838501 292.438113a1365.611048 1365.611048 0 0 1-25.832111 194.322635c-16.546514 77.705782-33.232661 85.129605-116.291043 68.443458 77.519605-153.526518 59.064772-320.155269 60.903274-484.85243 1.861774-103.630982 0-205.446734 0-309.100987 0-77.705782 47.987218-125.855906 125.506823-125.855906 84.9667-1.815229 169.886855 0 256.622239 0v72.260094h-210.473522c-68.350369 0-84.943427 16.593059-84.943428 83.244559v120.317128c0 1.815229 1.885046 5.538777 5.515505 14.77783h313.84851v66.6515c-79.358106 14.777829-79.358106 14.777829-79.358106 99.930706 0 142.472236-1.861774 284.991017 0 429.371572 0 36.979481-14.777829 42.518258-46.148717 42.518258-31.39416 0-42.471714-7.354006-42.471714-42.54153 1.861774-157.319882 0-316.501538 0-473.774876v-46.265078c-47.987218-1.861774-96.044253-1.861774-155.085753-1.861774h0.046544z" fill="#616161" p-id="8161"></path><path d="M4311.565474 611.220556c-27.833518 52.362387-50.104986 95.322816-70.514681 138.283245-33.442111 65.46462-33.442111 65.46462-113.335477 54.224161 7.447095-14.940734 13.009144-29.881469 18.571193-44.868748 33.488655-67.256577 68.745996-132.697924 104.026609-199.954501 12.985872-22.434374 12.985872-41.121928 1.861773-65.464619-37.142386-69.141623-70.561225-138.283246-105.888382-207.448141a712.500815 712.500815 0 0 1-16.639603-37.351836c77.961776-11.263731 77.961776-11.263731 111.380615 52.292571 22.271469 42.960429 44.566209 84.082357 70.537953 136.468016 31.580337-59.809482 59.413855-110.286823 83.547097-162.64921 13.009144-29.881469 33.418839-31.789787 59.413855-29.881468 26.064833 0 50.198075-1.908318 65.045721 29.881468 22.271469 52.362387 51.96676 102.839728 83.547097 162.64921 25.971744-48.638839 48.266485-89.760767 68.676179-130.882695 33.418839-65.441347 33.418839-67.303121 115.173979-57.877892-11.217187 24.272875-22.341285 44.798931-33.488656 67.233305-20.409695 43.030246-38.980888 87.898993-64.975904 125.204285-44.566209 61.7178-35.210796 114.080187 1.931591 173.889669 37.119114 59.809482 64.906087 123.342511 96.532969 188.737314-78.054865 13.102233-79.893366 13.102233-111.403887-46.683977-24.203059-44.868747-46.474527-89.760767-74.308045-143.891839-29.718564 57.901164-59.413855 108.355232-83.547097 160.717619-14.847646 35.536607-40.842662 33.698105-70.60777 35.536607-31.557065 1.861774-44.566209-11.240459-55.690307-35.606423-22.294741-52.29257-48.266485-102.746639-79.82355-162.556121z m144.822726 112.171868c35.327157-69.141623 66.884222-129.020921 96.579513-190.668904 1.861774-3.74682 1.861774-9.332141 0-11.240459-31.533793-61.671256-63.11413-123.295967-98.441287-194.36918a5857.093683 5857.093683 0 0 0-92.809422 183.151993c-3.723548 7.516912-5.585321 20.549328-1.861773 26.204466 31.557065 59.739665 63.11413 117.75719 96.532969 186.852268v0.069816zM3256.917187 214.942013c-7.516912 41.843365-15.592355 83.570369-24.203059 125.204284 18.571193 1.908318 35.327157 3.793364 50.174803 3.793364 63.137402 0 63.137402 0 55.71358 71.003397h-220.992545c0 37.375108-1.861774 69.141623 1.93159 99.092908 0 7.447095 18.547921 18.664282 27.763701 20.526056 39.050704 1.908318 77.961776 1.908318 115.173979 1.908318 66.837678 0 66.837678 1.908318 53.758717 72.888442h-198.627987v248.546796c0 99.092908-55.690307 149.570249-159.647099 142.07661-5.585321-20.526056-13.078961-42.983702-20.479511-67.256577 16.686147-1.908318 33.465383 0 42.750979-7.493639 18.571193-14.940734 44.542937-33.674833 46.404711-52.362387 5.585321-85.944131 1.861774-171.934806 1.861774-261.672301h-211.706948v-74.726944c50.128258 0 102.11829 1.908318 154.154867 0 18.571193 0 51.990032-5.655138 53.758717-13.102233 5.655138-29.881469 3.793364-63.533029 0-95.322816 0-3.770092-20.339878-9.355413-31.487249-9.355413H2792.66063v-72.958259h105.818565c-7.447095-46.707249-12.985872-87.829177-18.571193-127.089331 66.837678-14.940734 70.60777-13.102233 81.75514 44.868747 5.585321 26.181193 11.14737 50.454069 18.571193 80.335538 53.758717 0 105.818566 1.885046 157.785326-1.861774 7.447095 0 18.571193-13.078961 22.294741-22.434374 5.562049-14.917462 7.423823-31.766515 9.285596-48.615567 12.985872-67.256577 12.985872-67.256577 87.317189-56.062662v0.069817z m2209.646179 697.210998c-9.308869 72.888442-9.308869 74.796761-72.399727 74.79676-20.479511 0-40.912478 0-61.345445-1.908318-63.11413-5.585321-107.657067-54.224161-109.518841-119.618963-1.861774-71.049941 0-142.030065 0-218.6886h-113.312205c0-20.5726-1.791957-33.674833-1.791957-46.707249-1.93159-20.595872 7.447095-29.858197 27.85679-29.858196 27.833518 1.768685 53.758717 0 85.408871 0v-149.640066c-18.594465-1.885046-37.142386-3.723548-53.851806-5.585321 12.985872-59.809482 25.971744-71.049941 81.685323-71.049941h180.126611c18.571193 65.46462 14.847646 72.911715-48.266485 72.911715-81.75514 0-68.745996-1.861774-68.745996 69.211439v84.082357h150.43132c0 18.687554-1.908318 33.674833 0 46.707249 1.861774 24.342692-9.285597 31.789787-31.557066 29.881469-39.050704-1.861774-76.169819 0-118.874254 0 0 72.958259-1.861774 142.099882 0 211.241504 1.908318 35.536607 27.833518 52.362387 61.322173 54.224161 29.695291 1.908318 59.413855 0 92.832694 0z m926.558253-418.712917c-44.542937 26.181193-77.961776 46.777066-118.874254 71.073213 0-35.536607-1.861774-63.556301 0-91.599269 0-7.493639 7.447095-18.687554 13.055688-22.434374a14443.058972 14443.058972 0 0 1 271.050986-170.073032c0 35.46679 3.723548 63.556301-1.861773 89.690951-1.861774 14.917462-16.639603 29.858197-31.557066 37.351836-27.833518 15.010551-37.119114 33.698105-37.119114 65.464619 1.908318 158.90239 0 319.620009 0 478.522399v46.707249h-100.256516c5.585321-164.487711 5.585321-328.95215 5.585321-504.633776v-0.069816zM3318.169544 95.323049v69.164895h-501.375672V95.323049h202.421351c1.861774-31.766515 3.723548-59.809482 5.585322-89.737495h81.685323c1.861774 11.263731 3.700275 22.434374 3.700275 31.789787 1.908318 56.109206 1.908318 56.109206 55.690308 56.109206 48.266485 1.861774 98.441287 1.861774 152.293093 1.861774zM5353.251161 3.747052c-24.133242 42.960429-46.404711 78.497036-72.32991 123.295967h170.794469c18.547921 69.211439 14.847646 76.728351-48.266484 76.728351-44.636026 0-91.040737 1.885046-135.606946 0-25.971744 0-42.681163 7.423823-51.96676 31.766515-1.93159 5.585321-7.447095 9.332141-9.285596 14.940734-22.271469 61.647983-68.699451 71.049941-133.7219 56.062662a3859.619895 3859.619895 0 0 1 55.690307-91.529452c31.626882-52.362387 66.884222-104.724774 96.579514-158.90239 18.571193-35.583151 42.704435-56.109206 83.547097-46.777065 13.009144-3.723548 24.133242-5.585321 44.566209-5.585322zM6554.653764 0.000233c24.133242 78.497036-7.447095 119.618964-70.561225 153.293796-68.676179 35.46679-133.652083 82.243856-200.559578 123.295967-22.271469-72.841898-12.985872-99.023091 44.612754-134.536426 74.261501-48.569023 150.454591-95.346088 226.508049-142.053337z" fill="#616161" p-id="8162"></path><path d="M3204.322079 700.190069h72.911714c9.192508 99.069636 18.245383 194.555357 27.414619 289.924718-65.697341 16.523242-74.820033 10.984465-80.288993-47.707953-5.46896-78.892663-12.75315-157.785326-20.03734-242.216765z m-271.702607 7.354006c-12.776422 89.830584-23.714343 179.824072-40.121225 267.909244-7.28419 42.192448-43.751683 18.338471-76.565445 20.1537 9.122691-69.676883 20.107157-133.954622 29.160031-200.024317 1.559236-14.801101 3.979541-29.485842 7.307462-43.984405 7.28419-56.90046 16.406881-62.369421 80.219177-44.054222z" fill="#616161" p-id="8163"></path><path d="M803.332102 1023.975797a185.525754 185.525754 0 0 1-156.714805-87.642999L0 0.000233h221.667437a183.570892 183.570892 0 0 1 150.501136 80.14936L1023.975564 1023.975797h-220.643462z" fill="#0079C2" p-id="8164"></path><path d="M2047.881312 1023.975797h-180.894592c-58.226974 0.116361-108.215599-42.588075-118.734621-101.46667L1547.180533 0.000233h181.104042c58.18043-0.116361 108.099239 42.588075 118.61826 101.466669L2047.951128 1023.975797h-0.069816z m-939.264859-101.46667L907.614705 0.000233h180.824775c58.226974-0.116361 108.169055 42.588075 118.618261 101.466669L1408.245667 1023.975797h-180.824776c-58.226974 0.116361-108.169055-42.588075-118.688077-101.46667h-0.116361z" fill="#008C38" p-id="8165"></path><path d="M2149.999602 922.485855c-10.449205 58.948411-60.391286 101.699391-118.548443 101.46667h-180.731688a119.15352 119.15352 0 0 1-95.113366-47.707953 62.462509 62.462509 0 0 0 62.927953 22.736912c23.458349-5.259511 42.052815-23.760888 47.963946-47.707952l174.075846-798.980206c15.592355-88.085171 90.249483-152.223276 177.403766-152.223277H2350.489363l-200.489761 922.485623v-0.069817zM1757.816961 23.458582c-29.043671 0-54.387066 20.24679-61.671255 49.197371l-185.130128 849.829902c-10.425933 58.948411-60.32147 101.606303-118.478627 101.489942h-180.87132A119.549147 119.549147 0 0 1 1117.064252 976.244572a62.625415 62.625415 0 0 0 62.951225 22.806729 64.3941 64.3941 0 0 0 47.940674-47.731225L1412.620835 101.490174C1423.116585 42.588307 1473.058666-0.116128 1531.146007 0.000233h180.941136c36.956209 0.069817 71.79465 17.617034 94.601379 47.614863a63.137402 63.137402 0 0 0-48.871561-24.156514z" fill="#5BB547" p-id="8166"></path><path d="M1118.22786 24.598918a93.321409 93.321409 0 0 0-68.25728 29.858197l-669.074942 891.626723A189.272574 189.272574 0 0 1 227.834563 1023.975797H0L707.986014 80.149593A188.876947 188.876947 0 0 1 861.931431 0.000233h228.76545c57.947708-0.116361 107.936333 41.377922 119.456059 99.302357a94.741012 94.741012 0 0 0-91.92508-74.703672z" fill="#00B8EE" p-id="8167"></path></svg>