<svg t="1741421320627" class="icon" viewBox="0 0 4900 1024" version="1.1" xmlns="http://www.w3.org/2000/svg" p-id="9466" width="200" height="200"><path d="M1704.996571 480.548571h270.482286V258.633143h121.965714v546.377143h-121.270857v-228.169143H1705.691429v228.205714h-121.307429V258.633143h121.307429v221.915428h-0.694858z m613.229715 105.362286c0 96.987429 29.988571 136.777143 130.121143 136.777143 100.205714 0 129.462857-40.484571 129.462857-136.777143v-327.314286h121.965714v330.093715c0 69.814857-8.155429 117.942857-34.048 146.578285-47.725714 53.028571-116.516571 75.337143-217.380571 75.337143-100.827429 0-170.313143-21.613714-218.038858-75.337143-26.550857-29.330286-32.694857-77.458286-32.694857-146.578285V258.633143h120.612572v327.314286z m778.093714-327.314286l245.979429 546.450286h-134.912l-53.138286-129.828571h-251.428572l-51.090285 129.828571h-128.768l244.589714-546.413714h128.768z m-153.307429 318.939429h172.397715l-87.222857-210.066286-85.174858 210.066286zM3397.485714 258.633143l134.217143 420.096 112.457143-420.096h143.725714l129.462857 420.096 124.708572-420.096h124.708571l-178.541714 546.377143h-148.516571l-123.355429-407.515429-107.629714 407.552h-147.858286L3268.717714 258.633143H3397.485714z m932.096 221.915428h336.603429v94.902858h-336.603429c0.694857 98.377143 41.581714 133.997714 136.96 133.997714h199.643429v94.902857h-205.092572c-69.485714 0-123.977143-4.900571-179.894857-47.469714-59.245714-44.653714-88.576-116.553143-88.576-215.625143 0-193.316571 85.869714-283.318857 271.872-283.318857h201.691429v94.902857h-199.643429c-87.222857 0.694857-131.510857 41.874286-136.96 127.707428m443.574857 324.498286H4900.571429V258.633143h-127.414858v546.377143z" fill="#231916" p-id="9467"></path><path d="M92.416 394.605714c4.059429 83.017143 65.682286 132.169143 65.682286 132.169143 98.157714 97.645714 336.420571 221.513143 391.899428 249.892572 0.694857 0 3.401143 1.389714 5.412572-0.658286 0 0 2.048-2.084571 1.353143-4.864-151.625143-338.505143-358.765714-595.309714-358.765715-595.309714s-113.005714 109.348571-105.581714 218.733714m24.393143 475.574857c43.300571 78.226286 115.748571 139.117714 190.902857 120.429714 52.077714-13.165714 169.874286-97.609143 208.457143-125.988571 2.706286-2.742857 2.011429-4.827429 2.011428-4.827429-0.658286-3.474286-5.412571-3.474286-5.412571-3.474285l-395.958857 13.860571zM22.052571 688.091429c43.300571 92.745143 125.220571 121.124571 125.220572 121.124571 24.356571 9.691429 50.102857 15.908571 75.812571 17.298286 6.070857 1.389714 235.52 0 297.142857 0 2.706286 0 4.022857-2.742857 4.022858-2.742857 2.048-3.474286-1.316571-6.217143-1.316572-6.217143C348.964571 697.051429 11.190857 512.877714 11.190857 512.877714c-30.427429 96.914286 10.861714 175.177143 10.861714 175.177143M487.058286 13.165714c-104.923429 27.684571-129.974857 125.293714-129.974857 125.293715-18.944 61.586286 0.694857 128.731429 0.694857 128.731428 35.181714 159.232 207.104 420.205714 244.333714 474.88 2.706286 2.779429 4.754286 1.389714 4.754286 1.389714 4.059429-1.389714 3.401143-4.864 3.401143-4.864C667.062857 155.794286 550.656 0.731429 550.656 0.731429c-17.554286 1.389714-63.597714 12.434286-63.597714 12.434285m191.561143 725.467429c0.658286 3.474286 3.364571 4.169143 3.364571 4.169143 4.096 1.389714 5.449143-2.084571 5.449143-2.084572 37.888-56.064 209.152-315.648 244.333714-474.185143 0 0 18.944-76.8 0.694857-128.731428 0 0-25.746286-98.998857-131.328-125.293714 0 0-30.464-7.643429-62.281143-12.470858 0 0.694857-117.101714 155.062857-60.233142 738.596572m96.804571 117.686857s-3.401143 0.731429-4.754286 3.474286c0 0-0.658286 3.474286 1.353143 5.522285 37.924571 27.684571 152.978286 110.08 208.457143 125.988572 0 0 102.912 36.022857 191.597714-120.429714l-396.653714-14.555429z m-8.813714-39.460571s-3.401143 2.084571-2.011429 6.217142c0 0 1.353143 2.779429 4.022857 2.779429 62.281143 0 298.532571 0 304.64-0.694857 0 0 30.427429-1.353143 68.352-15.908572 0 0 83.931429-26.989714 127.926857-124.598857 0 0 38.582857-79.616 8.777143-172.361143-0.658286-0.694857-337.078857 184.137143-511.707428 304.566858m-32.475429-47.762286s-2.048 4.169143 1.353143 6.217143c0 0 2.706286 2.084571 5.412571 0.731428 56.832-29.074286 293.083429-151.625143 390.582858-249.234285 0 0 62.244571-51.2 64.950857-132.900572 6.765714-113.517714-104.228571-218.733714-104.228572-218.733714s-207.140571 256.109714-358.070857 593.92" fill="#E50113" p-id="9468"></path></svg>