<svg t="1741420312537" class="icon" viewBox="0 0 3045 1024" version="1.1" xmlns="http://www.w3.org/2000/svg" p-id="4801" width="200" height="200"><path d="M2267.162256 461.902769h152.917334v77.298872h-152.917334v230.216205h248.700718V692.118974h-171.401846v-75.618461h152.917334v-231.896616h-152.917334v-77.298871h171.401846V230.006154h-248.700718z" fill="#C6000B" p-id="4802"></path><path d="M2532.667077 1.470359C2258.760205 1.470359 2035.265641 223.284513 2035.265641 498.871795c0 275.587282 223.494564 497.401436 497.401436 499.081846 275.587282 0 499.081846-223.494564 499.081846-499.081846 0-273.906872-223.494564-497.401436-499.081846-497.401436z m1.68041 919.18441c-233.577026 0-421.782974-189.886359-421.782974-421.782974S2300.770462 77.088821 2534.347487 77.088821c231.896615 0 421.782974 188.205949 421.782975 421.782974 0 231.896615-188.205949 421.782974-421.782975 421.782974z" fill="#C6000B" p-id="4803"></path><path d="M2554.51241 307.305026h171.401846v77.298871h-152.917333v231.896616h152.917333v77.298872h-171.401846v73.938051h248.700718v-231.896615h-152.917333v-77.298872h152.917333V230.006154h-248.700718z" fill="#C6000B" p-id="4804"></path><path d="M1035.421538 766.057026c63.85559 0 112.587487-15.123692 144.515283-47.051488 31.927795-31.927795 38.649436-72.257641 38.649435-100.824615 0-62.175179-26.886564-105.865846-77.298871-129.39159l-1.680411-1.68041 1.680411-1.68041c23.525744-11.762872 53.773128-36.969026 53.773128-110.907077 0-40.329846-15.123692-77.298872-43.690667-102.505026-30.247385-28.566974-75.618462-43.690667-129.39159-43.690666H741.349744v536.050871l294.071794 1.680411z m-193.247179-325.99959v-112.587487h169.721436c30.247385 0 80.659692 0 80.659692 58.814359 0 21.845333-10.082462 36.969026-28.566974 45.371077-16.804103 8.402051-36.969026 8.402051-52.092718 8.402051h-169.721436z m0 99.144205l184.845128-1.68041c16.804103 0 42.010256 3.360821 60.494769 15.123692 18.484513 11.762872 26.886564 30.247385 26.886565 52.092718 0 18.484513-5.041231 31.927795-15.123693 42.010256-18.484513 18.484513-50.412308 18.484513-72.257641 18.484513h-188.205949v-1.68041l3.360821-124.350359zM1.969231 230.006154h107.546256v536.050872H1.969231V230.006154z m193.247179 263.82441c0 52.092718 8.402051 94.102974 26.886564 131.072 15.123692 30.247385 36.969026 55.453538 67.216411 80.659692 47.051487 38.649436 114.267897 57.133949 199.96882 57.133949h146.195692v-100.824615h-137.793641c-77.298872 0-132.75241-18.484513-166.360615-57.133949-23.525744-26.886564-35.288615-62.175179-35.288615-107.546256 0-47.051487 13.443282-85.700923 40.329846-112.587488 33.608205-33.608205 87.381333-50.412308 161.319384-50.412307h137.793641v-100.824616h-141.154461c-47.051487 0-87.381333 5.041231-122.669949 15.123693-35.288615 10.082462-62.175179 23.525744-85.700923 43.690666-33.608205 28.566974-90.742154 92.422564-90.742154 201.649231z m1088.905846 0c0 52.092718 8.402051 97.463795 26.886565 136.113231a219.582359 219.582359 0 0 0 67.21641 84.020513c45.371077 35.288615 109.226667 52.092718 199.96882 52.092718h154.597744v-100.824616h-146.195692c-77.298872 0-132.75241-20.164923-166.360616-58.814359-23.525744-26.886564-35.288615-63.85559-35.288615-109.226666 0-48.731897 13.443282-87.381333 40.329846-115.948308 33.608205-33.608205 87.381333-50.412308 161.319385-50.412308h146.195692V230.006154h-149.556513c-47.051487 0-87.381333 5.041231-122.669949 15.123692-35.288615 10.082462-62.175179 23.525744-85.700923 43.690667-28.566974 23.525744-90.742154 89.061744-90.742154 205.010051z" fill="#231815" p-id="4805"></path></svg>