<svg width="495" height="495" viewBox="0 0 495 495" fill="none" xmlns="http://www.w3.org/2000/svg">
<path d="M473.94 247.045C451.255 247.045 428.557 247.045 405.872 247.045C403.902 315.057 409.854 365.437 386.631 386.645C365.422 409.869 315.046 403.92 247.031 405.883C247.031 428.576 247.031 451.268 247.031 473.958C309.382 473.105 368.794 481.652 410.415 487.908C452.798 494.141 477.386 498.089 487.54 487.574C498.059 477.426 494.12 452.821 487.887 410.436C481.636 368.808 473.093 309.397 473.94 247.045Z" fill="#76B900"/>
<path d="M247.031 88.214C247.031 65.5193 247.031 42.8276 247.031 20.1299C184.679 20.9836 125.271 12.44 83.645 6.18315C41.2669 -0.0492706 16.6738 -3.99483 6.52634 6.51859C-3.99134 16.6722 -0.0555108 41.2787 6.1757 83.6592C12.4264 125.29 20.9713 184.695 20.1188 247.045C42.811 247.045 65.5026 247.045 88.1949 247.045C90.1579 179.031 84.2146 128.658 107.438 107.455C128.644 84.2312 179.021 90.177 247.031 88.214Z" fill="#76B900"/>
<path d="M447.327 231.032C431.99 232.209 416.653 233.248 401.322 234.153C400.072 171.379 405.969 126.797 385.765 108.307C367.275 88.1091 322.69 94.0073 259.916 92.759C260.819 77.4273 261.86 62.0963 263.035 46.761C312.587 46.3646 358.451 40.0895 391.132 36.2842C424.3 32.4728 444.284 31.1311 453.486 40.5773C462.939 49.7796 461.597 69.7691 457.798 102.942C453.993 135.621 447.724 181.479 447.327 231.032Z" fill="#0E365E"/>
<path d="M231.025 447.335C181.468 447.738 135.604 454.007 102.926 457.816C69.7548 461.625 49.7689 462.971 40.5691 453.521C31.1192 444.319 32.4602 424.328 36.2643 391.152C40.0709 358.472 46.3411 312.613 46.7436 263.055C62.0722 261.881 77.4014 260.842 92.733 259.937C93.9838 322.714 88.0923 367.293 108.293 385.783C126.786 405.981 171.37 400.088 234.144 401.341C233.238 416.669 232.2 432.004 231.025 447.335Z" fill="#0E365E"/>
<path fill-rule="evenodd" clip-rule="evenodd" d="M309.629 288.144C309.629 296.953 302.485 304.097 293.676 304.097H206.811C198 304.097 190.855 296.953 190.855 288.144V201.277C190.855 192.466 198 185.324 206.811 185.324H293.676C302.485 185.324 309.629 192.466 309.629 201.277V288.144Z" fill="#76B900"/>
</svg>
