<?xml version="1.0" encoding="utf-8"?>
<!-- Generator: Adobe Illustrator 26.4.1, SVG Export Plug-In . SVG Version: 6.00 Build 0)  -->
<svg version="1.1" id="图层_1" xmlns="http://www.w3.org/2000/svg" xmlns:xlink="http://www.w3.org/1999/xlink" x="0px" y="0px"
	 viewBox="0 0 1311.5 1080" style="enable-background:new 0 0 1311.5 1080;" xml:space="preserve">
<style type="text/css">
	.st0{fill:#D4EEFF;stroke:#5586B7;stroke-width:1.94;stroke-miterlimit:10;}
	.st1{enable-background:new    ;}
	.st2{fill:#0E355B;}
	.st3{opacity:0.22;fill:#6AAF22;enable-background:new    ;}
	.st4{fill:none;stroke:#73B02C;stroke-width:2.39;stroke-miterlimit:10;stroke-dasharray:0,0,10.05,10.05;}
	.st5{fill:#588C15;}
	.st6{fill:none;stroke:#0E355B;stroke-width:2;stroke-miterlimit:10;}
	.st7{fill:#FFFFFF;stroke:#0E355B;stroke-width:2.16;stroke-miterlimit:10;}
	.st8{fill:#FFFFFF;}
	.st9{fill:#FFFFFF;stroke:#0E355B;stroke-width:2.34;stroke-miterlimit:10;}
</style>
<g>
	<g id="_图层_1">
		<path class="st0" d="M142,175h465.5c5.9,0,10.8,4.8,10.8,10.8v162.5c0,5.9-4.8,10.8-10.8,10.8H142c-5.9,0-10.8-4.8-10.8-10.8
			V185.8C131.2,179.8,136.1,175,142,175z"/>
		<g class="st1">
			<path class="st2" d="M359.2,289.3h-19.1V286l9.5-10.3c1.4-1.5,2.3-2.8,2.9-3.8c0.6-1,0.9-2,0.9-3.1c0-1.4-0.4-2.4-1.1-3.3
				s-1.8-1.2-3.1-1.2c-1.5,0-2.7,0.5-3.6,1.4c-0.8,0.9-1.3,2.2-1.3,3.8h-4.7c0-1.7,0.4-3.3,1.2-4.7c0.8-1.4,1.9-2.5,3.4-3.2
				s3.2-1.2,5.1-1.2c2.8,0,4.9,0.7,6.5,2.1c1.6,1.4,2.4,3.3,2.4,5.8c0,1.4-0.4,2.9-1.2,4.5s-2.1,3.3-3.9,5.3l-7,7.4h13.2V289.3z"/>
			<path class="st2" d="M369.4,272.9h2.9c1.5,0,2.6-0.4,3.5-1.1c0.9-0.7,1.3-1.8,1.3-3.2c0-1.4-0.4-2.4-1.1-3.2
				c-0.7-0.7-1.8-1.1-3.3-1.1c-1.3,0-2.3,0.4-3.1,1.1s-1.2,1.7-1.2,2.9h-4.7c0-1.5,0.4-2.8,1.2-4c0.8-1.2,1.9-2.1,3.2-2.8
				s2.9-1,4.7-1c2.8,0,5.1,0.7,6.7,2.1s2.4,3.4,2.4,5.9c0,1.3-0.4,2.5-1.2,3.6c-0.8,1.1-1.9,2-3.2,2.5c1.6,0.5,2.8,1.4,3.6,2.5
				c0.8,1.1,1.2,2.5,1.2,4.1c0,2.6-0.9,4.6-2.6,6.1c-1.8,1.5-4.1,2.3-6.9,2.3c-2.7,0-5-0.7-6.7-2.2c-1.7-1.5-2.6-3.4-2.6-5.8h4.7
				c0,1.2,0.4,2.3,1.3,3s2,1.2,3.4,1.2c1.5,0,2.6-0.4,3.5-1.2c0.8-0.8,1.3-1.9,1.3-3.4c0-1.5-0.4-2.6-1.3-3.5
				c-0.9-0.8-2.2-1.2-3.9-1.2h-2.8V272.9z"/>
			<path class="st2" d="M410.4,285.6c-1,1.3-2.5,2.4-4.3,3c-1.8,0.7-3.9,1-6.2,1c-2.4,0-4.5-0.5-6.3-1.6s-3.3-2.6-4.2-4.6
				s-1.5-4.4-1.6-7v-2.2c0-4.3,1-7.7,3.1-10.1c2.1-2.4,4.9-3.6,8.6-3.6c3.2,0,5.7,0.8,7.5,2.4c1.9,1.6,3,3.8,3.4,6.8h-4.8
				c-0.5-3.4-2.5-5.1-6-5.1c-2.2,0-3.9,0.8-5,2.4s-1.7,3.9-1.8,7v2.2c0,3.1,0.6,5.5,1.9,7.2c1.3,1.7,3.1,2.5,5.4,2.5
				c2.5,0,4.3-0.6,5.4-1.7v-5.6h-5.9v-3.8h10.8V285.6z"/>
		</g>
		<g class="st1">
			<path class="st2" d="M303.1,127.7c0,2.2-0.4,4.1-1.1,5.8s-1.8,2.9-3.2,3.8c-1.4,0.9-3,1.3-4.8,1.3c-1.8,0-3.4-0.4-4.8-1.3
				c-1.4-0.9-2.5-2.1-3.3-3.8c-0.8-1.6-1.2-3.5-1.2-5.7v-1.3c0-2.2,0.4-4.1,1.2-5.8c0.8-1.7,1.9-2.9,3.3-3.8c1.4-0.9,3-1.3,4.8-1.3
				s3.4,0.4,4.8,1.3s2.5,2.1,3.3,3.8s1.2,3.5,1.2,5.7V127.7z M299.2,126.6c0-2.5-0.5-4.4-1.4-5.7c-0.9-1.3-2.3-2-4-2
				c-1.7,0-3,0.7-3.9,2s-1.4,3.2-1.4,5.6v1.3c0,2.5,0.5,4.3,1.4,5.7c1,1.3,2.3,2,4,2c1.7,0,3-0.7,4-2s1.4-3.2,1.4-5.7V126.6z"/>
			<path class="st2" d="M316.1,125.1c-0.5-0.1-1-0.1-1.5-0.1c-1.7,0-2.9,0.7-3.4,2v11.3h-3.7v-16.6h3.6l0.1,1.9
				c0.9-1.4,2.1-2.2,3.7-2.2c0.5,0,1,0.1,1.3,0.2L316.1,125.1z"/>
			<path class="st2" d="M319.4,117.4c0-0.6,0.2-1,0.5-1.4s0.9-0.6,1.6-0.6s1.2,0.2,1.6,0.6s0.6,0.9,0.6,1.4c0,0.6-0.2,1-0.6,1.4
				s-0.9,0.6-1.6,0.6s-1.2-0.2-1.6-0.6S319.4,118,319.4,117.4z M323.4,138.3h-3.7v-16.6h3.7V138.3z"/>
			<path class="st2" d="M327.7,129.9c0-2.6,0.6-4.6,1.8-6.2c1.2-1.5,2.8-2.3,4.8-2.3c1.9,0,3.4,0.7,4.5,2l0.2-1.7h3.4v16.1
				c0,2.2-0.7,3.9-2,5.1c-1.4,1.3-3.2,1.9-5.5,1.9c-1.2,0-2.4-0.3-3.6-0.8c-1.2-0.5-2-1.2-2.6-2l1.8-2.2c1.1,1.4,2.6,2,4.2,2
				c1.2,0,2.2-0.3,2.9-1s1.1-1.7,1.1-2.9v-1.1c-1.1,1.2-2.5,1.8-4.3,1.8c-1.9,0-3.5-0.8-4.8-2.3S327.7,132.6,327.7,129.9z
				 M331.4,130.2c0,1.7,0.3,3,1,3.9c0.7,1,1.6,1.4,2.8,1.4c1.5,0,2.6-0.6,3.3-1.9v-7.3c-0.7-1.3-1.8-1.9-3.3-1.9
				c-1.2,0-2.2,0.5-2.9,1.5C331.7,126.9,331.4,128.3,331.4,130.2z"/>
			<path class="st2" d="M347,117.4c0-0.6,0.2-1,0.5-1.4s0.9-0.6,1.6-0.6s1.2,0.2,1.6,0.6s0.6,0.9,0.6,1.4c0,0.6-0.2,1-0.6,1.4
				s-0.9,0.6-1.6,0.6s-1.2-0.2-1.6-0.6S347,118,347,117.4z M351,138.3h-3.7v-16.6h3.7V138.3z"/>
			<path class="st2" d="M359.4,121.7l0.1,1.9c1.2-1.5,2.8-2.2,4.8-2.2c3.5,0,5.2,2,5.3,5.9v10.9h-3.7v-10.7c0-1.1-0.2-1.8-0.7-2.3
				c-0.5-0.5-1.2-0.8-2.2-0.8c-1.5,0-2.6,0.7-3.4,2v11.8h-3.7v-16.6H359.4z"/>
			<path class="st2" d="M384.2,138.3c-0.2-0.3-0.3-0.8-0.4-1.5c-1.2,1.2-2.6,1.9-4.3,1.9c-1.7,0-3-0.5-4.1-1.4
				c-1.1-0.9-1.6-2.1-1.6-3.5c0-1.8,0.7-3.1,2-4.1c1.3-0.9,3.2-1.4,5.6-1.4h2.3v-1.1c0-0.9-0.2-1.5-0.7-2.1
				c-0.5-0.5-1.2-0.8-2.2-0.8c-0.8,0-1.5,0.2-2.1,0.6c-0.5,0.4-0.8,1-0.8,1.6h-3.7c0-0.9,0.3-1.8,0.9-2.5c0.6-0.8,1.4-1.4,2.5-1.9
				s2.2-0.7,3.5-0.7c1.9,0,3.5,0.5,4.6,1.5c1.2,1,1.7,2.3,1.8,4.1v7.5c0,1.5,0.2,2.7,0.6,3.6v0.3H384.2z M380.1,135.6
				c0.7,0,1.4-0.2,2.1-0.5c0.6-0.4,1.1-0.8,1.5-1.4v-3.1h-2c-1.4,0-2.4,0.2-3.1,0.7c-0.7,0.5-1,1.2-1,2c0,0.7,0.2,1.3,0.7,1.7
				C378.7,135.4,379.3,135.6,380.1,135.6z"/>
			<path class="st2" d="M396.1,138.3h-3.7v-23.5h3.7V138.3z"/>
			<path class="st2" d="M422.6,133.1H414l-1.8,5.2h-4l8.4-22.3h3.5l8.4,22.3h-4L422.6,133.1z M415.1,130h6.5l-3.2-9.2L415.1,130z"/>
			<path class="st2" d="M441.4,138.3h-3.7v-17.9l-5.5,1.9v-3.1l8.7-3.2h0.5V138.3z"/>
			<path class="st2" d="M464.6,128.9c0,3.2-0.6,5.6-1.8,7.3c-1.2,1.6-3,2.4-5.5,2.4c-2.4,0-4.2-0.8-5.4-2.4
				c-1.2-1.6-1.8-3.9-1.9-7.1v-3.9c0-3.2,0.6-5.6,1.8-7.2c1.2-1.6,3-2.4,5.5-2.4c2.4,0,4.3,0.8,5.5,2.3c1.2,1.6,1.8,3.9,1.8,7V128.9
				z M460.9,124.7c0-2.1-0.3-3.6-0.9-4.6c-0.6-1-1.5-1.5-2.7-1.5c-1.2,0-2.1,0.5-2.7,1.4s-0.9,2.4-0.9,4.3v5.1
				c0,2.1,0.3,3.6,0.9,4.7c0.6,1,1.5,1.5,2.7,1.5c1.2,0,2.1-0.5,2.6-1.4c0.6-0.9,0.9-2.4,0.9-4.4V124.7z"/>
		</g>
		<g class="st1">
			<path class="st2" d="M430.1,427l6.4,17.1l6.4-17.1h5v22.3h-3.9v-7.3l0.4-9.8l-6.6,17.2h-2.8l-6.6-17.2l0.4,9.8v7.3h-3.9V427
				H430.1z"/>
			<path class="st2" d="M460.4,449.6c-2.4,0-4.3-0.7-5.7-2.2s-2.2-3.5-2.2-5.9V441c0-1.7,0.3-3.1,1-4.4c0.6-1.3,1.5-2.3,2.7-3
				c1.2-0.7,2.4-1.1,3.9-1.1c2.3,0,4,0.7,5.2,2.2c1.2,1.4,1.8,3.5,1.8,6.1v1.5h-10.8c0.1,1.4,0.6,2.5,1.4,3.2c0.8,0.8,1.8,1.2,3,1.2
				c1.7,0,3.1-0.7,4.2-2.1l2,1.9c-0.7,1-1.5,1.8-2.7,2.3C463,449.3,461.7,449.6,460.4,449.6z M459.9,435.4c-1,0-1.8,0.4-2.5,1.1
				c-0.6,0.7-1,1.7-1.2,3h7.1v-0.3c-0.1-1.2-0.4-2.2-1-2.8C461.8,435.7,460.9,435.4,459.9,435.4z"/>
			<path class="st2" d="M474.3,432.7l0.1,1.7c1.2-1.4,2.8-2,4.8-2c2.2,0,3.7,0.8,4.5,2.5c1.2-1.7,2.9-2.5,5.1-2.5
				c1.8,0,3.2,0.5,4.1,1.5c0.9,1,1.3,2.5,1.4,4.5v10.9h-3.7v-10.8c0-1.1-0.2-1.8-0.7-2.3c-0.5-0.5-1.2-0.7-2.3-0.7
				c-0.8,0-1.5,0.2-2.1,0.7s-0.9,1-1.1,1.8l0,11.4h-3.7v-10.9c-0.1-2-1-2.9-3-2.9c-1.5,0-2.5,0.6-3.2,1.8v12h-3.7v-16.6H474.3z"/>
			<path class="st2" d="M498.3,440.8c0-1.6,0.3-3.1,1-4.4s1.5-2.3,2.7-3c1.2-0.7,2.5-1,4-1c2.2,0,4.1,0.7,5.4,2.2
				c1.4,1.4,2.1,3.3,2.3,5.7l0,0.9c0,1.6-0.3,3.1-0.9,4.4s-1.5,2.3-2.7,3c-1.2,0.7-2.5,1.1-4.1,1.1c-2.3,0-4.2-0.8-5.6-2.3
				c-1.4-1.6-2.1-3.6-2.1-6.2V440.8z M502,441.2c0,1.7,0.4,3,1.1,4c0.7,1,1.7,1.4,2.9,1.4c1.3,0,2.2-0.5,2.9-1.5c0.7-1,1-2.4,1-4.3
				c0-1.7-0.4-3-1.1-4c-0.7-1-1.7-1.5-2.9-1.5c-1.2,0-2.2,0.5-2.9,1.4C502.4,437.8,502,439.2,502,441.2z"/>
		</g>
		<g class="st1">
			<path class="st2" d="M526.6,436.1c-0.5-0.1-1-0.1-1.5-0.1c-1.7,0-2.9,0.7-3.4,2v11.3h-3.7v-16.6h3.6l0.1,1.9
				c0.9-1.4,2.1-2.2,3.7-2.2c0.5,0,1,0.1,1.3,0.2L526.6,436.1z"/>
		</g>
		<g class="st1">
			<path class="st2" d="M535.9,444l3.4-11.2h4l-6.6,19.1c-1,2.8-2.7,4.2-5.1,4.2c-0.5,0-1.1-0.1-1.8-0.3v-2.9l0.7,0
				c0.9,0,1.6-0.2,2.1-0.5c0.5-0.3,0.8-0.9,1.1-1.7l0.5-1.4l-5.8-16.5h4L535.9,444z"/>
		</g>
		<g class="st1">
			<path class="st2" d="M442.8,476.3c0,2.2-0.4,4.1-1.1,5.8s-1.8,2.9-3.2,3.8c-1.4,0.9-3,1.3-4.8,1.3c-1.8,0-3.4-0.4-4.8-1.3
				c-1.4-0.9-2.5-2.1-3.3-3.8c-0.8-1.6-1.2-3.5-1.2-5.7v-1.3c0-2.2,0.4-4.1,1.2-5.8c0.8-1.7,1.9-2.9,3.3-3.8c1.4-0.9,3-1.3,4.8-1.3
				s3.4,0.4,4.8,1.3s2.5,2.1,3.3,3.8s1.2,3.5,1.2,5.7V476.3z M439,475.2c0-2.5-0.5-4.4-1.4-5.7c-0.9-1.3-2.3-2-4-2
				c-1.7,0-3,0.7-3.9,2s-1.4,3.2-1.4,5.6v1.3c0,2.5,0.5,4.3,1.4,5.7c1,1.3,2.3,2,4,2c1.7,0,3-0.7,4-2s1.4-3.2,1.4-5.7V475.2z"/>
		</g>
		<g class="st1">
			<path class="st2" d="M453.1,482.2l3.5-11.9h3.8l-5.7,16.6h-3.2l-5.8-16.6h3.9L453.1,482.2z"/>
		</g>
		<g class="st1">
			<path class="st2" d="M470.8,487.2c-2.4,0-4.3-0.7-5.7-2.2s-2.2-3.5-2.2-5.9v-0.5c0-1.7,0.3-3.1,1-4.4c0.6-1.3,1.5-2.3,2.7-3
				c1.2-0.7,2.4-1.1,3.9-1.1c2.3,0,4,0.7,5.2,2.2c1.2,1.4,1.8,3.5,1.8,6.1v1.5h-10.8c0.1,1.4,0.6,2.5,1.4,3.2c0.8,0.8,1.8,1.2,3,1.2
				c1.7,0,3.1-0.7,4.2-2.1l2,1.9c-0.7,1-1.5,1.8-2.7,2.3C473.5,486.9,472.2,487.2,470.8,487.2z M470.4,473c-1,0-1.8,0.4-2.5,1.1
				c-0.6,0.7-1,1.7-1.2,3h7.1v-0.3c-0.1-1.2-0.4-2.2-1-2.8C472.2,473.3,471.4,473,470.4,473z"/>
			<path class="st2" d="M490,473.7c-0.5-0.1-1-0.1-1.5-0.1c-1.7,0-2.9,0.7-3.4,2v11.3h-3.7v-16.6h3.6l0.1,1.9
				c0.9-1.4,2.1-2.2,3.7-2.2c0.5,0,1,0.1,1.3,0.2L490,473.7z"/>
			<path class="st2" d="M502.5,482.4c0-0.7-0.3-1.2-0.8-1.5c-0.5-0.3-1.5-0.7-2.7-0.9c-1.3-0.3-2.3-0.6-3.2-1
				c-1.9-0.9-2.8-2.2-2.8-3.9c0-1.4,0.6-2.6,1.8-3.6c1.2-1,2.7-1.4,4.6-1.4c2,0,3.6,0.5,4.8,1.5c1.2,1,1.8,2.3,1.8,3.8h-3.7
				c0-0.7-0.3-1.3-0.8-1.8c-0.5-0.5-1.2-0.7-2.1-0.7c-0.8,0-1.5,0.2-2,0.6c-0.5,0.4-0.8,0.9-0.8,1.5c0,0.6,0.2,1,0.7,1.3
				s1.4,0.6,2.9,1c1.5,0.3,2.6,0.7,3.4,1.1s1.4,1,1.9,1.6c0.4,0.6,0.6,1.4,0.6,2.3c0,1.5-0.6,2.7-1.9,3.6c-1.2,0.9-2.9,1.4-4.9,1.4
				c-1.4,0-2.6-0.2-3.6-0.7s-1.9-1.2-2.5-2c-0.6-0.9-0.9-1.8-0.9-2.8h3.6c0.1,0.9,0.4,1.6,1,2c0.6,0.5,1.4,0.7,2.4,0.7
				c1,0,1.7-0.2,2.2-0.6C502.3,483.5,502.5,483,502.5,482.4z"/>
			<path class="st2" d="M520.4,485.3c-1.1,1.3-2.6,1.9-4.7,1.9c-1.8,0-3.2-0.5-4.1-1.6c-0.9-1.1-1.4-2.6-1.4-4.6v-10.7h3.7V481
				c0,2.1,0.9,3.2,2.6,3.2c1.8,0,3-0.6,3.7-1.9v-11.9h3.7v16.6h-3.5L520.4,485.3z"/>
			<path class="st2" d="M543.2,478.8c0,2.6-0.6,4.6-1.7,6.1c-1.1,1.5-2.7,2.3-4.7,2.3c-1.9,0-3.5-0.7-4.5-2.1l-0.2,1.8h-3.4v-23.5
				h3.7v8.5c1.1-1.3,2.5-1.9,4.3-1.9c2,0,3.6,0.8,4.8,2.3c1.2,1.5,1.7,3.6,1.7,6.3V478.8z M539.5,478.5c0-1.8-0.3-3.1-0.9-4
				c-0.6-0.9-1.6-1.3-2.8-1.3c-1.6,0-2.7,0.7-3.4,2.1v6.8c0.7,1.4,1.8,2.2,3.4,2.2c1.2,0,2.1-0.4,2.7-1.3c0.6-0.9,1-2.2,1-3.9V478.5
				z"/>
			<path class="st2" d="M556.5,482.4c0-0.7-0.3-1.2-0.8-1.5c-0.5-0.3-1.5-0.7-2.7-0.9c-1.3-0.3-2.3-0.6-3.2-1
				c-1.9-0.9-2.8-2.2-2.8-3.9c0-1.4,0.6-2.6,1.8-3.6c1.2-1,2.7-1.4,4.6-1.4c2,0,3.6,0.5,4.8,1.5c1.2,1,1.8,2.3,1.8,3.8h-3.7
				c0-0.7-0.3-1.3-0.8-1.8c-0.5-0.5-1.2-0.7-2.1-0.7c-0.8,0-1.5,0.2-2,0.6c-0.5,0.4-0.8,0.9-0.8,1.5c0,0.6,0.2,1,0.7,1.3
				s1.4,0.6,2.9,1c1.5,0.3,2.6,0.7,3.4,1.1s1.4,1,1.9,1.6c0.4,0.6,0.6,1.4,0.6,2.3c0,1.5-0.6,2.7-1.9,3.6c-1.2,0.9-2.9,1.4-4.9,1.4
				c-1.4,0-2.6-0.2-3.6-0.7s-1.9-1.2-2.5-2c-0.6-0.9-0.9-1.8-0.9-2.8h3.6c0.1,0.9,0.4,1.6,1,2c0.6,0.5,1.4,0.7,2.4,0.7
				c1,0,1.7-0.2,2.2-0.6C556.2,483.5,556.5,483,556.5,482.4z"/>
			<path class="st2" d="M571.1,484.2c0.9,0,1.7-0.3,2.3-0.8c0.6-0.5,0.9-1.2,1-2h3.5c0,1-0.4,2-1,2.9c-0.6,0.9-1.4,1.6-2.5,2.1
				s-2.1,0.8-3.3,0.8c-2.3,0-4.2-0.8-5.5-2.3c-1.4-1.5-2-3.6-2-6.2v-0.4c0-2.5,0.7-4.5,2-6.1s3.2-2.3,5.5-2.3c2,0,3.6,0.6,4.8,1.7
				s1.9,2.7,2,4.5h-3.5c0-0.9-0.4-1.7-1-2.3c-0.6-0.6-1.4-0.9-2.3-0.9c-1.2,0-2.1,0.4-2.8,1.3s-1,2.2-1,4v0.6c0,1.8,0.3,3.1,1,4
				C569,483.8,569.9,484.2,571.1,484.2z"/>
			<path class="st2" d="M590.3,473.7c-0.5-0.1-1-0.1-1.5-0.1c-1.7,0-2.9,0.7-3.4,2v11.3h-3.7v-16.6h3.6l0.1,1.9
				c0.9-1.4,2.1-2.2,3.7-2.2c0.5,0,1,0.1,1.3,0.2L590.3,473.7z"/>
			<path class="st2" d="M593.6,466c0-0.6,0.2-1,0.5-1.4s0.9-0.6,1.6-0.6s1.2,0.2,1.6,0.6s0.6,0.9,0.6,1.4c0,0.6-0.2,1-0.6,1.4
				s-0.9,0.6-1.6,0.6s-1.2-0.2-1.6-0.6S593.6,466.6,593.6,466z M597.5,486.9h-3.7v-16.6h3.7V486.9z"/>
			<path class="st2" d="M617,478.8c0,2.6-0.6,4.6-1.7,6.1c-1.2,1.5-2.7,2.3-4.7,2.3c-1.8,0-3.3-0.6-4.4-1.8v7.9h-3.7v-22.9h3.4
				l0.2,1.7c1.1-1.3,2.6-2,4.5-2c2,0,3.6,0.8,4.8,2.3c1.1,1.5,1.7,3.6,1.7,6.3V478.8z M613.3,478.5c0-1.7-0.3-3-1-3.9
				c-0.7-1-1.6-1.5-2.8-1.5c-1.5,0-2.6,0.6-3.3,1.9v7.3c0.7,1.3,1.8,1.9,3.3,1.9c1.2,0,2.1-0.5,2.8-1.4
				C613,481.9,613.3,480.4,613.3,478.5z"/>
			<path class="st2" d="M625.7,466.3v4h2.9v2.8h-2.9v9.2c0,0.6,0.1,1.1,0.4,1.4c0.2,0.3,0.7,0.4,1.3,0.4c0.4,0,0.9-0.1,1.3-0.2v2.9
				c-0.8,0.2-1.7,0.4-2.4,0.4c-2.9,0-4.3-1.6-4.3-4.7v-9.4h-2.7v-2.8h2.7v-4H625.7z"/>
			<path class="st2" d="M632.4,466c0-0.6,0.2-1,0.5-1.4s0.9-0.6,1.6-0.6s1.2,0.2,1.6,0.6s0.6,0.9,0.6,1.4c0,0.6-0.2,1-0.6,1.4
				s-0.9,0.6-1.6,0.6s-1.2-0.2-1.6-0.6S632.4,466.6,632.4,466z M636.3,486.9h-3.7v-16.6h3.7V486.9z"/>
			<path class="st2" d="M640.6,478.5c0-1.6,0.3-3.1,1-4.4s1.5-2.3,2.7-3c1.2-0.7,2.5-1,4-1c2.2,0,4.1,0.7,5.4,2.2
				c1.4,1.4,2.1,3.3,2.3,5.7l0,0.9c0,1.6-0.3,3.1-0.9,4.4s-1.5,2.3-2.7,3c-1.2,0.7-2.5,1.1-4.1,1.1c-2.3,0-4.2-0.8-5.6-2.3
				c-1.4-1.6-2.1-3.6-2.1-6.2V478.5z M644.3,478.8c0,1.7,0.4,3,1.1,4c0.7,1,1.7,1.4,2.9,1.4c1.3,0,2.2-0.5,2.9-1.5
				c0.7-1,1-2.4,1-4.3c0-1.7-0.4-3-1.1-4c-0.7-1-1.7-1.5-2.9-1.5c-1.2,0-2.2,0.5-2.9,1.4C644.7,475.4,644.3,476.9,644.3,478.8z"/>
			<path class="st2" d="M663.5,470.3l0.1,1.9c1.2-1.5,2.8-2.2,4.8-2.2c3.5,0,5.2,2,5.3,5.9v10.9H670v-10.7c0-1.1-0.2-1.8-0.7-2.3
				c-0.5-0.5-1.2-0.8-2.2-0.8c-1.5,0-2.6,0.7-3.4,2v11.8H660v-16.6H663.5z"/>
		</g>
		<g>
			<path class="st3" d="M141.7,565h466.6c5.6,0,10.2,4.6,10.2,10.2v305.6c0,5.6-4.6,10.2-10.2,10.2H141.7c-5.6,0-10.2-4.6-10.2-10.2
				V575.2C131.5,569.6,136.1,565,141.7,565z"/>
			<path class="st4" d="M141.7,565h466.6c5.6,0,10.2,4.6,10.2,10.2v305.6c0,5.6-4.6,10.2-10.2,10.2H141.7c-5.6,0-10.2-4.6-10.2-10.2
				V575.2C131.5,569.6,136.1,565,141.7,565z"/>
		</g>
		<path class="st0" d="M154.8,582h440.5c5.1,0,9.2,4.1,9.2,9.2v143.5c0,5.1-4.1,9.2-9.2,9.2H154.8c-5.1,0-9.2-4.1-9.2-9.2V591.2
			C145.5,586.1,149.6,582,154.8,582z"/>
		<g class="st1">
			<path class="st5" d="M347.8,794.1h3.5v3.8h-3.5v6.3H343V798h-12.3l-0.1-2.9l12.3-19.2h4.9V794.1z M335.6,794.1h7.4v-11.9
				l-0.4,0.6L335.6,794.1z"/>
			<path class="st5" d="M370.4,775.7v3.9h-0.6c-2.7,0-4.8,0.8-6.4,2.2c-1.6,1.4-2.5,3.4-2.8,6c1.5-1.6,3.5-2.4,5.8-2.4
				c2.5,0,4.5,0.9,5.9,2.7c1.5,1.8,2.2,4.1,2.2,6.9c0,2.9-0.8,5.2-2.5,7s-3.9,2.7-6.7,2.7c-2.8,0-5.1-1-6.9-3.1
				c-1.8-2.1-2.6-4.8-2.6-8.2v-1.6c0-5,1.2-8.9,3.6-11.7c2.4-2.8,5.9-4.2,10.5-4.2H370.4z M365.3,789.3c-1,0-2,0.3-2.9,0.9
				c-0.9,0.6-1.5,1.4-1.9,2.3v1.4c0,2.1,0.4,3.8,1.3,5c0.9,1.2,2,1.9,3.4,1.9s2.5-0.5,3.3-1.6s1.2-2.4,1.2-4.2s-0.4-3.1-1.2-4.2
				C367.8,789.8,366.7,789.3,365.3,789.3z"/>
			<path class="st5" d="M402.1,800.6c-1,1.3-2.5,2.4-4.3,3c-1.8,0.7-3.9,1-6.2,1c-2.4,0-4.5-0.5-6.3-1.6s-3.3-2.6-4.2-4.6
				s-1.5-4.4-1.6-7v-2.2c0-4.3,1-7.7,3.1-10.1c2.1-2.4,4.9-3.6,8.6-3.6c3.2,0,5.7,0.8,7.5,2.4c1.9,1.6,3,3.8,3.4,6.8h-4.8
				c-0.5-3.4-2.5-5.1-6-5.1c-2.2,0-3.9,0.8-5,2.4s-1.7,3.9-1.8,7v2.2c0,3.1,0.6,5.5,1.9,7.2c1.3,1.7,3.1,2.5,5.4,2.5
				c2.5,0,4.3-0.6,5.4-1.7v-5.6h-5.9v-3.8h10.8V800.6z"/>
		</g>
		<g class="st1">
			<path class="st5" d="M270.7,852.3h-4.9v-12.6H253v12.6h-4.9v-28.4h4.9v11.8h12.7v-11.8h4.9V852.3z"/>
			<path class="st5" d="M276.3,841.5c0-2.1,0.4-3.9,1.2-5.6s2-2.9,3.5-3.8s3.2-1.3,5.1-1.3c2.9,0,5.2,0.9,6.9,2.8s2.7,4.3,2.9,7.3
				l0,1.1c0,2.1-0.4,3.9-1.2,5.6s-1.9,2.9-3.4,3.8c-1.5,0.9-3.2,1.3-5.2,1.3c-3,0-5.4-1-7.2-3c-1.8-2-2.7-4.6-2.7-7.9V841.5z
				 M281.1,841.9c0,2.2,0.4,3.9,1.3,5.1s2.1,1.8,3.8,1.8s2.8-0.6,3.7-1.9c0.9-1.2,1.3-3.1,1.3-5.5c0-2.1-0.5-3.8-1.4-5.1
				s-2.2-1.9-3.7-1.9c-1.5,0-2.8,0.6-3.7,1.8C281.5,837.6,281.1,839.5,281.1,841.9z"/>
			<path class="st5" d="M313,846.5c0-0.8-0.3-1.5-1-1.9c-0.7-0.4-1.9-0.8-3.5-1.2c-1.6-0.3-3-0.8-4-1.3c-2.4-1.1-3.6-2.8-3.6-5
				c0-1.8,0.8-3.3,2.3-4.6c1.5-1.2,3.5-1.8,5.9-1.8c2.5,0,4.6,0.6,6.1,1.9c1.6,1.2,2.3,2.9,2.3,4.9h-4.7c0-0.9-0.3-1.7-1-2.3
				c-0.7-0.6-1.6-0.9-2.7-0.9c-1,0-1.9,0.2-2.5,0.7c-0.7,0.5-1,1.1-1,1.9c0,0.7,0.3,1.3,0.9,1.7c0.6,0.4,1.8,0.8,3.7,1.2
				c1.9,0.4,3.3,0.9,4.4,1.5c1.1,0.6,1.8,1.2,2.4,2c0.5,0.8,0.8,1.8,0.8,2.9c0,1.9-0.8,3.4-2.4,4.6c-1.6,1.2-3.6,1.8-6.2,1.8
				c-1.7,0-3.3-0.3-4.6-0.9c-1.4-0.6-2.4-1.5-3.2-2.6c-0.8-1.1-1.1-2.3-1.1-3.5h4.6c0.1,1.1,0.5,2,1.3,2.6s1.8,0.9,3.1,0.9
				c1.2,0,2.2-0.2,2.9-0.7C312.7,847.9,313,847.3,313,846.5z"/>
			<path class="st5" d="M328.9,826v5.1h3.7v3.5h-3.7v11.8c0,0.8,0.2,1.4,0.5,1.7c0.3,0.4,0.9,0.5,1.7,0.5c0.5,0,1.1-0.1,1.7-0.2v3.7
				c-1.1,0.3-2.1,0.4-3.1,0.4c-3.6,0-5.5-2-5.5-6v-12h-3.5v-3.5h3.5V826H328.9z"/>
			<path class="st5" d="M355.4,823.8l8.2,21.8l8.2-21.8h6.4v28.4h-4.9v-9.4l0.5-12.5l-8.4,21.9h-3.5l-8.4-21.9l0.5,12.5v9.4H349
				v-28.4H355.4z"/>
			<path class="st5" d="M394,852.7c-3,0-5.4-0.9-7.3-2.8c-1.9-1.9-2.8-4.4-2.8-7.6v-0.6c0-2.1,0.4-4,1.2-5.7c0.8-1.7,2-3,3.4-3.9
				c1.5-0.9,3.1-1.4,4.9-1.4c2.9,0,5.1,0.9,6.7,2.8c1.6,1.8,2.4,4.4,2.4,7.8v1.9h-13.8c0.1,1.7,0.7,3.1,1.7,4.1c1,1,2.3,1.5,3.9,1.5
				c2.2,0,3.9-0.9,5.3-2.6l2.6,2.4c-0.8,1.3-2,2.2-3.4,2.9C397.4,852.3,395.8,852.7,394,852.7z M393.4,834.6c-1.3,0-2.4,0.5-3.2,1.4
				s-1.3,2.2-1.5,3.8h9v-0.4c-0.1-1.6-0.5-2.8-1.3-3.6S394.8,834.6,393.4,834.6z"/>
			<path class="st5" d="M411.8,831.1l0.1,2.2c1.5-1.7,3.5-2.6,6.1-2.6c2.8,0,4.8,1.1,5.8,3.2c1.5-2.2,3.7-3.2,6.5-3.2
				c2.3,0,4.1,0.6,5.2,1.9c1.1,1.3,1.7,3.2,1.7,5.7v13.9h-4.7v-13.8c0-1.3-0.3-2.3-0.9-2.9s-1.6-0.9-2.9-0.9c-1.1,0-2,0.3-2.6,0.9
				s-1.2,1.3-1.4,2.3l0,14.5h-4.7v-13.9c-0.1-2.5-1.3-3.7-3.8-3.7c-1.9,0-3.2,0.8-4,2.3v15.3h-4.7v-21.1H411.8z"/>
			<path class="st5" d="M442.4,841.5c0-2.1,0.4-3.9,1.2-5.6s2-2.9,3.5-3.8s3.2-1.3,5.1-1.3c2.9,0,5.2,0.9,6.9,2.8s2.7,4.3,2.9,7.3
				l0,1.1c0,2.1-0.4,3.9-1.2,5.6s-1.9,2.9-3.4,3.8c-1.5,0.9-3.2,1.3-5.2,1.3c-3,0-5.4-1-7.2-3c-1.8-2-2.7-4.6-2.7-7.9V841.5z
				 M447.2,841.9c0,2.2,0.4,3.9,1.3,5.1s2.1,1.8,3.8,1.8s2.8-0.6,3.7-1.9c0.9-1.2,1.3-3.1,1.3-5.5c0-2.1-0.5-3.8-1.4-5.1
				s-2.2-1.9-3.7-1.9c-1.5,0-2.8,0.6-3.7,1.8C447.6,837.6,447.2,839.5,447.2,841.9z"/>
		</g>
		<g class="st1">
			<path class="st5" d="M478.7,835.5c-0.6-0.1-1.3-0.2-1.9-0.2c-2.2,0-3.6,0.8-4.4,2.5v14.5h-4.7v-21.1h4.5l0.1,2.4
				c1.1-1.8,2.7-2.8,4.8-2.8c0.7,0,1.2,0.1,1.7,0.3L478.7,835.5z"/>
		</g>
		<g class="st1">
			<path class="st5" d="M490.6,845.5l4.3-14.3h5.1l-8.4,24.3c-1.3,3.6-3.5,5.3-6.6,5.3c-0.7,0-1.5-0.1-2.3-0.4v-3.7l0.9,0.1
				c1.2,0,2.1-0.2,2.7-0.7c0.6-0.4,1.1-1.2,1.4-2.2l0.7-1.8l-7.4-21h5.1L490.6,845.5z"/>
		</g>
		<g class="st1">
			<path class="st2" d="M357.9,650.3h-19.1V647l9.5-10.3c1.4-1.5,2.3-2.8,2.9-3.8c0.6-1,0.9-2,0.9-3.1c0-1.4-0.4-2.4-1.1-3.3
				s-1.8-1.2-3.1-1.2c-1.5,0-2.7,0.5-3.6,1.4c-0.8,0.9-1.3,2.2-1.3,3.8h-4.7c0-1.7,0.4-3.3,1.2-4.7c0.8-1.4,1.9-2.5,3.4-3.2
				s3.2-1.2,5.1-1.2c2.8,0,4.9,0.7,6.5,2.1c1.6,1.4,2.4,3.3,2.4,5.8c0,1.4-0.4,2.9-1.2,4.5s-2.1,3.3-3.9,5.3l-7,7.4h13.2V650.3z"/>
			<path class="st2" d="M368.1,633.9h2.9c1.5,0,2.6-0.4,3.5-1.1c0.9-0.7,1.3-1.8,1.3-3.2c0-1.4-0.4-2.4-1.1-3.2
				c-0.7-0.7-1.8-1.1-3.3-1.1c-1.3,0-2.3,0.4-3.1,1.1s-1.2,1.7-1.2,2.9h-4.7c0-1.5,0.4-2.8,1.2-4c0.8-1.2,1.9-2.1,3.2-2.8
				s2.9-1,4.7-1c2.8,0,5.1,0.7,6.7,2.1s2.4,3.4,2.4,5.9c0,1.3-0.4,2.5-1.2,3.6c-0.8,1.1-1.9,2-3.2,2.5c1.6,0.5,2.8,1.4,3.6,2.5
				c0.8,1.1,1.2,2.5,1.2,4.1c0,2.6-0.9,4.6-2.6,6.1c-1.8,1.5-4.1,2.3-6.9,2.3c-2.7,0-5-0.7-6.7-2.2c-1.7-1.5-2.6-3.4-2.6-5.8h4.7
				c0,1.2,0.4,2.3,1.3,3s2,1.2,3.4,1.2c1.5,0,2.6-0.4,3.5-1.2c0.8-0.8,1.3-1.9,1.3-3.4c0-1.5-0.4-2.6-1.3-3.5
				c-0.9-0.8-2.2-1.2-3.9-1.2h-2.8V633.9z"/>
			<path class="st2" d="M409.1,646.6c-1,1.3-2.5,2.4-4.3,3c-1.8,0.7-3.9,1-6.2,1c-2.4,0-4.5-0.5-6.3-1.6s-3.3-2.6-4.2-4.6
				s-1.5-4.4-1.6-7v-2.2c0-4.3,1-7.7,3.1-10.1c2.1-2.4,4.9-3.6,8.6-3.6c3.2,0,5.7,0.8,7.5,2.4c1.9,1.6,3,3.8,3.4,6.8h-4.8
				c-0.5-3.4-2.5-5.1-6-5.1c-2.2,0-3.9,0.8-5,2.4s-1.7,3.9-1.8,7v2.2c0,3.1,0.6,5.5,1.9,7.2c1.3,1.7,3.1,2.5,5.4,2.5
				c2.5,0,4.3-0.6,5.4-1.7v-5.6h-5.9v-3.8h10.8V646.6z"/>
		</g>
		<g class="st1">
			<path class="st2" d="M236.6,698.3v-28.4h8.4c2.5,0,4.7,0.6,6.7,1.7c1.9,1.1,3.5,2.7,4.5,4.8c1.1,2.1,1.6,4.4,1.6,7.1v1.4
				c0,2.7-0.5,5.1-1.6,7.1s-2.6,3.6-4.6,4.7c-2,1.1-4.3,1.7-6.8,1.7H236.6z M241.5,673.8v20.5h3.2c2.6,0,4.6-0.8,6-2.4
				s2.1-3.9,2.1-7v-1.6c0-3.1-0.7-5.4-2-7.1c-1.3-1.6-3.3-2.4-5.8-2.4H241.5z"/>
		</g>
		<g class="st1">
			<path class="st2" d="M272.8,698.7c-3,0-5.4-0.9-7.3-2.8c-1.9-1.9-2.8-4.4-2.8-7.6v-0.6c0-2.1,0.4-4,1.2-5.7c0.8-1.7,2-3,3.4-3.9
				c1.5-0.9,3.1-1.4,4.9-1.4c2.9,0,5.1,0.9,6.7,2.8c1.6,1.8,2.4,4.4,2.4,7.8v1.9h-13.8c0.1,1.7,0.7,3.1,1.7,4.1c1,1,2.3,1.5,3.9,1.5
				c2.2,0,3.9-0.9,5.3-2.6l2.6,2.4c-0.8,1.3-2,2.2-3.4,2.9C276.1,698.3,274.5,698.7,272.8,698.7z M272.2,680.6
				c-1.3,0-2.4,0.5-3.2,1.4s-1.3,2.2-1.5,3.8h9v-0.4c-0.1-1.6-0.5-2.8-1.3-3.6S273.5,680.6,272.2,680.6z"/>
		</g>
		<g class="st1">
			<path class="st2" d="M293.3,692.3l4.5-15.1h4.9l-7.3,21.1h-4.1l-7.4-21.1h4.9L293.3,692.3z"/>
			<path class="st2" d="M306.8,671.7c0-0.7,0.2-1.3,0.7-1.8c0.5-0.5,1.1-0.7,2-0.7s1.5,0.2,2,0.7s0.7,1.1,0.7,1.8
				c0,0.7-0.2,1.3-0.7,1.8s-1.1,0.7-2,0.7s-1.5-0.2-2-0.7C307.1,673,306.8,672.4,306.8,671.7z M311.9,698.3h-4.7v-21.1h4.7V698.3z"
				/>
			<path class="st2" d="M326.9,694.9c1.2,0,2.2-0.3,2.9-1s1.2-1.5,1.2-2.6h4.5c-0.1,1.3-0.5,2.5-1.2,3.7c-0.8,1.1-1.8,2-3.1,2.7
				c-1.3,0.7-2.7,1-4.3,1c-3,0-5.3-1-7-2.9c-1.7-1.9-2.6-4.6-2.6-7.9v-0.5c0-3.2,0.9-5.8,2.6-7.7s4.1-2.9,7-2.9
				c2.5,0,4.6,0.7,6.1,2.2s2.4,3.4,2.5,5.8h-4.5c-0.1-1.2-0.5-2.2-1.2-3c-0.8-0.8-1.8-1.2-3-1.2c-1.5,0-2.7,0.6-3.6,1.7
				c-0.8,1.1-1.3,2.8-1.3,5.1v0.8c0,2.3,0.4,4,1.2,5.1C324.1,694.3,325.3,694.9,326.9,694.9z"/>
			<path class="st2" d="M349.6,698.7c-3,0-5.4-0.9-7.3-2.8c-1.9-1.9-2.8-4.4-2.8-7.6v-0.6c0-2.1,0.4-4,1.2-5.7c0.8-1.7,2-3,3.4-3.9
				c1.5-0.9,3.1-1.4,4.9-1.4c2.9,0,5.1,0.9,6.7,2.8c1.6,1.8,2.4,4.4,2.4,7.8v1.9h-13.8c0.1,1.7,0.7,3.1,1.7,4.1c1,1,2.3,1.5,3.9,1.5
				c2.2,0,3.9-0.9,5.3-2.6l2.6,2.4c-0.8,1.3-2,2.2-3.4,2.9C352.9,698.3,351.4,698.7,349.6,698.7z M349,680.6c-1.3,0-2.4,0.5-3.2,1.4
				s-1.3,2.2-1.5,3.8h9v-0.4c-0.1-1.6-0.5-2.8-1.3-3.6S350.3,680.6,349,680.6z"/>
			<path class="st2" d="M380.9,669.8l8.2,21.8l8.2-21.8h6.4v28.4h-4.9v-9.4l0.5-12.5l-8.4,21.9h-3.5l-8.4-21.9l0.5,12.5v9.4h-4.9
				v-28.4H380.9z"/>
			<path class="st2" d="M419.5,698.7c-3,0-5.4-0.9-7.3-2.8c-1.9-1.9-2.8-4.4-2.8-7.6v-0.6c0-2.1,0.4-4,1.2-5.7c0.8-1.7,2-3,3.4-3.9
				c1.5-0.9,3.1-1.4,4.9-1.4c2.9,0,5.1,0.9,6.7,2.8c1.6,1.8,2.4,4.4,2.4,7.8v1.9h-13.8c0.1,1.7,0.7,3.1,1.7,4.1c1,1,2.3,1.5,3.9,1.5
				c2.2,0,3.9-0.9,5.3-2.6l2.6,2.4c-0.8,1.3-2,2.2-3.4,2.9C422.9,698.3,421.3,698.7,419.5,698.7z M419,680.6c-1.3,0-2.4,0.5-3.2,1.4
				s-1.3,2.2-1.5,3.8h9v-0.4c-0.1-1.6-0.5-2.8-1.3-3.6S420.3,680.6,419,680.6z"/>
			<path class="st2" d="M437.3,677.1l0.1,2.2c1.5-1.7,3.5-2.6,6.1-2.6c2.8,0,4.8,1.1,5.8,3.2c1.5-2.2,3.7-3.2,6.5-3.2
				c2.3,0,4.1,0.6,5.2,1.9c1.1,1.3,1.7,3.2,1.7,5.7v13.9H458v-13.8c0-1.3-0.3-2.3-0.9-2.9s-1.6-0.9-2.9-0.9c-1.1,0-2,0.3-2.6,0.9
				s-1.2,1.3-1.4,2.3l0,14.5h-4.7v-13.9c-0.1-2.5-1.3-3.7-3.8-3.7c-1.9,0-3.2,0.8-4,2.3v15.3h-4.7v-21.1H437.3z"/>
			<path class="st2" d="M467.9,687.5c0-2.1,0.4-3.9,1.2-5.6s2-2.9,3.5-3.8s3.2-1.3,5.1-1.3c2.9,0,5.2,0.9,6.9,2.8s2.7,4.3,2.9,7.3
				l0,1.1c0,2.1-0.4,3.9-1.2,5.6s-1.9,2.9-3.4,3.8c-1.5,0.9-3.2,1.3-5.2,1.3c-3,0-5.4-1-7.2-3c-1.8-2-2.7-4.6-2.7-7.9V687.5z
				 M472.7,687.9c0,2.2,0.4,3.9,1.3,5.1s2.1,1.8,3.8,1.8s2.8-0.6,3.7-1.9c0.9-1.2,1.3-3.1,1.3-5.5c0-2.1-0.5-3.8-1.4-5.1
				s-2.2-1.9-3.7-1.9c-1.5,0-2.8,0.6-3.7,1.8C473.1,683.6,472.7,685.5,472.7,687.9z"/>
		</g>
		<g class="st1">
			<path class="st2" d="M504.2,681.5c-0.6-0.1-1.3-0.2-1.9-0.2c-2.2,0-3.6,0.8-4.4,2.5v14.5h-4.7v-21.1h4.5l0.1,2.4
				c1.1-1.8,2.7-2.8,4.8-2.8c0.7,0,1.2,0.1,1.7,0.3L504.2,681.5z"/>
		</g>
		<g class="st1">
			<path class="st2" d="M516.1,691.5l4.3-14.3h5.1l-8.4,24.3c-1.3,3.6-3.5,5.3-6.6,5.3c-0.7,0-1.5-0.1-2.3-0.4v-3.7l0.9,0.1
				c1.2,0,2.1-0.2,2.7-0.7c0.6-0.4,1.1-1.2,1.4-2.2l0.7-1.8l-7.4-21h5.1L516.1,691.5z"/>
		</g>
		<g class="st1">
			<path class="st2" d="M207.1,950.1h-8.6l-1.8,5.2h-4l8.4-22.3h3.5l8.4,22.3h-4L207.1,950.1z M199.6,947h6.5l-3.2-9.2L199.6,947z"
				/>
			<path class="st2" d="M225.9,955.3h-3.7v-17.9l-5.5,1.9v-3.1l8.7-3.2h0.5V955.3z"/>
			<path class="st2" d="M249.1,945.9c0,3.2-0.6,5.6-1.8,7.3c-1.2,1.6-3,2.4-5.5,2.4c-2.4,0-4.2-0.8-5.4-2.4
				c-1.2-1.6-1.8-3.9-1.9-7.1v-3.9c0-3.2,0.6-5.6,1.8-7.2c1.2-1.6,3-2.4,5.5-2.4c2.4,0,4.3,0.8,5.5,2.3c1.2,1.6,1.8,3.9,1.8,7V945.9
				z M245.4,941.7c0-2.1-0.3-3.6-0.9-4.6c-0.6-1-1.5-1.5-2.7-1.5c-1.2,0-2.1,0.5-2.7,1.4s-0.9,2.4-0.9,4.3v5.1
				c0,2.1,0.3,3.6,0.9,4.7c0.6,1,1.5,1.5,2.7,1.5c1.2,0,2.1-0.5,2.6-1.4c0.6-0.9,0.9-2.4,0.9-4.4V941.7z"/>
			<path class="st2" d="M275.1,950.1h-8.6l-1.8,5.2h-4L269,933h3.5l8.4,22.3h-4L275.1,950.1z M267.5,947h6.5l-3.2-9.2L267.5,947z"/>
			<path class="st2" d="M285.3,955.3v-13.8h-2.5v-2.8h2.5v-1.5c0-1.8,0.5-3.3,1.5-4.3c1-1,2.4-1.5,4.3-1.5c0.7,0,1.3,0.1,2.1,0.3
				l-0.1,2.9c-0.4-0.1-0.9-0.1-1.4-0.1c-1.8,0-2.7,0.9-2.7,2.7v1.5h3.4v2.8h-3.4v13.8H285.3z"/>
			<path class="st2" d="M300.7,934.7v4h2.9v2.8h-2.9v9.2c0,0.6,0.1,1.1,0.4,1.4c0.2,0.3,0.7,0.4,1.3,0.4c0.4,0,0.9-0.1,1.3-0.2v2.9
				c-0.8,0.2-1.7,0.4-2.4,0.4c-2.9,0-4.3-1.6-4.3-4.7v-9.4h-2.7v-2.8h2.7v-4H300.7z"/>
			<path class="st2" d="M314.7,955.6c-2.4,0-4.3-0.7-5.7-2.2s-2.2-3.5-2.2-5.9V947c0-1.7,0.3-3.1,1-4.4c0.6-1.3,1.5-2.3,2.7-3
				c1.2-0.7,2.4-1.1,3.9-1.1c2.3,0,4,0.7,5.2,2.2c1.2,1.4,1.8,3.5,1.8,6.1v1.5h-10.8c0.1,1.4,0.6,2.5,1.4,3.2c0.8,0.8,1.8,1.2,3,1.2
				c1.7,0,3.1-0.7,4.2-2.1l2,1.9c-0.7,1-1.5,1.8-2.7,2.3C317.3,955.3,316.1,955.6,314.7,955.6z M314.2,941.4c-1,0-1.8,0.4-2.5,1.1
				c-0.6,0.7-1,1.7-1.2,3h7.1v-0.3c-0.1-1.2-0.4-2.2-1-2.8C316.1,941.7,315.3,941.4,314.2,941.4z"/>
			<path class="st2" d="M333.8,942.1c-0.5-0.1-1-0.1-1.5-0.1c-1.7,0-2.9,0.7-3.4,2v11.3h-3.7v-16.6h3.6l0.1,1.9
				c0.9-1.4,2.1-2.2,3.7-2.2c0.5,0,1,0.1,1.3,0.2L333.8,942.1z"/>
			<path class="st2" d="M363.9,944.7c0,2.2-0.4,4.1-1.1,5.8s-1.8,2.9-3.2,3.8c-1.4,0.9-3,1.3-4.8,1.3c-1.8,0-3.4-0.4-4.8-1.3
				c-1.4-0.9-2.5-2.1-3.3-3.8c-0.8-1.6-1.2-3.5-1.2-5.7v-1.3c0-2.2,0.4-4.1,1.2-5.8c0.8-1.7,1.9-2.9,3.3-3.8c1.4-0.9,3-1.3,4.8-1.3
				s3.4,0.4,4.8,1.3s2.5,2.1,3.3,3.8s1.2,3.5,1.2,5.7V944.7z M360.1,943.6c0-2.5-0.5-4.4-1.4-5.7c-0.9-1.3-2.3-2-4-2
				c-1.7,0-3,0.7-3.9,2s-1.4,3.2-1.4,5.6v1.3c0,2.5,0.5,4.3,1.4,5.7c1,1.3,2.3,2,4,2c1.7,0,3-0.7,4-2s1.4-3.2,1.4-5.7V943.6z"/>
		</g>
		<g class="st1">
			<path class="st2" d="M374.5,950.6l3.5-11.9h3.8l-5.7,16.6h-3.2l-5.8-16.6h3.9L374.5,950.6z"/>
		</g>
		<g class="st1">
			<path class="st2" d="M392.3,955.6c-2.4,0-4.3-0.7-5.7-2.2s-2.2-3.5-2.2-5.9V947c0-1.7,0.3-3.1,1-4.4c0.6-1.3,1.5-2.3,2.7-3
				c1.2-0.7,2.4-1.1,3.9-1.1c2.3,0,4,0.7,5.2,2.2c1.2,1.4,1.8,3.5,1.8,6.1v1.5h-10.8c0.1,1.4,0.6,2.5,1.4,3.2c0.8,0.8,1.8,1.2,3,1.2
				c1.7,0,3.1-0.7,4.2-2.1l2,1.9c-0.7,1-1.5,1.8-2.7,2.3C394.9,955.3,393.6,955.6,392.3,955.6z M391.8,941.4c-1,0-1.8,0.4-2.5,1.1
				c-0.6,0.7-1,1.7-1.2,3h7.1v-0.3c-0.1-1.2-0.4-2.2-1-2.8C393.6,941.7,392.8,941.4,391.8,941.4z"/>
			<path class="st2" d="M411.4,942.1c-0.5-0.1-1-0.1-1.5-0.1c-1.7,0-2.9,0.7-3.4,2v11.3h-3.7v-16.6h3.6l0.1,1.9
				c0.9-1.4,2.1-2.2,3.7-2.2c0.5,0,1,0.1,1.3,0.2L411.4,942.1z"/>
			<path class="st2" d="M423.9,950.8c0-0.7-0.3-1.2-0.8-1.5c-0.5-0.3-1.5-0.7-2.7-0.9c-1.3-0.3-2.3-0.6-3.2-1
				c-1.9-0.9-2.8-2.2-2.8-3.9c0-1.4,0.6-2.6,1.8-3.6c1.2-1,2.7-1.4,4.6-1.4c2,0,3.6,0.5,4.8,1.5c1.2,1,1.8,2.3,1.8,3.8h-3.7
				c0-0.7-0.3-1.3-0.8-1.8c-0.5-0.5-1.2-0.7-2.1-0.7c-0.8,0-1.5,0.2-2,0.6c-0.5,0.4-0.8,0.9-0.8,1.5c0,0.6,0.2,1,0.7,1.3
				s1.4,0.6,2.9,1c1.5,0.3,2.6,0.7,3.4,1.1s1.4,1,1.9,1.6c0.4,0.6,0.6,1.4,0.6,2.3c0,1.5-0.6,2.7-1.9,3.6c-1.2,0.9-2.9,1.4-4.9,1.4
				c-1.4,0-2.6-0.2-3.6-0.7s-1.9-1.2-2.5-2c-0.6-0.9-0.9-1.8-0.9-2.8h3.6c0.1,0.9,0.4,1.6,1,2c0.6,0.5,1.4,0.7,2.4,0.7
				c1,0,1.7-0.2,2.2-0.6C423.7,951.9,423.9,951.4,423.9,950.8z"/>
			<path class="st2" d="M441.8,953.7c-1.1,1.3-2.6,1.9-4.7,1.9c-1.8,0-3.2-0.5-4.1-1.6c-0.9-1.1-1.4-2.6-1.4-4.6v-10.7h3.7v10.7
				c0,2.1,0.9,3.2,2.6,3.2c1.8,0,3-0.6,3.7-1.9v-11.9h3.7v16.6h-3.5L441.8,953.7z"/>
			<path class="st2" d="M464.6,947.2c0,2.6-0.6,4.6-1.7,6.1c-1.1,1.5-2.7,2.3-4.7,2.3c-1.9,0-3.5-0.7-4.5-2.1l-0.2,1.8h-3.4v-23.5
				h3.7v8.5c1.1-1.3,2.5-1.9,4.3-1.9c2,0,3.6,0.8,4.8,2.3c1.2,1.5,1.7,3.6,1.7,6.3V947.2z M460.9,946.8c0-1.8-0.3-3.1-0.9-4
				c-0.6-0.9-1.6-1.3-2.8-1.3c-1.6,0-2.7,0.7-3.4,2.1v6.8c0.7,1.4,1.8,2.2,3.4,2.2c1.2,0,2.1-0.4,2.7-1.3c0.6-0.9,1-2.2,1-3.9V946.8
				z"/>
			<path class="st2" d="M477.9,950.8c0-0.7-0.3-1.2-0.8-1.5c-0.5-0.3-1.5-0.7-2.7-0.9c-1.3-0.3-2.3-0.6-3.2-1
				c-1.9-0.9-2.8-2.2-2.8-3.9c0-1.4,0.6-2.6,1.8-3.6c1.2-1,2.7-1.4,4.6-1.4c2,0,3.6,0.5,4.8,1.5c1.2,1,1.8,2.3,1.8,3.8h-3.7
				c0-0.7-0.3-1.3-0.8-1.8c-0.5-0.5-1.2-0.7-2.1-0.7c-0.8,0-1.5,0.2-2,0.6c-0.5,0.4-0.8,0.9-0.8,1.5c0,0.6,0.2,1,0.7,1.3
				s1.4,0.6,2.9,1c1.5,0.3,2.6,0.7,3.4,1.1s1.4,1,1.9,1.6c0.4,0.6,0.6,1.4,0.6,2.3c0,1.5-0.6,2.7-1.9,3.6c-1.2,0.9-2.9,1.4-4.9,1.4
				c-1.4,0-2.6-0.2-3.6-0.7s-1.9-1.2-2.5-2c-0.6-0.9-0.9-1.8-0.9-2.8h3.6c0.1,0.9,0.4,1.6,1,2c0.6,0.5,1.4,0.7,2.4,0.7
				c1,0,1.7-0.2,2.2-0.6C477.7,951.9,477.9,951.4,477.9,950.8z"/>
			<path class="st2" d="M492.5,952.6c0.9,0,1.7-0.3,2.3-0.8c0.6-0.5,0.9-1.2,1-2h3.5c0,1-0.4,2-1,2.9c-0.6,0.9-1.4,1.6-2.5,2.1
				s-2.1,0.8-3.3,0.8c-2.3,0-4.2-0.8-5.5-2.3c-1.4-1.5-2-3.6-2-6.2v-0.4c0-2.5,0.7-4.5,2-6.1s3.2-2.3,5.5-2.3c2,0,3.6,0.6,4.8,1.7
				s1.9,2.7,2,4.5h-3.5c0-0.9-0.4-1.7-1-2.3c-0.6-0.6-1.4-0.9-2.3-0.9c-1.2,0-2.1,0.4-2.8,1.3s-1,2.2-1,4v0.6c0,1.8,0.3,3.1,1,4
				C490.4,952.2,491.3,952.6,492.5,952.6z"/>
			<path class="st2" d="M511.7,942.1c-0.5-0.1-1-0.1-1.5-0.1c-1.7,0-2.9,0.7-3.4,2v11.3H503v-16.6h3.6l0.1,1.9
				c0.9-1.4,2.1-2.2,3.7-2.2c0.5,0,1,0.1,1.3,0.2L511.7,942.1z"/>
			<path class="st2" d="M515,934.4c0-0.6,0.2-1,0.5-1.4s0.9-0.6,1.6-0.6s1.2,0.2,1.6,0.6s0.6,0.9,0.6,1.4c0,0.6-0.2,1-0.6,1.4
				s-0.9,0.6-1.6,0.6s-1.2-0.2-1.6-0.6S515,935,515,934.4z M518.9,955.3h-3.7v-16.6h3.7V955.3z"/>
			<path class="st2" d="M538.4,947.2c0,2.6-0.6,4.6-1.7,6.1c-1.1,1.5-2.7,2.3-4.7,2.3c-1.9,0-3.5-0.7-4.5-2.1l-0.2,1.8h-3.4v-23.5
				h3.7v8.5c1.1-1.3,2.5-1.9,4.3-1.9c2,0,3.6,0.8,4.8,2.3c1.2,1.5,1.7,3.6,1.7,6.3V947.2z M534.7,946.8c0-1.8-0.3-3.1-0.9-4
				c-0.6-0.9-1.6-1.3-2.8-1.3c-1.6,0-2.7,0.7-3.4,2.1v6.8c0.7,1.4,1.8,2.2,3.4,2.2c1.2,0,2.1-0.4,2.7-1.3c0.6-0.9,1-2.2,1-3.9V946.8
				z"/>
			<path class="st2" d="M549.8,955.6c-2.4,0-4.3-0.7-5.7-2.2s-2.2-3.5-2.2-5.9V947c0-1.7,0.3-3.1,1-4.4c0.6-1.3,1.5-2.3,2.7-3
				c1.2-0.7,2.4-1.1,3.9-1.1c2.3,0,4,0.7,5.2,2.2c1.2,1.4,1.8,3.5,1.8,6.1v1.5h-10.8c0.1,1.4,0.6,2.5,1.4,3.2c0.8,0.8,1.8,1.2,3,1.2
				c1.7,0,3.1-0.7,4.2-2.1l2,1.9c-0.7,1-1.5,1.8-2.7,2.3C552.4,955.3,551.1,955.6,549.8,955.6z M549.3,941.4c-1,0-1.8,0.4-2.5,1.1
				c-0.6,0.7-1,1.7-1.2,3h7.1v-0.3c-0.1-1.2-0.4-2.2-1-2.8C551.1,941.7,550.3,941.4,549.3,941.4z"/>
		</g>
		<g>
			<line class="st6" x1="374.8" y1="359.1" x2="375" y2="541.2"/>
			<polygon class="st2" points="365,538.3 375,555.6 385,538.3 			"/>
		</g>
		<g>
			<path class="st7" d="M895.9,181.9h279.9c5.9,0,10.6,4.8,10.6,10.6v255.8c0,5.9-4.8,10.6-10.6,10.6H895.9
				c-5.9,0-10.6-4.8-10.6-10.6V192.6C885.2,186.7,890,181.9,895.9,181.9z"/>
			<path class="st2" d="M894.8,182.4h283.6c5.1,0,9.2,4.1,9.2,9.2v61.8H884.7v-60.9C884.7,187,889.2,182.4,894.8,182.4L894.8,182.4z
				"/>
			<g class="st1">
				<path class="st8" d="M964.4,213.9h-7v19.2h-3.8v-19.2h-6.9v-3.1h17.7V213.9z"/>
			</g>
			<g class="st1">
				<path class="st8" d="M975.2,233.1c-0.2-0.3-0.3-0.8-0.4-1.5c-1.2,1.2-2.6,1.9-4.3,1.9c-1.7,0-3-0.5-4.1-1.4
					c-1.1-0.9-1.6-2.1-1.6-3.5c0-1.8,0.7-3.1,2-4.1s3.2-1.4,5.6-1.4h2.3v-1.1c0-0.9-0.2-1.5-0.7-2.1c-0.5-0.5-1.2-0.8-2.2-0.8
					c-0.8,0-1.5,0.2-2.1,0.6c-0.5,0.4-0.8,1-0.8,1.6h-3.7c0-0.9,0.3-1.8,0.9-2.5s1.4-1.4,2.5-1.9s2.2-0.7,3.5-0.7
					c1.9,0,3.5,0.5,4.6,1.5c1.2,1,1.7,2.3,1.8,4.1v7.5c0,1.5,0.2,2.7,0.6,3.6v0.3H975.2z M971.1,230.4c0.7,0,1.4-0.2,2.1-0.5
					c0.6-0.4,1.1-0.8,1.5-1.4v-3.1h-2c-1.4,0-2.4,0.2-3.1,0.7c-0.7,0.5-1,1.2-1,2c0,0.7,0.2,1.3,0.7,1.7
					C969.7,230.2,970.4,230.4,971.1,230.4z"/>
				<path class="st8" d="M992.5,228.6c0-0.7-0.3-1.2-0.8-1.5s-1.5-0.7-2.7-0.9c-1.3-0.3-2.3-0.6-3.2-1c-1.9-0.9-2.8-2.2-2.8-3.9
					c0-1.4,0.6-2.6,1.8-3.6c1.2-1,2.7-1.4,4.6-1.4c2,0,3.6,0.5,4.8,1.5c1.2,1,1.8,2.3,1.8,3.8h-3.7c0-0.7-0.3-1.3-0.8-1.8
					c-0.5-0.5-1.2-0.7-2.1-0.7c-0.8,0-1.5,0.2-2,0.6c-0.5,0.4-0.8,0.9-0.8,1.5c0,0.6,0.2,1,0.7,1.3c0.5,0.3,1.5,0.6,2.9,1
					c1.5,0.3,2.6,0.7,3.4,1.1s1.4,1,1.9,1.6c0.4,0.6,0.6,1.4,0.6,2.3c0,1.5-0.6,2.7-1.9,3.6s-2.9,1.4-4.9,1.4
					c-1.4,0-2.6-0.2-3.6-0.7s-1.9-1.2-2.5-2s-0.9-1.8-0.9-2.8h3.6c0.1,0.9,0.4,1.6,1,2c0.6,0.5,1.4,0.7,2.4,0.7c1,0,1.7-0.2,2.2-0.6
					C992.2,229.7,992.5,229.2,992.5,228.6z"/>
				<path class="st8" d="M1005.7,226l-1.7,1.7v5.4h-3.7v-23.5h3.7v13.6l1.2-1.5l4.6-5.2h4.5l-6.2,6.9l6.8,9.7h-4.3L1005.7,226z"/>
				<path class="st8" d="M1026.9,228.6c0-0.7-0.3-1.2-0.8-1.5c-0.5-0.3-1.5-0.7-2.7-0.9s-2.3-0.6-3.2-1c-1.9-0.9-2.8-2.2-2.8-3.9
					c0-1.4,0.6-2.6,1.8-3.6c1.2-1,2.7-1.4,4.6-1.4c2,0,3.6,0.5,4.8,1.5c1.2,1,1.8,2.3,1.8,3.8h-3.7c0-0.7-0.3-1.3-0.8-1.8
					c-0.5-0.5-1.2-0.7-2.1-0.7c-0.8,0-1.5,0.2-2,0.6c-0.5,0.4-0.8,0.9-0.8,1.5c0,0.6,0.2,1,0.7,1.3c0.5,0.3,1.4,0.6,2.9,1
					s2.6,0.7,3.4,1.1s1.4,1,1.9,1.6c0.4,0.6,0.6,1.4,0.6,2.3c0,1.5-0.6,2.7-1.9,3.6c-1.2,0.9-2.9,1.4-4.9,1.4
					c-1.4,0-2.6-0.2-3.6-0.7s-1.9-1.2-2.5-2c-0.6-0.9-0.9-1.8-0.9-2.8h3.6c0.1,0.9,0.4,1.6,1,2s1.4,0.7,2.4,0.7c1,0,1.7-0.2,2.2-0.6
					C1026.6,229.7,1026.9,229.2,1026.9,228.6z"/>
				<path class="st8" d="M1036.9,216.1c0.7,0,1.2,0.2,1.6,0.6c0.4,0.4,0.6,0.9,0.6,1.5c0,0.6-0.2,1.1-0.6,1.4s-0.9,0.6-1.6,0.6
					c-0.7,0-1.2-0.2-1.6-0.6c-0.4-0.4-0.6-0.9-0.6-1.5c0-0.6,0.2-1.1,0.6-1.5C1035.7,216.3,1036.2,216.1,1036.9,216.1z
					 M1036.9,229.1c0.7,0,1.2,0.2,1.6,0.6c0.4,0.4,0.6,0.9,0.6,1.5c0,0.6-0.2,1.1-0.6,1.4s-0.9,0.6-1.6,0.6c-0.7,0-1.2-0.2-1.6-0.6
					c-0.4-0.4-0.6-0.9-0.6-1.5s0.2-1.1,0.6-1.5C1035.7,229.3,1036.2,229.1,1036.9,229.1z"/>
				<path class="st8" d="M1062.5,233.1h-3.7v-17.9l-5.5,1.9v-3.1l8.7-3.2h0.5V233.1z"/>
				<path class="st8" d="M1072.1,222l1.2-11.2h12v3.2h-8.9l-0.6,5.3c1-0.6,2.2-0.9,3.5-0.9c2.1,0,3.8,0.7,5,2
					c1.2,1.4,1.8,3.2,1.8,5.5c0,2.3-0.7,4.1-2,5.4c-1.3,1.3-3.1,2-5.4,2c-2,0-3.7-0.6-5.1-1.7c-1.3-1.2-2.1-2.7-2.2-4.6h3.6
					c0.1,1.1,0.5,1.9,1.2,2.5c0.6,0.6,1.5,0.9,2.5,0.9c1.1,0,2-0.4,2.7-1.2c0.6-0.8,1-1.9,1-3.3c0-1.4-0.4-2.4-1.1-3.2
					c-0.7-0.8-1.7-1.2-2.9-1.2c-0.7,0-1.2,0.1-1.7,0.3c-0.5,0.2-1,0.5-1.5,1L1072.1,222z"/>
				<path class="st8" d="M1107.5,230.2c-0.8,1.1-1.9,1.8-3.4,2.4c-1.4,0.5-3.1,0.8-4.9,0.8c-1.9,0-3.5-0.4-5-1.3
					c-1.4-0.8-2.5-2.1-3.3-3.6s-1.2-3.4-1.2-5.5v-1.7c0-3.4,0.8-6,2.4-7.9c1.6-1.9,3.9-2.8,6.8-2.8c2.5,0,4.5,0.6,5.9,1.8
					s2.3,3,2.6,5.3h-3.8c-0.4-2.7-2-4-4.7-4c-1.7,0-3.1,0.6-4,1.9c-0.9,1.2-1.4,3.1-1.4,5.5v1.7c0,2.4,0.5,4.3,1.5,5.6s2.4,2,4.2,2
					c2,0,3.4-0.4,4.2-1.3v-4.4h-4.6v-2.9h8.5V230.2z"/>
			</g>
			<g class="st1">
				<path class="st2" d="M927.7,320.3h-3.4v-16.6l-5.1,1.7v-2.9l8-3h0.4V320.3z"/>
			</g>
			<g class="st1">
				<path class="st2" d="M936.8,320.3v-2.9h2.9v2.9H936.8z"/>
			</g>
			<g class="st1">
				<path class="st2" d="M968.6,310.5c0,2-0.3,3.8-1,5.3c-0.7,1.5-1.7,2.7-3,3.5s-2.8,1.2-4.5,1.2c-1.7,0-3.2-0.4-4.5-1.2
					s-2.3-2-3-3.5c-0.7-1.5-1.1-3.3-1.1-5.2v-1.2c0-2,0.4-3.8,1.1-5.3c0.7-1.5,1.7-2.7,3-3.5s2.8-1.2,4.5-1.2c1.7,0,3.2,0.4,4.5,1.2
					c1.3,0.8,2.3,2,3,3.5c0.7,1.5,1.1,3.3,1.1,5.3V310.5z M965,309.4c0-2.3-0.4-4-1.3-5.3c-0.9-1.2-2.1-1.8-3.7-1.8
					c-1.5,0-2.8,0.6-3.6,1.8c-0.9,1.2-1.3,2.9-1.3,5.1v1.2c0,2.3,0.4,4,1.3,5.3c0.9,1.2,2.1,1.9,3.7,1.9c1.6,0,2.8-0.6,3.7-1.8
					s1.3-3,1.3-5.3V309.4z"/>
				<path class="st2" d="M988.7,313.6c-0.2,2.2-1,3.9-2.4,5.1c-1.4,1.2-3.3,1.8-5.6,1.8c-1.6,0-3.1-0.4-4.3-1.2
					c-1.3-0.8-2.2-1.9-2.9-3.3c-0.7-1.4-1-3.1-1.1-5v-1.9c0-1.9,0.3-3.7,1-5.1c0.7-1.5,1.7-2.6,3-3.4c1.3-0.8,2.8-1.2,4.5-1.2
					c2.3,0,4.1,0.6,5.5,1.8c1.4,1.2,2.2,3,2.4,5.2h-3.6c-0.2-1.5-0.6-2.6-1.3-3.2c-0.7-0.7-1.7-1-3.1-1c-1.6,0-2.8,0.6-3.6,1.7
					c-0.8,1.1-1.3,2.8-1.3,5v1.8c0,2.2,0.4,3.9,1.2,5.1c0.8,1.2,2,1.8,3.5,1.8c1.4,0,2.5-0.3,3.2-0.9c0.7-0.6,1.2-1.7,1.3-3.2H988.7
					z"/>
				<path class="st2" d="M1000.4,312.4h-4v7.9h-3.6v-20.6h7.2c2.4,0,4.2,0.5,5.5,1.6c1.3,1.1,1.9,2.6,1.9,4.6c0,1.4-0.3,2.5-1,3.5
					c-0.7,0.9-1.6,1.6-2.8,2.1l4.6,8.6v0.2h-3.8L1000.4,312.4z M996.4,309.5h3.7c1.2,0,2.2-0.3,2.8-0.9c0.7-0.6,1-1.4,1-2.5
					c0-1.1-0.3-2-0.9-2.6s-1.6-0.9-2.8-0.9h-3.8V309.5z"/>
				<path class="st2" d="M1028.6,320.3h-3.4v-16.6l-5.1,1.7v-2.9l8-3h0.4V320.3z"/>
				<path class="st2" d="M1037.6,310.1l1.1-10.4h11.1v3h-8.2l-0.6,4.9c1-0.5,2-0.8,3.2-0.8c2,0,3.5,0.6,4.6,1.9
					c1.1,1.3,1.6,2.9,1.6,5.1c0,2.1-0.6,3.8-1.8,5c-1.2,1.2-2.9,1.9-5,1.9c-1.9,0-3.5-0.5-4.7-1.6c-1.2-1.1-1.9-2.5-2-4.2h3.3
					c0.1,1,0.5,1.8,1.1,2.3c0.6,0.5,1.3,0.8,2.3,0.8c1.1,0,1.9-0.4,2.5-1.1s0.9-1.8,0.9-3.1c0-1.3-0.3-2.2-1-3s-1.5-1.1-2.7-1.1
					c-0.6,0-1.2,0.1-1.6,0.2c-0.4,0.2-0.9,0.5-1.4,1L1037.6,310.1z"/>
				<path class="st2" d="M1070.4,317.6c-0.7,1-1.8,1.7-3.1,2.2c-1.3,0.5-2.8,0.8-4.5,0.8c-1.7,0-3.3-0.4-4.6-1.2
					c-1.3-0.8-2.4-1.9-3.1-3.4c-0.7-1.5-1.1-3.2-1.1-5.1v-1.6c0-3.1,0.7-5.5,2.2-7.3c1.5-1.8,3.6-2.6,6.2-2.6c2.3,0,4.1,0.6,5.5,1.7
					c1.3,1.1,2.2,2.8,2.4,4.9h-3.5c-0.4-2.5-1.8-3.7-4.3-3.7c-1.6,0-2.8,0.6-3.7,1.7c-0.8,1.2-1.3,2.9-1.3,5.1v1.6
					c0,2.2,0.5,4,1.4,5.2c0.9,1.2,2.2,1.8,3.9,1.8c1.8,0,3.1-0.4,3.9-1.2v-4h-4.2v-2.7h7.8V317.6z"/>
			</g>
		</g>
		<g>
			<path class="st9" d="M895.9,565h278.9c5.9,0,10.6,4.8,10.6,10.6v304.8c0,5.9-4.8,10.6-10.6,10.6H895.9c-5.9,0-10.6-4.8-10.6-10.6
				V575.6C885.2,569.7,890,565,895.9,565z"/>
			<path class="st2" d="M894.8,565.5h282.6c5.1,0,9.2,4.1,9.2,9.2v61.8H884.7v-60.9C884.7,570,889.2,565.5,894.8,565.5L894.8,565.5z
				"/>
			<g class="st1">
				<path class="st8" d="M950.2,596.9h-7v19.2h-3.8v-19.2h-6.9v-3.1h17.7V596.9z"/>
			</g>
			<g class="st1">
				<path class="st8" d="M961,616.1c-0.2-0.3-0.3-0.8-0.4-1.5c-1.2,1.2-2.6,1.9-4.3,1.9c-1.7,0-3-0.5-4.1-1.4
					c-1.1-0.9-1.6-2.1-1.6-3.5c0-1.8,0.7-3.1,2-4.1c1.3-0.9,3.2-1.4,5.6-1.4h2.3v-1.1c0-0.9-0.2-1.5-0.7-2.1
					c-0.5-0.5-1.2-0.8-2.2-0.8c-0.8,0-1.5,0.2-2.1,0.6c-0.5,0.4-0.8,1-0.8,1.6h-3.7c0-0.9,0.3-1.8,0.9-2.5c0.6-0.8,1.4-1.4,2.5-1.9
					s2.2-0.7,3.5-0.7c1.9,0,3.5,0.5,4.6,1.5s1.7,2.3,1.8,4.1v7.5c0,1.5,0.2,2.7,0.6,3.6v0.3H961z M956.9,613.4
					c0.7,0,1.4-0.2,2.1-0.5s1.1-0.8,1.5-1.4v-3.1h-2c-1.4,0-2.4,0.2-3.1,0.7c-0.7,0.5-1,1.2-1,2c0,0.7,0.2,1.3,0.7,1.7
					C955.5,613.2,956.1,613.4,956.9,613.4z"/>
				<path class="st8" d="M978.3,611.6c0-0.7-0.3-1.2-0.8-1.5c-0.5-0.3-1.5-0.7-2.7-0.9s-2.3-0.6-3.2-1c-1.9-0.9-2.8-2.2-2.8-3.9
					c0-1.4,0.6-2.6,1.8-3.6c1.2-1,2.7-1.4,4.6-1.4c2,0,3.6,0.5,4.8,1.5c1.2,1,1.8,2.3,1.8,3.8h-3.7c0-0.7-0.3-1.3-0.8-1.8
					c-0.5-0.5-1.2-0.7-2.1-0.7c-0.8,0-1.5,0.2-2,0.6c-0.5,0.4-0.8,0.9-0.8,1.5c0,0.6,0.2,1,0.7,1.3c0.5,0.3,1.4,0.6,2.9,1
					s2.6,0.7,3.4,1.1s1.4,1,1.9,1.6c0.4,0.6,0.6,1.4,0.6,2.3c0,1.5-0.6,2.7-1.9,3.6c-1.2,0.9-2.9,1.4-4.9,1.4
					c-1.4,0-2.6-0.2-3.6-0.7s-1.9-1.2-2.5-2c-0.6-0.9-0.9-1.8-0.9-2.8h3.6c0.1,0.9,0.4,1.6,1,2s1.4,0.7,2.4,0.7c1,0,1.7-0.2,2.2-0.6
					C978,612.7,978.3,612.2,978.3,611.6z"/>
				<path class="st8" d="M991.5,609l-1.7,1.7v5.4h-3.7v-23.5h3.7v13.6l1.2-1.5l4.6-5.2h4.5l-6.2,6.9l6.8,9.7h-4.3L991.5,609z"/>
				<path class="st8" d="M1012.6,611.6c0-0.7-0.3-1.2-0.8-1.5s-1.5-0.7-2.7-0.9c-1.3-0.3-2.3-0.6-3.2-1c-1.9-0.9-2.8-2.2-2.8-3.9
					c0-1.4,0.6-2.6,1.8-3.6c1.2-1,2.7-1.4,4.6-1.4c2,0,3.6,0.5,4.8,1.5c1.2,1,1.8,2.3,1.8,3.8h-3.7c0-0.7-0.3-1.3-0.8-1.8
					c-0.5-0.5-1.2-0.7-2.1-0.7c-0.8,0-1.5,0.2-2,0.6c-0.5,0.4-0.8,0.9-0.8,1.5c0,0.6,0.2,1,0.7,1.3c0.5,0.3,1.5,0.6,2.9,1
					c1.5,0.3,2.6,0.7,3.4,1.1s1.4,1,1.9,1.6c0.4,0.6,0.6,1.4,0.6,2.3c0,1.5-0.6,2.7-1.9,3.6s-2.9,1.4-4.9,1.4
					c-1.4,0-2.6-0.2-3.6-0.7s-1.9-1.2-2.5-2s-0.9-1.8-0.9-2.8h3.6c0.1,0.9,0.4,1.6,1,2c0.6,0.5,1.4,0.7,2.4,0.7c1,0,1.7-0.2,2.2-0.6
					C1012.4,612.7,1012.6,612.2,1012.6,611.6z"/>
				<path class="st8" d="M1022.7,599.2c0.7,0,1.2,0.2,1.6,0.6c0.4,0.4,0.6,0.9,0.6,1.5c0,0.6-0.2,1.1-0.6,1.4
					c-0.4,0.4-0.9,0.6-1.6,0.6c-0.7,0-1.2-0.2-1.6-0.6s-0.6-0.9-0.6-1.5c0-0.6,0.2-1.1,0.6-1.5
					C1021.5,599.3,1022,599.2,1022.7,599.2z M1022.7,612.2c0.7,0,1.2,0.2,1.6,0.6c0.4,0.4,0.6,0.9,0.6,1.5c0,0.6-0.2,1.1-0.6,1.4
					c-0.4,0.4-0.9,0.6-1.6,0.6c-0.7,0-1.2-0.2-1.6-0.6c-0.4-0.4-0.6-0.9-0.6-1.5s0.2-1.1,0.6-1.5
					C1021.5,612.3,1022,612.2,1022.7,612.2z"/>
				<path class="st8" d="M1042.5,603.2h2.3c1.1,0,2-0.3,2.7-0.9c0.7-0.6,1-1.4,1-2.5c0-1.1-0.3-1.9-0.8-2.5
					c-0.6-0.6-1.4-0.9-2.5-0.9c-1,0-1.8,0.3-2.5,0.9c-0.6,0.6-1,1.3-1,2.3h-3.7c0-1.1,0.3-2.2,0.9-3.1s1.5-1.7,2.5-2.2
					c1.1-0.5,2.3-0.8,3.7-0.8c2.2,0,4,0.6,5.2,1.7c1.3,1.1,1.9,2.7,1.9,4.7c0,1-0.3,1.9-1,2.8c-0.6,0.9-1.5,1.5-2.5,2
					c1.2,0.4,2.2,1.1,2.8,2c0.6,0.9,1,2,1,3.2c0,2-0.7,3.6-2.1,4.8c-1.4,1.2-3.2,1.8-5.4,1.8c-2.1,0-3.9-0.6-5.3-1.7
					c-1.4-1.1-2.1-2.7-2.1-4.6h3.7c0,1,0.3,1.8,1,2.4c0.7,0.6,1.5,0.9,2.7,0.9c1.2,0,2.1-0.3,2.7-0.9c0.7-0.6,1-1.5,1-2.7
					c0-1.2-0.3-2.1-1-2.7s-1.7-0.9-3.1-0.9h-2.2V603.2z"/>
				<path class="st8" d="M1057.9,605l1.2-11.2h12v3.2h-8.9l-0.6,5.3c1-0.6,2.2-0.9,3.5-0.9c2.1,0,3.8,0.7,5,2
					c1.2,1.4,1.8,3.2,1.8,5.5c0,2.3-0.7,4.1-2,5.4c-1.3,1.3-3.1,2-5.4,2c-2,0-3.7-0.6-5.1-1.7c-1.3-1.2-2.1-2.7-2.2-4.6h3.6
					c0.1,1.1,0.5,1.9,1.2,2.5c0.6,0.6,1.5,0.9,2.5,0.9c1.1,0,2-0.4,2.7-1.2c0.6-0.8,1-1.9,1-3.3c0-1.4-0.4-2.4-1.1-3.2
					c-0.7-0.8-1.7-1.2-2.9-1.2c-0.7,0-1.2,0.1-1.7,0.3s-1,0.5-1.5,1L1057.9,605z"/>
				<path class="st8" d="M1078.2,612.2c0.7,0,1.2,0.2,1.6,0.6c0.4,0.4,0.6,0.9,0.6,1.5c0,0.6-0.2,1.1-0.6,1.4
					c-0.4,0.4-0.9,0.6-1.6,0.6c-0.7,0-1.2-0.2-1.6-0.6c-0.4-0.4-0.6-0.9-0.6-1.5s0.2-1.1,0.6-1.5
					C1077,612.3,1077.5,612.2,1078.2,612.2z"/>
				<path class="st8" d="M1099.3,599.7c0,1.1-0.3,2.1-0.8,2.9s-1.3,1.5-2.3,2c1.2,0.5,2.1,1.3,2.7,2.2c0.6,0.9,0.9,2,0.9,3.2
					c0,2-0.7,3.5-2,4.7s-3.1,1.7-5.3,1.7c-2.2,0-4-0.6-5.3-1.7s-2-2.7-2-4.7c0-1.2,0.3-2.3,1-3.2c0.6-0.9,1.5-1.7,2.7-2.2
					c-1-0.5-1.7-1.2-2.3-2c-0.6-0.9-0.8-1.8-0.8-2.9c0-1.9,0.6-3.4,1.8-4.5c1.2-1.1,2.9-1.7,5-1.7c2.1,0,3.8,0.6,5,1.7
					C1098.7,596.3,1099.3,597.8,1099.3,599.7z M1096.1,609.8c0-1.1-0.3-2-1-2.7c-0.7-0.7-1.5-1-2.6-1s-1.9,0.3-2.6,1s-1,1.6-1,2.7
					c0,1.1,0.3,2,1,2.6c0.6,0.7,1.5,1,2.6,1c1.1,0,2-0.3,2.6-0.9C1095.8,611.8,1096.1,610.9,1096.1,609.8z M1095.6,599.8
					c0-1-0.3-1.8-0.8-2.4s-1.3-0.9-2.3-0.9s-1.7,0.3-2.3,0.9c-0.6,0.6-0.8,1.4-0.8,2.4c0,1,0.3,1.8,0.8,2.4c0.6,0.6,1.3,0.9,2.3,0.9
					c0.9,0,1.7-0.3,2.3-0.9C1095.3,601.6,1095.6,600.8,1095.6,599.8z"/>
				<path class="st8" d="M1121.7,613.2c-0.8,1.1-1.9,1.8-3.4,2.4c-1.4,0.5-3.1,0.8-4.9,0.8c-1.9,0-3.5-0.4-5-1.3
					c-1.4-0.8-2.5-2.1-3.3-3.6c-0.8-1.6-1.2-3.4-1.2-5.5v-1.7c0-3.4,0.8-6,2.4-7.9s3.9-2.8,6.8-2.8c2.5,0,4.5,0.6,5.9,1.8
					c1.5,1.2,2.3,3,2.6,5.3h-3.8c-0.4-2.7-2-4-4.7-4c-1.7,0-3.1,0.6-4,1.9c-0.9,1.2-1.4,3.1-1.4,5.5v1.7c0,2.4,0.5,4.3,1.5,5.6
					c1,1.3,2.4,2,4.2,2c2,0,3.4-0.4,4.2-1.3v-4.4h-4.6v-2.9h8.5V613.2z"/>
			</g>
			<g class="st1">
				<path class="st2" d="M928.7,711.3h-3.4v-16.6l-5.1,1.7v-2.9l8-3h0.4V711.3z"/>
			</g>
			<g class="st1">
				<path class="st2" d="M937.8,711.3v-2.9h2.9v2.9H937.8z"/>
			</g>
			<g class="st1">
				<path class="st2" d="M969.6,701.5c0,2-0.3,3.8-1,5.3c-0.7,1.5-1.7,2.7-3,3.5s-2.8,1.2-4.5,1.2c-1.7,0-3.2-0.4-4.5-1.2
					s-2.3-2-3-3.5c-0.7-1.5-1.1-3.3-1.1-5.2v-1.2c0-2,0.4-3.8,1.1-5.3c0.7-1.5,1.7-2.7,3-3.5s2.8-1.2,4.5-1.2c1.7,0,3.2,0.4,4.5,1.2
					c1.3,0.8,2.3,2,3,3.5c0.7,1.5,1.1,3.3,1.1,5.3V701.5z M966,700.4c0-2.3-0.4-4-1.3-5.3c-0.9-1.2-2.1-1.8-3.7-1.8
					c-1.5,0-2.8,0.6-3.6,1.8c-0.9,1.2-1.3,2.9-1.3,5.1v1.2c0,2.3,0.4,4,1.3,5.3c0.9,1.2,2.1,1.9,3.7,1.9c1.6,0,2.8-0.6,3.7-1.8
					s1.3-3,1.3-5.3V700.4z"/>
				<path class="st2" d="M989.7,704.6c-0.2,2.2-1,3.9-2.4,5.1c-1.4,1.2-3.3,1.8-5.6,1.8c-1.6,0-3.1-0.4-4.3-1.2
					c-1.3-0.8-2.2-1.9-2.9-3.3c-0.7-1.4-1-3.1-1.1-5v-1.9c0-1.9,0.3-3.7,1-5.1c0.7-1.5,1.7-2.6,3-3.4c1.3-0.8,2.8-1.2,4.5-1.2
					c2.3,0,4.1,0.6,5.5,1.8c1.4,1.2,2.2,3,2.4,5.2h-3.6c-0.2-1.5-0.6-2.6-1.3-3.2c-0.7-0.7-1.7-1-3.1-1c-1.6,0-2.8,0.6-3.6,1.7
					c-0.8,1.1-1.3,2.8-1.3,5v1.8c0,2.2,0.4,3.9,1.2,5.1c0.8,1.2,2,1.8,3.5,1.8c1.4,0,2.5-0.3,3.2-0.9c0.7-0.6,1.2-1.7,1.3-3.2H989.7
					z"/>
				<path class="st2" d="M1001.4,703.4h-4v7.9h-3.6v-20.6h7.2c2.4,0,4.2,0.5,5.5,1.6c1.3,1.1,1.9,2.6,1.9,4.6c0,1.4-0.3,2.5-1,3.5
					c-0.7,0.9-1.6,1.6-2.8,2.1l4.6,8.6v0.2h-3.8L1001.4,703.4z M997.4,700.5h3.7c1.2,0,2.2-0.3,2.8-0.9c0.7-0.6,1-1.4,1-2.5
					c0-1.1-0.3-2-0.9-2.6s-1.6-0.9-2.8-0.9h-3.8V700.5z"/>
				<path class="st2" d="M1029.6,711.3h-3.4v-16.6l-5.1,1.7v-2.9l8-3h0.4V711.3z"/>
				<path class="st2" d="M1038.6,701.1l1.1-10.4h11.1v3h-8.2l-0.6,4.9c1-0.5,2-0.8,3.2-0.8c2,0,3.5,0.6,4.6,1.9
					c1.1,1.3,1.6,2.9,1.6,5.1c0,2.1-0.6,3.8-1.8,5c-1.2,1.2-2.9,1.9-5,1.9c-1.9,0-3.5-0.5-4.7-1.6c-1.2-1.1-1.9-2.5-2-4.2h3.3
					c0.1,1,0.5,1.8,1.1,2.3c0.6,0.5,1.3,0.8,2.3,0.8c1.1,0,1.9-0.4,2.5-1.1s0.9-1.8,0.9-3.1c0-1.3-0.3-2.2-1-3s-1.5-1.1-2.7-1.1
					c-0.6,0-1.2,0.1-1.6,0.2c-0.4,0.2-0.9,0.5-1.4,1L1038.6,701.1z"/>
				<path class="st2" d="M1071.4,708.6c-0.7,1-1.8,1.7-3.1,2.2c-1.3,0.5-2.8,0.8-4.5,0.8c-1.7,0-3.3-0.4-4.6-1.2
					c-1.3-0.8-2.4-1.9-3.1-3.4c-0.7-1.5-1.1-3.2-1.1-5.1v-1.6c0-3.1,0.7-5.5,2.2-7.3c1.5-1.8,3.6-2.6,6.2-2.6c2.3,0,4.1,0.6,5.5,1.7
					c1.3,1.1,2.2,2.8,2.4,4.9h-3.5c-0.4-2.5-1.8-3.7-4.3-3.7c-1.6,0-2.8,0.6-3.7,1.7c-0.8,1.2-1.3,2.9-1.3,5.1v1.6
					c0,2.2,0.5,4,1.4,5.2c0.9,1.2,2.2,1.8,3.9,1.8c1.8,0,3.1-0.4,3.9-1.2v-4h-4.2v-2.7h7.8V708.6z"/>
			</g>
			<g class="st1">
				<path class="st2" d="M933.2,761.3h-13.9v-2.4l6.9-7.5c1-1.1,1.7-2,2.1-2.8c0.4-0.7,0.6-1.5,0.6-2.2c0-1-0.3-1.8-0.8-2.4
					c-0.6-0.6-1.3-0.9-2.2-0.9c-1.1,0-2,0.3-2.6,1c-0.6,0.7-0.9,1.6-0.9,2.8h-3.4c0-1.3,0.3-2.4,0.9-3.4c0.6-1,1.4-1.8,2.4-2.3
					c1.1-0.6,2.3-0.8,3.7-0.8c2,0,3.6,0.5,4.7,1.5c1.2,1,1.7,2.4,1.7,4.2c0,1-0.3,2.1-0.9,3.2c-0.6,1.1-1.5,2.4-2.9,3.8l-5,5.4h9.6
					V761.3z"/>
			</g>
			<g class="st1">
				<path class="st2" d="M937.8,761.3v-2.9h2.9v2.9H937.8z"/>
			</g>
			<g class="st1">
				<path class="st2" d="M958.2,756.9l3.2-11h3.6l-5.3,15.3h-3l-5.4-15.3h3.6L958.2,756.9z"/>
				<path class="st2" d="M972.1,761.3h-3.6v-20.6h3.6V761.3z"/>
				<path class="st2" d="M980.7,761.3h-3.4v-21.8h3.4V761.3z"/>
				<path class="st2" d="M988.5,746l0.1,1.6c1.1-1.3,2.5-1.9,4.4-1.9c2,0,3.5,0.8,4.2,2.4c1.1-1.6,2.7-2.4,4.7-2.4
					c1.7,0,2.9,0.5,3.8,1.4c0.8,0.9,1.2,2.3,1.3,4.1v10.1h-3.4v-10c0-1-0.2-1.7-0.6-2.1s-1.1-0.7-2.1-0.7c-0.8,0-1.4,0.2-1.9,0.6
					c-0.5,0.4-0.8,1-1,1.6l0,10.5h-3.4v-10.1c0-1.8-1-2.7-2.8-2.7c-1.4,0-2.4,0.6-2.9,1.7v11.1h-3.4V746H988.5z"/>
				<path class="st2" d="M1033.1,761.3h-13.9v-2.4l6.9-7.5c1-1.1,1.7-2,2.1-2.8s0.6-1.5,0.6-2.2c0-1-0.3-1.8-0.8-2.4
					c-0.6-0.6-1.3-0.9-2.2-0.9c-1.1,0-2,0.3-2.6,1c-0.6,0.7-0.9,1.6-0.9,2.8h-3.4c0-1.3,0.3-2.4,0.9-3.4c0.6-1,1.4-1.8,2.4-2.3
					c1.1-0.6,2.3-0.8,3.7-0.8c2,0,3.6,0.5,4.7,1.5c1.2,1,1.7,2.4,1.7,4.2c0,1-0.3,2.1-0.9,3.2c-0.6,1.1-1.5,2.4-2.9,3.8l-5,5.4h9.6
					V761.3z"/>
				<path class="st2" d="M1050.1,752.6c0,3-0.6,5.2-1.7,6.7s-2.8,2.3-5.1,2.3c-2.2,0-3.9-0.7-5-2.2c-1.1-1.5-1.7-3.6-1.7-6.5v-3.6
					c0-3,0.6-5.2,1.7-6.7c1.1-1.5,2.8-2.2,5.1-2.2c2.3,0,3.9,0.7,5,2.2c1.1,1.4,1.7,3.6,1.7,6.5V752.6z M1046.6,748.7
					c0-1.9-0.3-3.4-0.8-4.3c-0.5-0.9-1.4-1.4-2.5-1.4c-1.1,0-1.9,0.4-2.5,1.3c-0.5,0.9-0.8,2.2-0.8,4v4.7c0,1.9,0.3,3.4,0.8,4.3
					s1.4,1.4,2.5,1.4c1.1,0,1.9-0.4,2.5-1.3c0.5-0.9,0.8-2.2,0.8-4.1V748.7z"/>
				<path class="st2" d="M1070.3,758.6c-0.7,1-1.8,1.7-3.1,2.2c-1.3,0.5-2.8,0.8-4.5,0.8c-1.7,0-3.3-0.4-4.6-1.2
					c-1.3-0.8-2.4-1.9-3.1-3.4c-0.7-1.5-1.1-3.2-1.1-5.1v-1.6c0-3.1,0.7-5.5,2.2-7.3c1.5-1.8,3.6-2.6,6.2-2.6c2.3,0,4.1,0.6,5.5,1.7
					c1.4,1.1,2.2,2.8,2.4,4.9h-3.5c-0.4-2.5-1.8-3.7-4.3-3.7c-1.6,0-2.8,0.6-3.7,1.7c-0.8,1.2-1.3,2.9-1.3,5.1v1.6
					c0,2.2,0.5,4,1.4,5.2c0.9,1.2,2.2,1.8,3.9,1.8c1.8,0,3.1-0.4,3.9-1.2v-4h-4.2v-2.7h7.8V758.6z"/>
			</g>
			<g class="st1">
				<path class="st2" d="M923.3,799.4h2.1c1.1,0,1.9-0.3,2.5-0.8c0.6-0.5,0.9-1.3,0.9-2.3c0-1-0.3-1.7-0.8-2.3s-1.3-0.8-2.4-0.8
					c-0.9,0-1.7,0.3-2.3,0.8s-0.9,1.2-0.9,2.1h-3.4c0-1.1,0.3-2,0.8-2.9c0.6-0.9,1.3-1.5,2.4-2c1-0.5,2.1-0.7,3.4-0.7
					c2.1,0,3.7,0.5,4.9,1.6c1.2,1,1.8,2.5,1.8,4.3c0,0.9-0.3,1.8-0.9,2.6c-0.6,0.8-1.4,1.4-2.3,1.8c1.1,0.4,2,1,2.6,1.8
					s0.9,1.8,0.9,3c0,1.9-0.6,3.3-1.9,4.4s-2.9,1.6-5,1.6c-2,0-3.6-0.5-4.9-1.6c-1.3-1.1-1.9-2.5-1.9-4.2h3.4c0,0.9,0.3,1.6,0.9,2.2
					c0.6,0.6,1.4,0.8,2.5,0.8c1.1,0,1.9-0.3,2.5-0.8c0.6-0.6,0.9-1.4,0.9-2.5c0-1.1-0.3-1.9-1-2.5c-0.6-0.6-1.6-0.9-2.9-0.9h-2
					V799.4z"/>
			</g>
			<g class="st1">
				<path class="st2" d="M937.8,811.3v-2.9h2.9v2.9H937.8z"/>
			</g>
			<g class="st1">
			</g>
			<g class="st1">
				<path class="st2" d="M960.8,799.1c-0.5-0.1-0.9-0.1-1.4-0.1c-1.6,0-2.6,0.6-3.2,1.8v10.5h-3.4V796h3.3l0.1,1.7
					c0.8-1.3,2-2,3.5-2c0.5,0,0.9,0.1,1.2,0.2L960.8,799.1z"/>
			</g>
			<g class="st1">
				<path class="st2" d="M970.3,811.6c-2.2,0-3.9-0.7-5.3-2.1c-1.4-1.4-2-3.2-2-5.5v-0.4c0-1.5,0.3-2.9,0.9-4.1
					c0.6-1.2,1.4-2.1,2.5-2.8c1.1-0.7,2.3-1,3.6-1c2.1,0,3.7,0.7,4.8,2c1.1,1.3,1.7,3.2,1.7,5.6v1.4h-10c0.1,1.3,0.5,2.3,1.3,3
					s1.7,1.1,2.8,1.1c1.6,0,2.9-0.6,3.9-1.9l1.9,1.8c-0.6,0.9-1.4,1.6-2.5,2.1C972.7,811.3,971.6,811.6,970.3,811.6z M969.9,798.4
					c-0.9,0-1.7,0.3-2.3,1c-0.6,0.7-1,1.6-1.1,2.8h6.6v-0.3c-0.1-1.2-0.4-2-0.9-2.6S970.9,798.4,969.9,798.4z"/>
				<path class="st2" d="M988.6,807.1c0-0.6-0.3-1.1-0.8-1.4c-0.5-0.3-1.3-0.6-2.5-0.8c-1.2-0.2-2.1-0.6-2.9-0.9
					c-1.7-0.8-2.6-2-2.6-3.6c0-1.3,0.6-2.4,1.7-3.3c1.1-0.9,2.5-1.3,4.2-1.3c1.8,0,3.3,0.5,4.4,1.4s1.7,2.1,1.7,3.5h-3.4
					c0-0.7-0.2-1.2-0.7-1.7c-0.5-0.4-1.1-0.7-2-0.7c-0.8,0-1.4,0.2-1.8,0.5c-0.5,0.3-0.7,0.8-0.7,1.4c0,0.5,0.2,0.9,0.7,1.2
					c0.4,0.3,1.3,0.6,2.7,0.9c1.4,0.3,2.4,0.7,3.2,1.1c0.8,0.4,1.3,0.9,1.7,1.5c0.4,0.6,0.6,1.3,0.6,2.1c0,1.4-0.6,2.5-1.7,3.3
					c-1.1,0.9-2.6,1.3-4.5,1.3c-1.3,0-2.4-0.2-3.4-0.7c-1-0.5-1.7-1.1-2.3-1.9c-0.5-0.8-0.8-1.6-0.8-2.6h3.3c0,0.8,0.4,1.4,0.9,1.9
					c0.6,0.4,1.3,0.7,2.3,0.7c0.9,0,1.6-0.2,2.1-0.5C988.3,808.1,988.6,807.7,988.6,807.1z"/>
				<path class="st2" d="M999,796l0.1,1.8c1.1-1.4,2.6-2.1,4.5-2.1c3.2,0,4.8,1.8,4.9,5.5v10.1h-3.4v-9.9c0-1-0.2-1.7-0.6-2.2
					c-0.4-0.5-1.1-0.7-2.1-0.7c-1.4,0-2.4,0.6-3.1,1.9v10.9h-3.4V796H999z"/>
				<path class="st2" d="M1019.6,811.6c-2.2,0-3.9-0.7-5.3-2.1c-1.4-1.4-2-3.2-2-5.5v-0.4c0-1.5,0.3-2.9,0.9-4.1
					c0.6-1.2,1.4-2.1,2.5-2.8c1.1-0.7,2.3-1,3.6-1c2.1,0,3.7,0.7,4.8,2c1.1,1.3,1.7,3.2,1.7,5.6v1.4h-10c0.1,1.3,0.5,2.3,1.3,3
					s1.7,1.1,2.8,1.1c1.6,0,2.9-0.6,3.9-1.9l1.9,1.8c-0.6,0.9-1.4,1.6-2.5,2.1C1022,811.3,1020.9,811.6,1019.6,811.6z M1019.2,798.4
					c-0.9,0-1.7,0.3-2.3,1c-0.6,0.7-1,1.6-1.1,2.8h6.6v-0.3c-0.1-1.2-0.4-2-0.9-2.6S1020.1,798.4,1019.2,798.4z"/>
				<path class="st2" d="M1033.6,792.2v3.7h2.7v2.5h-2.7v8.6c0,0.6,0.1,1,0.3,1.3c0.2,0.3,0.6,0.4,1.2,0.4c0.4,0,0.8,0,1.2-0.1v2.7
					c-0.8,0.2-1.5,0.3-2.3,0.3c-2.6,0-4-1.5-4-4.4v-8.7h-2.5V796h2.5v-3.7H1033.6z"/>
				<path class="st2" d="M1048.6,801.1l1.1-10.4h11.1v3h-8.2l-0.6,4.9c1-0.5,2-0.8,3.2-0.8c2,0,3.5,0.6,4.6,1.9
					c1.1,1.3,1.6,2.9,1.6,5.1c0,2.1-0.6,3.8-1.8,5c-1.2,1.2-2.9,1.9-5,1.9c-1.9,0-3.5-0.5-4.7-1.6s-1.9-2.5-2-4.2h3.3
					c0.1,1,0.5,1.8,1.1,2.3c0.6,0.5,1.4,0.8,2.3,0.8c1.1,0,1.9-0.4,2.5-1.1c0.6-0.8,0.9-1.8,0.9-3.1c0-1.3-0.3-2.2-1-3
					s-1.5-1.1-2.7-1.1c-0.6,0-1.2,0.1-1.6,0.2c-0.4,0.2-0.9,0.5-1.4,1L1048.6,801.1z"/>
				<path class="st2" d="M1078.4,802.6c0,3-0.6,5.2-1.7,6.7s-2.8,2.3-5.1,2.3c-2.2,0-3.9-0.7-5-2.2c-1.1-1.5-1.7-3.6-1.7-6.5v-3.6
					c0-3,0.6-5.2,1.7-6.7c1.1-1.5,2.8-2.2,5.1-2.2c2.3,0,3.9,0.7,5,2.2c1.1,1.4,1.7,3.6,1.7,6.5V802.6z M1075,798.7
					c0-1.9-0.3-3.4-0.8-4.3c-0.5-0.9-1.4-1.4-2.5-1.4c-1.1,0-1.9,0.4-2.5,1.3c-0.5,0.9-0.8,2.2-0.8,4v4.7c0,1.9,0.3,3.4,0.8,4.3
					s1.4,1.4,2.5,1.4c1.1,0,1.9-0.4,2.5-1.3c0.5-0.9,0.8-2.2,0.8-4.1V798.7z"/>
				<path class="st2" d="M1103.4,796.1c0,1-0.3,1.9-0.8,2.7c-0.5,0.8-1.2,1.4-2.1,1.9c1.1,0.5,1.9,1.2,2.5,2.1
					c0.6,0.9,0.9,1.8,0.9,2.9c0,1.8-0.6,3.2-1.8,4.3c-1.2,1.1-2.9,1.6-4.9,1.6c-2,0-3.7-0.5-4.9-1.6c-1.2-1.1-1.8-2.5-1.8-4.3
					c0-1.1,0.3-2.1,0.9-3c0.6-0.9,1.4-1.6,2.5-2c-0.9-0.5-1.6-1.1-2.1-1.9c-0.5-0.8-0.8-1.7-0.8-2.7c0-1.8,0.6-3.1,1.7-4.2
					c1.1-1,2.7-1.5,4.6-1.5c1.9,0,3.5,0.5,4.6,1.5C1102.9,793,1103.4,794.3,1103.4,796.1z M1100.4,805.5c0-1-0.3-1.8-0.9-2.5
					c-0.6-0.6-1.4-0.9-2.4-0.9c-1,0-1.8,0.3-2.4,0.9s-0.9,1.4-0.9,2.5c0,1,0.3,1.8,0.9,2.4c0.6,0.6,1.4,0.9,2.4,0.9
					c1,0,1.8-0.3,2.4-0.9C1100.2,807.4,1100.4,806.5,1100.4,805.5z M1100,796.2c0-0.9-0.3-1.6-0.8-2.2c-0.5-0.6-1.2-0.9-2.1-0.9
					s-1.6,0.3-2.1,0.8c-0.5,0.6-0.8,1.3-0.8,2.3c0,0.9,0.3,1.7,0.8,2.3s1.2,0.8,2.1,0.8s1.6-0.3,2.1-0.8
					C1099.7,797.9,1100,797.2,1100,796.2z"/>
				<path class="st2" d="M1121.2,802.6c0,3-0.6,5.2-1.7,6.7s-2.8,2.3-5.1,2.3c-2.2,0-3.9-0.7-5-2.2c-1.1-1.5-1.7-3.6-1.7-6.5v-3.6
					c0-3,0.6-5.2,1.7-6.7c1.1-1.5,2.8-2.2,5.1-2.2c2.3,0,3.9,0.7,5,2.2c1.1,1.4,1.7,3.6,1.7,6.5V802.6z M1117.8,798.7
					c0-1.9-0.3-3.4-0.8-4.3c-0.5-0.9-1.4-1.4-2.5-1.4c-1.1,0-1.9,0.4-2.5,1.3c-0.5,0.9-0.8,2.2-0.8,4v4.7c0,1.9,0.3,3.4,0.8,4.3
					s1.4,1.4,2.5,1.4c1.1,0,1.9-0.4,2.5-1.3c0.5-0.9,0.8-2.2,0.8-4.1V798.7z"/>
				<path class="st2" d="M1138.6,802.6c0,3-0.6,5.2-1.7,6.7c-1.1,1.5-2.8,2.3-5.1,2.3c-2.2,0-3.9-0.7-5-2.2s-1.7-3.6-1.7-6.5v-3.6
					c0-3,0.6-5.2,1.7-6.7c1.1-1.5,2.8-2.2,5.1-2.2c2.3,0,3.9,0.7,5,2.2c1.1,1.4,1.7,3.6,1.7,6.5V802.6z M1135.1,798.7
					c0-1.9-0.3-3.4-0.8-4.3c-0.5-0.9-1.4-1.4-2.5-1.4c-1.1,0-1.9,0.4-2.5,1.3c-0.5,0.9-0.8,2.2-0.8,4v4.7c0,1.9,0.3,3.4,0.8,4.3
					s1.4,1.4,2.5,1.4c1.1,0,1.9-0.4,2.4-1.3c0.5-0.9,0.8-2.2,0.8-4.1V798.7z"/>
				<path class="st2" d="M1147.7,790.7l5.9,15.8l5.9-15.8h4.6v20.6h-3.6v-6.8l0.4-9.1l-6.1,15.9h-2.6l-6.1-15.9l0.4,9.1v6.8h-3.6
					v-20.6H1147.7z"/>
			</g>
		</g>
		<g>
			<line class="st6" x1="879.5" y1="224.1" x2="640.6" y2="224.1"/>
			<polygon class="st2" points="643.5,214.1 626.2,224.1 643.5,234.1 			"/>
		</g>
		<g>
			<line class="st6" x1="879.5" y1="610.1" x2="640.6" y2="610.1"/>
			<polygon class="st2" points="643.5,600.1 626.2,610.1 643.5,620.1 			"/>
		</g>
	</g>
</g>
</svg>
