<?xml version="1.0" encoding="utf-8"?>
<!-- Generator: Adobe Illustrator 26.4.1, SVG Export Plug-In . SVG Version: 6.00 Build 0)  -->
<svg version="1.1" id="图层_1" xmlns="http://www.w3.org/2000/svg" xmlns:xlink="http://www.w3.org/1999/xlink" x="0px" y="0px"
	 viewBox="0 0 1602 1399" style="enable-background:new 0 0 1602 1399;" xml:space="preserve">
<style type="text/css">
	.st0{fill:#73B02C;}
	.st1{opacity:0.22;fill:#6AAF22;enable-background:new    ;}
	.st2{fill:none;stroke:#0E355B;stroke-width:2;stroke-miterlimit:10;}
	.st3{enable-background:new    ;}
	.st4{fill:#0E355B;}
	.st5{fill:#D4EEFF;}
	.st6{opacity:0.22;fill:#ED1C24;enable-background:new    ;}
	.st7{fill:none;stroke:#FF5E48;stroke-width:3;stroke-miterlimit:10;}
	.st8{fill:#808080;}
	.st9{opacity:0.22;fill:#D4FFDC;enable-background:new    ;}
	.st10{fill:none;stroke:#8CC63F;stroke-width:3;stroke-miterlimit:10;}
	.st11{fill:#777777;}
	.st12{fill:none;stroke:#0E355B;stroke-width:2;stroke-miterlimit:10;stroke-dasharray:0,0,7.9,7.9;}
	.st13{fill:none;stroke:#0E355B;stroke-width:2;stroke-miterlimit:10;stroke-dasharray:0,0,9.83,9.83;}
	.st14{fill:none;stroke:#0E355B;stroke-width:2;stroke-miterlimit:10;stroke-dasharray:0,0,10.26,10.26;}
	.st15{fill:none;stroke:#73B02C;stroke-width:2;stroke-miterlimit:10;}
	.st16{fill:#666666;}
	.st17{fill:#EF6250;}
	.st18{fill:none;stroke:#73B02C;stroke-width:1.95;stroke-miterlimit:10;}
</style>
<g>
	<g id="_图层_1">
		<g>
			<g>
				<circle class="st0" cx="292" cy="246.5" r="31.5"/>
				<path class="st0" d="M264,290h54.2c14.5,0,26.3,11.8,26.3,26.3V348h-106v-32.5C238.5,301.4,249.9,290,264,290L264,290z"/>
			</g>
			<rect x="167.5" y="620" class="st1" width="118" height="64"/>
			<rect x="297.5" y="620" class="st1" width="118" height="64"/>
			<rect x="297.5" y="441" class="st2" width="118" height="243"/>
			<rect x="167.5" y="441" class="st2" width="118" height="243"/>
			<g class="st3">
				<path class="st4" d="M219.9,744.1h-4.3v8.6h-3.9v-22.3h7.8c2.6,0,4.6,0.6,6,1.7c1.4,1.2,2.1,2.8,2.1,5c0,1.5-0.4,2.7-1.1,3.7
					c-0.7,1-1.7,1.8-3,2.3l5,9.3v0.2h-4.1L219.9,744.1z M215.6,741h4c1.3,0,2.3-0.3,3.1-1s1.1-1.6,1.1-2.7c0-1.2-0.3-2.1-1-2.8
					c-0.7-0.7-1.7-1-3-1h-4.1V741z"/>
				<path class="st4" d="M239.1,753c-2.4,0-4.3-0.7-5.7-2.2s-2.2-3.5-2.2-5.9v-0.5c0-1.7,0.3-3.1,1-4.4c0.6-1.3,1.5-2.3,2.7-3
					c1.2-0.7,2.4-1.1,3.9-1.1c2.3,0,4,0.7,5.2,2.2c1.2,1.4,1.8,3.5,1.8,6.1v1.5h-10.8c0.1,1.4,0.6,2.5,1.4,3.2
					c0.8,0.8,1.8,1.2,3,1.2c1.7,0,3.1-0.7,4.2-2.1l2,1.9c-0.7,1-1.5,1.8-2.7,2.3C241.7,752.7,240.5,753,239.1,753z M238.6,738.8
					c-1,0-1.8,0.4-2.5,1.1c-0.6,0.7-1,1.7-1.2,3h7.1v-0.3c-0.1-1.2-0.4-2.2-1-2.8C240.5,739.1,239.7,738.8,238.6,738.8z"/>
				<path class="st4" d="M248.8,744.2c0-2.6,0.6-4.6,1.8-6.2s2.8-2.3,4.8-2.3c1.8,0,3.3,0.6,4.4,1.9l0.2-1.6h3.3V759h-3.7v-7.8
					c-1.1,1.1-2.5,1.7-4.2,1.7c-2,0-3.6-0.8-4.8-2.3C249.4,749.1,248.8,747,248.8,744.2z M252.6,744.6c0,1.7,0.3,3,1,4
					c0.7,1,1.6,1.4,2.8,1.4c1.5,0,2.6-0.6,3.3-1.9v-7.5c-0.7-1.2-1.8-1.8-3.2-1.8c-1.2,0-2.1,0.5-2.8,1.4
					C252.9,741.1,252.6,742.6,252.6,744.6z"/>
				<path class="st4" d="M278.3,751c-1.1,1.3-2.6,1.9-4.7,1.9c-1.8,0-3.2-0.5-4.1-1.6c-0.9-1.1-1.4-2.6-1.4-4.6v-10.7h3.7v10.7
					c0,2.1,0.9,3.2,2.6,3.2c1.8,0,3-0.6,3.7-1.9v-11.9h3.7v16.6h-3.5L278.3,751z"/>
				<path class="st4" d="M293.9,753c-2.4,0-4.3-0.7-5.7-2.2s-2.2-3.5-2.2-5.9v-0.5c0-1.7,0.3-3.1,1-4.4c0.6-1.3,1.5-2.3,2.7-3
					c1.2-0.7,2.4-1.1,3.9-1.1c2.3,0,4,0.7,5.2,2.2c1.2,1.4,1.8,3.5,1.8,6.1v1.5h-10.8c0.1,1.4,0.6,2.5,1.4,3.2
					c0.8,0.8,1.8,1.2,3,1.2c1.7,0,3.1-0.7,4.2-2.1l2,1.9c-0.7,1-1.5,1.8-2.7,2.3C296.5,752.7,295.3,753,293.9,753z M293.4,738.8
					c-1,0-1.8,0.4-2.5,1.1c-0.6,0.7-1,1.7-1.2,3h7.1v-0.3c-0.1-1.2-0.4-2.2-1-2.8C295.3,739.1,294.5,738.8,293.4,738.8z"/>
				<path class="st4" d="M313.6,748.2c0-0.7-0.3-1.2-0.8-1.5c-0.5-0.3-1.5-0.7-2.7-0.9c-1.3-0.3-2.3-0.6-3.2-1
					c-1.9-0.9-2.8-2.2-2.8-3.9c0-1.4,0.6-2.6,1.8-3.6c1.2-1,2.7-1.4,4.6-1.4c2,0,3.6,0.5,4.8,1.5c1.2,1,1.8,2.3,1.8,3.8h-3.7
					c0-0.7-0.3-1.3-0.8-1.8c-0.5-0.5-1.2-0.7-2.1-0.7c-0.8,0-1.5,0.2-2,0.6c-0.5,0.4-0.8,0.9-0.8,1.5c0,0.6,0.2,1,0.7,1.3
					s1.4,0.6,2.9,1c1.5,0.3,2.6,0.7,3.4,1.1s1.4,1,1.9,1.6c0.4,0.6,0.6,1.4,0.6,2.3c0,1.5-0.6,2.7-1.9,3.6c-1.2,0.9-2.9,1.4-4.9,1.4
					c-1.4,0-2.6-0.2-3.6-0.7s-1.9-1.2-2.5-2c-0.6-0.9-0.9-1.8-0.9-2.8h3.6c0.1,0.9,0.4,1.6,1,2c0.6,0.5,1.4,0.7,2.4,0.7
					c1,0,1.7-0.2,2.2-0.6C313.4,749.2,313.6,748.8,313.6,748.2z"/>
				<path class="st4" d="M326.1,732.1v4h2.9v2.8h-2.9v9.2c0,0.6,0.1,1.1,0.4,1.4c0.2,0.3,0.7,0.4,1.3,0.4c0.4,0,0.9-0.1,1.3-0.2v2.9
					c-0.8,0.2-1.7,0.4-2.4,0.4c-2.9,0-4.3-1.6-4.3-4.7v-9.4h-2.7v-2.8h2.7v-4H326.1z"/>
				<path class="st4" d="M342,748.2c0-0.7-0.3-1.2-0.8-1.5c-0.5-0.3-1.5-0.7-2.7-0.9c-1.3-0.3-2.3-0.6-3.2-1
					c-1.9-0.9-2.8-2.2-2.8-3.9c0-1.4,0.6-2.6,1.8-3.6c1.2-1,2.7-1.4,4.6-1.4c2,0,3.6,0.5,4.8,1.5c1.2,1,1.8,2.3,1.8,3.8h-3.7
					c0-0.7-0.3-1.3-0.8-1.8c-0.5-0.5-1.2-0.7-2.1-0.7c-0.8,0-1.5,0.2-2,0.6c-0.5,0.4-0.8,0.9-0.8,1.5c0,0.6,0.2,1,0.7,1.3
					s1.4,0.6,2.9,1c1.5,0.3,2.6,0.7,3.4,1.1s1.4,1,1.9,1.6c0.4,0.6,0.6,1.4,0.6,2.3c0,1.5-0.6,2.7-1.9,3.6c-1.2,0.9-2.9,1.4-4.9,1.4
					c-1.4,0-2.6-0.2-3.6-0.7s-1.9-1.2-2.5-2c-0.6-0.9-0.9-1.8-0.9-2.8h3.6c0.1,0.9,0.4,1.6,1,2c0.6,0.5,1.4,0.7,2.4,0.7
					c1,0,1.7-0.2,2.2-0.6C341.8,749.2,342,748.8,342,748.2z"/>
				<path class="st4" d="M373.3,752.7h-15v-2.6l7.4-8.1c1.1-1.2,1.8-2.2,2.3-3c0.5-0.8,0.7-1.6,0.7-2.4c0-1.1-0.3-1.9-0.9-2.6
					c-0.6-0.7-1.4-1-2.4-1c-1.2,0-2.1,0.4-2.8,1.1s-1,1.7-1,3h-3.7c0-1.4,0.3-2.6,0.9-3.7c0.6-1.1,1.5-1.9,2.6-2.5
					c1.1-0.6,2.5-0.9,4-0.9c2.2,0,3.9,0.5,5.1,1.6c1.2,1.1,1.9,2.6,1.9,4.5c0,1.1-0.3,2.3-0.9,3.5c-0.6,1.2-1.7,2.6-3.1,4.2
					l-5.5,5.8h10.4V752.7z"/>
			</g>
			<g class="st3">
				<path class="st4" d="M211.4,787.4c-0.8,1.1-1.9,1.8-3.4,2.4s-3.1,0.8-4.9,0.8c-1.9,0-3.5-0.4-5-1.3c-1.4-0.8-2.5-2.1-3.3-3.6
					c-0.8-1.6-1.2-3.4-1.2-5.5v-1.7c0-3.4,0.8-6,2.4-7.9c1.6-1.9,3.9-2.8,6.8-2.8c2.5,0,4.5,0.6,5.9,1.8c1.5,1.2,2.3,3,2.6,5.3h-3.8
					c-0.4-2.7-2-4-4.7-4c-1.7,0-3.1,0.6-4,1.9c-0.9,1.2-1.4,3.1-1.4,5.5v1.7c0,2.4,0.5,4.3,1.5,5.6c1,1.3,2.4,2,4.2,2
					c2,0,3.4-0.4,4.2-1.3v-4.4H203v-2.9h8.5V787.4z"/>
				<path class="st4" d="M220.5,782v8.3h-3.9V768h8.5c2.5,0,4.5,0.6,5.9,1.9c1.5,1.3,2.2,3,2.2,5.2c0,2.2-0.7,3.9-2.2,5.1
					c-1.4,1.2-3.4,1.8-6,1.8H220.5z M220.5,778.9h4.7c1.4,0,2.4-0.3,3.2-1c0.7-0.6,1.1-1.6,1.1-2.8c0-1.2-0.4-2.2-1.1-2.9
					c-0.7-0.7-1.7-1.1-3-1.1h-4.8V778.9z"/>
				<path class="st4" d="M246.5,785.8c0-0.7-0.3-1.2-0.8-1.5c-0.5-0.3-1.5-0.7-2.7-0.9c-1.3-0.3-2.3-0.6-3.2-1
					c-1.9-0.9-2.8-2.2-2.8-3.9c0-1.4,0.6-2.6,1.8-3.6c1.2-1,2.7-1.4,4.6-1.4c2,0,3.6,0.5,4.8,1.5c1.2,1,1.8,2.3,1.8,3.8h-3.7
					c0-0.7-0.3-1.3-0.8-1.8c-0.5-0.5-1.2-0.7-2.1-0.7c-0.8,0-1.5,0.2-2,0.6c-0.5,0.4-0.8,0.9-0.8,1.5c0,0.6,0.2,1,0.7,1.3
					s1.4,0.6,2.9,1c1.5,0.3,2.6,0.7,3.4,1.1s1.4,1,1.9,1.6c0.4,0.6,0.6,1.4,0.6,2.3c0,1.5-0.6,2.7-1.9,3.6c-1.2,0.9-2.9,1.4-4.9,1.4
					c-1.4,0-2.6-0.2-3.6-0.7s-1.9-1.2-2.5-2c-0.6-0.9-0.9-1.8-0.9-2.8h3.6c0.1,0.9,0.4,1.6,1,2c0.6,0.5,1.4,0.7,2.4,0.7
					c1,0,1.7-0.2,2.2-0.6C246.2,786.9,246.5,786.4,246.5,785.8z"/>
				<path class="st4" d="M277.6,785.2l2.6-11.4h3.6l-4.5,16.6h-3.1l-3.6-11.4l-3.5,11.4h-3.1l-4.5-16.6h3.6l2.7,11.3l3.4-11.3h2.8
					L277.6,785.2z"/>
				<path class="st4" d="M287.2,769.4c0-0.6,0.2-1,0.5-1.4s0.9-0.6,1.6-0.6s1.2,0.2,1.6,0.6s0.6,0.9,0.6,1.4c0,0.6-0.2,1-0.6,1.4
					s-0.9,0.6-1.6,0.6s-1.2-0.2-1.6-0.6S287.2,770,287.2,769.4z M291.2,790.3h-3.7v-16.6h3.7V790.3z"/>
				<path class="st4" d="M300.8,769.7v4h2.9v2.8h-2.9v9.2c0,0.6,0.1,1.1,0.4,1.4c0.2,0.3,0.7,0.4,1.3,0.4c0.4,0,0.9-0.1,1.3-0.2v2.9
					c-0.8,0.2-1.7,0.4-2.4,0.4c-2.9,0-4.3-1.6-4.3-4.7v-9.4h-2.7v-2.8h2.7v-4H300.8z"/>
				<path class="st4" d="M311.1,775.5c1.2-1.4,2.8-2.1,4.6-2.1c3.5,0,5.3,2,5.4,6v10.8h-3.7v-10.7c0-1.1-0.2-2-0.7-2.4
					s-1.2-0.7-2.2-0.7c-1.5,0-2.6,0.7-3.3,2v11.8h-3.7v-23.5h3.7V775.5z"/>
			</g>
			<g class="st3">
				<path class="st0" d="M345.2,790.3h-4.4v-17.1l-5.3,1.6v-3.6l9.2-3.3h0.5V790.3z"/>
				<path class="st0" d="M368.3,781.1c0,3.1-0.6,5.4-1.9,7.1c-1.3,1.6-3.1,2.5-5.6,2.5c-2.4,0-4.3-0.8-5.6-2.4
					c-1.3-1.6-1.9-3.9-2-6.9v-4.1c0-3.1,0.6-5.5,1.9-7.1s3.2-2.4,5.6-2.4c2.4,0,4.3,0.8,5.6,2.4s1.9,3.9,2,6.9V781.1z M363.9,776.6
					c0-1.8-0.3-3.2-0.8-4c-0.5-0.8-1.3-1.3-2.4-1.3c-1,0-1.8,0.4-2.3,1.2s-0.8,2.1-0.8,3.8v5.4c0,1.8,0.2,3.2,0.7,4.1
					s1.3,1.3,2.4,1.3c1.1,0,1.9-0.4,2.3-1.3c0.5-0.8,0.7-2.1,0.8-3.9V776.6z"/>
				<path class="st0" d="M390.3,787.5c-0.8,1-2,1.8-3.5,2.3s-3.2,0.8-5,0.8c-1.9,0-3.6-0.4-5.1-1.3s-2.6-2.1-3.4-3.7
					s-1.2-3.5-1.2-5.7v-1.5c0-2.2,0.4-4.2,1.1-5.8c0.8-1.6,1.8-2.9,3.2-3.7c1.4-0.9,3.1-1.3,5-1.3c2.6,0,4.7,0.6,6.2,1.9
					s2.4,3.1,2.6,5.5h-4.5c-0.2-1.3-0.7-2.2-1.4-2.8c-0.7-0.6-1.7-0.9-2.9-0.9c-1.6,0-2.8,0.6-3.6,1.8c-0.8,1.2-1.2,2.9-1.2,5.2v1.4
					c0,2.3,0.4,4.1,1.3,5.3s2.2,1.8,3.9,1.8c1.7,0,3-0.4,3.7-1.1V782h-4.2v-3.4h8.8V787.5z"/>
			</g>
			<g class="st3">
				<path class="st4" d="M180.2,819.5c0-2.6,0.6-4.6,1.8-6.1c1.2-1.5,2.8-2.3,4.8-2.3c1.8,0,3.2,0.6,4.3,1.8v-8.5h3.7v23.5h-3.4
					l-0.2-1.7c-1.1,1.3-2.6,2-4.5,2c-1.9,0-3.5-0.8-4.7-2.3C180.8,824.3,180.2,822.2,180.2,819.5z M183.9,819.8c0,1.7,0.3,3,1,3.9
					s1.6,1.4,2.8,1.4c1.5,0,2.6-0.7,3.3-2v-7.1c-0.7-1.3-1.8-2-3.3-2c-1.2,0-2.1,0.5-2.8,1.4C184.2,816.5,183.9,817.9,183.9,819.8z"
					/>
			</g>
			<g class="st3">
				<path class="st4" d="M206.8,828.2c-2.4,0-4.3-0.7-5.7-2.2s-2.2-3.5-2.2-5.9v-0.5c0-1.7,0.3-3.1,1-4.4c0.6-1.3,1.5-2.3,2.7-3
					c1.2-0.7,2.4-1.1,3.9-1.1c2.3,0,4,0.7,5.2,2.2c1.2,1.4,1.8,3.5,1.8,6.1v1.5h-10.8c0.1,1.4,0.6,2.5,1.4,3.2
					c0.8,0.8,1.8,1.2,3,1.2c1.7,0,3.1-0.7,4.2-2.1l2,1.9c-0.7,1-1.5,1.8-2.7,2.3C209.5,828,208.2,828.2,206.8,828.2z M206.4,814
					c-1,0-1.8,0.4-2.5,1.1c-0.6,0.7-1,1.7-1.2,3h7.1v-0.3c-0.1-1.2-0.4-2.2-1-2.8C208.2,814.4,207.4,814,206.4,814z"/>
			</g>
			<g class="st3">
				<path class="st4" d="M223,823.2l3.5-11.9h3.8l-5.7,16.6h-3.2l-5.8-16.6h3.9L223,823.2z"/>
				<path class="st4" d="M233.5,807.1c0-0.6,0.2-1,0.5-1.4s0.9-0.6,1.6-0.6s1.2,0.2,1.6,0.6s0.6,0.9,0.6,1.4c0,0.6-0.2,1-0.6,1.4
					s-0.9,0.6-1.6,0.6s-1.2-0.2-1.6-0.6S233.5,807.6,233.5,807.1z M237.5,827.9h-3.7v-16.6h3.7V827.9z"/>
				<path class="st4" d="M249.3,825.3c0.9,0,1.7-0.3,2.3-0.8c0.6-0.5,0.9-1.2,1-2h3.5c0,1-0.4,2-1,2.9c-0.6,0.9-1.4,1.6-2.5,2.1
					s-2.1,0.8-3.3,0.8c-2.3,0-4.2-0.8-5.5-2.3c-1.4-1.5-2-3.6-2-6.2v-0.4c0-2.5,0.7-4.5,2-6.1s3.2-2.3,5.5-2.3c2,0,3.6,0.6,4.8,1.7
					s1.9,2.7,2,4.5h-3.5c0-0.9-0.4-1.7-1-2.3c-0.6-0.6-1.4-0.9-2.3-0.9c-1.2,0-2.1,0.4-2.8,1.3s-1,2.2-1,4v0.6c0,1.8,0.3,3.1,1,4
					C247.1,824.8,248,825.3,249.3,825.3z"/>
				<path class="st4" d="M267.1,828.2c-2.4,0-4.3-0.7-5.7-2.2s-2.2-3.5-2.2-5.9v-0.5c0-1.7,0.3-3.1,1-4.4c0.6-1.3,1.5-2.3,2.7-3
					c1.2-0.7,2.4-1.1,3.9-1.1c2.3,0,4,0.7,5.2,2.2c1.2,1.4,1.8,3.5,1.8,6.1v1.5h-10.8c0.1,1.4,0.6,2.5,1.4,3.2
					c0.8,0.8,1.8,1.2,3,1.2c1.7,0,3.1-0.7,4.2-2.1l2,1.9c-0.7,1-1.5,1.8-2.7,2.3C269.7,828,268.5,828.2,267.1,828.2z M266.6,814
					c-1,0-1.8,0.4-2.5,1.1c-0.6,0.7-1,1.7-1.2,3h7.1v-0.3c-0.1-1.2-0.4-2.2-1-2.8C268.5,814.4,267.7,814,266.6,814z"/>
				<path class="st4" d="M291.6,805.6l6.4,17.1l6.4-17.1h5v22.3h-3.9v-7.3l0.4-9.8l-6.6,17.2h-2.8l-6.6-17.2l0.4,9.8v7.3h-3.9v-22.3
					H291.6z"/>
				<path class="st4" d="M321.9,828.2c-2.4,0-4.3-0.7-5.7-2.2s-2.2-3.5-2.2-5.9v-0.5c0-1.7,0.3-3.1,1-4.4c0.6-1.3,1.5-2.3,2.7-3
					c1.2-0.7,2.4-1.1,3.9-1.1c2.3,0,4,0.7,5.2,2.2c1.2,1.4,1.8,3.5,1.8,6.1v1.5h-10.8c0.1,1.4,0.6,2.5,1.4,3.2
					c0.8,0.8,1.8,1.2,3,1.2c1.7,0,3.1-0.7,4.2-2.1l2,1.9c-0.7,1-1.5,1.8-2.7,2.3C324.5,828,323.3,828.2,321.9,828.2z M321.5,814
					c-1,0-1.8,0.4-2.5,1.1c-0.6,0.7-1,1.7-1.2,3h7.1v-0.3c-0.1-1.2-0.4-2.2-1-2.8C323.3,814.4,322.5,814,321.5,814z"/>
				<path class="st4" d="M335.8,811.4l0.1,1.7c1.2-1.4,2.8-2,4.8-2c2.2,0,3.7,0.8,4.5,2.5c1.2-1.7,2.9-2.5,5.1-2.5
					c1.8,0,3.2,0.5,4.1,1.5c0.9,1,1.3,2.5,1.4,4.5v10.9h-3.7v-10.8c0-1.1-0.2-1.8-0.7-2.3c-0.5-0.5-1.2-0.7-2.3-0.7
					c-0.8,0-1.5,0.2-2.1,0.7s-0.9,1-1.1,1.8l0,11.4h-3.7V817c-0.1-2-1-2.9-3-2.9c-1.5,0-2.5,0.6-3.2,1.8v12h-3.7v-16.6H335.8z"/>
				<path class="st4" d="M359.8,819.5c0-1.6,0.3-3.1,1-4.4s1.5-2.3,2.7-3c1.2-0.7,2.5-1,4-1c2.2,0,4.1,0.7,5.4,2.2
					c1.4,1.4,2.1,3.3,2.3,5.7l0,0.9c0,1.6-0.3,3.1-0.9,4.4s-1.5,2.3-2.7,3c-1.2,0.7-2.5,1.1-4.1,1.1c-2.3,0-4.2-0.8-5.6-2.3
					c-1.4-1.6-2.1-3.6-2.1-6.2V819.5z M363.6,819.8c0,1.7,0.4,3,1.1,4c0.7,1,1.7,1.4,2.9,1.4c1.3,0,2.2-0.5,2.9-1.5
					c0.7-1,1-2.4,1-4.3c0-1.7-0.4-3-1.1-4c-0.7-1-1.7-1.5-2.9-1.5c-1.2,0-2.2,0.5-2.9,1.4C363.9,816.5,363.6,817.9,363.6,819.8z"/>
			</g>
			<g class="st3">
				<path class="st4" d="M388.3,814.8c-0.5-0.1-1-0.1-1.5-0.1c-1.7,0-2.9,0.7-3.4,2v11.3h-3.7v-16.6h3.6l0.1,1.9
					c0.9-1.4,2.1-2.2,3.7-2.2c0.5,0,1,0.1,1.3,0.2L388.3,814.8z"/>
			</g>
			<g class="st3">
				<path class="st4" d="M397.6,822.6l3.4-11.2h4l-6.6,19.1c-1,2.8-2.7,4.2-5.1,4.2c-0.5,0-1.1-0.1-1.8-0.3v-2.9l0.7,0
					c0.9,0,1.6-0.2,2.1-0.5c0.5-0.3,0.8-0.9,1.1-1.7l0.5-1.4l-5.8-16.5h4L397.6,822.6z"/>
			</g>
			<g class="st3">
				<path class="st4" d="M260.7,365.4v14.9c0,2.4-0.8,4.2-2.3,5.6c-1.5,1.4-3.5,2.1-6.1,2.1c-2.6,0-4.6-0.7-6.1-2
					c-1.5-1.4-2.3-3.3-2.3-5.7v-14.9h3.9v14.9c0,1.5,0.4,2.6,1.1,3.4s1.9,1.2,3.3,1.2c3,0,4.5-1.6,4.5-4.7v-14.8H260.7z"/>
				<path class="st4" d="M274.7,383.2c0-0.7-0.3-1.2-0.8-1.5c-0.5-0.3-1.5-0.7-2.7-0.9c-1.3-0.3-2.3-0.6-3.2-1
					c-1.9-0.9-2.8-2.2-2.8-3.9c0-1.4,0.6-2.6,1.8-3.6c1.2-1,2.7-1.4,4.6-1.4c2,0,3.6,0.5,4.8,1.5c1.2,1,1.8,2.3,1.8,3.8h-3.7
					c0-0.7-0.3-1.3-0.8-1.8c-0.5-0.5-1.2-0.7-2.1-0.7c-0.8,0-1.5,0.2-2,0.6c-0.5,0.4-0.8,0.9-0.8,1.5c0,0.6,0.2,1,0.7,1.3
					s1.4,0.6,2.9,1c1.5,0.3,2.6,0.7,3.4,1.1s1.4,1,1.9,1.6c0.4,0.6,0.6,1.4,0.6,2.3c0,1.5-0.6,2.7-1.9,3.6c-1.2,0.9-2.9,1.4-4.9,1.4
					c-1.4,0-2.6-0.2-3.6-0.7s-1.9-1.2-2.5-2c-0.6-0.9-0.9-1.8-0.9-2.8h3.6c0.1,0.9,0.4,1.6,1,2c0.6,0.5,1.4,0.7,2.4,0.7
					c1,0,1.7-0.2,2.2-0.6C274.4,384.2,274.7,383.8,274.7,383.2z"/>
				<path class="st4" d="M289.8,388c-2.4,0-4.3-0.7-5.7-2.2s-2.2-3.5-2.2-5.9v-0.5c0-1.7,0.3-3.1,1-4.4c0.6-1.3,1.5-2.3,2.7-3
					c1.2-0.7,2.4-1.1,3.9-1.1c2.3,0,4,0.7,5.2,2.2c1.2,1.4,1.8,3.5,1.8,6.1v1.5h-10.8c0.1,1.4,0.6,2.5,1.4,3.2
					c0.8,0.8,1.8,1.2,3,1.2c1.7,0,3.1-0.7,4.2-2.1l2,1.9c-0.7,1-1.5,1.8-2.7,2.3C292.4,387.7,291.2,388,289.8,388z M289.4,373.8
					c-1,0-1.8,0.4-2.5,1.1c-0.6,0.7-1,1.7-1.2,3h7.1v-0.3c-0.1-1.2-0.4-2.2-1-2.8C291.2,374.1,290.4,373.8,289.4,373.8z"/>
				<path class="st4" d="M308.9,374.5c-0.5-0.1-1-0.1-1.5-0.1c-1.7,0-2.9,0.7-3.4,2v11.3h-3.7v-16.6h3.6l0.1,1.9
					c0.9-1.4,2.1-2.2,3.7-2.2c0.5,0,1,0.1,1.3,0.2L308.9,374.5z"/>
				<path class="st4" d="M333.7,382.5h-8.6l-1.8,5.2h-4l8.4-22.3h3.5l8.4,22.3h-4L333.7,382.5z M326.2,379.3h6.5l-3.2-9.2
					L326.2,379.3z"/>
			</g>
		</g>
		<g>
			<g>
				<circle class="st4" cx="605" cy="246.5" r="31.5"/>
				<path class="st4" d="M577,290h54.2c14.5,0,26.3,11.8,26.3,26.3V348h-106v-32.5C551.5,301.4,562.9,290,577,290z"/>
			</g>
			<rect x="480.5" y="551" class="st5" width="118" height="133"/>
			<rect x="610.5" y="551" class="st5" width="118" height="133"/>
			<rect x="610.5" y="441" class="st2" width="118" height="243"/>
			<rect x="480.5" y="441" class="st2" width="118" height="243"/>
			<g class="st3">
				<path class="st4" d="M532.9,744.1h-4.3v8.6h-3.9v-22.3h7.8c2.6,0,4.6,0.6,6,1.7c1.4,1.2,2.1,2.8,2.1,5c0,1.5-0.4,2.7-1.1,3.7
					c-0.7,1-1.7,1.8-3,2.3l5,9.3v0.2h-4.1L532.9,744.1z M528.6,741h4c1.3,0,2.3-0.3,3.1-1s1.1-1.6,1.1-2.7c0-1.2-0.3-2.1-1-2.8
					c-0.7-0.7-1.7-1-3-1h-4.1V741z"/>
				<path class="st4" d="M552.1,753c-2.4,0-4.3-0.7-5.7-2.2s-2.2-3.5-2.2-5.9v-0.5c0-1.7,0.3-3.1,1-4.4c0.6-1.3,1.5-2.3,2.7-3
					c1.2-0.7,2.4-1.1,3.9-1.1c2.3,0,4,0.7,5.2,2.2c1.2,1.4,1.8,3.5,1.8,6.1v1.5h-10.8c0.1,1.4,0.6,2.5,1.4,3.2
					c0.8,0.8,1.8,1.2,3,1.2c1.7,0,3.1-0.7,4.2-2.1l2,1.9c-0.7,1-1.5,1.8-2.7,2.3C554.7,752.7,553.5,753,552.1,753z M551.6,738.8
					c-1,0-1.8,0.4-2.5,1.1c-0.6,0.7-1,1.7-1.2,3h7.1v-0.3c-0.1-1.2-0.4-2.2-1-2.8C553.5,739.1,552.7,738.8,551.6,738.8z"/>
				<path class="st4" d="M561.8,744.2c0-2.6,0.6-4.6,1.8-6.2s2.8-2.3,4.8-2.3c1.8,0,3.3,0.6,4.4,1.9l0.2-1.6h3.3V759h-3.7v-7.8
					c-1.1,1.1-2.5,1.7-4.2,1.7c-2,0-3.6-0.8-4.8-2.3C562.4,749.1,561.8,747,561.8,744.2z M565.6,744.6c0,1.7,0.3,3,1,4
					c0.7,1,1.6,1.4,2.8,1.4c1.5,0,2.6-0.6,3.3-1.9v-7.5c-0.7-1.2-1.8-1.8-3.2-1.8c-1.2,0-2.1,0.5-2.8,1.4
					C565.9,741.1,565.6,742.6,565.6,744.6z"/>
				<path class="st4" d="M591.3,751c-1.1,1.3-2.6,1.9-4.7,1.9c-1.8,0-3.2-0.5-4.1-1.6c-0.9-1.1-1.4-2.6-1.4-4.6v-10.7h3.7v10.7
					c0,2.1,0.9,3.2,2.6,3.2c1.8,0,3-0.6,3.7-1.9v-11.9h3.7v16.6h-3.5L591.3,751z"/>
				<path class="st4" d="M606.9,753c-2.4,0-4.3-0.7-5.7-2.2s-2.2-3.5-2.2-5.9v-0.5c0-1.7,0.3-3.1,1-4.4c0.6-1.3,1.5-2.3,2.7-3
					c1.2-0.7,2.4-1.1,3.9-1.1c2.3,0,4,0.7,5.2,2.2c1.2,1.4,1.8,3.5,1.8,6.1v1.5h-10.8c0.1,1.4,0.6,2.5,1.4,3.2
					c0.8,0.8,1.8,1.2,3,1.2c1.7,0,3.1-0.7,4.2-2.1l2,1.9c-0.7,1-1.5,1.8-2.7,2.3C609.5,752.7,608.3,753,606.9,753z M606.4,738.8
					c-1,0-1.8,0.4-2.5,1.1c-0.6,0.7-1,1.7-1.2,3h7.1v-0.3c-0.1-1.2-0.4-2.2-1-2.8C608.3,739.1,607.5,738.8,606.4,738.8z"/>
				<path class="st4" d="M626.6,748.2c0-0.7-0.3-1.2-0.8-1.5c-0.5-0.3-1.5-0.7-2.7-0.9c-1.3-0.3-2.3-0.6-3.2-1
					c-1.9-0.9-2.8-2.2-2.8-3.9c0-1.4,0.6-2.6,1.8-3.6c1.2-1,2.7-1.4,4.6-1.4c2,0,3.6,0.5,4.8,1.5c1.2,1,1.8,2.3,1.8,3.8h-3.7
					c0-0.7-0.3-1.3-0.8-1.8c-0.5-0.5-1.2-0.7-2.1-0.7c-0.8,0-1.5,0.2-2,0.6c-0.5,0.4-0.8,0.9-0.8,1.5c0,0.6,0.2,1,0.7,1.3
					s1.4,0.6,2.9,1c1.5,0.3,2.6,0.7,3.4,1.1s1.4,1,1.9,1.6c0.4,0.6,0.6,1.4,0.6,2.3c0,1.5-0.6,2.7-1.9,3.6c-1.2,0.9-2.9,1.4-4.9,1.4
					c-1.4,0-2.6-0.2-3.6-0.7s-1.9-1.2-2.5-2c-0.6-0.9-0.9-1.8-0.9-2.8h3.6c0.1,0.9,0.4,1.6,1,2c0.6,0.5,1.4,0.7,2.4,0.7
					c1,0,1.7-0.2,2.2-0.6C626.4,749.2,626.6,748.8,626.6,748.2z"/>
				<path class="st4" d="M639.1,732.1v4h2.9v2.8h-2.9v9.2c0,0.6,0.1,1.1,0.4,1.4c0.2,0.3,0.7,0.4,1.3,0.4c0.4,0,0.9-0.1,1.3-0.2v2.9
					c-0.8,0.2-1.7,0.4-2.4,0.4c-2.9,0-4.3-1.6-4.3-4.7v-9.4h-2.7v-2.8h2.7v-4H639.1z"/>
				<path class="st4" d="M655,748.2c0-0.7-0.3-1.2-0.8-1.5c-0.5-0.3-1.5-0.7-2.7-0.9c-1.3-0.3-2.3-0.6-3.2-1
					c-1.9-0.9-2.8-2.2-2.8-3.9c0-1.4,0.6-2.6,1.8-3.6c1.2-1,2.7-1.4,4.6-1.4c2,0,3.6,0.5,4.8,1.5c1.2,1,1.8,2.3,1.8,3.8h-3.7
					c0-0.7-0.3-1.3-0.8-1.8c-0.5-0.5-1.2-0.7-2.1-0.7c-0.8,0-1.5,0.2-2,0.6c-0.5,0.4-0.8,0.9-0.8,1.5c0,0.6,0.2,1,0.7,1.3
					s1.4,0.6,2.9,1c1.5,0.3,2.6,0.7,3.4,1.1s1.4,1,1.9,1.6c0.4,0.6,0.6,1.4,0.6,2.3c0,1.5-0.6,2.7-1.9,3.6c-1.2,0.9-2.9,1.4-4.9,1.4
					c-1.4,0-2.6-0.2-3.6-0.7s-1.9-1.2-2.5-2c-0.6-0.9-0.9-1.8-0.9-2.8h3.6c0.1,0.9,0.4,1.6,1,2c0.6,0.5,1.4,0.7,2.4,0.7
					c1,0,1.7-0.2,2.2-0.6C654.8,749.2,655,748.8,655,748.2z"/>
				<path class="st4" d="M686.3,752.7h-15v-2.6l7.4-8.1c1.1-1.2,1.8-2.2,2.3-3c0.5-0.8,0.7-1.6,0.7-2.4c0-1.1-0.3-1.9-0.9-2.6
					c-0.6-0.7-1.4-1-2.4-1c-1.2,0-2.1,0.4-2.8,1.1s-1,1.7-1,3h-3.7c0-1.4,0.3-2.6,0.9-3.7c0.6-1.1,1.5-1.9,2.6-2.5
					c1.1-0.6,2.5-0.9,4-0.9c2.2,0,3.9,0.5,5.1,1.6c1.2,1.1,1.9,2.6,1.9,4.5c0,1.1-0.3,2.3-0.9,3.5c-0.6,1.2-1.7,2.6-3.1,4.2
					l-5.5,5.8h10.4V752.7z"/>
			</g>
			<g class="st3">
				<path class="st4" d="M513.7,787.4c-0.8,1.1-1.9,1.8-3.4,2.4s-3.1,0.8-4.9,0.8c-1.9,0-3.5-0.4-5-1.3c-1.4-0.8-2.5-2.1-3.3-3.6
					c-0.8-1.6-1.2-3.4-1.2-5.5v-1.7c0-3.4,0.8-6,2.4-7.9c1.6-1.9,3.9-2.8,6.8-2.8c2.5,0,4.5,0.6,5.9,1.8c1.5,1.2,2.3,3,2.6,5.3h-3.8
					c-0.4-2.7-2-4-4.7-4c-1.7,0-3.1,0.6-4,1.9c-0.9,1.2-1.4,3.1-1.4,5.5v1.7c0,2.4,0.5,4.3,1.5,5.6c1,1.3,2.4,2,4.2,2
					c2,0,3.4-0.4,4.2-1.3v-4.4h-4.6v-2.9h8.5V787.4z"/>
				<path class="st4" d="M522.8,782v8.3h-3.9V768h8.5c2.5,0,4.5,0.6,5.9,1.9c1.5,1.3,2.2,3,2.2,5.2c0,2.2-0.7,3.9-2.2,5.1
					c-1.4,1.2-3.4,1.8-6,1.8H522.8z M522.8,778.9h4.7c1.4,0,2.4-0.3,3.2-1c0.7-0.6,1.1-1.6,1.1-2.8c0-1.2-0.4-2.2-1.1-2.9
					c-0.7-0.7-1.7-1.1-3-1.1h-4.8V778.9z"/>
				<path class="st4" d="M556.2,768v14.9c0,2.4-0.8,4.2-2.3,5.6c-1.5,1.4-3.5,2.1-6.1,2.1c-2.6,0-4.6-0.7-6.1-2
					c-1.5-1.4-2.3-3.3-2.3-5.7V768h3.9v14.9c0,1.5,0.4,2.6,1.1,3.4s1.9,1.2,3.3,1.2c3,0,4.5-1.6,4.5-4.7V768H556.2z"/>
				<path class="st4" d="M570.1,785.8c0-0.7-0.3-1.2-0.8-1.5c-0.5-0.3-1.5-0.7-2.7-0.9c-1.3-0.3-2.3-0.6-3.2-1
					c-1.9-0.9-2.8-2.2-2.8-3.9c0-1.4,0.6-2.6,1.8-3.6c1.2-1,2.7-1.4,4.6-1.4c2,0,3.6,0.5,4.8,1.5c1.2,1,1.8,2.3,1.8,3.8h-3.7
					c0-0.7-0.3-1.3-0.8-1.8c-0.5-0.5-1.2-0.7-2.1-0.7c-0.8,0-1.5,0.2-2,0.6c-0.5,0.4-0.8,0.9-0.8,1.5c0,0.6,0.2,1,0.7,1.3
					s1.4,0.6,2.9,1c1.5,0.3,2.6,0.7,3.4,1.1s1.4,1,1.9,1.6c0.4,0.6,0.6,1.4,0.6,2.3c0,1.5-0.6,2.7-1.9,3.6c-1.2,0.9-2.9,1.4-4.9,1.4
					c-1.4,0-2.6-0.2-3.6-0.7s-1.9-1.2-2.5-2c-0.6-0.9-0.9-1.8-0.9-2.8h3.6c0.1,0.9,0.4,1.6,1,2c0.6,0.5,1.4,0.7,2.4,0.7
					c1,0,1.7-0.2,2.2-0.6C569.9,786.9,570.1,786.4,570.1,785.8z"/>
				<path class="st4" d="M601.2,785.2l2.6-11.4h3.6l-4.5,16.6h-3.1l-3.6-11.4l-3.5,11.4h-3.1l-4.5-16.6h3.6l2.7,11.3l3.4-11.3h2.8
					L601.2,785.2z"/>
				<path class="st4" d="M610.9,769.4c0-0.6,0.2-1,0.5-1.4s0.9-0.6,1.6-0.6s1.2,0.2,1.6,0.6s0.6,0.9,0.6,1.4c0,0.6-0.2,1-0.6,1.4
					s-0.9,0.6-1.6,0.6s-1.2-0.2-1.6-0.6S610.9,770,610.9,769.4z M614.8,790.3h-3.7v-16.6h3.7V790.3z"/>
				<path class="st4" d="M624.5,769.7v4h2.9v2.8h-2.9v9.2c0,0.6,0.1,1.1,0.4,1.4c0.2,0.3,0.7,0.4,1.3,0.4c0.4,0,0.9-0.1,1.3-0.2v2.9
					c-0.8,0.2-1.7,0.4-2.4,0.4c-2.9,0-4.3-1.6-4.3-4.7v-9.4H618v-2.8h2.7v-4H624.5z"/>
				<path class="st4" d="M634.8,775.5c1.2-1.4,2.8-2.1,4.6-2.1c3.5,0,5.3,2,5.4,6v10.8h-3.7v-10.7c0-1.1-0.2-2-0.7-2.4
					s-1.2-0.7-2.2-0.7c-1.5,0-2.6,0.7-3.3,2v11.8h-3.7v-23.5h3.7V775.5z"/>
			</g>
			<g class="st3">
				<path class="st4" d="M673.4,790.3h-15.3v-3l7.2-7.7c1-1.1,1.7-2,2.2-2.8c0.5-0.8,0.7-1.6,0.7-2.3c0-1-0.3-1.8-0.8-2.3
					c-0.5-0.6-1.2-0.8-2.1-0.8c-1,0-1.8,0.3-2.4,1c-0.6,0.7-0.9,1.6-0.9,2.7h-4.4c0-1.4,0.3-2.6,1-3.7c0.6-1.1,1.6-2,2.7-2.6
					c1.2-0.6,2.5-1,4-1c2.3,0,4.1,0.6,5.4,1.7s1.9,2.7,1.9,4.7c0,1.1-0.3,2.2-0.9,3.4c-0.6,1.1-1.6,2.5-2.9,4l-5.1,5.3h9.6V790.3z"
					/>
				<path class="st4" d="M692,781.1c0,3.1-0.6,5.4-1.9,7.1c-1.3,1.6-3.1,2.5-5.6,2.5c-2.4,0-4.3-0.8-5.6-2.4c-1.3-1.6-1.9-3.9-2-6.9
					v-4.1c0-3.1,0.6-5.5,1.9-7.1s3.2-2.4,5.6-2.4c2.4,0,4.3,0.8,5.6,2.4s1.9,3.9,2,6.9V781.1z M687.6,776.6c0-1.8-0.3-3.2-0.8-4
					c-0.5-0.8-1.3-1.3-2.4-1.3c-1,0-1.8,0.4-2.3,1.2s-0.8,2.1-0.8,3.8v5.4c0,1.8,0.2,3.2,0.7,4.1s1.3,1.3,2.4,1.3
					c1.1,0,1.9-0.4,2.3-1.3c0.5-0.8,0.7-2.1,0.8-3.9V776.6z"/>
				<path class="st4" d="M714,787.5c-0.8,1-2,1.8-3.5,2.3s-3.2,0.8-5,0.8c-1.9,0-3.6-0.4-5.1-1.3s-2.6-2.1-3.4-3.7s-1.2-3.5-1.2-5.7
					v-1.5c0-2.2,0.4-4.2,1.1-5.8c0.8-1.6,1.8-2.9,3.2-3.7c1.4-0.9,3.1-1.3,5-1.3c2.6,0,4.7,0.6,6.2,1.9s2.4,3.1,2.6,5.5h-4.5
					c-0.2-1.3-0.7-2.2-1.4-2.8c-0.7-0.6-1.7-0.9-2.9-0.9c-1.6,0-2.8,0.6-3.6,1.8c-0.8,1.2-1.2,2.9-1.2,5.2v1.4
					c0,2.3,0.4,4.1,1.3,5.3s2.2,1.8,3.9,1.8c1.7,0,3-0.4,3.7-1.1V782h-4.2v-3.4h8.8V787.5z"/>
			</g>
			<g class="st3">
				<path class="st4" d="M493.2,819.5c0-2.6,0.6-4.6,1.8-6.1s2.8-2.3,4.8-2.3c1.8,0,3.2,0.6,4.3,1.8v-8.5h3.7v23.5h-3.4l-0.2-1.7
					c-1.1,1.3-2.6,2-4.5,2c-1.9,0-3.5-0.8-4.7-2.3C493.8,824.3,493.2,822.2,493.2,819.5z M496.9,819.8c0,1.7,0.3,3,1,3.9
					s1.6,1.4,2.8,1.4c1.5,0,2.6-0.7,3.3-2v-7.1c-0.7-1.3-1.8-2-3.3-2c-1.2,0-2.1,0.5-2.8,1.4C497.2,816.5,496.9,817.9,496.9,819.8z"
					/>
			</g>
			<g class="st3">
				<path class="st4" d="M519.8,828.2c-2.4,0-4.3-0.7-5.7-2.2s-2.2-3.5-2.2-5.9v-0.5c0-1.7,0.3-3.1,1-4.4c0.6-1.3,1.5-2.3,2.7-3
					c1.2-0.7,2.4-1.1,3.9-1.1c2.3,0,4,0.7,5.2,2.2c1.2,1.4,1.8,3.5,1.8,6.1v1.5h-10.8c0.1,1.4,0.6,2.5,1.4,3.2
					c0.8,0.8,1.8,1.2,3,1.2c1.7,0,3.1-0.7,4.2-2.1l2,1.9c-0.7,1-1.5,1.8-2.7,2.3C522.5,828,521.2,828.2,519.8,828.2z M519.4,814
					c-1,0-1.8,0.4-2.5,1.1c-0.6,0.7-1,1.7-1.2,3h7.1v-0.3c-0.1-1.2-0.4-2.2-1-2.8C521.2,814.4,520.4,814,519.4,814z"/>
			</g>
			<g class="st3">
				<path class="st4" d="M536,823.2l3.5-11.9h3.8l-5.7,16.6h-3.2l-5.8-16.6h3.9L536,823.2z"/>
				<path class="st4" d="M546.5,807.1c0-0.6,0.2-1,0.5-1.4s0.9-0.6,1.6-0.6s1.2,0.2,1.6,0.6s0.6,0.9,0.6,1.4c0,0.6-0.2,1-0.6,1.4
					s-0.9,0.6-1.6,0.6s-1.2-0.2-1.6-0.6S546.5,807.6,546.5,807.1z M550.5,827.9h-3.7v-16.6h3.7V827.9z"/>
				<path class="st4" d="M562.3,825.3c0.9,0,1.7-0.3,2.3-0.8c0.6-0.5,0.9-1.2,1-2h3.5c0,1-0.4,2-1,2.9c-0.6,0.9-1.4,1.6-2.5,2.1
					s-2.1,0.8-3.3,0.8c-2.3,0-4.2-0.8-5.5-2.3c-1.4-1.5-2-3.6-2-6.2v-0.4c0-2.5,0.7-4.5,2-6.1s3.2-2.3,5.5-2.3c2,0,3.6,0.6,4.8,1.7
					s1.9,2.7,2,4.5h-3.5c0-0.9-0.4-1.7-1-2.3c-0.6-0.6-1.4-0.9-2.3-0.9c-1.2,0-2.1,0.4-2.8,1.3s-1,2.2-1,4v0.6c0,1.8,0.3,3.1,1,4
					C560.1,824.8,561,825.3,562.3,825.3z"/>
				<path class="st4" d="M580.1,828.2c-2.4,0-4.3-0.7-5.7-2.2s-2.2-3.5-2.2-5.9v-0.5c0-1.7,0.3-3.1,1-4.4c0.6-1.3,1.5-2.3,2.7-3
					c1.2-0.7,2.4-1.1,3.9-1.1c2.3,0,4,0.7,5.2,2.2c1.2,1.4,1.8,3.5,1.8,6.1v1.5h-10.8c0.1,1.4,0.6,2.5,1.4,3.2
					c0.8,0.8,1.8,1.2,3,1.2c1.7,0,3.1-0.7,4.2-2.1l2,1.9c-0.7,1-1.5,1.8-2.7,2.3C582.7,828,581.5,828.2,580.1,828.2z M579.6,814
					c-1,0-1.8,0.4-2.5,1.1c-0.6,0.7-1,1.7-1.2,3h7.1v-0.3c-0.1-1.2-0.4-2.2-1-2.8C581.5,814.4,580.7,814,579.6,814z"/>
				<path class="st4" d="M604.6,805.6l6.4,17.1l6.4-17.1h5v22.3h-3.9v-7.3l0.4-9.8l-6.6,17.2h-2.8l-6.6-17.2l0.4,9.8v7.3h-3.9v-22.3
					H604.6z"/>
				<path class="st4" d="M634.9,828.2c-2.4,0-4.3-0.7-5.7-2.2s-2.2-3.5-2.2-5.9v-0.5c0-1.7,0.3-3.1,1-4.4c0.6-1.3,1.5-2.3,2.7-3
					c1.2-0.7,2.4-1.1,3.9-1.1c2.3,0,4,0.7,5.2,2.2c1.2,1.4,1.8,3.5,1.8,6.1v1.5h-10.8c0.1,1.4,0.6,2.5,1.4,3.2
					c0.8,0.8,1.8,1.2,3,1.2c1.7,0,3.1-0.7,4.2-2.1l2,1.9c-0.7,1-1.5,1.8-2.7,2.3C637.5,828,636.3,828.2,634.9,828.2z M634.5,814
					c-1,0-1.8,0.4-2.5,1.1c-0.6,0.7-1,1.7-1.2,3h7.1v-0.3c-0.1-1.2-0.4-2.2-1-2.8C636.3,814.4,635.5,814,634.5,814z"/>
				<path class="st4" d="M648.8,811.4l0.1,1.7c1.2-1.4,2.8-2,4.8-2c2.2,0,3.7,0.8,4.5,2.5c1.2-1.7,2.9-2.5,5.1-2.5
					c1.8,0,3.2,0.5,4.1,1.5c0.9,1,1.3,2.5,1.4,4.5v10.9h-3.7v-10.8c0-1.1-0.2-1.8-0.7-2.3c-0.5-0.5-1.2-0.7-2.3-0.7
					c-0.8,0-1.5,0.2-2.1,0.7s-0.9,1-1.1,1.8l0,11.4h-3.7V817c-0.1-2-1-2.9-3-2.9c-1.5,0-2.5,0.6-3.2,1.8v12h-3.7v-16.6H648.8z"/>
				<path class="st4" d="M672.8,819.5c0-1.6,0.3-3.1,1-4.4s1.5-2.3,2.7-3c1.2-0.7,2.5-1,4-1c2.2,0,4.1,0.7,5.4,2.2
					c1.4,1.4,2.1,3.3,2.3,5.7l0,0.9c0,1.6-0.3,3.1-0.9,4.4s-1.5,2.3-2.7,3c-1.2,0.7-2.5,1.1-4.1,1.1c-2.3,0-4.2-0.8-5.6-2.3
					c-1.4-1.6-2.1-3.6-2.1-6.2V819.5z M676.6,819.8c0,1.7,0.4,3,1.1,4c0.7,1,1.7,1.4,2.9,1.4c1.3,0,2.2-0.5,2.9-1.5
					c0.7-1,1-2.4,1-4.3c0-1.7-0.4-3-1.1-4c-0.7-1-1.7-1.5-2.9-1.5c-1.2,0-2.2,0.5-2.9,1.4C676.9,816.5,676.6,817.9,676.6,819.8z"/>
			</g>
			<g class="st3">
				<path class="st4" d="M701.3,814.8c-0.5-0.1-1-0.1-1.5-0.1c-1.7,0-2.9,0.7-3.4,2v11.3h-3.7v-16.6h3.6l0.1,1.9
					c0.9-1.4,2.1-2.2,3.7-2.2c0.5,0,1,0.1,1.3,0.2L701.3,814.8z"/>
			</g>
			<g class="st3">
				<path class="st4" d="M710.6,822.6l3.4-11.2h4l-6.6,19.1c-1,2.8-2.7,4.2-5.1,4.2c-0.5,0-1.1-0.1-1.8-0.3v-2.9l0.7,0
					c0.9,0,1.6-0.2,2.1-0.5c0.5-0.3,0.8-0.9,1.1-1.7l0.5-1.4l-5.8-16.5h4L710.6,822.6z"/>
			</g>
			<g class="st3">
				<path class="st4" d="M574.3,365.4v14.9c0,2.4-0.8,4.2-2.3,5.6c-1.5,1.4-3.5,2.1-6.1,2.1c-2.6,0-4.6-0.7-6.1-2
					c-1.5-1.4-2.3-3.3-2.3-5.7v-14.9h3.9v14.9c0,1.5,0.4,2.6,1.1,3.4s1.9,1.2,3.3,1.2c3,0,4.5-1.6,4.5-4.7v-14.8H574.3z"/>
				<path class="st4" d="M588.2,383.2c0-0.7-0.3-1.2-0.8-1.5c-0.5-0.3-1.5-0.7-2.7-0.9c-1.3-0.3-2.3-0.6-3.2-1
					c-1.9-0.9-2.8-2.2-2.8-3.9c0-1.4,0.6-2.6,1.8-3.6c1.2-1,2.7-1.4,4.6-1.4c2,0,3.6,0.5,4.8,1.5c1.2,1,1.8,2.3,1.8,3.8h-3.7
					c0-0.7-0.3-1.3-0.8-1.8c-0.5-0.5-1.2-0.7-2.1-0.7c-0.8,0-1.5,0.2-2,0.6c-0.5,0.4-0.8,0.9-0.8,1.5c0,0.6,0.2,1,0.7,1.3
					s1.4,0.6,2.9,1c1.5,0.3,2.6,0.7,3.4,1.1s1.4,1,1.9,1.6c0.4,0.6,0.6,1.4,0.6,2.3c0,1.5-0.6,2.7-1.9,3.6c-1.2,0.9-2.9,1.4-4.9,1.4
					c-1.4,0-2.6-0.2-3.6-0.7s-1.9-1.2-2.5-2c-0.6-0.9-0.9-1.8-0.9-2.8h3.6c0.1,0.9,0.4,1.6,1,2c0.6,0.5,1.4,0.7,2.4,0.7
					c1,0,1.7-0.2,2.2-0.6C588,384.2,588.2,383.8,588.2,383.2z"/>
				<path class="st4" d="M603.3,388c-2.4,0-4.3-0.7-5.7-2.2s-2.2-3.5-2.2-5.9v-0.5c0-1.7,0.3-3.1,1-4.4c0.6-1.3,1.5-2.3,2.7-3
					c1.2-0.7,2.4-1.1,3.9-1.1c2.3,0,4,0.7,5.2,2.2c1.2,1.4,1.8,3.5,1.8,6.1v1.5h-10.8c0.1,1.4,0.6,2.5,1.4,3.2
					c0.8,0.8,1.8,1.2,3,1.2c1.7,0,3.1-0.7,4.2-2.1l2,1.9c-0.7,1-1.5,1.8-2.7,2.3C606,387.7,604.7,388,603.3,388z M602.9,373.8
					c-1,0-1.8,0.4-2.5,1.1c-0.6,0.7-1,1.7-1.2,3h7.1v-0.3c-0.1-1.2-0.4-2.2-1-2.8C604.7,374.1,603.9,373.8,602.9,373.8z"/>
				<path class="st4" d="M622.5,374.5c-0.5-0.1-1-0.1-1.5-0.1c-1.7,0-2.9,0.7-3.4,2v11.3h-3.7v-16.6h3.6l0.1,1.9
					c0.9-1.4,2.1-2.2,3.7-2.2c0.5,0,1,0.1,1.3,0.2L622.5,374.5z"/>
				<path class="st4" d="M634.8,387.7v-22.3h7.6c2.5,0,4.4,0.5,5.8,1.5s2,2.5,2,4.5c0,1-0.3,1.9-0.8,2.8c-0.6,0.8-1.4,1.5-2.4,1.9
					c1.2,0.3,2.1,0.9,2.8,1.8c0.7,0.9,1,2,1,3.3c0,2.1-0.7,3.7-2,4.8s-3.3,1.7-5.8,1.7H634.8z M638.7,374.8h3.8
					c1.2,0,2.1-0.3,2.8-0.8c0.7-0.5,1-1.3,1-2.3c0-1.1-0.3-1.9-0.9-2.4c-0.6-0.5-1.6-0.7-2.9-0.7h-3.8V374.8z M638.7,377.6v7h4.3
					c1.2,0,2.2-0.3,2.8-0.9c0.7-0.6,1-1.4,1-2.5c0-2.3-1.2-3.5-3.6-3.6H638.7z"/>
			</g>
		</g>
		<g>
			<rect x="995.5" y="319" class="st1" width="118" height="67"/>
			<rect x="1113.5" y="319" class="st1" width="118" height="67"/>
			<rect x="1113.5" y="143" class="st2" width="118" height="243"/>
			<rect x="995.5" y="143" class="st2" width="118" height="243"/>
			<rect x="1231.5" y="256" class="st5" width="118" height="130"/>
			<rect x="1349.5" y="256" class="st5" width="118" height="130"/>
			<rect x="1349.5" y="143" class="st2" width="118" height="243"/>
			<rect x="1231.5" y="143" class="st2" width="118" height="243"/>
			<g>
				<polygon class="st6" points="1231.5,143 1113.5,143 995.5,143 995.5,319 1113.5,319 1231.5,319 1231.5,256 1349.5,256 
					1467,255.5 1467,143.5 				"/>
				<polygon class="st7" points="1231.5,143 1113.5,143 995.5,143 995.5,319 1113.5,319 1231.5,319 1231.5,256 1349.5,256 
					1467,255.5 1467,143.5 				"/>
			</g>
			<g class="st3">
				<path class="st4" d="M1089,77.4h-8.6l-1.8,5.2h-4l8.4-22.3h3.5l8.4,22.3h-4L1089,77.4z M1081.5,74.3h6.5l-3.2-9.2L1081.5,74.3z"
					/>
				<path class="st4" d="M1110.1,66l0.1,1.9c1.2-1.5,2.8-2.2,4.8-2.2c3.5,0,5.2,2,5.3,5.9v10.9h-3.7V71.9c0-1.1-0.2-1.8-0.7-2.3
					c-0.5-0.5-1.2-0.8-2.2-0.8c-1.5,0-2.6,0.7-3.4,2v11.8h-3.7V66H1110.1z"/>
				<path class="st4" d="M1124.3,74.2c0-1.6,0.3-3.1,1-4.4c0.6-1.3,1.5-2.3,2.7-3c1.2-0.7,2.5-1,4-1c2.2,0,4,0.7,5.4,2.2
					c1.4,1.4,2.1,3.3,2.3,5.7l0,0.9c0,1.6-0.3,3.1-0.9,4.4c-0.6,1.3-1.5,2.3-2.7,3c-1.2,0.7-2.5,1.1-4.1,1.1c-2.3,0-4.2-0.8-5.6-2.3
					c-1.4-1.6-2.1-3.6-2.1-6.2V74.2z M1128.1,74.5c0,1.7,0.4,3,1.1,4c0.7,1,1.7,1.4,2.9,1.4s2.2-0.5,2.9-1.5c0.7-1,1-2.4,1-4.3
					c0-1.7-0.4-3-1.1-4c-0.7-1-1.7-1.5-2.9-1.5c-1.2,0-2.2,0.5-2.9,1.4C1128.4,71.1,1128.1,72.6,1128.1,74.5z"/>
				<path class="st4" d="M1143.1,74.2c0-2.6,0.6-4.6,1.8-6.1c1.2-1.5,2.8-2.3,4.8-2.3c1.8,0,3.2,0.6,4.3,1.8v-8.5h3.7v23.5h-3.4
					l-0.2-1.7c-1.1,1.3-2.6,2-4.5,2c-1.9,0-3.5-0.8-4.7-2.3C1143.7,79,1143.1,76.9,1143.1,74.2z M1146.8,74.5c0,1.7,0.3,3,1,3.9
					s1.6,1.4,2.8,1.4c1.5,0,2.6-0.7,3.3-2v-7.1c-0.7-1.3-1.8-2-3.3-2c-1.2,0-2.1,0.5-2.8,1.4C1147.2,71.1,1146.8,72.6,1146.8,74.5z"
					/>
				<path class="st4" d="M1169.7,82.9c-2.4,0-4.3-0.7-5.7-2.2s-2.2-3.5-2.2-5.9v-0.5c0-1.7,0.3-3.1,1-4.4c0.6-1.3,1.5-2.3,2.7-3
					c1.2-0.7,2.4-1.1,3.9-1.1c2.3,0,4,0.7,5.2,2.2c1.2,1.4,1.8,3.5,1.8,6.1v1.5h-10.8c0.1,1.4,0.6,2.5,1.4,3.2
					c0.8,0.8,1.8,1.2,3,1.2c1.7,0,3.1-0.7,4.2-2.1l2,1.9c-0.7,1-1.5,1.8-2.7,2.3S1171.1,82.9,1169.7,82.9z M1169.3,68.7
					c-1,0-1.8,0.4-2.5,1.1s-1,1.7-1.2,3h7.1v-0.3c-0.1-1.2-0.4-2.2-1-2.8C1171.1,69,1170.3,68.7,1169.3,68.7z"/>
				<path class="st4" d="M1203.4,77.5l2.6-11.4h3.6l-4.5,16.6h-3.1l-3.6-11.4l-3.5,11.4h-3.1l-4.5-16.6h3.6l2.7,11.3l3.4-11.3h2.8
					L1203.4,77.5z"/>
				<path class="st4" d="M1213.1,61.7c0-0.6,0.2-1,0.5-1.4s0.9-0.6,1.6-0.6s1.2,0.2,1.6,0.6s0.6,0.9,0.6,1.4c0,0.6-0.2,1-0.6,1.4
					s-0.9,0.6-1.6,0.6s-1.2-0.2-1.6-0.6S1213.1,62.3,1213.1,61.7z M1217.1,82.6h-3.7V66h3.7V82.6z"/>
				<path class="st4" d="M1226.7,62v4h2.9v2.8h-2.9V78c0,0.6,0.1,1.1,0.4,1.4c0.2,0.3,0.7,0.4,1.3,0.4c0.4,0,0.9-0.1,1.3-0.2v2.9
					c-0.8,0.2-1.7,0.4-2.5,0.4c-2.9,0-4.3-1.6-4.3-4.7v-9.4h-2.7V66h2.7v-4H1226.7z"/>
				<path class="st4" d="M1237,67.8c1.2-1.4,2.8-2.1,4.6-2.1c3.5,0,5.3,2,5.4,6v10.8h-3.7V71.9c0-1.1-0.2-2-0.7-2.4
					c-0.5-0.5-1.2-0.7-2.2-0.7c-1.5,0-2.6,0.7-3.3,2v11.8h-3.7V59.1h3.7V67.8z"/>
				<path class="st4" d="M1272.7,74.6h2.8v3h-2.8v5h-3.7v-5h-9.6l-0.1-2.3l9.6-15.1h3.8V74.6z M1263.2,74.6h5.8v-9.3l-0.3,0.5
					L1263.2,74.6z"/>
				<path class="st4" d="M1287.1,77l4.8-4.9l-4.8-4.9l2.3-2.3l4.8,4.9l4.8-4.9l2.3,2.3l-4.8,4.9l4.8,4.9l-2.3,2.3l-4.8-4.9l-4.8,4.9
					L1287.1,77z"/>
				<path class="st4" d="M1322.4,77.7l5.7-17.4h4.3l-8,22.3h-3.8l-8-22.3h4.2L1322.4,77.7z"/>
				<path class="st4" d="M1345.2,82.6h-3.7V64.7l-5.5,1.9v-3.1l8.7-3.2h0.5V82.6z"/>
				<path class="st4" d="M1368.4,73.2c0,3.2-0.6,5.6-1.8,7.3c-1.2,1.6-3,2.4-5.5,2.4c-2.4,0-4.2-0.8-5.4-2.4
					c-1.2-1.6-1.8-3.9-1.9-7.1v-3.9c0-3.2,0.6-5.6,1.8-7.2c1.2-1.6,3-2.4,5.5-2.4c2.4,0,4.3,0.8,5.5,2.3c1.2,1.6,1.8,3.9,1.8,7V73.2
					z M1364.7,69c0-2.1-0.3-3.6-0.9-4.6c-0.6-1-1.5-1.5-2.7-1.5c-1.2,0-2.1,0.5-2.7,1.4s-0.9,2.4-0.9,4.3v5.1c0,2.1,0.3,3.6,0.9,4.7
					c0.6,1,1.5,1.5,2.7,1.5c1.2,0,2.1-0.5,2.6-1.4c0.6-0.9,0.9-2.4,0.9-4.4V69z"/>
				<path class="st4" d="M1387.1,73.2c0,3.2-0.6,5.6-1.8,7.3c-1.2,1.6-3,2.4-5.5,2.4c-2.4,0-4.2-0.8-5.4-2.4
					c-1.2-1.6-1.8-3.9-1.9-7.1v-3.9c0-3.2,0.6-5.6,1.8-7.2s3-2.4,5.5-2.4c2.4,0,4.3,0.8,5.5,2.3c1.2,1.6,1.8,3.9,1.8,7V73.2z
					 M1383.4,69c0-2.1-0.3-3.6-0.9-4.6c-0.6-1-1.5-1.5-2.7-1.5c-1.2,0-2.1,0.5-2.7,1.4c-0.6,0.9-0.9,2.4-0.9,4.3v5.1
					c0,2.1,0.3,3.6,0.9,4.7s1.5,1.5,2.7,1.5c1.2,0,2.1-0.5,2.7-1.4c0.6-0.9,0.9-2.4,0.9-4.4V69z"/>
			</g>
			<g class="st3">
				<path class="st4" d="M1192.4,111.2c0-2.4,0.3-4.6,0.9-6.7s1.6-4,2.8-5.7c1.2-1.7,2.5-2.8,3.9-3.5l0.7,2.2
					c-1.4,1.1-2.6,2.8-3.5,5c-0.9,2.2-1.4,4.8-1.5,7.7l0,1.3c0,3.1,0.4,5.9,1.3,8.3c0.9,2.4,2.1,4.3,3.7,5.5l-0.7,2.1
					c-1.4-0.7-2.7-1.9-3.9-3.5c-1.2-1.7-2.2-3.6-2.8-5.7C1192.7,116,1192.4,113.7,1192.4,111.2z"/>
				<path class="st4" d="M1208.3,107.4h2.3c1.1,0,2-0.3,2.7-0.9c0.7-0.6,1-1.4,1-2.5c0-1.1-0.3-1.9-0.8-2.5
					c-0.6-0.6-1.4-0.9-2.5-0.9c-1,0-1.8,0.3-2.5,0.9c-0.6,0.6-1,1.3-1,2.3h-3.7c0-1.1,0.3-2.2,0.9-3.1s1.5-1.7,2.5-2.2
					c1.1-0.5,2.3-0.8,3.7-0.8c2.2,0,4,0.6,5.2,1.7c1.3,1.1,1.9,2.7,1.9,4.7c0,1-0.3,1.9-1,2.8c-0.6,0.9-1.5,1.5-2.5,2
					c1.2,0.4,2.2,1.1,2.8,2c0.6,0.9,1,2,1,3.2c0,2-0.7,3.6-2.1,4.8c-1.4,1.2-3.2,1.8-5.4,1.8c-2.1,0-3.9-0.6-5.3-1.7
					c-1.4-1.1-2.1-2.7-2.1-4.6h3.7c0,1,0.3,1.8,1,2.4c0.7,0.6,1.5,0.9,2.7,0.9c1.2,0,2.1-0.3,2.7-0.9c0.7-0.6,1-1.5,1-2.7
					c0-1.2-0.3-2.1-1-2.7s-1.7-0.9-3.1-0.9h-2.2V107.4z"/>
				<path class="st4" d="M1237.7,120.2h-15v-2.6l7.4-8.1c1.1-1.2,1.8-2.2,2.3-3c0.5-0.8,0.7-1.6,0.7-2.4c0-1.1-0.3-1.9-0.9-2.6
					c-0.6-0.7-1.4-1-2.4-1c-1.2,0-2.1,0.4-2.8,1.1c-0.7,0.7-1,1.7-1,3h-3.7c0-1.4,0.3-2.6,0.9-3.7c0.6-1.1,1.5-1.9,2.6-2.5
					c1.1-0.6,2.5-0.9,4-0.9c2.2,0,3.9,0.5,5.1,1.6c1.2,1.1,1.9,2.6,1.9,4.5c0,1.1-0.3,2.3-0.9,3.5c-0.6,1.2-1.7,2.6-3.1,4.2
					l-5.5,5.8h10.4V120.2z"/>
				<path class="st4" d="M1259.1,117.3c-0.8,1.1-1.9,1.8-3.4,2.4c-1.4,0.5-3.1,0.8-4.9,0.8c-1.9,0-3.5-0.4-5-1.3
					c-1.4-0.8-2.5-2.1-3.3-3.6c-0.8-1.6-1.2-3.4-1.2-5.5v-1.7c0-3.4,0.8-6,2.4-7.9s3.9-2.8,6.8-2.8c2.5,0,4.5,0.6,5.9,1.8
					c1.5,1.2,2.3,3,2.6,5.3h-3.8c-0.4-2.7-2-4-4.7-4c-1.7,0-3.1,0.6-4,1.9c-0.9,1.2-1.4,3.1-1.4,5.5v1.7c0,2.4,0.5,4.3,1.5,5.6
					c1,1.3,2.4,2,4.2,2c2,0,3.4-0.4,4.2-1.3v-4.4h-4.6v-2.9h8.5V117.3z"/>
				<path class="st4" d="M1271.1,111.4c0,2.3-0.3,4.5-0.9,6.6c-0.6,2.1-1.6,4-2.8,5.8c-1.3,1.7-2.6,2.9-4,3.6l-0.7-2.1
					c1.5-1.2,2.7-3,3.6-5.4c0.9-2.4,1.3-5.2,1.3-8.3v-0.4c0-2.8-0.4-5.4-1.2-7.8c-0.8-2.3-1.9-4.2-3.3-5.6l-0.5-0.4l0.7-2.1
					c1.3,0.6,2.6,1.8,3.8,3.4c1.2,1.6,2.2,3.4,2.8,5.4c0.7,2,1,4.1,1.1,6.2L1271.1,111.4z"/>
			</g>
			<g class="st3">
				<path class="st8" d="M1134.3,432c0,2.2-0.4,4.1-1.1,5.8c-0.8,1.6-1.8,2.9-3.2,3.8c-1.4,0.9-3,1.3-4.8,1.3
					c-1.8,0-3.4-0.4-4.8-1.3c-1.4-0.9-2.5-2.1-3.3-3.8c-0.8-1.6-1.2-3.5-1.2-5.7v-1.3c0-2.2,0.4-4.1,1.2-5.8
					c0.8-1.7,1.9-2.9,3.3-3.8c1.4-0.9,3-1.3,4.8-1.3s3.4,0.4,4.8,1.3s2.5,2.1,3.3,3.8s1.2,3.5,1.2,5.7V432z M1130.4,430.9
					c0-2.5-0.5-4.4-1.4-5.7c-0.9-1.3-2.3-2-4-2c-1.7,0-3,0.7-3.9,2s-1.4,3.2-1.4,5.6v1.3c0,2.5,0.5,4.3,1.4,5.7c1,1.3,2.3,2,4,2
					c1.7,0,3-0.7,4-2s1.4-3.2,1.4-5.7V430.9z"/>
				<path class="st8" d="M1145.5,439.9c0.9,0,1.7-0.3,2.3-0.8c0.6-0.5,0.9-1.2,1-2h3.5c0,1-0.4,2-1,2.9c-0.6,0.9-1.4,1.6-2.5,2.1
					s-2.1,0.8-3.3,0.8c-2.3,0-4.2-0.8-5.5-2.3c-1.4-1.5-2-3.6-2-6.2V434c0-2.5,0.7-4.5,2-6.1s3.2-2.3,5.5-2.3c2,0,3.6,0.6,4.8,1.7
					s1.9,2.7,2,4.5h-3.5c0-0.9-0.4-1.7-1-2.3c-0.6-0.6-1.4-0.9-2.3-0.9c-1.2,0-2.1,0.4-2.8,1.3s-1,2.2-1,4v0.6c0,1.8,0.3,3.1,1,4
					C1143.3,439.5,1144.3,439.9,1145.5,439.9z"/>
				<path class="st8" d="M1162.8,439.9c0.9,0,1.7-0.3,2.3-0.8c0.6-0.5,0.9-1.2,1-2h3.5c0,1-0.4,2-1,2.9c-0.6,0.9-1.4,1.6-2.5,2.1
					s-2.1,0.8-3.3,0.8c-2.3,0-4.2-0.8-5.5-2.3c-1.4-1.5-2-3.6-2-6.2V434c0-2.5,0.7-4.5,2-6.1s3.2-2.3,5.5-2.3c2,0,3.6,0.6,4.8,1.7
					s1.9,2.7,2,4.5h-3.5c0-0.9-0.4-1.7-1-2.3c-0.6-0.6-1.4-0.9-2.3-0.9c-1.2,0-2.1,0.4-2.8,1.3s-1,2.2-1,4v0.6c0,1.8,0.3,3.1,1,4
					C1160.6,439.5,1161.6,439.9,1162.8,439.9z"/>
				<path class="st8" d="M1183.4,441c-1.1,1.3-2.6,1.9-4.7,1.9c-1.8,0-3.2-0.5-4.1-1.6c-0.9-1.1-1.4-2.6-1.4-4.6V426h3.7v10.7
					c0,2.1,0.9,3.2,2.6,3.2c1.8,0,3-0.6,3.7-1.9V426h3.7v16.6h-3.5L1183.4,441z"/>
			</g>
			<g class="st3">
				<path class="st8" d="M1206.3,434.5c0,2.6-0.6,4.6-1.7,6.1c-1.2,1.5-2.7,2.3-4.7,2.3c-1.8,0-3.3-0.6-4.4-1.8v7.9h-3.7V426h3.4
					l0.2,1.7c1.1-1.3,2.6-2,4.5-2c2,0,3.6,0.8,4.8,2.3c1.1,1.5,1.7,3.6,1.7,6.3V434.5z M1202.6,434.2c0-1.7-0.3-3-1-3.9
					c-0.7-1-1.6-1.5-2.8-1.5c-1.5,0-2.6,0.6-3.3,1.9v7.3c0.7,1.3,1.8,1.9,3.3,1.9c1.2,0,2.1-0.5,2.8-1.4
					C1202.3,437.5,1202.6,436.1,1202.6,434.2z"/>
			</g>
			<g class="st3">
				<path class="st8" d="M1216,437.3l3.4-11.2h4l-6.6,19.1c-1,2.8-2.7,4.2-5.1,4.2c-0.5,0-1.1-0.1-1.8-0.3v-2.9l0.7,0
					c0.9,0,1.6-0.2,2.1-0.5c0.5-0.3,0.8-0.9,1.1-1.7l0.5-1.4l-5.8-16.5h4L1216,437.3z"/>
				<path class="st8" d="M1247.5,434.6h2.8v3h-2.8v5h-3.7v-5h-9.6l-0.1-2.3l9.6-15.1h3.8V434.6z M1237.9,434.6h5.8v-9.3l-0.3,0.5
					L1237.9,434.6z"/>
				<path class="st8" d="M1280,439.7c-0.8,1.1-1.9,1.8-3.4,2.4c-1.4,0.5-3.1,0.8-4.9,0.8c-1.9,0-3.5-0.4-5-1.3
					c-1.4-0.8-2.5-2.1-3.3-3.6s-1.2-3.4-1.2-5.5v-1.7c0-3.4,0.8-6,2.4-7.9c1.6-1.9,3.9-2.8,6.8-2.8c2.5,0,4.5,0.6,5.9,1.8
					s2.3,3,2.6,5.3h-3.8c-0.4-2.7-2-4-4.7-4c-1.7,0-3.1,0.6-4,1.9c-0.9,1.2-1.4,3.1-1.4,5.5v1.7c0,2.4,0.5,4.3,1.5,5.6s2.4,2,4.2,2
					c2,0,3.4-0.4,4.2-1.3v-4.4h-4.6v-2.9h8.5V439.7z"/>
				<path class="st8" d="M1289.1,434.3v8.3h-3.9v-22.3h8.5c2.5,0,4.5,0.6,5.9,1.9c1.5,1.3,2.2,3,2.2,5.2c0,2.2-0.7,3.9-2.2,5.1
					s-3.4,1.8-6,1.8H1289.1z M1289.1,431.2h4.7c1.4,0,2.4-0.3,3.2-1c0.7-0.6,1.1-1.6,1.1-2.8c0-1.2-0.4-2.2-1.1-2.9
					c-0.7-0.7-1.7-1.1-3-1.1h-4.8V431.2z"/>
				<path class="st8" d="M1322.4,420.3v14.9c0,2.4-0.8,4.2-2.3,5.6c-1.5,1.4-3.5,2.1-6.1,2.1c-2.6,0-4.6-0.7-6.1-2
					c-1.5-1.4-2.3-3.3-2.3-5.7v-14.9h3.9v14.9c0,1.5,0.4,2.6,1.1,3.4c0.8,0.8,1.9,1.2,3.3,1.2c3,0,4.5-1.6,4.5-4.7v-14.8H1322.4z"/>
				<path class="st8" d="M1336.4,438.1c0-0.7-0.3-1.2-0.8-1.5s-1.5-0.7-2.7-0.9c-1.3-0.3-2.3-0.6-3.2-1c-1.9-0.9-2.8-2.2-2.8-3.9
					c0-1.4,0.6-2.6,1.8-3.6c1.2-1,2.7-1.4,4.6-1.4c2,0,3.6,0.5,4.8,1.5c1.2,1,1.8,2.3,1.8,3.8h-3.7c0-0.7-0.3-1.3-0.8-1.8
					c-0.5-0.5-1.2-0.7-2.1-0.7c-0.8,0-1.5,0.2-2,0.6c-0.5,0.4-0.8,0.9-0.8,1.5c0,0.6,0.2,1,0.7,1.3c0.5,0.3,1.5,0.6,2.9,1
					c1.5,0.3,2.6,0.7,3.4,1.1s1.4,1,1.9,1.6c0.4,0.6,0.6,1.4,0.6,2.3c0,1.5-0.6,2.7-1.9,3.6s-2.9,1.4-4.9,1.4
					c-1.4,0-2.6-0.2-3.6-0.7s-1.9-1.2-2.5-2s-0.9-1.8-0.9-2.8h3.6c0.1,0.9,0.4,1.6,1,2c0.6,0.5,1.4,0.7,2.4,0.7c1,0,1.7-0.2,2.2-0.6
					C1336.2,439.2,1336.4,438.7,1336.4,438.1z"/>
				<path class="st8" d="M1344.7,447.6l-2-1.2c0.6-0.9,1-1.7,1.2-2.4c0.2-0.7,0.3-1.4,0.3-2.1V439h3.4l0,2.7c0,1.1-0.3,2.2-0.8,3.3
					S1345.6,446.9,1344.7,447.6z"/>
			</g>
			<g class="st3">
				<path class="st8" d="M1134.8,478.6c-1.1,1.3-2.6,1.9-4.7,1.9c-1.8,0-3.2-0.5-4.1-1.6c-0.9-1.1-1.4-2.6-1.4-4.6v-10.7h3.7v10.7
					c0,2.1,0.9,3.2,2.6,3.2c1.8,0,3-0.6,3.7-1.9v-11.9h3.7v16.6h-3.5L1134.8,478.6z"/>
				<path class="st8" d="M1147.7,459.6v4h2.9v2.8h-2.9v9.2c0,0.6,0.1,1.1,0.4,1.4c0.2,0.3,0.7,0.4,1.3,0.4c0.4,0,0.9-0.1,1.3-0.2
					v2.9c-0.8,0.2-1.7,0.4-2.4,0.4c-2.9,0-4.3-1.6-4.3-4.7v-9.4h-2.7v-2.8h2.7v-4H1147.7z"/>
				<path class="st8" d="M1154.4,459.3c0-0.6,0.2-1,0.5-1.4s0.9-0.6,1.6-0.6s1.2,0.2,1.6,0.6c0.4,0.4,0.6,0.9,0.6,1.4
					c0,0.6-0.2,1-0.6,1.4c-0.4,0.4-0.9,0.6-1.6,0.6s-1.2-0.2-1.6-0.6S1154.4,459.9,1154.4,459.3z M1158.4,480.2h-3.7v-16.6h3.7
					V480.2z"/>
				<path class="st8" d="M1167.3,480.2h-3.7v-23.5h3.7V480.2z"/>
				<path class="st8" d="M1172.3,459.3c0-0.6,0.2-1,0.5-1.4s0.9-0.6,1.6-0.6s1.2,0.2,1.6,0.6c0.4,0.4,0.6,0.9,0.6,1.4
					c0,0.6-0.2,1-0.6,1.4c-0.4,0.4-0.9,0.6-1.6,0.6s-1.2-0.2-1.6-0.6S1172.3,459.9,1172.3,459.3z M1176.2,480.2h-3.7v-16.6h3.7
					V480.2z"/>
				<path class="st8" d="M1185.1,477.2h8.8v3h-13.4v-2.4l8.4-11.1h-8.3v-3h13v2.4L1185.1,477.2z"/>
				<path class="st8" d="M1207.7,480.2c-0.2-0.3-0.3-0.8-0.4-1.5c-1.2,1.2-2.6,1.9-4.3,1.9c-1.7,0-3-0.5-4.1-1.4
					c-1.1-0.9-1.6-2.1-1.6-3.5c0-1.8,0.7-3.1,2-4.1c1.3-0.9,3.2-1.4,5.6-1.4h2.3V469c0-0.9-0.2-1.5-0.7-2.1
					c-0.5-0.5-1.2-0.8-2.2-0.8c-0.8,0-1.5,0.2-2.1,0.6c-0.5,0.4-0.8,1-0.8,1.6h-3.7c0-0.9,0.3-1.8,0.9-2.5c0.6-0.8,1.4-1.4,2.5-1.9
					s2.2-0.7,3.5-0.7c1.9,0,3.5,0.5,4.6,1.5s1.7,2.3,1.8,4.1v7.5c0,1.5,0.2,2.7,0.6,3.6v0.3H1207.7z M1203.7,477.5
					c0.7,0,1.4-0.2,2.1-0.5s1.1-0.8,1.5-1.4v-3.1h-2c-1.4,0-2.4,0.2-3.1,0.7c-0.7,0.5-1,1.2-1,2c0,0.7,0.2,1.3,0.7,1.7
					C1202.2,477.3,1202.9,477.5,1203.7,477.5z"/>
				<path class="st8" d="M1220.4,459.6v4h2.9v2.8h-2.9v9.2c0,0.6,0.1,1.1,0.4,1.4c0.2,0.3,0.7,0.4,1.3,0.4c0.4,0,0.9-0.1,1.3-0.2
					v2.9c-0.8,0.2-1.7,0.4-2.5,0.4c-2.9,0-4.3-1.6-4.3-4.7v-9.4h-2.7v-2.8h2.7v-4H1220.4z"/>
				<path class="st8" d="M1227.1,459.3c0-0.6,0.2-1,0.5-1.4s0.9-0.6,1.6-0.6s1.2,0.2,1.6,0.6c0.4,0.4,0.6,0.9,0.6,1.4
					c0,0.6-0.2,1-0.6,1.4c-0.4,0.4-0.9,0.6-1.6,0.6s-1.2-0.2-1.6-0.6S1227.1,459.9,1227.1,459.3z M1231,480.2h-3.7v-16.6h3.7V480.2z
					"/>
				<path class="st8" d="M1235.3,471.8c0-1.6,0.3-3.1,1-4.4c0.6-1.3,1.5-2.3,2.7-3c1.2-0.7,2.5-1,4-1c2.2,0,4,0.7,5.4,2.2
					c1.4,1.4,2.1,3.3,2.3,5.7l0,0.9c0,1.6-0.3,3.1-0.9,4.4s-1.5,2.3-2.7,3c-1.2,0.7-2.5,1.1-4.1,1.1c-2.3,0-4.2-0.8-5.6-2.3
					c-1.4-1.6-2.1-3.6-2.1-6.2V471.8z M1239,472.1c0,1.7,0.4,3,1.1,4c0.7,1,1.7,1.4,2.9,1.4s2.2-0.5,2.9-1.5c0.7-1,1-2.4,1-4.3
					c0-1.7-0.4-3-1.1-4c-0.7-1-1.7-1.5-2.9-1.5c-1.2,0-2.2,0.5-2.9,1.4S1239,470.2,1239,472.1z"/>
				<path class="st8" d="M1258.2,463.7l0.1,1.9c1.2-1.5,2.8-2.2,4.8-2.2c3.5,0,5.2,2,5.3,5.9v10.9h-3.7v-10.7c0-1.1-0.2-1.8-0.7-2.3
					c-0.5-0.5-1.2-0.8-2.2-0.8c-1.5,0-2.6,0.7-3.4,2v11.8h-3.7v-16.6H1258.2z"/>
				<path class="st8" d="M1282.6,469.2l1.2-11.2h12v3.2h-8.9l-0.6,5.3c1-0.6,2.2-0.9,3.5-0.9c2.1,0,3.8,0.7,5,2
					c1.2,1.4,1.8,3.2,1.8,5.5c0,2.3-0.7,4.1-2,5.4c-1.3,1.3-3.1,2-5.4,2c-2,0-3.7-0.6-5.1-1.7c-1.3-1.2-2.1-2.7-2.2-4.6h3.6
					c0.1,1.1,0.5,1.9,1.2,2.5c0.6,0.6,1.5,0.9,2.5,0.9c1.1,0,2-0.4,2.7-1.2c0.6-0.8,1-1.9,1-3.3c0-1.4-0.4-2.4-1.1-3.2
					c-0.7-0.8-1.7-1.2-2.9-1.2c-0.7,0-1.2,0.1-1.7,0.3s-1,0.5-1.5,1L1282.6,469.2z"/>
				<path class="st8" d="M1314.8,470.8c0,3.2-0.6,5.6-1.8,7.3c-1.2,1.6-3,2.4-5.5,2.4c-2.4,0-4.2-0.8-5.4-2.4
					c-1.2-1.6-1.8-3.9-1.9-7.1v-3.9c0-3.2,0.6-5.6,1.8-7.2s3-2.4,5.5-2.4c2.4,0,4.3,0.8,5.5,2.3c1.2,1.6,1.8,3.9,1.8,7V470.8z
					 M1311.1,466.7c0-2.1-0.3-3.6-0.9-4.6c-0.6-1-1.5-1.5-2.7-1.5c-1.2,0-2.1,0.5-2.7,1.4c-0.6,0.9-0.9,2.4-0.9,4.3v5.1
					c0,2.1,0.3,3.6,0.9,4.7s1.5,1.5,2.7,1.5c1.2,0,2.1-0.5,2.6-1.4c0.6-0.9,0.9-2.4,0.9-4.4V466.7z"/>
				<path class="st8" d="M1318.9,462.2c0-1.3,0.4-2.5,1.3-3.3c0.9-0.9,2-1.3,3.4-1.3c1.4,0,2.6,0.4,3.4,1.3c0.9,0.9,1.3,2,1.3,3.4
					v1.1c0,1.3-0.4,2.4-1.3,3.3s-2,1.3-3.4,1.3c-1.4,0-2.5-0.4-3.4-1.3c-0.9-0.8-1.3-2-1.3-3.4V462.2z M1321.5,463.4
					c0,0.7,0.2,1.3,0.6,1.7c0.4,0.4,0.9,0.7,1.6,0.7c0.6,0,1.1-0.2,1.5-0.7c0.4-0.4,0.6-1,0.6-1.8v-1.1c0-0.7-0.2-1.3-0.6-1.7
					c-0.4-0.4-0.9-0.7-1.6-0.7s-1.2,0.2-1.5,0.7s-0.6,1-0.6,1.8V463.4z M1324.4,478.6l-1.9-1.1l10.9-17.4l1.9,1.1L1324.4,478.6z
					 M1329.6,474.8c0-1.4,0.4-2.5,1.3-3.3c0.9-0.8,2-1.3,3.4-1.3c1.4,0,2.5,0.4,3.4,1.3c0.9,0.8,1.3,2,1.3,3.4v1.1
					c0,1.3-0.4,2.4-1.3,3.3c-0.9,0.9-2,1.3-3.4,1.3c-1.4,0-2.6-0.4-3.5-1.3c-0.9-0.9-1.3-2-1.3-3.4V474.8z M1332.2,475.9
					c0,0.7,0.2,1.3,0.6,1.7c0.4,0.4,0.9,0.7,1.6,0.7c0.7,0,1.2-0.2,1.5-0.6c0.4-0.4,0.6-1,0.6-1.8v-1.1c0-0.7-0.2-1.3-0.6-1.7
					c-0.4-0.4-0.9-0.6-1.5-0.6c-0.6,0-1.1,0.2-1.5,0.6c-0.4,0.4-0.6,1-0.6,1.8V475.9z"/>
			</g>
			<g class="st3">
				<path class="st4" d="M1039.5,367.6c-0.6,0.7-1.4,1.3-2.4,1.7c-1,0.4-2.1,0.6-3.4,0.6c-1.3,0-2.5-0.3-3.5-0.9s-1.8-1.4-2.3-2.6
					c-0.5-1.1-0.8-2.4-0.9-3.9v-1.2c0-2.4,0.6-4.2,1.7-5.5c1.1-1.3,2.7-2,4.7-2c1.7,0,3.1,0.4,4.1,1.3c1,0.9,1.6,2.1,1.8,3.7h-2.7
					c-0.3-1.9-1.4-2.8-3.3-2.8c-1.2,0-2.1,0.4-2.8,1.3c-0.6,0.9-1,2.2-1,3.9v1.2c0,1.7,0.4,3,1.1,3.9s1.7,1.4,3,1.4
					c1.4,0,2.4-0.3,3-0.9v-3.1h-3.2v-2.1h5.9V367.6z"/>
				<path class="st4" d="M1045.8,363.8v5.8h-2.7v-15.6h6c1.7,0,3.1,0.5,4.2,1.4c1,0.9,1.5,2.1,1.5,3.6c0,1.5-0.5,2.7-1.5,3.6
					c-1,0.9-2.4,1.3-4.2,1.3H1045.8z M1045.8,361.6h3.3c1,0,1.7-0.2,2.2-0.7c0.5-0.5,0.8-1.1,0.8-2c0-0.8-0.3-1.5-0.8-2
					c-0.5-0.5-1.2-0.8-2.1-0.8h-3.3V361.6z"/>
				<path class="st4" d="M1069.3,353.9v10.5c0,1.7-0.5,3-1.6,3.9c-1.1,1-2.5,1.5-4.2,1.5c-1.8,0-3.2-0.5-4.3-1.4
					c-1.1-1-1.6-2.3-1.6-4v-10.4h2.7v10.5c0,1,0.3,1.8,0.8,2.4s1.3,0.8,2.3,0.8c2.1,0,3.1-1.1,3.1-3.3v-10.4H1069.3z"/>
				<path class="st4" d="M1082.6,363c0,2.2-0.4,3.9-1.3,5.1c-0.8,1.1-2.1,1.7-3.8,1.7c-1.7,0-3-0.6-3.8-1.7
					c-0.9-1.1-1.3-2.8-1.3-4.9v-2.7c0-2.2,0.4-3.9,1.3-5.1s2.1-1.7,3.9-1.7c1.7,0,3,0.5,3.8,1.6s1.3,2.7,1.3,4.9V363z M1080,360.1
					c0-1.5-0.2-2.5-0.6-3.2c-0.4-0.7-1-1-1.9-1c-0.9,0-1.5,0.3-1.9,1c-0.4,0.6-0.6,1.7-0.6,3v3.5c0,1.5,0.2,2.5,0.6,3.3
					s1,1.1,1.9,1.1c0.8,0,1.5-0.3,1.9-1c0.4-0.7,0.6-1.7,0.6-3.1V360.1z"/>
			</g>
			<g class="st3">
				<path class="st4" d="M1157.5,367.6c-0.6,0.7-1.4,1.3-2.4,1.7c-1,0.4-2.1,0.6-3.4,0.6c-1.3,0-2.5-0.3-3.5-0.9s-1.8-1.4-2.3-2.6
					c-0.5-1.1-0.8-2.4-0.9-3.9v-1.2c0-2.4,0.6-4.2,1.7-5.5c1.1-1.3,2.7-2,4.7-2c1.7,0,3.1,0.4,4.1,1.3c1,0.9,1.6,2.1,1.8,3.7h-2.7
					c-0.3-1.9-1.4-2.8-3.3-2.8c-1.2,0-2.1,0.4-2.8,1.3c-0.6,0.9-1,2.2-1,3.9v1.2c0,1.7,0.4,3,1.1,3.9s1.7,1.4,3,1.4
					c1.4,0,2.4-0.3,3-0.9v-3.1h-3.2v-2.1h5.9V367.6z"/>
				<path class="st4" d="M1163.8,363.8v5.8h-2.7v-15.6h6c1.7,0,3.1,0.5,4.2,1.4c1,0.9,1.5,2.1,1.5,3.6c0,1.5-0.5,2.7-1.5,3.6
					c-1,0.9-2.4,1.3-4.2,1.3H1163.8z M1163.8,361.6h3.3c1,0,1.7-0.2,2.2-0.7c0.5-0.5,0.8-1.1,0.8-2c0-0.8-0.3-1.5-0.8-2
					c-0.5-0.5-1.2-0.8-2.1-0.8h-3.3V361.6z"/>
				<path class="st4" d="M1187.3,353.9v10.5c0,1.7-0.5,3-1.6,3.9c-1.1,1-2.5,1.5-4.2,1.5c-1.8,0-3.2-0.5-4.3-1.4
					c-1.1-1-1.6-2.3-1.6-4v-10.4h2.7v10.5c0,1,0.3,1.8,0.8,2.4s1.3,0.8,2.3,0.8c2.1,0,3.1-1.1,3.1-3.3v-10.4H1187.3z"/>
				<path class="st4" d="M1197.4,369.6h-2.6V357l-3.8,1.3v-2.2l6.1-2.2h0.3V369.6z"/>
			</g>
			<g class="st3">
				<path class="st4" d="M1275.5,367.6c-0.6,0.7-1.4,1.3-2.4,1.7c-1,0.4-2.1,0.6-3.4,0.6c-1.3,0-2.5-0.3-3.5-0.9s-1.8-1.4-2.3-2.6
					c-0.5-1.1-0.8-2.4-0.9-3.9v-1.2c0-2.4,0.6-4.2,1.7-5.5c1.1-1.3,2.7-2,4.7-2c1.7,0,3.1,0.4,4.1,1.3c1,0.9,1.6,2.1,1.8,3.7h-2.7
					c-0.3-1.9-1.4-2.8-3.3-2.8c-1.2,0-2.1,0.4-2.8,1.3c-0.6,0.9-1,2.2-1,3.9v1.2c0,1.7,0.4,3,1.1,3.9s1.7,1.4,3,1.4
					c1.4,0,2.4-0.3,3-0.9v-3.1h-3.2v-2.1h5.9V367.6z"/>
				<path class="st4" d="M1281.8,363.8v5.8h-2.7v-15.6h6c1.7,0,3.1,0.5,4.2,1.4c1,0.9,1.5,2.1,1.5,3.6c0,1.5-0.5,2.7-1.5,3.6
					c-1,0.9-2.4,1.3-4.2,1.3H1281.8z M1281.8,361.6h3.3c1,0,1.7-0.2,2.2-0.7c0.5-0.5,0.8-1.1,0.8-2c0-0.8-0.3-1.5-0.8-2
					c-0.5-0.5-1.2-0.8-2.1-0.8h-3.3V361.6z"/>
				<path class="st4" d="M1305.3,353.9v10.5c0,1.7-0.5,3-1.6,3.9c-1.1,1-2.5,1.5-4.2,1.5c-1.8,0-3.2-0.5-4.3-1.4
					c-1.1-1-1.6-2.3-1.6-4v-10.4h2.7v10.5c0,1,0.3,1.8,0.8,2.4s1.3,0.8,2.3,0.8c2.1,0,3.1-1.1,3.1-3.3v-10.4H1305.3z"/>
				<path class="st4" d="M1318.9,369.6h-10.5v-1.8l5.2-5.7c0.8-0.8,1.3-1.5,1.6-2.1c0.3-0.6,0.5-1.1,0.5-1.7c0-0.7-0.2-1.3-0.6-1.8
					s-1-0.7-1.7-0.7c-0.8,0-1.5,0.3-2,0.8c-0.5,0.5-0.7,1.2-0.7,2.1h-2.6c0-1,0.2-1.8,0.6-2.6c0.4-0.8,1.1-1.4,1.9-1.8
					s1.7-0.6,2.8-0.6c1.5,0,2.7,0.4,3.6,1.1c0.9,0.8,1.3,1.8,1.3,3.2c0,0.8-0.2,1.6-0.7,2.5c-0.4,0.9-1.2,1.8-2.2,2.9l-3.8,4.1h7.3
					V369.6z"/>
			</g>
			<g class="st3">
				<path class="st4" d="M1393.5,367.6c-0.6,0.7-1.4,1.3-2.4,1.7c-1,0.4-2.1,0.6-3.4,0.6c-1.3,0-2.5-0.3-3.5-0.9s-1.8-1.4-2.3-2.6
					c-0.5-1.1-0.8-2.4-0.9-3.9v-1.2c0-2.4,0.6-4.2,1.7-5.5c1.1-1.3,2.7-2,4.7-2c1.7,0,3.1,0.4,4.1,1.3c1,0.9,1.6,2.1,1.8,3.7h-2.7
					c-0.3-1.9-1.4-2.8-3.3-2.8c-1.2,0-2.1,0.4-2.8,1.3c-0.6,0.9-1,2.2-1,3.9v1.2c0,1.7,0.4,3,1.1,3.9s1.7,1.4,3,1.4
					c1.4,0,2.4-0.3,3-0.9v-3.1h-3.2v-2.1h5.9V367.6z"/>
				<path class="st4" d="M1399.8,363.8v5.8h-2.7v-15.6h6c1.7,0,3.1,0.5,4.2,1.4c1,0.9,1.5,2.1,1.5,3.6c0,1.5-0.5,2.7-1.5,3.6
					c-1,0.9-2.4,1.3-4.2,1.3H1399.8z M1399.8,361.6h3.3c1,0,1.7-0.2,2.2-0.7c0.5-0.5,0.8-1.1,0.8-2c0-0.8-0.3-1.5-0.8-2
					c-0.5-0.5-1.2-0.8-2.1-0.8h-3.3V361.6z"/>
				<path class="st4" d="M1423.3,353.9v10.5c0,1.7-0.5,3-1.6,3.9c-1.1,1-2.5,1.5-4.2,1.5c-1.8,0-3.2-0.5-4.3-1.4
					c-1.1-1-1.6-2.3-1.6-4v-10.4h2.7v10.5c0,1,0.3,1.8,0.8,2.4s1.3,0.8,2.3,0.8c2.1,0,3.1-1.1,3.1-3.3v-10.4H1423.3z"/>
				<path class="st4" d="M1429.4,360.6h1.6c0.8,0,1.4-0.2,1.9-0.6s0.7-1,0.7-1.8c0-0.7-0.2-1.3-0.6-1.7c-0.4-0.4-1-0.6-1.8-0.6
					c-0.7,0-1.3,0.2-1.7,0.6c-0.5,0.4-0.7,0.9-0.7,1.6h-2.6c0-0.8,0.2-1.5,0.6-2.2s1-1.2,1.8-1.5c0.8-0.4,1.6-0.6,2.6-0.6
					c1.6,0,2.8,0.4,3.7,1.2c0.9,0.8,1.3,1.9,1.3,3.3c0,0.7-0.2,1.4-0.7,2c-0.4,0.6-1,1.1-1.7,1.4c0.9,0.3,1.5,0.8,2,1.4
					s0.7,1.4,0.7,2.3c0,1.4-0.5,2.5-1.4,3.4s-2.2,1.2-3.8,1.2c-1.5,0-2.7-0.4-3.7-1.2c-1-0.8-1.4-1.9-1.4-3.2h2.6
					c0,0.7,0.2,1.2,0.7,1.7s1.1,0.6,1.9,0.6c0.8,0,1.4-0.2,1.9-0.6c0.5-0.4,0.7-1.1,0.7-1.9c0-0.8-0.2-1.5-0.7-1.9
					c-0.5-0.4-1.2-0.7-2.2-0.7h-1.5V360.6z"/>
			</g>
		</g>
		<g>
			<rect x="995.5" y="830.7" class="st1" width="118" height="69.3"/>
			<rect x="1113.5" y="830.7" class="st1" width="118" height="69.3"/>
			<rect x="995.5" y="700" class="st5" width="118" height="130.7"/>
			<rect x="1113.5" y="700" class="st5" width="118" height="130.7"/>
			<rect x="1113.5" y="657" class="st2" width="118" height="243"/>
			<rect x="995.5" y="657" class="st2" width="118" height="243"/>
			<rect x="1349.5" y="657" class="st2" width="118" height="243"/>
			<rect x="1231.5" y="657" class="st2" width="118" height="243"/>
			<g class="st3">
				<path class="st4" d="M1089,591.4h-8.6l-1.8,5.2h-4l8.4-22.3h3.5l8.4,22.3h-4L1089,591.4z M1081.5,588.3h6.5l-3.2-9.2
					L1081.5,588.3z"/>
				<path class="st4" d="M1110.1,580l0.1,1.9c1.2-1.5,2.8-2.2,4.8-2.2c3.5,0,5.2,2,5.3,5.9v10.9h-3.7v-10.7c0-1.1-0.2-1.8-0.7-2.3
					c-0.5-0.5-1.2-0.8-2.2-0.8c-1.5,0-2.6,0.7-3.4,2v11.8h-3.7V580H1110.1z"/>
				<path class="st4" d="M1124.3,588.2c0-1.6,0.3-3.1,1-4.4c0.6-1.3,1.5-2.3,2.7-3c1.2-0.7,2.5-1,4-1c2.2,0,4,0.7,5.4,2.2
					c1.4,1.4,2.1,3.3,2.3,5.7l0,0.9c0,1.6-0.3,3.1-0.9,4.4c-0.6,1.3-1.5,2.3-2.7,3c-1.2,0.7-2.5,1.1-4.1,1.1c-2.3,0-4.2-0.8-5.6-2.3
					c-1.4-1.6-2.1-3.6-2.1-6.2V588.2z M1128.1,588.5c0,1.7,0.4,3,1.1,4c0.7,1,1.7,1.4,2.9,1.4s2.2-0.5,2.9-1.5c0.7-1,1-2.4,1-4.3
					c0-1.7-0.4-3-1.1-4c-0.7-1-1.7-1.5-2.9-1.5c-1.2,0-2.2,0.5-2.9,1.4C1128.4,585.1,1128.1,586.6,1128.1,588.5z"/>
				<path class="st4" d="M1143.1,588.2c0-2.6,0.6-4.6,1.8-6.1c1.2-1.5,2.8-2.3,4.8-2.3c1.8,0,3.2,0.6,4.3,1.8v-8.5h3.7v23.5h-3.4
					l-0.2-1.7c-1.1,1.3-2.6,2-4.5,2c-1.9,0-3.5-0.8-4.7-2.3C1143.7,593,1143.1,590.9,1143.1,588.2z M1146.8,588.5c0,1.7,0.3,3,1,3.9
					s1.6,1.4,2.8,1.4c1.5,0,2.6-0.7,3.3-2v-7.1c-0.7-1.3-1.8-2-3.3-2c-1.2,0-2.1,0.5-2.8,1.4
					C1147.2,585.1,1146.8,586.6,1146.8,588.5z"/>
				<path class="st4" d="M1169.7,596.9c-2.4,0-4.3-0.7-5.7-2.2s-2.2-3.5-2.2-5.9v-0.5c0-1.7,0.3-3.1,1-4.4c0.6-1.3,1.5-2.3,2.7-3
					c1.2-0.7,2.4-1.1,3.9-1.1c2.3,0,4,0.7,5.2,2.2c1.2,1.4,1.8,3.5,1.8,6.1v1.5h-10.8c0.1,1.4,0.6,2.5,1.4,3.2
					c0.8,0.8,1.8,1.2,3,1.2c1.7,0,3.1-0.7,4.2-2.1l2,1.9c-0.7,1-1.5,1.8-2.7,2.3S1171.1,596.9,1169.7,596.9z M1169.3,582.7
					c-1,0-1.8,0.4-2.5,1.1s-1,1.7-1.2,3h7.1v-0.3c-0.1-1.2-0.4-2.2-1-2.8C1171.1,583,1170.3,582.7,1169.3,582.7z"/>
				<path class="st4" d="M1203.4,591.5l2.6-11.4h3.6l-4.5,16.6h-3.1l-3.6-11.4l-3.5,11.4h-3.1l-4.5-16.6h3.6l2.7,11.3l3.4-11.3h2.8
					L1203.4,591.5z"/>
				<path class="st4" d="M1213.1,575.7c0-0.6,0.2-1,0.5-1.4s0.9-0.6,1.6-0.6s1.2,0.2,1.6,0.6s0.6,0.9,0.6,1.4c0,0.6-0.2,1-0.6,1.4
					s-0.9,0.6-1.6,0.6s-1.2-0.2-1.6-0.6S1213.1,576.3,1213.1,575.7z M1217.1,596.6h-3.7V580h3.7V596.6z"/>
				<path class="st4" d="M1226.7,576v4h2.9v2.8h-2.9v9.2c0,0.6,0.1,1.1,0.4,1.4c0.2,0.3,0.7,0.4,1.3,0.4c0.4,0,0.9-0.1,1.3-0.2v2.9
					c-0.8,0.2-1.7,0.4-2.5,0.4c-2.9,0-4.3-1.6-4.3-4.7v-9.4h-2.7V580h2.7v-4H1226.7z"/>
				<path class="st4" d="M1237,581.8c1.2-1.4,2.8-2.1,4.6-2.1c3.5,0,5.3,2,5.4,6v10.8h-3.7v-10.7c0-1.1-0.2-2-0.7-2.4
					c-0.5-0.5-1.2-0.7-2.2-0.7c-1.5,0-2.6,0.7-3.3,2v11.8h-3.7v-23.5h3.7V581.8z"/>
				<path class="st4" d="M1272.7,588.6h2.8v3h-2.8v5h-3.7v-5h-9.6l-0.1-2.3l9.6-15.1h3.8V588.6z M1263.2,588.6h5.8v-9.3l-0.3,0.5
					L1263.2,588.6z"/>
				<path class="st4" d="M1287.1,591l4.8-4.9l-4.8-4.9l2.3-2.3l4.8,4.9l4.8-4.9l2.3,2.3l-4.8,4.9l4.8,4.9l-2.3,2.3l-4.8-4.9
					l-4.8,4.9L1287.1,591z"/>
				<path class="st4" d="M1322.4,591.7l5.7-17.4h4.3l-8,22.3h-3.8l-8-22.3h4.2L1322.4,591.7z"/>
				<path class="st4" d="M1345.2,596.6h-3.7v-17.9l-5.5,1.9v-3.1l8.7-3.2h0.5V596.6z"/>
				<path class="st4" d="M1368.4,587.2c0,3.2-0.6,5.6-1.8,7.3c-1.2,1.6-3,2.4-5.5,2.4c-2.4,0-4.2-0.8-5.4-2.4
					c-1.2-1.6-1.8-3.9-1.9-7.1v-3.9c0-3.2,0.6-5.6,1.8-7.2c1.2-1.6,3-2.4,5.5-2.4c2.4,0,4.3,0.8,5.5,2.3c1.2,1.6,1.8,3.9,1.8,7
					V587.2z M1364.7,583c0-2.1-0.3-3.6-0.9-4.6c-0.6-1-1.5-1.5-2.7-1.5c-1.2,0-2.1,0.5-2.7,1.4s-0.9,2.4-0.9,4.3v5.1
					c0,2.1,0.3,3.6,0.9,4.7c0.6,1,1.5,1.5,2.7,1.5c1.2,0,2.1-0.5,2.6-1.4c0.6-0.9,0.9-2.4,0.9-4.4V583z"/>
				<path class="st4" d="M1387.1,587.2c0,3.2-0.6,5.6-1.8,7.3c-1.2,1.6-3,2.4-5.5,2.4c-2.4,0-4.2-0.8-5.4-2.4
					c-1.2-1.6-1.8-3.9-1.9-7.1v-3.9c0-3.2,0.6-5.6,1.8-7.2s3-2.4,5.5-2.4c2.4,0,4.3,0.8,5.5,2.3c1.2,1.6,1.8,3.9,1.8,7V587.2z
					 M1383.4,583c0-2.1-0.3-3.6-0.9-4.6c-0.6-1-1.5-1.5-2.7-1.5c-1.2,0-2.1,0.5-2.7,1.4c-0.6,0.9-0.9,2.4-0.9,4.3v5.1
					c0,2.1,0.3,3.6,0.9,4.7s1.5,1.5,2.7,1.5c1.2,0,2.1-0.5,2.7-1.4c0.6-0.9,0.9-2.4,0.9-4.4V583z"/>
			</g>
			<g class="st3">
				<path class="st4" d="M1192.4,625.2c0-2.4,0.3-4.6,0.9-6.7s1.6-4,2.8-5.7c1.2-1.7,2.5-2.8,3.9-3.5l0.7,2.2
					c-1.4,1.1-2.6,2.8-3.5,5c-0.9,2.2-1.4,4.8-1.5,7.7l0,1.3c0,3.1,0.4,5.9,1.3,8.3c0.9,2.4,2.1,4.3,3.7,5.5l-0.7,2.1
					c-1.4-0.7-2.7-1.9-3.9-3.5c-1.2-1.7-2.2-3.6-2.8-5.7C1192.7,630,1192.4,627.7,1192.4,625.2z"/>
				<path class="st4" d="M1208.3,621.4h2.3c1.1,0,2-0.3,2.7-0.9c0.7-0.6,1-1.4,1-2.5c0-1.1-0.3-1.9-0.8-2.5
					c-0.6-0.6-1.4-0.9-2.5-0.9c-1,0-1.8,0.3-2.5,0.9c-0.6,0.6-1,1.3-1,2.3h-3.7c0-1.1,0.3-2.2,0.9-3.1s1.5-1.7,2.5-2.2
					c1.1-0.5,2.3-0.8,3.7-0.8c2.2,0,4,0.6,5.2,1.7c1.3,1.1,1.9,2.7,1.9,4.7c0,1-0.3,1.9-1,2.8c-0.6,0.9-1.5,1.5-2.5,2
					c1.2,0.4,2.2,1.1,2.8,2c0.6,0.9,1,2,1,3.2c0,2-0.7,3.6-2.1,4.8c-1.4,1.2-3.2,1.8-5.4,1.8c-2.1,0-3.9-0.6-5.3-1.7
					c-1.4-1.1-2.1-2.7-2.1-4.6h3.7c0,1,0.3,1.8,1,2.4c0.7,0.6,1.5,0.9,2.7,0.9c1.2,0,2.1-0.3,2.7-0.9c0.7-0.6,1-1.5,1-2.7
					c0-1.2-0.3-2.1-1-2.7s-1.7-0.9-3.1-0.9h-2.2V621.4z"/>
				<path class="st4" d="M1237.7,634.2h-15v-2.6l7.4-8.1c1.1-1.2,1.8-2.2,2.3-3c0.5-0.8,0.7-1.6,0.7-2.4c0-1.1-0.3-1.9-0.9-2.6
					c-0.6-0.7-1.4-1-2.4-1c-1.2,0-2.1,0.4-2.8,1.1c-0.7,0.7-1,1.7-1,3h-3.7c0-1.4,0.3-2.6,0.9-3.7c0.6-1.1,1.5-1.9,2.6-2.5
					c1.1-0.6,2.5-0.9,4-0.9c2.2,0,3.9,0.5,5.1,1.6c1.2,1.1,1.9,2.6,1.9,4.5c0,1.1-0.3,2.3-0.9,3.5c-0.6,1.2-1.7,2.6-3.1,4.2
					l-5.5,5.8h10.4V634.2z"/>
				<path class="st4" d="M1259.1,631.3c-0.8,1.1-1.9,1.8-3.4,2.4c-1.4,0.5-3.1,0.8-4.9,0.8c-1.9,0-3.5-0.4-5-1.3
					c-1.4-0.8-2.5-2.1-3.3-3.6c-0.8-1.6-1.2-3.4-1.2-5.5v-1.7c0-3.4,0.8-6,2.4-7.9s3.9-2.8,6.8-2.8c2.5,0,4.5,0.6,5.9,1.8
					c1.5,1.2,2.3,3,2.6,5.3h-3.8c-0.4-2.7-2-4-4.7-4c-1.7,0-3.1,0.6-4,1.9c-0.9,1.2-1.4,3.1-1.4,5.5v1.7c0,2.4,0.5,4.3,1.5,5.6
					c1,1.3,2.4,2,4.2,2c2,0,3.4-0.4,4.2-1.3v-4.4h-4.6v-2.9h8.5V631.3z"/>
				<path class="st4" d="M1271.1,625.4c0,2.3-0.3,4.5-0.9,6.6c-0.6,2.1-1.6,4-2.8,5.8c-1.3,1.7-2.6,2.9-4,3.6l-0.7-2.1
					c1.5-1.2,2.7-3,3.6-5.4c0.9-2.4,1.3-5.2,1.3-8.3v-0.4c0-2.8-0.4-5.4-1.2-7.8c-0.8-2.3-1.9-4.2-3.3-5.6l-0.5-0.4l0.7-2.1
					c1.3,0.6,2.6,1.8,3.8,3.4c1.2,1.6,2.2,3.4,2.8,5.4c0.7,2,1,4.1,1.1,6.2L1271.1,625.4z"/>
			</g>
			<g class="st3">
				<path class="st4" d="M1134.3,946c0,2.2-0.4,4.1-1.1,5.8c-0.8,1.6-1.8,2.9-3.2,3.8c-1.4,0.9-3,1.3-4.8,1.3
					c-1.8,0-3.4-0.4-4.8-1.3c-1.4-0.9-2.5-2.1-3.3-3.8c-0.8-1.6-1.2-3.5-1.2-5.7v-1.3c0-2.2,0.4-4.1,1.2-5.8
					c0.8-1.7,1.9-2.9,3.3-3.8c1.4-0.9,3-1.3,4.8-1.3s3.4,0.4,4.8,1.3s2.5,2.1,3.3,3.8s1.2,3.5,1.2,5.7V946z M1130.4,944.9
					c0-2.5-0.5-4.4-1.4-5.7c-0.9-1.3-2.3-2-4-2c-1.7,0-3,0.7-3.9,2s-1.4,3.2-1.4,5.6v1.3c0,2.5,0.5,4.3,1.4,5.7c1,1.3,2.3,2,4,2
					c1.7,0,3-0.7,4-2s1.4-3.2,1.4-5.7V944.9z"/>
				<path class="st4" d="M1145.5,953.9c0.9,0,1.7-0.3,2.3-0.8c0.6-0.5,0.9-1.2,1-2h3.5c0,1-0.4,2-1,2.9c-0.6,0.9-1.4,1.6-2.5,2.1
					s-2.1,0.8-3.3,0.8c-2.3,0-4.2-0.8-5.5-2.3c-1.4-1.5-2-3.6-2-6.2V948c0-2.5,0.7-4.5,2-6.1s3.2-2.3,5.5-2.3c2,0,3.6,0.6,4.8,1.7
					s1.9,2.7,2,4.5h-3.5c0-0.9-0.4-1.7-1-2.3c-0.6-0.6-1.4-0.9-2.3-0.9c-1.2,0-2.1,0.4-2.8,1.3s-1,2.2-1,4v0.6c0,1.8,0.3,3.1,1,4
					C1143.3,953.5,1144.3,953.9,1145.5,953.9z"/>
				<path class="st4" d="M1162.8,953.9c0.9,0,1.7-0.3,2.3-0.8c0.6-0.5,0.9-1.2,1-2h3.5c0,1-0.4,2-1,2.9c-0.6,0.9-1.4,1.6-2.5,2.1
					s-2.1,0.8-3.3,0.8c-2.3,0-4.2-0.8-5.5-2.3c-1.4-1.5-2-3.6-2-6.2V948c0-2.5,0.7-4.5,2-6.1s3.2-2.3,5.5-2.3c2,0,3.6,0.6,4.8,1.7
					s1.9,2.7,2,4.5h-3.5c0-0.9-0.4-1.7-1-2.3c-0.6-0.6-1.4-0.9-2.3-0.9c-1.2,0-2.1,0.4-2.8,1.3s-1,2.2-1,4v0.6c0,1.8,0.3,3.1,1,4
					C1160.6,953.5,1161.6,953.9,1162.8,953.9z"/>
				<path class="st4" d="M1183.4,955c-1.1,1.3-2.6,1.9-4.7,1.9c-1.8,0-3.2-0.5-4.1-1.6c-0.9-1.1-1.4-2.6-1.4-4.6V940h3.7v10.7
					c0,2.1,0.9,3.2,2.6,3.2c1.8,0,3-0.6,3.7-1.9V940h3.7v16.6h-3.5L1183.4,955z"/>
			</g>
			<g class="st3">
				<path class="st4" d="M1206.3,948.5c0,2.6-0.6,4.6-1.7,6.1c-1.2,1.5-2.7,2.3-4.7,2.3c-1.8,0-3.3-0.6-4.4-1.8v7.9h-3.7V940h3.4
					l0.2,1.7c1.1-1.3,2.6-2,4.5-2c2,0,3.6,0.8,4.8,2.3c1.1,1.5,1.7,3.6,1.7,6.3V948.5z M1202.6,948.2c0-1.7-0.3-3-1-3.9
					c-0.7-1-1.6-1.5-2.8-1.5c-1.5,0-2.6,0.6-3.3,1.9v7.3c0.7,1.3,1.8,1.9,3.3,1.9c1.2,0,2.1-0.5,2.8-1.4
					C1202.3,951.5,1202.6,950.1,1202.6,948.2z"/>
			</g>
			<g class="st3">
				<path class="st4" d="M1216,951.3l3.4-11.2h4l-6.6,19.1c-1,2.8-2.7,4.2-5.1,4.2c-0.5,0-1.1-0.1-1.8-0.3v-2.9l0.7,0
					c0.9,0,1.6-0.2,2.1-0.5c0.5-0.3,0.8-0.9,1.1-1.7l0.5-1.4l-5.8-16.5h4L1216,951.3z"/>
				<path class="st4" d="M1249.9,956.6h-15V954l7.4-8.1c1.1-1.2,1.8-2.2,2.3-3c0.5-0.8,0.7-1.6,0.7-2.4c0-1.1-0.3-1.9-0.9-2.6
					c-0.6-0.7-1.4-1-2.4-1c-1.2,0-2.1,0.4-2.8,1.1c-0.7,0.7-1,1.7-1,3h-3.7c0-1.4,0.3-2.6,0.9-3.7c0.6-1.1,1.5-1.9,2.6-2.5
					c1.1-0.6,2.5-0.9,4-0.9c2.2,0,3.9,0.5,5.1,1.6c1.2,1.1,1.9,2.6,1.9,4.5c0,1.1-0.3,2.3-0.9,3.5c-0.6,1.2-1.7,2.6-3.1,4.2
					l-5.5,5.8h10.4V956.6z"/>
				<path class="st4" d="M1280,953.7c-0.8,1.1-1.9,1.8-3.4,2.4c-1.4,0.5-3.1,0.8-4.9,0.8c-1.9,0-3.5-0.4-5-1.3
					c-1.4-0.8-2.5-2.1-3.3-3.6s-1.2-3.4-1.2-5.5v-1.7c0-3.4,0.8-6,2.4-7.9c1.6-1.9,3.9-2.8,6.8-2.8c2.5,0,4.5,0.6,5.9,1.8
					s2.3,3,2.6,5.3h-3.8c-0.4-2.7-2-4-4.7-4c-1.7,0-3.1,0.6-4,1.9c-0.9,1.2-1.4,3.1-1.4,5.5v1.7c0,2.4,0.5,4.3,1.5,5.6s2.4,2,4.2,2
					c2,0,3.4-0.4,4.2-1.3v-4.4h-4.6v-2.9h8.5V953.7z"/>
				<path class="st4" d="M1289.1,948.3v8.3h-3.9v-22.3h8.5c2.5,0,4.5,0.6,5.9,1.9c1.5,1.3,2.2,3,2.2,5.2c0,2.2-0.7,3.9-2.2,5.1
					s-3.4,1.8-6,1.8H1289.1z M1289.1,945.2h4.7c1.4,0,2.4-0.3,3.2-1c0.7-0.6,1.1-1.6,1.1-2.8c0-1.2-0.4-2.2-1.1-2.9
					c-0.7-0.7-1.7-1.1-3-1.1h-4.8V945.2z"/>
				<path class="st4" d="M1322.4,934.3v14.9c0,2.4-0.8,4.2-2.3,5.6c-1.5,1.4-3.5,2.1-6.1,2.1c-2.6,0-4.6-0.7-6.1-2
					c-1.5-1.4-2.3-3.3-2.3-5.7v-14.9h3.9v14.9c0,1.5,0.4,2.6,1.1,3.4c0.8,0.8,1.9,1.2,3.3,1.2c3,0,4.5-1.6,4.5-4.7v-14.8H1322.4z"/>
				<path class="st4" d="M1336.4,952.1c0-0.7-0.3-1.2-0.8-1.5s-1.5-0.7-2.7-0.9c-1.3-0.3-2.3-0.6-3.2-1c-1.9-0.9-2.8-2.2-2.8-3.9
					c0-1.4,0.6-2.6,1.8-3.6c1.2-1,2.7-1.4,4.6-1.4c2,0,3.6,0.5,4.8,1.5c1.2,1,1.8,2.3,1.8,3.8h-3.7c0-0.7-0.3-1.3-0.8-1.8
					c-0.5-0.5-1.2-0.7-2.1-0.7c-0.8,0-1.5,0.2-2,0.6c-0.5,0.4-0.8,0.9-0.8,1.5c0,0.6,0.2,1,0.7,1.3c0.5,0.3,1.5,0.6,2.9,1
					c1.5,0.3,2.6,0.7,3.4,1.1s1.4,1,1.9,1.6c0.4,0.6,0.6,1.4,0.6,2.3c0,1.5-0.6,2.7-1.9,3.6s-2.9,1.4-4.9,1.4
					c-1.4,0-2.6-0.2-3.6-0.7s-1.9-1.2-2.5-2s-0.9-1.8-0.9-2.8h3.6c0.1,0.9,0.4,1.6,1,2c0.6,0.5,1.4,0.7,2.4,0.7c1,0,1.7-0.2,2.2-0.6
					C1336.2,953.2,1336.4,952.7,1336.4,952.1z"/>
				<path class="st4" d="M1344.7,961.6l-2-1.2c0.6-0.9,1-1.7,1.2-2.4c0.2-0.7,0.3-1.4,0.3-2.1V953h3.4l0,2.7c0,1.1-0.3,2.2-0.8,3.3
					S1345.6,960.9,1344.7,961.6z"/>
			</g>
			<g class="st3">
				<path class="st4" d="M1119.2,998.2c-1.1,1.3-2.6,1.9-4.7,1.9c-1.8,0-3.2-0.5-4.1-1.6c-0.9-1.1-1.4-2.6-1.4-4.6v-10.7h3.7v10.7
					c0,2.1,0.9,3.2,2.6,3.2c1.8,0,3-0.6,3.7-1.9v-11.9h3.7v16.6h-3.5L1119.2,998.2z"/>
				<path class="st4" d="M1132.1,979.2v4h2.9v2.8h-2.9v9.2c0,0.6,0.1,1.1,0.4,1.4c0.2,0.3,0.7,0.4,1.3,0.4c0.4,0,0.9-0.1,1.3-0.2
					v2.9c-0.8,0.2-1.7,0.4-2.5,0.4c-2.9,0-4.3-1.6-4.3-4.7V986h-2.7v-2.8h2.7v-4H1132.1z"/>
				<path class="st4" d="M1138.8,978.9c0-0.6,0.2-1,0.5-1.4s0.9-0.6,1.6-0.6s1.2,0.2,1.6,0.6c0.4,0.4,0.6,0.9,0.6,1.4
					c0,0.6-0.2,1-0.6,1.4c-0.4,0.4-0.9,0.6-1.6,0.6s-1.2-0.2-1.6-0.6S1138.8,979.5,1138.8,978.9z M1142.8,999.8h-3.7v-16.6h3.7
					V999.8z"/>
				<path class="st4" d="M1151.7,999.8h-3.7v-23.5h3.7V999.8z"/>
				<path class="st4" d="M1156.6,978.9c0-0.6,0.2-1,0.5-1.4s0.9-0.6,1.6-0.6s1.2,0.2,1.6,0.6c0.4,0.4,0.6,0.9,0.6,1.4
					c0,0.6-0.2,1-0.6,1.4c-0.4,0.4-0.9,0.6-1.6,0.6s-1.2-0.2-1.6-0.6S1156.6,979.5,1156.6,978.9z M1160.6,999.8h-3.7v-16.6h3.7
					V999.8z"/>
				<path class="st4" d="M1169.5,996.8h8.8v3h-13.4v-2.4l8.4-11.1h-8.3v-3h13v2.4L1169.5,996.8z"/>
				<path class="st4" d="M1192.1,999.8c-0.2-0.3-0.3-0.8-0.4-1.5c-1.2,1.2-2.6,1.9-4.3,1.9c-1.7,0-3-0.5-4.1-1.4
					c-1.1-0.9-1.6-2.1-1.6-3.5c0-1.8,0.7-3.1,2-4.1s3.2-1.4,5.6-1.4h2.3v-1.1c0-0.9-0.2-1.5-0.7-2.1c-0.5-0.5-1.2-0.8-2.2-0.8
					c-0.8,0-1.5,0.2-2.1,0.6c-0.5,0.4-0.8,1-0.8,1.6h-3.7c0-0.9,0.3-1.8,0.9-2.5s1.4-1.4,2.5-1.9s2.2-0.7,3.5-0.7
					c1.9,0,3.5,0.5,4.6,1.5c1.2,1,1.7,2.3,1.8,4.1v7.5c0,1.5,0.2,2.7,0.6,3.6v0.3H1192.1z M1188,997.1c0.7,0,1.4-0.2,2.1-0.5
					c0.6-0.4,1.1-0.8,1.5-1.4V992h-2c-1.4,0-2.4,0.2-3.1,0.7c-0.7,0.5-1,1.2-1,2c0,0.7,0.2,1.3,0.7,1.7
					C1186.6,996.9,1187.2,997.1,1188,997.1z"/>
				<path class="st4" d="M1204.8,979.2v4h2.9v2.8h-2.9v9.2c0,0.6,0.1,1.1,0.4,1.4c0.2,0.3,0.7,0.4,1.3,0.4c0.4,0,0.9-0.1,1.3-0.2
					v2.9c-0.8,0.2-1.7,0.4-2.4,0.4c-2.9,0-4.3-1.6-4.3-4.7V986h-2.7v-2.8h2.7v-4H1204.8z"/>
				<path class="st4" d="M1211.5,978.9c0-0.6,0.2-1,0.5-1.4s0.9-0.6,1.6-0.6s1.2,0.2,1.6,0.6c0.4,0.4,0.6,0.9,0.6,1.4
					c0,0.6-0.2,1-0.6,1.4c-0.4,0.4-0.9,0.6-1.6,0.6s-1.2-0.2-1.6-0.6S1211.5,979.5,1211.5,978.9z M1215.4,999.8h-3.7v-16.6h3.7
					V999.8z"/>
				<path class="st4" d="M1219.7,991.4c0-1.6,0.3-3.1,1-4.4c0.6-1.3,1.5-2.3,2.7-3s2.5-1,4-1c2.2,0,4.1,0.7,5.4,2.2
					c1.4,1.4,2.1,3.3,2.3,5.7l0,0.9c0,1.6-0.3,3.1-0.9,4.4s-1.5,2.3-2.7,3c-1.2,0.7-2.5,1.1-4,1.1c-2.3,0-4.2-0.8-5.6-2.3
					c-1.4-1.6-2.1-3.6-2.1-6.2V991.4z M1223.4,991.7c0,1.7,0.4,3,1.1,4s1.7,1.4,2.9,1.4c1.3,0,2.2-0.5,2.9-1.5c0.7-1,1-2.4,1-4.3
					c0-1.7-0.4-3-1.1-4c-0.7-1-1.7-1.5-2.9-1.5c-1.2,0-2.2,0.5-2.9,1.4C1223.7,988.3,1223.4,989.8,1223.4,991.7z"/>
				<path class="st4" d="M1242.6,983.2l0.1,1.9c1.2-1.5,2.8-2.2,4.8-2.2c3.5,0,5.2,2,5.3,5.9v10.9h-3.7v-10.7c0-1.1-0.2-1.8-0.7-2.3
					c-0.5-0.5-1.2-0.8-2.2-0.8c-1.5,0-2.6,0.7-3.4,2v11.8h-3.7v-16.6H1242.6z"/>
			</g>
			<g class="st3">
				<path class="st0" d="M1278.8,999.8h-5.1v-19.6l-6.1,1.9V978l10.6-3.8h0.5V999.8z"/>
				<path class="st0" d="M1305.3,989.2c0,3.5-0.7,6.2-2.2,8.1s-3.6,2.8-6.4,2.8c-2.8,0-4.9-0.9-6.4-2.8s-2.2-4.5-2.3-7.9v-4.7
					c0-3.6,0.7-6.3,2.2-8.1s3.6-2.8,6.4-2.8s4.9,0.9,6.4,2.8s2.2,4.5,2.3,7.9V989.2z M1300.3,984c0-2.1-0.3-3.7-0.9-4.6
					c-0.6-1-1.5-1.5-2.7-1.5c-1.2,0-2.1,0.5-2.6,1.4c-0.6,0.9-0.9,2.4-0.9,4.3v6.2c0,2.1,0.3,3.6,0.9,4.7s1.5,1.5,2.7,1.5
					c1.2,0,2.1-0.5,2.7-1.5s0.8-2.5,0.9-4.5V984z"/>
				<path class="st0" d="M1327,989.2c0,3.5-0.7,6.2-2.2,8.1s-3.6,2.8-6.4,2.8c-2.8,0-4.9-0.9-6.4-2.8s-2.2-4.5-2.3-7.9v-4.7
					c0-3.6,0.7-6.3,2.2-8.1s3.6-2.8,6.4-2.8s4.9,0.9,6.4,2.8s2.2,4.5,2.3,7.9V989.2z M1322,984c0-2.1-0.3-3.7-0.9-4.6
					c-0.6-1-1.5-1.5-2.7-1.5c-1.2,0-2.1,0.5-2.6,1.4c-0.6,0.9-0.9,2.4-0.9,4.3v6.2c0,2.1,0.3,3.6,0.9,4.7s1.5,1.5,2.7,1.5
					c1.2,0,2.1-0.5,2.7-1.5s0.8-2.5,0.9-4.5V984z"/>
				<path class="st0" d="M1331.4,979.1c0-1.6,0.5-2.8,1.5-3.8s2.4-1.5,4-1.5c1.7,0,3,0.5,4,1.5s1.5,2.3,1.5,3.9v1.3
					c0,1.6-0.5,2.9-1.5,3.8s-2.4,1.4-4,1.4c-1.7,0-3-0.5-4-1.5s-1.5-2.3-1.5-3.9V979.1z M1334.8,980.5c0,0.7,0.2,1.3,0.6,1.7
					s0.9,0.6,1.6,0.6s1.2-0.2,1.6-0.7s0.6-1,0.6-1.7v-1.3c0-0.7-0.2-1.3-0.6-1.7s-0.9-0.7-1.6-0.7c-0.6,0-1.2,0.2-1.6,0.6
					s-0.6,1-0.6,1.8V980.5z M1338,997.9l-2.5-1.3l12.5-20l2.5,1.3L1338,997.9z M1343.7,993.5c0-1.6,0.5-2.9,1.5-3.8s2.4-1.5,4-1.5
					c1.7,0,3,0.5,4,1.4s1.5,2.3,1.5,3.9v1.3c0,1.6-0.5,2.8-1.5,3.8s-2.3,1.5-4,1.5c-1.7,0-3-0.5-4.1-1.5s-1.5-2.3-1.5-3.9V993.5z
					 M1347,994.9c0,0.6,0.2,1.2,0.6,1.7s0.9,0.7,1.6,0.7c1.4,0,2.1-0.8,2.1-2.4v-1.3c0-0.7-0.2-1.3-0.6-1.7s-0.9-0.6-1.6-0.6
					s-1.2,0.2-1.6,0.6s-0.6,1-0.6,1.7V994.9z"/>
			</g>
			<g>
				<polygon class="st9" points="1231.5,657 995.5,657 995.5,700 1231.5,700 1231.5,900 1467.5,900 1467.5,657 				"/>
				<polygon class="st10" points="1231.5,657 995.5,657 995.5,700 1231.5,700 1231.5,900 1467.5,900 1467.5,657 				"/>
			</g>
			<g class="st3">
				<path class="st4" d="M1039.5,881.6c-0.6,0.7-1.4,1.3-2.4,1.7c-1,0.4-2.1,0.6-3.4,0.6c-1.3,0-2.5-0.3-3.5-0.9s-1.8-1.4-2.3-2.6
					c-0.5-1.1-0.8-2.4-0.9-3.9v-1.2c0-2.4,0.6-4.2,1.7-5.5c1.1-1.3,2.7-2,4.7-2c1.7,0,3.1,0.4,4.1,1.3c1,0.9,1.6,2.1,1.8,3.7h-2.7
					c-0.3-1.9-1.4-2.8-3.3-2.8c-1.2,0-2.1,0.4-2.8,1.3c-0.6,0.9-1,2.2-1,3.9v1.2c0,1.7,0.4,3,1.1,3.9s1.7,1.4,3,1.4
					c1.4,0,2.4-0.3,3-0.9v-3.1h-3.2v-2.1h5.9V881.6z"/>
				<path class="st4" d="M1045.8,877.8v5.8h-2.7v-15.6h6c1.7,0,3.1,0.5,4.2,1.4c1,0.9,1.5,2.1,1.5,3.6c0,1.5-0.5,2.7-1.5,3.6
					c-1,0.9-2.4,1.3-4.2,1.3H1045.8z M1045.8,875.6h3.3c1,0,1.7-0.2,2.2-0.7c0.5-0.5,0.8-1.1,0.8-2c0-0.8-0.3-1.5-0.8-2
					c-0.5-0.5-1.2-0.8-2.1-0.8h-3.3V875.6z"/>
				<path class="st4" d="M1069.3,867.9v10.5c0,1.7-0.5,3-1.6,3.9c-1.1,1-2.5,1.5-4.2,1.5c-1.8,0-3.2-0.5-4.3-1.4
					c-1.1-1-1.6-2.3-1.6-4v-10.4h2.7v10.5c0,1,0.3,1.8,0.8,2.4s1.3,0.8,2.3,0.8c2.1,0,3.1-1.1,3.1-3.3v-10.4H1069.3z"/>
				<path class="st4" d="M1082.6,877c0,2.2-0.4,3.9-1.3,5.1c-0.8,1.1-2.1,1.7-3.8,1.7c-1.7,0-3-0.6-3.8-1.7
					c-0.9-1.1-1.3-2.8-1.3-4.9v-2.7c0-2.2,0.4-3.9,1.3-5.1s2.1-1.7,3.9-1.7c1.7,0,3,0.5,3.8,1.6s1.3,2.7,1.3,4.9V877z M1080,874.1
					c0-1.5-0.2-2.5-0.6-3.2c-0.4-0.7-1-1-1.9-1c-0.9,0-1.5,0.3-1.9,1c-0.4,0.6-0.6,1.7-0.6,3v3.5c0,1.5,0.2,2.5,0.6,3.3
					s1,1.1,1.9,1.1c0.8,0,1.5-0.3,1.9-1c0.4-0.7,0.6-1.7,0.6-3.1V874.1z"/>
			</g>
			<g class="st3">
				<path class="st4" d="M1157.5,881.6c-0.6,0.7-1.4,1.3-2.4,1.7c-1,0.4-2.1,0.6-3.4,0.6c-1.3,0-2.5-0.3-3.5-0.9s-1.8-1.4-2.3-2.6
					c-0.5-1.1-0.8-2.4-0.9-3.9v-1.2c0-2.4,0.6-4.2,1.7-5.5c1.1-1.3,2.7-2,4.7-2c1.7,0,3.1,0.4,4.1,1.3c1,0.9,1.6,2.1,1.8,3.7h-2.7
					c-0.3-1.9-1.4-2.8-3.3-2.8c-1.2,0-2.1,0.4-2.8,1.3c-0.6,0.9-1,2.2-1,3.9v1.2c0,1.7,0.4,3,1.1,3.9s1.7,1.4,3,1.4
					c1.4,0,2.4-0.3,3-0.9v-3.1h-3.2v-2.1h5.9V881.6z"/>
				<path class="st4" d="M1163.8,877.8v5.8h-2.7v-15.6h6c1.7,0,3.1,0.5,4.2,1.4c1,0.9,1.5,2.1,1.5,3.6c0,1.5-0.5,2.7-1.5,3.6
					c-1,0.9-2.4,1.3-4.2,1.3H1163.8z M1163.8,875.6h3.3c1,0,1.7-0.2,2.2-0.7c0.5-0.5,0.8-1.1,0.8-2c0-0.8-0.3-1.5-0.8-2
					c-0.5-0.5-1.2-0.8-2.1-0.8h-3.3V875.6z"/>
				<path class="st4" d="M1187.3,867.9v10.5c0,1.7-0.5,3-1.6,3.9c-1.1,1-2.5,1.5-4.2,1.5c-1.8,0-3.2-0.5-4.3-1.4
					c-1.1-1-1.6-2.3-1.6-4v-10.4h2.7v10.5c0,1,0.3,1.8,0.8,2.4s1.3,0.8,2.3,0.8c2.1,0,3.1-1.1,3.1-3.3v-10.4H1187.3z"/>
				<path class="st4" d="M1197.4,883.6h-2.6V871l-3.8,1.3v-2.2l6.1-2.2h0.3V883.6z"/>
			</g>
			<g class="st3">
				<path class="st11" d="M1275.5,881.6c-0.6,0.7-1.4,1.3-2.4,1.7c-1,0.4-2.1,0.6-3.4,0.6c-1.3,0-2.5-0.3-3.5-0.9s-1.8-1.4-2.3-2.6
					c-0.5-1.1-0.8-2.4-0.9-3.9v-1.2c0-2.4,0.6-4.2,1.7-5.5c1.1-1.3,2.7-2,4.7-2c1.7,0,3.1,0.4,4.1,1.3c1,0.9,1.6,2.1,1.8,3.7h-2.7
					c-0.3-1.9-1.4-2.8-3.3-2.8c-1.2,0-2.1,0.4-2.8,1.3c-0.6,0.9-1,2.2-1,3.9v1.2c0,1.7,0.4,3,1.1,3.9s1.7,1.4,3,1.4
					c1.4,0,2.4-0.3,3-0.9v-3.1h-3.2v-2.1h5.9V881.6z"/>
				<path class="st11" d="M1281.8,877.8v5.8h-2.7v-15.6h6c1.7,0,3.1,0.5,4.2,1.4c1,0.9,1.5,2.1,1.5,3.6c0,1.5-0.5,2.7-1.5,3.6
					c-1,0.9-2.4,1.3-4.2,1.3H1281.8z M1281.8,875.6h3.3c1,0,1.7-0.2,2.2-0.7c0.5-0.5,0.8-1.1,0.8-2c0-0.8-0.3-1.5-0.8-2
					c-0.5-0.5-1.2-0.8-2.1-0.8h-3.3V875.6z"/>
				<path class="st11" d="M1305.3,867.9v10.5c0,1.7-0.5,3-1.6,3.9c-1.1,1-2.5,1.5-4.2,1.5c-1.8,0-3.2-0.5-4.3-1.4
					c-1.1-1-1.6-2.3-1.6-4v-10.4h2.7v10.5c0,1,0.3,1.8,0.8,2.4s1.3,0.8,2.3,0.8c2.1,0,3.1-1.1,3.1-3.3v-10.4H1305.3z"/>
				<path class="st11" d="M1318.9,883.6h-10.5v-1.8l5.2-5.7c0.8-0.8,1.3-1.5,1.6-2.1c0.3-0.6,0.5-1.1,0.5-1.7c0-0.7-0.2-1.3-0.6-1.8
					s-1-0.7-1.7-0.7c-0.8,0-1.5,0.3-2,0.8c-0.5,0.5-0.7,1.2-0.7,2.1h-2.6c0-1,0.2-1.8,0.6-2.6c0.4-0.8,1.1-1.4,1.9-1.8
					s1.7-0.6,2.8-0.6c1.5,0,2.7,0.4,3.6,1.1c0.9,0.8,1.3,1.8,1.3,3.2c0,0.8-0.2,1.6-0.7,2.5c-0.4,0.9-1.2,1.8-2.2,2.9l-3.8,4.1h7.3
					V883.6z"/>
			</g>
			<g class="st3">
				<path class="st11" d="M1393.5,881.6c-0.6,0.7-1.4,1.3-2.4,1.7c-1,0.4-2.1,0.6-3.4,0.6c-1.3,0-2.5-0.3-3.5-0.9s-1.8-1.4-2.3-2.6
					c-0.5-1.1-0.8-2.4-0.9-3.9v-1.2c0-2.4,0.6-4.2,1.7-5.5c1.1-1.3,2.7-2,4.7-2c1.7,0,3.1,0.4,4.1,1.3c1,0.9,1.6,2.1,1.8,3.7h-2.7
					c-0.3-1.9-1.4-2.8-3.3-2.8c-1.2,0-2.1,0.4-2.8,1.3c-0.6,0.9-1,2.2-1,3.9v1.2c0,1.7,0.4,3,1.1,3.9s1.7,1.4,3,1.4
					c1.4,0,2.4-0.3,3-0.9v-3.1h-3.2v-2.1h5.9V881.6z"/>
				<path class="st11" d="M1399.8,877.8v5.8h-2.7v-15.6h6c1.7,0,3.1,0.5,4.2,1.4c1,0.9,1.5,2.1,1.5,3.6c0,1.5-0.5,2.7-1.5,3.6
					c-1,0.9-2.4,1.3-4.2,1.3H1399.8z M1399.8,875.6h3.3c1,0,1.7-0.2,2.2-0.7c0.5-0.5,0.8-1.1,0.8-2c0-0.8-0.3-1.5-0.8-2
					c-0.5-0.5-1.2-0.8-2.1-0.8h-3.3V875.6z"/>
				<path class="st11" d="M1423.3,867.9v10.5c0,1.7-0.5,3-1.6,3.9c-1.1,1-2.5,1.5-4.2,1.5c-1.8,0-3.2-0.5-4.3-1.4
					c-1.1-1-1.6-2.3-1.6-4v-10.4h2.7v10.5c0,1,0.3,1.8,0.8,2.4s1.3,0.8,2.3,0.8c2.1,0,3.1-1.1,3.1-3.3v-10.4H1423.3z"/>
				<path class="st11" d="M1429.4,874.6h1.6c0.8,0,1.4-0.2,1.9-0.6s0.7-1,0.7-1.8c0-0.7-0.2-1.3-0.6-1.7c-0.4-0.4-1-0.6-1.8-0.6
					c-0.7,0-1.3,0.2-1.7,0.6c-0.5,0.4-0.7,0.9-0.7,1.6h-2.6c0-0.8,0.2-1.5,0.6-2.2s1-1.2,1.8-1.5c0.8-0.4,1.6-0.6,2.6-0.6
					c1.6,0,2.8,0.4,3.7,1.2c0.9,0.8,1.3,1.9,1.3,3.3c0,0.7-0.2,1.4-0.7,2c-0.4,0.6-1,1.1-1.7,1.4c0.9,0.3,1.5,0.8,2,1.4
					s0.7,1.4,0.7,2.3c0,1.4-0.5,2.5-1.4,3.4s-2.2,1.2-3.8,1.2c-1.5,0-2.7-0.4-3.7-1.2c-1-0.8-1.4-1.9-1.4-3.2h2.6
					c0,0.7,0.2,1.2,0.7,1.7s1.1,0.6,1.9,0.6c0.8,0,1.4-0.2,1.9-0.6c0.5-0.4,0.7-1.1,0.7-1.9c0-0.8-0.2-1.5-0.7-1.9
					c-0.5-0.4-1.2-0.7-2.2-0.7h-1.5V874.6z"/>
			</g>
			<g class="st3">
				<path class="st0" d="M1281.6,769.2h-9v9.4h-3.9v-22.3h14.2v3.1h-10.3v6.6h9V769.2z"/>
			</g>
			<g class="st3">
				<path class="st0" d="M1294.8,765.5c-0.5-0.1-1-0.1-1.5-0.1c-1.7,0-2.9,0.7-3.4,2v11.3h-3.7v-16.6h3.6l0.1,1.9
					c0.9-1.4,2.1-2.2,3.7-2.2c0.5,0,1,0.1,1.3,0.2L1294.8,765.5z"/>
			</g>
			<g class="st3">
				<path class="st0" d="M1305.1,779c-2.4,0-4.3-0.7-5.7-2.2s-2.2-3.5-2.2-5.9v-0.5c0-1.7,0.3-3.1,1-4.4c0.6-1.3,1.5-2.3,2.7-3
					c1.2-0.7,2.4-1.1,3.9-1.1c2.3,0,4,0.7,5.2,2.2c1.2,1.4,1.8,3.5,1.8,6.1v1.5H1301c0.1,1.4,0.6,2.5,1.4,3.2c0.8,0.8,1.8,1.2,3,1.2
					c1.7,0,3.1-0.7,4.2-2.1l2,1.9c-0.7,1-1.5,1.8-2.7,2.3S1306.5,779,1305.1,779z M1304.7,764.8c-1,0-1.8,0.4-2.5,1.1s-1,1.7-1.2,3
					h7.1v-0.3c-0.1-1.2-0.4-2.2-1-2.8C1306.5,765.1,1305.7,764.8,1304.7,764.8z"/>
				<path class="st0" d="M1322.9,779c-2.4,0-4.3-0.7-5.7-2.2s-2.2-3.5-2.2-5.9v-0.5c0-1.7,0.3-3.1,1-4.4c0.6-1.3,1.5-2.3,2.7-3
					c1.2-0.7,2.4-1.1,3.9-1.1c2.3,0,4,0.7,5.2,2.2c1.2,1.4,1.8,3.5,1.8,6.1v1.5h-10.8c0.1,1.4,0.6,2.5,1.4,3.2
					c0.8,0.8,1.8,1.2,3,1.2c1.7,0,3.1-0.7,4.2-2.1l2,1.9c-0.7,1-1.5,1.8-2.7,2.3S1324.3,779,1322.9,779z M1322.4,764.8
					c-1,0-1.8,0.4-2.5,1.1c-0.6,0.7-1,1.7-1.2,3h7.1v-0.3c-0.1-1.2-0.4-2.2-1-2.8C1324.3,765.1,1323.5,764.8,1322.4,764.8z"/>
			</g>
		</g>
		<g>
			<rect x="995.5" y="1215.7" class="st1" width="118" height="69.3"/>
			<rect x="1113.5" y="1215.7" class="st1" width="118" height="69.3"/>
			<rect x="1231.5" y="1154" class="st5" width="118" height="130.7"/>
			<rect x="1349.5" y="1154" class="st5" width="118" height="130.7"/>
			<rect x="1113.5" y="1042" class="st2" width="118" height="243"/>
			<rect x="995.5" y="1042" class="st2" width="118" height="243"/>
			<rect x="1349.5" y="1042" class="st2" width="118" height="243"/>
			<rect x="1231.5" y="1042" class="st2" width="118" height="243"/>
			<g>
				<polygon class="st9" points="1231.5,1042 995.5,1042 995.5,1215 1231.5,1215 1231.5,1155 1467.5,1155 1467.5,1042 				"/>
				<polygon class="st10" points="1231.5,1042 995.5,1042 995.5,1215 1231.5,1215 1231.5,1155 1467.5,1155 1467.5,1042 				"/>
			</g>
			<g class="st3">
				<path class="st4" d="M1039.5,1266.6c-0.6,0.7-1.4,1.3-2.4,1.7c-1,0.4-2.1,0.6-3.4,0.6c-1.3,0-2.5-0.3-3.5-0.9s-1.8-1.4-2.3-2.6
					c-0.5-1.1-0.8-2.4-0.9-3.9v-1.2c0-2.4,0.6-4.2,1.7-5.5c1.1-1.3,2.7-2,4.7-2c1.7,0,3.1,0.4,4.1,1.3c1,0.9,1.6,2.1,1.8,3.7h-2.7
					c-0.3-1.9-1.4-2.8-3.3-2.8c-1.2,0-2.1,0.4-2.8,1.3c-0.6,0.9-1,2.2-1,3.9v1.2c0,1.7,0.4,3,1.1,3.9s1.7,1.4,3,1.4
					c1.4,0,2.4-0.3,3-0.9v-3.1h-3.2v-2.1h5.9V1266.6z"/>
				<path class="st4" d="M1045.8,1262.8v5.8h-2.7v-15.6h6c1.7,0,3.1,0.5,4.2,1.4c1,0.9,1.5,2.1,1.5,3.6c0,1.5-0.5,2.7-1.5,3.6
					c-1,0.9-2.4,1.3-4.2,1.3H1045.8z M1045.8,1260.6h3.3c1,0,1.7-0.2,2.2-0.7c0.5-0.5,0.8-1.1,0.8-2c0-0.8-0.3-1.5-0.8-2
					c-0.5-0.5-1.2-0.8-2.1-0.8h-3.3V1260.6z"/>
				<path class="st4" d="M1069.3,1252.9v10.5c0,1.7-0.5,3-1.6,3.9c-1.1,1-2.5,1.5-4.2,1.5c-1.8,0-3.2-0.5-4.3-1.4
					c-1.1-1-1.6-2.3-1.6-4v-10.4h2.7v10.5c0,1,0.3,1.8,0.8,2.4s1.3,0.8,2.3,0.8c2.1,0,3.1-1.1,3.1-3.3v-10.4H1069.3z"/>
				<path class="st4" d="M1082.6,1262c0,2.2-0.4,3.9-1.3,5.1c-0.8,1.1-2.1,1.7-3.8,1.7c-1.7,0-3-0.6-3.8-1.7
					c-0.9-1.1-1.3-2.8-1.3-4.9v-2.7c0-2.2,0.4-3.9,1.3-5.1s2.1-1.7,3.9-1.7c1.7,0,3,0.5,3.8,1.6s1.3,2.7,1.3,4.9V1262z M1080,1259.1
					c0-1.5-0.2-2.5-0.6-3.2c-0.4-0.7-1-1-1.9-1c-0.9,0-1.5,0.3-1.9,1c-0.4,0.6-0.6,1.7-0.6,3v3.5c0,1.5,0.2,2.5,0.6,3.3
					s1,1.1,1.9,1.1c0.8,0,1.5-0.3,1.9-1c0.4-0.7,0.6-1.7,0.6-3.1V1259.1z"/>
			</g>
			<g class="st3">
				<path class="st4" d="M1157.5,1266.6c-0.6,0.7-1.4,1.3-2.4,1.7c-1,0.4-2.1,0.6-3.4,0.6c-1.3,0-2.5-0.3-3.5-0.9s-1.8-1.4-2.3-2.6
					c-0.5-1.1-0.8-2.4-0.9-3.9v-1.2c0-2.4,0.6-4.2,1.7-5.5c1.1-1.3,2.7-2,4.7-2c1.7,0,3.1,0.4,4.1,1.3c1,0.9,1.6,2.1,1.8,3.7h-2.7
					c-0.3-1.9-1.4-2.8-3.3-2.8c-1.2,0-2.1,0.4-2.8,1.3c-0.6,0.9-1,2.2-1,3.9v1.2c0,1.7,0.4,3,1.1,3.9s1.7,1.4,3,1.4
					c1.4,0,2.4-0.3,3-0.9v-3.1h-3.2v-2.1h5.9V1266.6z"/>
				<path class="st4" d="M1163.8,1262.8v5.8h-2.7v-15.6h6c1.7,0,3.1,0.5,4.2,1.4c1,0.9,1.5,2.1,1.5,3.6c0,1.5-0.5,2.7-1.5,3.6
					c-1,0.9-2.4,1.3-4.2,1.3H1163.8z M1163.8,1260.6h3.3c1,0,1.7-0.2,2.2-0.7c0.5-0.5,0.8-1.1,0.8-2c0-0.8-0.3-1.5-0.8-2
					c-0.5-0.5-1.2-0.8-2.1-0.8h-3.3V1260.6z"/>
				<path class="st4" d="M1187.3,1252.9v10.5c0,1.7-0.5,3-1.6,3.9c-1.1,1-2.5,1.5-4.2,1.5c-1.8,0-3.2-0.5-4.3-1.4
					c-1.1-1-1.6-2.3-1.6-4v-10.4h2.7v10.5c0,1,0.3,1.8,0.8,2.4s1.3,0.8,2.3,0.8c2.1,0,3.1-1.1,3.1-3.3v-10.4H1187.3z"/>
				<path class="st4" d="M1197.4,1268.6h-2.6V1256l-3.8,1.3v-2.2l6.1-2.2h0.3V1268.6z"/>
			</g>
			<g class="st3">
				<path class="st4" d="M1275.5,1266.6c-0.6,0.7-1.4,1.3-2.4,1.7c-1,0.4-2.1,0.6-3.4,0.6c-1.3,0-2.5-0.3-3.5-0.9s-1.8-1.4-2.3-2.6
					c-0.5-1.1-0.8-2.4-0.9-3.9v-1.2c0-2.4,0.6-4.2,1.7-5.5c1.1-1.3,2.7-2,4.7-2c1.7,0,3.1,0.4,4.1,1.3c1,0.9,1.6,2.1,1.8,3.7h-2.7
					c-0.3-1.9-1.4-2.8-3.3-2.8c-1.2,0-2.1,0.4-2.8,1.3c-0.6,0.9-1,2.2-1,3.9v1.2c0,1.7,0.4,3,1.1,3.9s1.7,1.4,3,1.4
					c1.4,0,2.4-0.3,3-0.9v-3.1h-3.2v-2.1h5.9V1266.6z"/>
				<path class="st4" d="M1281.8,1262.8v5.8h-2.7v-15.6h6c1.7,0,3.1,0.5,4.2,1.4c1,0.9,1.5,2.1,1.5,3.6c0,1.5-0.5,2.7-1.5,3.6
					c-1,0.9-2.4,1.3-4.2,1.3H1281.8z M1281.8,1260.6h3.3c1,0,1.7-0.2,2.2-0.7c0.5-0.5,0.8-1.1,0.8-2c0-0.8-0.3-1.5-0.8-2
					c-0.5-0.5-1.2-0.8-2.1-0.8h-3.3V1260.6z"/>
				<path class="st4" d="M1305.3,1252.9v10.5c0,1.7-0.5,3-1.6,3.9c-1.1,1-2.5,1.5-4.2,1.5c-1.8,0-3.2-0.5-4.3-1.4
					c-1.1-1-1.6-2.3-1.6-4v-10.4h2.7v10.5c0,1,0.3,1.8,0.8,2.4s1.3,0.8,2.3,0.8c2.1,0,3.1-1.1,3.1-3.3v-10.4H1305.3z"/>
				<path class="st4" d="M1318.9,1268.6h-10.5v-1.8l5.2-5.7c0.8-0.8,1.3-1.5,1.6-2.1c0.3-0.6,0.5-1.1,0.5-1.7c0-0.7-0.2-1.3-0.6-1.8
					s-1-0.7-1.7-0.7c-0.8,0-1.5,0.3-2,0.8c-0.5,0.5-0.7,1.2-0.7,2.1h-2.6c0-1,0.2-1.8,0.6-2.6c0.4-0.8,1.1-1.4,1.9-1.8
					s1.7-0.6,2.8-0.6c1.5,0,2.7,0.4,3.6,1.1c0.9,0.8,1.3,1.8,1.3,3.2c0,0.8-0.2,1.6-0.7,2.5c-0.4,0.9-1.2,1.8-2.2,2.9l-3.8,4.1h7.3
					V1268.6z"/>
			</g>
			<g class="st3">
				<path class="st4" d="M1393.5,1266.6c-0.6,0.7-1.4,1.3-2.4,1.7c-1,0.4-2.1,0.6-3.4,0.6c-1.3,0-2.5-0.3-3.5-0.9s-1.8-1.4-2.3-2.6
					c-0.5-1.1-0.8-2.4-0.9-3.9v-1.2c0-2.4,0.6-4.2,1.7-5.5c1.1-1.3,2.7-2,4.7-2c1.7,0,3.1,0.4,4.1,1.3c1,0.9,1.6,2.1,1.8,3.7h-2.7
					c-0.3-1.9-1.4-2.8-3.3-2.8c-1.2,0-2.1,0.4-2.8,1.3c-0.6,0.9-1,2.2-1,3.9v1.2c0,1.7,0.4,3,1.1,3.9s1.7,1.4,3,1.4
					c1.4,0,2.4-0.3,3-0.9v-3.1h-3.2v-2.1h5.9V1266.6z"/>
				<path class="st4" d="M1399.8,1262.8v5.8h-2.7v-15.6h6c1.7,0,3.1,0.5,4.2,1.4c1,0.9,1.5,2.1,1.5,3.6c0,1.5-0.5,2.7-1.5,3.6
					c-1,0.9-2.4,1.3-4.2,1.3H1399.8z M1399.8,1260.6h3.3c1,0,1.7-0.2,2.2-0.7c0.5-0.5,0.8-1.1,0.8-2c0-0.8-0.3-1.5-0.8-2
					c-0.5-0.5-1.2-0.8-2.1-0.8h-3.3V1260.6z"/>
				<path class="st4" d="M1423.3,1252.9v10.5c0,1.7-0.5,3-1.6,3.9c-1.1,1-2.5,1.5-4.2,1.5c-1.8,0-3.2-0.5-4.3-1.4
					c-1.1-1-1.6-2.3-1.6-4v-10.4h2.7v10.5c0,1,0.3,1.8,0.8,2.4s1.3,0.8,2.3,0.8c2.1,0,3.1-1.1,3.1-3.3v-10.4H1423.3z"/>
				<path class="st4" d="M1429.4,1259.6h1.6c0.8,0,1.4-0.2,1.9-0.6s0.7-1,0.7-1.8c0-0.7-0.2-1.3-0.6-1.7c-0.4-0.4-1-0.6-1.8-0.6
					c-0.7,0-1.3,0.2-1.7,0.6c-0.5,0.4-0.7,0.9-0.7,1.6h-2.6c0-0.8,0.2-1.5,0.6-2.2s1-1.2,1.8-1.5c0.8-0.4,1.6-0.6,2.6-0.6
					c1.6,0,2.8,0.4,3.7,1.2c0.9,0.8,1.3,1.9,1.3,3.3c0,0.7-0.2,1.4-0.7,2c-0.4,0.6-1,1.1-1.7,1.4c0.9,0.3,1.5,0.8,2,1.4
					s0.7,1.4,0.7,2.3c0,1.4-0.5,2.5-1.4,3.4s-2.2,1.2-3.8,1.2c-1.5,0-2.7-0.4-3.7-1.2c-1-0.8-1.4-1.9-1.4-3.2h2.6
					c0,0.7,0.2,1.2,0.7,1.7s1.1,0.6,1.9,0.6c0.8,0,1.4-0.2,1.9-0.6c0.5-0.4,0.7-1.1,0.7-1.9c0-0.8-0.2-1.5-0.7-1.9
					c-0.5-0.4-1.2-0.7-2.2-0.7h-1.5V1259.6z"/>
			</g>
			<g class="st3">
				<path class="st0" d="M1214.6,1115.2h-9v9.4h-3.9v-22.3h14.2v3.1h-10.3v6.6h9V1115.2z"/>
			</g>
			<g class="st3">
				<path class="st0" d="M1227.8,1111.5c-0.5-0.1-1-0.1-1.5-0.1c-1.7,0-2.9,0.7-3.4,2v11.3h-3.7v-16.6h3.6l0.1,1.9
					c0.9-1.4,2.1-2.2,3.7-2.2c0.5,0,1,0.1,1.3,0.2L1227.8,1111.5z"/>
			</g>
			<g class="st3">
				<path class="st0" d="M1238.1,1125c-2.4,0-4.3-0.7-5.7-2.2c-1.5-1.5-2.2-3.5-2.2-5.9v-0.5c0-1.7,0.3-3.1,1-4.4
					c0.6-1.3,1.5-2.3,2.7-3c1.2-0.7,2.4-1.1,3.9-1.1c2.3,0,4,0.7,5.2,2.2s1.8,3.5,1.8,6.1v1.5H1234c0.1,1.4,0.6,2.5,1.4,3.2
					c0.8,0.8,1.8,1.2,3,1.2c1.7,0,3.1-0.7,4.2-2.1l2,1.9c-0.7,1-1.5,1.8-2.7,2.3C1240.8,1124.7,1239.5,1125,1238.1,1125z
					 M1237.7,1110.8c-1,0-1.8,0.4-2.5,1.1s-1,1.7-1.2,3h7.1v-0.3c-0.1-1.2-0.4-2.2-1-2.8C1239.5,1111.1,1238.7,1110.8,1237.7,1110.8
					z"/>
				<path class="st0" d="M1255.9,1125c-2.4,0-4.3-0.7-5.7-2.2c-1.5-1.5-2.2-3.5-2.2-5.9v-0.5c0-1.7,0.3-3.1,1-4.4
					c0.6-1.3,1.5-2.3,2.7-3c1.2-0.7,2.4-1.1,3.9-1.1c2.3,0,4,0.7,5.2,2.2c1.2,1.4,1.8,3.5,1.8,6.1v1.5h-10.8
					c0.1,1.4,0.6,2.5,1.4,3.2c0.8,0.8,1.8,1.2,3,1.2c1.7,0,3.1-0.7,4.2-2.1l2,1.9c-0.7,1-1.5,1.8-2.7,2.3
					C1258.5,1124.7,1257.3,1125,1255.9,1125z M1255.4,1110.8c-1,0-1.8,0.4-2.5,1.1c-0.6,0.7-1,1.7-1.2,3h7.1v-0.3
					c-0.1-1.2-0.4-2.2-1-2.8C1257.3,1111.1,1256.5,1110.8,1255.4,1110.8z"/>
			</g>
		</g>
		<g>
			<line class="st2" x1="746.3" y1="540" x2="751.3" y2="540"/>
			<line class="st12" x1="759.2" y1="540" x2="786.8" y2="540"/>
			<polyline class="st2" points="790.8,540 795.8,540 795.8,535 			"/>
			<line class="st13" x1="795.8" y1="525.2" x2="795.8" y2="274.4"/>
			<polyline class="st2" points="795.8,269.5 795.8,264.5 800.8,264.5 			"/>
			<line class="st14" x1="811.1" y1="264.5" x2="929" y2="264.5"/>
			<line class="st2" x1="934.1" y1="264.5" x2="939.1" y2="264.5"/>
			<polygon class="st4" points="936.2,274.5 953.5,264.5 936.2,254.5 			"/>
		</g>
		<g>
			<polyline class="st15" points="746.3,540.5 795.8,540.5 795.8,746 939.1,746 			"/>
			<polygon class="st0" points="936.2,756 953.5,746 936.2,736 			"/>
		</g>
		<g class="st3">
			<path class="st16" d="M844.2,315.1l3.4-16.8h3.8l-5.1,22.3h-3.7l-4.2-16.3l-4.3,16.3h-3.7l-5.1-22.3h3.8l3.5,16.8l4.3-16.8h3.2
				L844.2,315.1z"/>
			<path class="st16" d="M854.9,299.8c0-0.6,0.2-1,0.5-1.4c0.4-0.4,0.9-0.6,1.6-0.6s1.2,0.2,1.6,0.6c0.4,0.4,0.6,0.9,0.6,1.4
				c0,0.6-0.2,1-0.6,1.4c-0.4,0.4-0.9,0.6-1.6,0.6s-1.2-0.2-1.6-0.6C855.1,300.8,854.9,300.3,854.9,299.8z M858.8,320.6h-3.7v-16.6
				h3.7V320.6z"/>
			<path class="st16" d="M868.5,300v4h2.9v2.8h-2.9v9.2c0,0.6,0.1,1.1,0.4,1.4c0.2,0.3,0.7,0.4,1.3,0.4c0.4,0,0.9-0.1,1.3-0.2v2.9
				c-0.8,0.2-1.7,0.4-2.5,0.4c-2.9,0-4.3-1.6-4.3-4.7v-9.4H862v-2.8h2.7v-4H868.5z"/>
			<path class="st16" d="M878.8,305.9c1.2-1.4,2.8-2.1,4.6-2.1c3.5,0,5.3,2,5.4,6v10.8h-3.7V310c0-1.1-0.2-2-0.7-2.4
				c-0.5-0.5-1.2-0.7-2.2-0.7c-1.5,0-2.6,0.7-3.3,2v11.8h-3.7v-23.5h3.7V305.9z"/>
			<path class="st16" d="M892.8,312.2c0-1.6,0.3-3.1,1-4.4c0.6-1.3,1.5-2.3,2.7-3c1.2-0.7,2.5-1,4-1c2.2,0,4,0.7,5.4,2.2
				c1.4,1.4,2.1,3.3,2.3,5.7l0,0.9c0,1.6-0.3,3.1-0.9,4.4c-0.6,1.3-1.5,2.3-2.7,3c-1.2,0.7-2.5,1.1-4.1,1.1c-2.3,0-4.2-0.8-5.6-2.3
				c-1.4-1.6-2.1-3.6-2.1-6.2V312.2z M896.5,312.5c0,1.7,0.4,3,1.1,4c0.7,1,1.7,1.4,2.9,1.4s2.2-0.5,2.9-1.5c0.7-1,1-2.4,1-4.3
				c0-1.7-0.4-3-1.1-4c-0.7-1-1.7-1.5-2.9-1.5c-1.2,0-2.2,0.5-2.9,1.4C896.8,309.2,896.5,310.6,896.5,312.5z"/>
			<path class="st16" d="M922.3,319c-1.1,1.3-2.6,1.9-4.7,1.9c-1.8,0-3.2-0.5-4.1-1.6c-0.9-1.1-1.4-2.6-1.4-4.6v-10.7h3.7v10.7
				c0,2.1,0.9,3.2,2.6,3.2c1.8,0,3-0.6,3.7-1.9v-11.9h3.7v16.6h-3.5L922.3,319z"/>
			<path class="st16" d="M935.2,300v4h2.9v2.8h-2.9v9.2c0,0.6,0.1,1.1,0.4,1.4c0.2,0.3,0.7,0.4,1.3,0.4c0.4,0,0.9-0.1,1.3-0.2v2.9
				c-0.8,0.2-1.7,0.4-2.5,0.4c-2.9,0-4.3-1.6-4.3-4.7v-9.4h-2.7v-2.8h2.7v-4H935.2z"/>
		</g>
		<g class="st3">
			<path class="st16" d="M861,358.3h-3.9v-9.9h-10v9.9h-3.9V336h3.9v9.3h10V336h3.9V358.3z"/>
		</g>
		<g class="st3">
			<path class="st16" d="M879.3,353.1h-8.6l-1.8,5.2h-4l8.4-22.3h3.5l8.4,22.3h-4L879.3,353.1z M871.7,350h6.5l-3.2-9.2L871.7,350z"
				/>
			<path class="st16" d="M893.6,336l6.4,17.1l6.4-17.1h5v22.3h-3.9v-7.3l0.4-9.8l-6.6,17.2h-2.8l-6.6-17.2l0.4,9.8v7.3h-3.9V336
				H893.6z"/>
			<path class="st16" d="M916.6,337.4c0-0.6,0.2-1,0.5-1.4s0.9-0.6,1.6-0.6s1.2,0.2,1.6,0.6c0.4,0.4,0.6,0.9,0.6,1.4
				c0,0.6-0.2,1-0.6,1.4c-0.4,0.4-0.9,0.6-1.6,0.6s-1.2-0.2-1.6-0.6S916.6,338,916.6,337.4z M920.5,358.3h-3.7v-16.6h3.7V358.3z"/>
		</g>
		<g class="st3">
			<path class="st4" d="M869.5,955.1l3.4-16.8h3.8l-5.1,22.3h-3.7l-4.2-16.3l-4.3,16.3h-3.7l-5.1-22.3h3.8l3.5,16.8l4.3-16.8h3.2
				L869.5,955.1z"/>
			<path class="st4" d="M880.2,939.8c0-0.6,0.2-1,0.5-1.4s0.9-0.6,1.6-0.6s1.2,0.2,1.6,0.6s0.6,0.9,0.6,1.4c0,0.6-0.2,1-0.6,1.4
				s-0.9,0.6-1.6,0.6s-1.2-0.2-1.6-0.6S880.2,940.3,880.2,939.8z M884.1,960.6h-3.7v-16.6h3.7V960.6z"/>
			<path class="st4" d="M893.7,940v4h2.9v2.8h-2.9v9.2c0,0.6,0.1,1.1,0.4,1.4c0.2,0.3,0.7,0.4,1.3,0.4c0.4,0,0.9-0.1,1.3-0.2v2.9
				c-0.8,0.2-1.7,0.4-2.4,0.4c-2.9,0-4.3-1.6-4.3-4.7v-9.4h-2.7v-2.8h2.7v-4H893.7z"/>
			<path class="st4" d="M904.1,945.9c1.2-1.4,2.8-2.1,4.6-2.1c3.5,0,5.3,2,5.4,6v10.8h-3.7V950c0-1.1-0.2-2-0.7-2.4
				s-1.2-0.7-2.2-0.7c-1.5,0-2.6,0.7-3.3,2v11.8h-3.7v-23.5h3.7V945.9z"/>
		</g>
		<g class="st3">
			<path class="st4" d="M862,998.3h-3.9v-9.9h-10v9.9h-3.9V976h3.9v9.3h10V976h3.9V998.3z"/>
		</g>
		<g class="st3">
			<path class="st4" d="M880.3,993.1h-8.6l-1.8,5.2h-4l8.4-22.3h3.5l8.4,22.3h-4L880.3,993.1z M872.7,990h6.5l-3.2-9.2L872.7,990z"
				/>
			<path class="st4" d="M894.6,976l6.4,17.1l6.4-17.1h5v22.3h-3.9v-7.3l0.4-9.8l-6.6,17.2h-2.8l-6.6-17.2l0.4,9.8v7.3h-3.9V976
				H894.6z"/>
			<path class="st4" d="M917.6,977.4c0-0.6,0.2-1,0.5-1.4c0.4-0.4,0.9-0.6,1.6-0.6s1.2,0.2,1.6,0.6c0.4,0.4,0.6,0.9,0.6,1.4
				c0,0.6-0.2,1-0.6,1.4c-0.4,0.4-0.9,0.6-1.6,0.6s-1.2-0.2-1.6-0.6C917.8,978.4,917.6,978,917.6,977.4z M921.5,998.3h-3.7v-16.6
				h3.7V998.3z"/>
		</g>
		<path id="hami-graph-color" class="st0" d="M894.6,840c2.8,3.3,6.1,6,10,8c3.9,2.1,8.2,3.3,12.6,3.7l-0.3,2.8
			c-4.8-0.4-9.4-1.8-13.7-4c-0.6-0.3-1.2-0.7-1.8-1c-1.2,1.2-2.2,2.6-3.2,4c5.5,2.7,10.1,7,13.2,12.5c4.1,7.3,5.2,15.9,3,24.1
			s-7.4,15.1-14.6,19.4c-4.9,2.9-10.3,4.4-15.8,4.4c-2.7,0-5.3-0.3-8-1c-8-2.2-14.8-7.4-18.9-14.7c-4.1-7.3-5.2-15.9-3-24.1
			c2.2-8.2,7.4-15.1,14.6-19.4c7.2-4.3,15.7-5.5,23.8-3.3c1,0.3,2.1,0.6,3.1,1c1-1.6,2.2-3,3.4-4.4c-2.4-1.8-4.7-3.8-6.6-6.1
			L894.6,840L894.6,840z M884.5,853.2c-5,0-9.9,1.3-14.3,4c-6.6,3.9-11.3,10.2-13.3,17.7c-2,7.5-1,15.3,2.7,21.9
			c3.8,6.7,9.9,11.4,17.2,13.3c2.4,0.6,4.8,1,7.2,1c5,0,9.9-1.3,14.3-4c6.6-3.9,11.3-10.2,13.3-17.7s1-15.3-2.7-21.9
			c-3.8-6.7-9.9-11.4-17.2-13.3C889.4,853.5,887,853.2,884.5,853.2z M882.7,855.6c11.2,10.4,18.5,24.2,20.6,39.5l0,0
			c0.2,1.6,0.4,3.3,0.5,5.1c-0.8,1-1.8,1.9-2.7,2.7c-0.1-2.6-0.3-5.2-0.6-7.5c-2-14-8.4-26.7-18.3-36.4c5.8,8.7,9.5,18.6,10.7,29.1
			c0.8,6.7,0.6,13.3-0.6,19.8c-1.8,0.6-3.6,1-5.4,1.3c0-0.6,0-1.3,0-1.9c0-0.9,0-1.8-0.1-2.7c-1,0.1-2.1,0.2-3.1,0.2
			c-1.2,0-2.3-0.1-3.5-0.2c0.1-1,0.2-1.9,0.2-2.9c2.1,0.2,4.1,0.3,6.2,0c-0.6-7.2-2.4-14.2-5.4-20.7c-3.1-6.7-7.2-12.8-12.4-18
			c6.4,10.4,9.7,22.3,9.7,34.6c0,3.7-0.3,7.4-0.9,11.1c-0.2,0-0.4-0.1-0.6-0.2c-0.7-0.2-1.5-0.4-2.2-0.7c0.2-1.4,0.4-2.8,0.5-4.2
			c-1.9-0.5-3.7-1.2-5.5-2.1c0.1-1.1,0.1-2.1,0.1-3.2c1.8,1,3.6,1.8,5.6,2.4c0-1,0.1-2.1,0.1-3.1c0-12.3-3.5-24.1-10.1-34.3
			c1.3-1.3,2.7-2.4,4.1-3.4c5.9,5.8,10.6,12.4,14,20c3.7,8.2,5.7,16.9,5.9,26c0.9-5.7,1-11.5,0.3-17.4c-1.4-11.7-5.9-22.7-13.2-31.9
			C878.8,856,880.7,855.7,882.7,855.6L882.7,855.6z M861.7,869.1c1.9,4,3.4,8.2,4.4,12.5l0,0c1.3,5.2,1.9,10.6,1.9,16
			c0,2-0.1,4-0.3,6c-0.9-0.8-1.8-1.6-2.6-2.5c0.1-1.1,0.1-2.3,0.1-3.4c0-8.7-1.8-17.2-5.1-25.1C860.6,871.3,861.1,870.1,861.7,869.1
			L861.7,869.1z M903.5,867.5c2.6,3.9,4.3,8.5,4.9,13.1l-2.8,0.4c-0.6-4.2-2.1-8.4-4.5-11.9L903.5,867.5L903.5,867.5z M897.5,860.8
			c1.3,1.1,2.6,2.4,3.8,3.7l-2.2,1.8l0,0c-1-1.2-2.2-2.4-3.4-3.4L897.5,860.8L897.5,860.8z"/>
		<g class="st3">
			<path class="st17" d="M1152.2,222.2h-4.3v8.6h-3.9v-22.3h7.8c2.6,0,4.6,0.6,6,1.7c1.4,1.2,2.1,2.8,2.1,5c0,1.5-0.4,2.7-1.1,3.7
				c-0.7,1-1.7,1.8-3,2.3l5,9.3v0.2h-4.2L1152.2,222.2z M1147.9,219.1h4c1.3,0,2.3-0.3,3.1-1s1.1-1.6,1.1-2.7c0-1.2-0.3-2.1-1-2.8
				s-1.7-1-3-1h-4.1V219.1z"/>
			<path class="st17" d="M1171.5,231.1c-2.4,0-4.3-0.7-5.7-2.2s-2.2-3.5-2.2-5.9v-0.5c0-1.7,0.3-3.1,1-4.4c0.6-1.3,1.5-2.3,2.7-3
				c1.2-0.7,2.4-1.1,3.9-1.1c2.3,0,4,0.7,5.2,2.2c1.2,1.4,1.8,3.5,1.8,6.1v1.5h-10.8c0.1,1.4,0.6,2.5,1.4,3.2c0.8,0.8,1.8,1.2,3,1.2
				c1.7,0,3.1-0.7,4.2-2.1l2,1.9c-0.7,1-1.5,1.8-2.7,2.3C1174.1,230.8,1172.8,231.1,1171.5,231.1z M1171,216.9c-1,0-1.8,0.4-2.5,1.1
				c-0.6,0.7-1,1.7-1.2,3h7.1v-0.3c-0.1-1.2-0.4-2.2-1-2.8C1172.8,217.2,1172,216.9,1171,216.9z"/>
			<path class="st17" d="M1191.2,226.3c0-0.7-0.3-1.2-0.8-1.5c-0.5-0.3-1.5-0.7-2.7-0.9s-2.3-0.6-3.2-1c-1.9-0.9-2.8-2.2-2.8-3.9
				c0-1.4,0.6-2.6,1.8-3.6c1.2-1,2.7-1.4,4.6-1.4c2,0,3.6,0.5,4.8,1.5c1.2,1,1.8,2.3,1.8,3.8h-3.7c0-0.7-0.3-1.3-0.8-1.8
				c-0.5-0.5-1.2-0.7-2.1-0.7c-0.8,0-1.5,0.2-2,0.6c-0.5,0.4-0.8,0.9-0.8,1.5c0,0.6,0.2,1,0.7,1.3s1.4,0.6,2.9,1
				c1.5,0.3,2.6,0.7,3.4,1.1s1.4,1,1.9,1.6c0.4,0.6,0.6,1.4,0.6,2.3c0,1.5-0.6,2.7-1.9,3.6s-2.9,1.4-4.9,1.4c-1.4,0-2.6-0.2-3.6-0.7
				s-1.9-1.2-2.5-2s-0.9-1.8-0.9-2.8h3.6c0.1,0.9,0.4,1.6,1,2c0.6,0.5,1.4,0.7,2.4,0.7c1,0,1.7-0.2,2.2-0.6
				C1190.9,227.4,1191.2,226.9,1191.2,226.3z"/>
			<path class="st17" d="M1203.7,210.2v4h2.9v2.8h-2.9v9.2c0,0.6,0.1,1.1,0.4,1.4c0.2,0.3,0.7,0.4,1.3,0.4c0.4,0,0.9-0.1,1.3-0.2
				v2.9c-0.8,0.2-1.7,0.4-2.5,0.4c-2.9,0-4.3-1.6-4.3-4.7V217h-2.7v-2.8h2.7v-4H1203.7z"/>
			<path class="st17" d="M1219,217.6c-0.5-0.1-1-0.1-1.5-0.1c-1.7,0-2.9,0.7-3.4,2v11.3h-3.7v-16.6h3.6l0.1,1.9
				c0.9-1.4,2.1-2.2,3.7-2.2c0.5,0,1,0.1,1.3,0.2L1219,217.6z"/>
			<path class="st17" d="M1222.3,209.9c0-0.6,0.2-1,0.5-1.4s0.9-0.6,1.6-0.6s1.2,0.2,1.6,0.6s0.6,0.9,0.6,1.4c0,0.6-0.2,1-0.6,1.4
				s-0.9,0.6-1.6,0.6s-1.2-0.2-1.6-0.6S1222.3,210.5,1222.3,209.9z M1226.2,230.8h-3.7v-16.6h3.7V230.8z"/>
			<path class="st17" d="M1238,228.1c0.9,0,1.7-0.3,2.3-0.8s0.9-1.2,1-2h3.5c0,1-0.4,2-1,2.9c-0.6,0.9-1.4,1.6-2.5,2.1
				s-2.1,0.8-3.3,0.8c-2.3,0-4.2-0.8-5.5-2.3c-1.4-1.5-2-3.6-2-6.2v-0.4c0-2.5,0.7-4.5,2-6.1s3.2-2.3,5.5-2.3c2,0,3.6,0.6,4.8,1.7
				s1.9,2.7,2,4.5h-3.5c0-0.9-0.4-1.7-1-2.3c-0.6-0.6-1.4-0.9-2.3-0.9c-1.2,0-2.1,0.4-2.8,1.3c-0.7,0.9-1,2.2-1,4v0.6
				c0,1.8,0.3,3.1,1,4C1235.8,227.7,1236.8,228.1,1238,228.1z"/>
			<path class="st17" d="M1253.2,210.2v4h2.9v2.8h-2.9v9.2c0,0.6,0.1,1.1,0.4,1.4c0.2,0.3,0.7,0.4,1.3,0.4c0.4,0,0.9-0.1,1.3-0.2
				v2.9c-0.8,0.2-1.7,0.4-2.5,0.4c-2.9,0-4.3-1.6-4.3-4.7V217h-2.7v-2.8h2.7v-4H1253.2z"/>
			<path class="st17" d="M1267.1,231.1c-2.4,0-4.3-0.7-5.7-2.2s-2.2-3.5-2.2-5.9v-0.5c0-1.7,0.3-3.1,1-4.4c0.6-1.3,1.5-2.3,2.7-3
				c1.2-0.7,2.4-1.1,3.9-1.1c2.3,0,4,0.7,5.2,2.2c1.2,1.4,1.8,3.5,1.8,6.1v1.5H1263c0.1,1.4,0.6,2.5,1.4,3.2c0.8,0.8,1.8,1.2,3,1.2
				c1.7,0,3.1-0.7,4.2-2.1l2,1.9c-0.7,1-1.5,1.8-2.7,2.3C1269.8,230.8,1268.5,231.1,1267.1,231.1z M1266.7,216.9
				c-1,0-1.8,0.4-2.5,1.1c-0.6,0.7-1,1.7-1.2,3h7.1v-0.3c-0.1-1.2-0.4-2.2-1-2.8C1268.5,217.2,1267.7,216.9,1266.7,216.9z"/>
			<path class="st17" d="M1276.9,222.4c0-2.6,0.6-4.6,1.8-6.1s2.8-2.3,4.8-2.3c1.8,0,3.2,0.6,4.3,1.8v-8.5h3.7v23.5h-3.4l-0.2-1.7
				c-1.1,1.3-2.6,2-4.5,2c-1.9,0-3.5-0.8-4.7-2.3C1277.5,227.2,1276.9,225.1,1276.9,222.4z M1280.6,222.7c0,1.7,0.3,3,1,3.9
				s1.6,1.4,2.8,1.4c1.5,0,2.6-0.7,3.3-2V219c-0.7-1.3-1.8-2-3.3-2c-1.2,0-2.1,0.5-2.8,1.4C1280.9,219.4,1280.6,220.8,1280.6,222.7z
				"/>
		</g>
		<g>
			<polyline class="st18" points="795.8,615.9 795.8,1116.5 939,1116.5 			"/>
			<polygon class="st0" points="936.2,1126.2 953,1116.5 936.2,1106.8 			"/>
		</g>
	</g>
</g>
</svg>
