<?xml version="1.0" encoding="utf-8"?>
<!-- Generator: Adobe Illustrator 26.4.1, SVG Export Plug-In . SVG Version: 6.00 Build 0)  -->
<svg version="1.1" id="图层_1" xmlns="http://www.w3.org/2000/svg" xmlns:xlink="http://www.w3.org/1999/xlink" x="0px" y="0px"
	 viewBox="0 0 1127.5 1080" style="enable-background:new 0 0 1127.5 1080;" xml:space="preserve">
<style type="text/css">
	.st0{fill:#0E355B;}
	.st1{enable-background:new    ;}
	.st2{fill:#FFFFFF;}
	.st3{opacity:0.22;fill:#6AAF22;enable-background:new    ;}
	.st4{fill:none;stroke:#73B02C;stroke-width:2.45;stroke-miterlimit:10;}
	.st5{fill:none;stroke:#73B02C;stroke-width:1.61;stroke-miterlimit:10;}
	.st6{fill:none;stroke:#73B02C;stroke-width:1.81;stroke-miterlimit:10;}
	.st7{fill:#D4EEFF;stroke:#5586B7;stroke-width:1.64;stroke-miterlimit:10;}
	.st8{fill:#588C15;}
	.st9{fill:none;stroke:#0E355B;stroke-width:1.63;stroke-miterlimit:10;}
	.st10{fill:none;stroke:#0E355B;stroke-width:1.71;stroke-miterlimit:10;}
	.st11{fill:none;stroke:#73B02C;stroke-width:2;stroke-miterlimit:10;}
	.st12{fill:#73B02C;}
</style>
<g>
	<g id="_图层_1">
		<path class="st0" d="M142,175h331.7c5.9,0,10.8,4.8,10.8,10.8v56.5c0,5.9-4.8,10.8-10.8,10.8H142c-5.9,0-10.8-4.8-10.8-10.8v-56.5
			C131.2,179.8,136.1,175,142,175z"/>
		<g class="st1">
			<path class="st2" d="M273.5,200.8h-8.9v24.5h-4.9v-24.5H251v-4h22.6V200.8z"/>
		</g>
		<g class="st1">
			<path class="st2" d="M287.4,225.3c-0.2-0.4-0.4-1.1-0.5-2c-1.5,1.6-3.4,2.4-5.5,2.4c-2.1,0-3.9-0.6-5.2-1.8c-1.3-1.2-2-2.7-2-4.5
				c0-2.3,0.8-4,2.5-5.2c1.7-1.2,4.1-1.8,7.2-1.8h2.9V211c0-1.1-0.3-2-0.9-2.6c-0.6-0.7-1.5-1-2.8-1c-1.1,0-2,0.3-2.7,0.8
				c-0.7,0.5-1,1.2-1,2.1h-4.7c0-1.2,0.4-2.2,1.2-3.3c0.8-1,1.8-1.8,3.1-2.4c1.3-0.6,2.8-0.9,4.4-0.9c2.5,0,4.4,0.6,5.9,1.9
				c1.5,1.2,2.2,3,2.3,5.2v9.5c0,1.9,0.3,3.4,0.8,4.6v0.3H287.4z M282.1,221.9c0.9,0,1.8-0.2,2.6-0.7c0.8-0.5,1.4-1.1,1.9-1.8v-4
				h-2.6c-1.8,0-3.1,0.3-4,0.9c-0.9,0.6-1.3,1.5-1.3,2.6c0,0.9,0.3,1.6,0.9,2.2S281.1,221.9,282.1,221.9z"/>
			<path class="st2" d="M309.4,219.5c0-0.8-0.3-1.5-1-1.9c-0.7-0.4-1.9-0.8-3.5-1.2c-1.6-0.3-3-0.8-4-1.3c-2.4-1.1-3.6-2.8-3.6-5
				c0-1.8,0.8-3.3,2.3-4.6c1.5-1.2,3.5-1.8,5.9-1.8c2.5,0,4.6,0.6,6.1,1.9c1.6,1.2,2.3,2.9,2.3,4.9h-4.7c0-0.9-0.3-1.7-1-2.3
				c-0.7-0.6-1.6-0.9-2.7-0.9c-1,0-1.9,0.2-2.5,0.7c-0.7,0.5-1,1.1-1,1.9c0,0.7,0.3,1.3,0.9,1.7c0.6,0.4,1.8,0.8,3.7,1.2
				c1.9,0.4,3.3,0.9,4.4,1.5c1.1,0.6,1.8,1.2,2.4,2c0.5,0.8,0.8,1.8,0.8,2.9c0,1.9-0.8,3.4-2.4,4.6c-1.6,1.2-3.6,1.8-6.2,1.8
				c-1.7,0-3.3-0.3-4.6-0.9c-1.4-0.6-2.4-1.5-3.2-2.6c-0.8-1.1-1.1-2.3-1.1-3.5h4.6c0.1,1.1,0.5,2,1.3,2.6s1.8,0.9,3.1,0.9
				c1.2,0,2.2-0.2,2.9-0.7C309.1,220.9,309.4,220.3,309.4,219.5z"/>
			<path class="st2" d="M326.2,216.2l-2.1,2.2v6.9h-4.7v-30h4.7v17.3l1.5-1.9l5.8-6.6h5.7l-7.9,8.8l8.7,12.3h-5.5L326.2,216.2z"/>
			<path class="st2" d="M368.9,218.7h-11l-2.3,6.6h-5.1l10.7-28.4h4.4l10.8,28.4h-5.2L368.9,218.7z M359.2,214.7h8.2l-4.1-11.8
				L359.2,214.7z"/>
		</g>
		<g class="st1">
			<path class="st0" d="M395.2,307.1h-7v19.2h-3.8v-19.2h-6.9V304h17.7V307.1z"/>
		</g>
		<g class="st1">
			<path class="st0" d="M406.4,313.1c-0.5-0.1-1-0.1-1.5-0.1c-1.7,0-2.9,0.7-3.4,2v11.3h-3.7v-16.6h3.6l0.1,1.9
				c0.9-1.4,2.1-2.2,3.7-2.2c0.5,0,1,0.1,1.3,0.2L406.4,313.1z"/>
		</g>
		<g class="st1">
			<path class="st0" d="M415.7,321l3.4-11.2h4l-6.6,19.1c-1,2.8-2.7,4.2-5.1,4.2c-0.5,0-1.1-0.1-1.8-0.3v-2.9l0.7,0
				c0.9,0,1.6-0.2,2.1-0.5c0.5-0.3,0.8-0.9,1.1-1.7l0.5-1.4l-5.8-16.5h4L415.7,321z"/>
			<path class="st0" d="M443.5,313.1c-0.5-0.1-1-0.1-1.5-0.1c-1.7,0-2.9,0.7-3.4,2v11.3h-3.7v-16.6h3.6l0.1,1.9
				c0.9-1.4,2.1-2.2,3.7-2.2c0.5,0,1,0.1,1.3,0.2L443.5,313.1z"/>
			<path class="st0" d="M456.8,324.7c-1.1,1.3-2.6,1.9-4.7,1.9c-1.8,0-3.2-0.5-4.1-1.6c-0.9-1.1-1.4-2.6-1.4-4.6v-10.7h3.7v10.7
				c0,2.1,0.9,3.2,2.6,3.2c1.8,0,3-0.6,3.7-1.9v-11.9h3.7v16.6h-3.5L456.8,324.7z"/>
			<path class="st0" d="M468.5,309.7l0.1,1.9c1.2-1.5,2.8-2.2,4.8-2.2c3.5,0,5.2,2,5.3,5.9v10.9H475v-10.7c0-1.1-0.2-1.8-0.7-2.3
				c-0.5-0.5-1.2-0.8-2.2-0.8c-1.5,0-2.6,0.7-3.4,2v11.8H465v-16.6H468.5z"/>
			<path class="st0" d="M486.9,309.7l0.1,1.9c1.2-1.5,2.8-2.2,4.8-2.2c3.5,0,5.2,2,5.3,5.9v10.9h-3.7v-10.7c0-1.1-0.2-1.8-0.7-2.3
				c-0.5-0.5-1.2-0.8-2.2-0.8c-1.5,0-2.6,0.7-3.4,2v11.8h-3.7v-16.6H486.9z"/>
			<path class="st0" d="M501.8,305.4c0-0.6,0.2-1,0.5-1.4s0.9-0.6,1.6-0.6s1.2,0.2,1.6,0.6c0.4,0.4,0.6,0.9,0.6,1.4
				c0,0.6-0.2,1-0.6,1.4c-0.4,0.4-0.9,0.6-1.6,0.6s-1.2-0.2-1.6-0.6S501.8,306,501.8,305.4z M505.7,326.3H502v-16.6h3.7V326.3z"/>
			<path class="st0" d="M514.2,309.7l0.1,1.9c1.2-1.5,2.8-2.2,4.8-2.2c3.5,0,5.2,2,5.3,5.9v10.9h-3.7v-10.7c0-1.1-0.2-1.8-0.7-2.3
				c-0.5-0.5-1.2-0.8-2.2-0.8c-1.5,0-2.6,0.7-3.4,2v11.8h-3.7v-16.6H514.2z"/>
			<path class="st0" d="M528.4,317.9c0-2.6,0.6-4.6,1.8-6.2c1.2-1.5,2.8-2.3,4.8-2.3c1.9,0,3.4,0.7,4.5,2l0.2-1.7h3.4v16.1
				c0,2.2-0.7,3.9-2,5.1c-1.4,1.3-3.2,1.9-5.5,1.9c-1.2,0-2.4-0.3-3.6-0.8c-1.2-0.5-2-1.2-2.6-2l1.8-2.2c1.1,1.4,2.6,2,4.2,2
				c1.2,0,2.2-0.3,2.9-1c0.7-0.7,1.1-1.7,1.1-2.9v-1.1c-1.1,1.2-2.5,1.8-4.3,1.8c-1.9,0-3.5-0.8-4.8-2.3
				C529,322.7,528.4,320.6,528.4,317.9z M532.1,318.2c0,1.7,0.3,3,1,3.9c0.7,1,1.6,1.4,2.8,1.4c1.5,0,2.6-0.6,3.3-1.9v-7.3
				c-0.7-1.3-1.8-1.9-3.3-1.9c-1.2,0-2.2,0.5-2.9,1.5C532.4,314.9,532.1,316.3,532.1,318.2z"/>
			<path class="st0" d="M555.8,317.8c0-1.6,0.3-3.1,1-4.4c0.6-1.3,1.5-2.3,2.7-3c1.2-0.7,2.5-1,4-1c2.2,0,4,0.7,5.4,2.2
				c1.4,1.4,2.1,3.3,2.3,5.7l0,0.9c0,1.6-0.3,3.1-0.9,4.4s-1.5,2.3-2.7,3c-1.2,0.7-2.5,1.1-4.1,1.1c-2.3,0-4.2-0.8-5.6-2.3
				c-1.4-1.6-2.1-3.6-2.1-6.2V317.8z M559.5,318.2c0,1.7,0.4,3,1.1,4c0.7,1,1.7,1.4,2.9,1.4s2.2-0.5,2.9-1.5c0.7-1,1-2.4,1-4.3
				c0-1.7-0.4-3-1.1-4c-0.7-1-1.7-1.5-2.9-1.5c-1.2,0-2.2,0.5-2.9,1.4S559.5,316.2,559.5,318.2z"/>
			<path class="st0" d="M578.7,309.7l0.1,1.9c1.2-1.5,2.8-2.2,4.8-2.2c3.5,0,5.2,2,5.3,5.9v10.9h-3.7v-10.7c0-1.1-0.2-1.8-0.7-2.3
				c-0.5-0.5-1.2-0.8-2.2-0.8c-1.5,0-2.6,0.7-3.4,2v11.8h-3.7v-16.6H578.7z"/>
			<path class="st0" d="M612.2,326.3c-0.2-0.3-0.3-0.8-0.4-1.5c-1.2,1.2-2.6,1.9-4.3,1.9c-1.7,0-3-0.5-4.1-1.4
				c-1.1-0.9-1.6-2.1-1.6-3.5c0-1.8,0.7-3.1,2-4.1c1.3-0.9,3.2-1.4,5.6-1.4h2.3v-1.1c0-0.9-0.2-1.5-0.7-2.1
				c-0.5-0.5-1.2-0.8-2.2-0.8c-0.8,0-1.5,0.2-2.1,0.6c-0.5,0.4-0.8,1-0.8,1.6h-3.7c0-0.9,0.3-1.8,0.9-2.5c0.6-0.8,1.4-1.4,2.5-1.9
				s2.2-0.7,3.5-0.7c1.9,0,3.5,0.5,4.6,1.5s1.7,2.3,1.8,4.1v7.5c0,1.5,0.2,2.7,0.6,3.6v0.3H612.2z M608.1,323.6
				c0.7,0,1.4-0.2,2.1-0.5s1.1-0.8,1.5-1.4v-3.1h-2c-1.4,0-2.4,0.2-3.1,0.7c-0.7,0.5-1,1.2-1,2c0,0.7,0.2,1.3,0.7,1.7
				C606.7,323.4,607.3,323.6,608.1,323.6z"/>
			<path class="st0" d="M643.4,321.2l2.6-11.4h3.6l-4.5,16.6h-3.1l-3.6-11.4l-3.5,11.4H632l-4.5-16.6h3.6l2.7,11.3l3.4-11.3h2.8
				L643.4,321.2z"/>
			<path class="st0" d="M656.8,311.5c1.2-1.4,2.8-2.1,4.6-2.1c3.5,0,5.3,2,5.4,6v10.8H663v-10.7c0-1.1-0.2-2-0.7-2.4
				s-1.2-0.7-2.2-0.7c-1.5,0-2.6,0.7-3.3,2v11.8H653v-23.5h3.7V311.5z"/>
			<path class="st0" d="M670.7,317.8c0-1.6,0.3-3.1,1-4.4c0.6-1.3,1.5-2.3,2.7-3c1.2-0.7,2.5-1,4-1c2.2,0,4,0.7,5.4,2.2
				c1.4,1.4,2.1,3.3,2.3,5.7l0,0.9c0,1.6-0.3,3.1-0.9,4.4s-1.5,2.3-2.7,3c-1.2,0.7-2.5,1.1-4.1,1.1c-2.3,0-4.2-0.8-5.6-2.3
				c-1.4-1.6-2.1-3.6-2.1-6.2V317.8z M674.4,318.2c0,1.7,0.4,3,1.1,4c0.7,1,1.7,1.4,2.9,1.4s2.2-0.5,2.9-1.5c0.7-1,1-2.4,1-4.3
				c0-1.7-0.4-3-1.1-4c-0.7-1-1.7-1.5-2.9-1.5c-1.2,0-2.2,0.5-2.9,1.4S674.4,316.2,674.4,318.2z"/>
			<path class="st0" d="M694.1,326.3h-3.7v-23.5h3.7V326.3z"/>
			<path class="st0" d="M706.4,326.6c-2.4,0-4.3-0.7-5.7-2.2s-2.2-3.5-2.2-5.9V318c0-1.7,0.3-3.1,1-4.4c0.6-1.3,1.5-2.3,2.7-3
				c1.2-0.7,2.4-1.1,3.9-1.1c2.3,0,4,0.7,5.2,2.2c1.2,1.4,1.8,3.5,1.8,6.1v1.5h-10.8c0.1,1.4,0.6,2.5,1.4,3.2c0.8,0.8,1.8,1.2,3,1.2
				c1.7,0,3.1-0.7,4.2-2.1l2,1.9c-0.7,1-1.5,1.8-2.7,2.3C709,326.3,707.8,326.6,706.4,326.6z M706,312.4c-1,0-1.8,0.4-2.5,1.1
				s-1,1.7-1.2,3h7.1v-0.3c-0.1-1.2-0.4-2.2-1-2.8C707.8,312.7,707,312.4,706,312.4z"/>
			<path class="st0" d="M743,323.4c-0.8,1.1-1.9,1.8-3.4,2.4c-1.4,0.5-3.1,0.8-4.9,0.8c-1.9,0-3.5-0.4-5-1.3
				c-1.4-0.8-2.5-2.1-3.3-3.6c-0.8-1.6-1.2-3.4-1.2-5.5v-1.7c0-3.4,0.8-6,2.4-7.9c1.6-1.9,3.9-2.8,6.8-2.8c2.5,0,4.5,0.6,5.9,1.8
				s2.3,3,2.6,5.3h-3.8c-0.4-2.7-2-4-4.7-4c-1.7,0-3.1,0.6-4,1.9c-0.9,1.2-1.4,3.1-1.4,5.5v1.7c0,2.4,0.5,4.3,1.5,5.6s2.4,2,4.2,2
				c2,0,3.4-0.4,4.2-1.3v-4.4h-4.6v-2.9h8.5V323.4z"/>
			<path class="st0" d="M752,318v8.3h-3.9V304h8.5c2.5,0,4.5,0.6,5.9,1.9c1.5,1.3,2.2,3,2.2,5.2c0,2.2-0.7,3.9-2.2,5.1
				c-1.4,1.2-3.4,1.8-6,1.8H752z M752,314.9h4.7c1.4,0,2.4-0.3,3.2-1c0.7-0.6,1.1-1.6,1.1-2.8c0-1.2-0.4-2.2-1.1-2.9
				c-0.7-0.7-1.7-1.1-3-1.1H752V314.9z"/>
			<path class="st0" d="M785.4,304v14.9c0,2.4-0.8,4.2-2.3,5.6c-1.5,1.4-3.5,2.1-6.1,2.1c-2.6,0-4.6-0.7-6.1-2
				c-1.5-1.4-2.3-3.3-2.3-5.7V304h3.9v14.9c0,1.5,0.4,2.6,1.1,3.4c0.8,0.8,1.9,1.2,3.3,1.2c3,0,4.5-1.6,4.5-4.7V304H785.4z"/>
		</g>
		<g>
			<path class="st3" d="M141.7,382h829.6c5.6,0,10.2,4.6,10.2,10.2v176.1c0,5.6-4.6,10.2-10.2,10.2H141.7c-5.6,0-10.2-4.6-10.2-10.2
				V392.2C131.5,386.6,136.1,382,141.7,382z"/>
			<path class="st4" d="M141.7,382h829.6c5.6,0,10.2,4.6,10.2,10.2v176.1c0,5.6-4.6,10.2-10.2,10.2H141.7c-5.6,0-10.2-4.6-10.2-10.2
				V392.2C131.5,386.6,136.1,382,141.7,382z"/>
		</g>
		<g>
			<path class="st3" d="M141.7,706h345.6c5.6,0,10.2,4.6,10.2,10.2v176.1c0,5.6-4.6,10.2-10.2,10.2H141.7c-5.6,0-10.2-4.6-10.2-10.2
				V716.2C131.5,710.6,136.1,706,141.7,706z"/>
			<path class="st5" d="M141.7,706h345.6c5.6,0,10.2,4.6,10.2,10.2v176.1c0,5.6-4.6,10.2-10.2,10.2H141.7c-5.6,0-10.2-4.6-10.2-10.2
				V716.2C131.5,710.6,136.1,706,141.7,706z"/>
		</g>
		<g>
			<path class="st3" d="M527.7,706h443.6c5.6,0,10.2,4.6,10.2,10.2v176.1c0,5.6-4.6,10.2-10.2,10.2H527.7c-5.6,0-10.2-4.6-10.2-10.2
				V716.2C517.5,710.6,522.1,706,527.7,706z"/>
			<path class="st6" d="M527.7,706h443.6c5.6,0,10.2,4.6,10.2,10.2v176.1c0,5.6-4.6,10.2-10.2,10.2H527.7c-5.6,0-10.2-4.6-10.2-10.2
				V716.2C517.5,710.6,522.1,706,527.7,706z"/>
		</g>
		<path class="st7" d="M154.8,399h312.5c5.1,0,9.2,4.1,9.2,9.2v143.5c0,5.1-4.1,9.2-9.2,9.2H154.8c-5.1,0-9.2-4.1-9.2-9.2V408.2
			C145.5,403.1,149.6,399,154.8,399z"/>
		<g class="st1">
			<path class="st8" d="M626.1,491.1l7.2-22.2h5.4l-10.2,28.4h-4.8l-10.2-28.4h5.4L626.1,491.1z"/>
			<path class="st8" d="M655.2,497.3h-4.7v-22.8l-7,2.4v-4l11.1-4.1h0.6V497.3z"/>
			<path class="st8" d="M684.7,485.3c0,4.1-0.8,7.2-2.3,9.2s-3.9,3.1-7,3.1c-3.1,0-5.4-1-6.9-3s-2.4-5-2.4-9v-4.9
				c0-4.1,0.8-7.2,2.3-9.2s3.9-3.1,7-3.1c3.1,0,5.4,1,7,3s2.3,5,2.4,8.9V485.3z M680,480c0-2.7-0.4-4.6-1.1-5.9s-1.9-1.9-3.5-1.9
				c-1.5,0-2.7,0.6-3.4,1.8s-1.1,3-1.2,5.5v6.4c0,2.7,0.4,4.6,1.1,5.9s1.9,2,3.5,2c1.5,0,2.6-0.6,3.4-1.8s1.1-3.1,1.2-5.7V480z"/>
			<path class="st8" d="M708.6,485.3c0,4.1-0.8,7.2-2.3,9.2s-3.9,3.1-7,3.1c-3.1,0-5.4-1-6.9-3s-2.4-5-2.4-9v-4.9
				c0-4.1,0.8-7.2,2.3-9.2s3.9-3.1,7-3.1c3.1,0,5.4,1,7,3s2.3,5,2.4,8.9V485.3z M703.9,480c0-2.7-0.4-4.6-1.1-5.9s-1.9-1.9-3.5-1.9
				c-1.5,0-2.7,0.6-3.4,1.8s-1.1,3-1.2,5.5v6.4c0,2.7,0.4,4.6,1.1,5.9s1.9,2,3.5,2c1.5,0,2.6-0.6,3.4-1.8s1.1-3.1,1.2-5.7V480z"/>
			<path class="st8" d="M730.6,480.9h2.9c1.5,0,2.6-0.4,3.5-1.1c0.9-0.7,1.3-1.8,1.3-3.2c0-1.4-0.4-2.4-1.1-3.2
				c-0.7-0.7-1.8-1.1-3.3-1.1c-1.3,0-2.3,0.4-3.1,1.1s-1.2,1.7-1.2,2.9h-4.7c0-1.5,0.4-2.8,1.2-4c0.8-1.2,1.9-2.1,3.2-2.8
				s2.9-1,4.7-1c2.8,0,5.1,0.7,6.7,2.1s2.4,3.4,2.4,5.9c0,1.3-0.4,2.5-1.2,3.6c-0.8,1.1-1.9,2-3.2,2.5c1.6,0.5,2.8,1.4,3.6,2.5
				c0.8,1.1,1.2,2.5,1.2,4.1c0,2.6-0.9,4.6-2.6,6.1c-1.8,1.5-4.1,2.3-6.9,2.3c-2.7,0-5-0.7-6.7-2.2c-1.7-1.5-2.6-3.4-2.6-5.8h4.7
				c0,1.2,0.4,2.3,1.3,3s2,1.2,3.4,1.2c1.5,0,2.6-0.4,3.5-1.2c0.8-0.8,1.3-1.9,1.3-3.4c0-1.5-0.4-2.6-1.3-3.5
				c-0.9-0.8-2.2-1.2-3.9-1.2h-2.8V480.9z"/>
			<path class="st8" d="M768.1,497.3H749V494l9.5-10.3c1.4-1.5,2.3-2.8,2.9-3.8c0.6-1,0.9-2,0.9-3.1c0-1.4-0.4-2.4-1.1-3.3
				s-1.8-1.2-3.1-1.2c-1.5,0-2.7,0.5-3.6,1.4c-0.8,0.9-1.3,2.2-1.3,3.8h-4.7c0-1.7,0.4-3.3,1.2-4.7c0.8-1.4,1.9-2.5,3.4-3.2
				s3.2-1.2,5.1-1.2c2.8,0,4.9,0.7,6.5,2.1c1.6,1.4,2.4,3.3,2.4,5.8c0,1.4-0.4,2.9-1.2,4.5s-2.1,3.3-3.9,5.3l-7,7.4h13.2V497.3z"/>
			<path class="st8" d="M795.5,493.6c-1,1.3-2.5,2.4-4.3,3c-1.8,0.7-3.9,1-6.2,1c-2.4,0-4.5-0.5-6.3-1.6s-3.3-2.6-4.2-4.6
				s-1.5-4.4-1.6-7v-2.2c0-4.3,1-7.7,3.1-10.1c2.1-2.4,4.9-3.6,8.6-3.6c3.2,0,5.7,0.8,7.5,2.4c1.9,1.6,3,3.8,3.4,6.8h-4.8
				c-0.5-3.4-2.5-5.1-6-5.1c-2.2,0-3.9,0.8-5,2.4s-1.7,3.9-1.8,7v2.2c0,3.1,0.6,5.5,1.9,7.2c1.3,1.7,3.1,2.5,5.4,2.5
				c2.5,0,4.3-0.6,5.4-1.7v-5.6h-5.9v-3.8h10.8V493.6z"/>
		</g>
		<g class="st1">
			<path class="st8" d="M679.4,821.3h-19.1V818l9.5-10.3c1.4-1.5,2.3-2.8,2.9-3.8c0.6-1,0.9-2,0.9-3.1c0-1.4-0.4-2.4-1.1-3.3
				s-1.8-1.2-3.1-1.2c-1.5,0-2.7,0.5-3.6,1.4c-0.8,0.9-1.3,2.2-1.3,3.8h-4.7c0-1.7,0.4-3.3,1.2-4.7c0.8-1.4,1.9-2.5,3.4-3.2
				s3.2-1.2,5.1-1.2c2.8,0,4.9,0.7,6.5,2.1c1.6,1.4,2.4,3.3,2.4,5.8c0,1.4-0.4,2.9-1.2,4.5s-2.1,3.3-3.9,5.3l-7,7.4h13.2V821.3z"/>
			<path class="st8" d="M703.3,821.3h-19.1V818l9.5-10.3c1.4-1.5,2.3-2.8,2.9-3.8c0.6-1,0.9-2,0.9-3.1c0-1.4-0.4-2.4-1.1-3.3
				s-1.8-1.2-3.1-1.2c-1.5,0-2.7,0.5-3.6,1.4c-0.8,0.9-1.3,2.2-1.3,3.8h-4.7c0-1.7,0.4-3.3,1.2-4.7c0.8-1.4,1.9-2.5,3.4-3.2
				s3.2-1.2,5.1-1.2c2.8,0,4.9,0.7,6.5,2.1c1.6,1.4,2.4,3.3,2.4,5.8c0,1.4-0.4,2.9-1.2,4.5s-2.1,3.3-3.9,5.3l-7,7.4h13.2V821.3z"/>
			<path class="st8" d="M730.6,817.6c-1,1.3-2.5,2.4-4.3,3s-3.9,1-6.2,1c-2.4,0-4.5-0.5-6.3-1.6s-3.3-2.6-4.2-4.6s-1.5-4.4-1.6-7
				v-2.2c0-4.3,1-7.7,3.1-10.1s4.9-3.6,8.6-3.6c3.2,0,5.7,0.8,7.5,2.4s3,3.8,3.4,6.8h-4.8c-0.5-3.4-2.5-5.1-6-5.1
				c-2.2,0-3.9,0.8-5,2.4s-1.7,3.9-1.8,7v2.2c0,3.1,0.6,5.5,1.9,7.2c1.3,1.7,3.1,2.5,5.4,2.5c2.5,0,4.3-0.6,5.4-1.7v-5.6h-5.9v-3.8
				h10.8V817.6z"/>
		</g>
		<g class="st1">
			<path class="st8" d="M764.9,809.2h-11.4v12.1h-4.9v-28.4h18.1v4h-13.1v8.5h11.4V809.2z"/>
		</g>
		<g class="st1">
			<path class="st8" d="M781.8,804.5c-0.6-0.1-1.3-0.2-1.9-0.2c-2.2,0-3.6,0.8-4.4,2.5v14.5h-4.7v-21.1h4.5l0.1,2.4
				c1.1-1.8,2.7-2.8,4.8-2.8c0.7,0,1.2,0.1,1.7,0.3L781.8,804.5z"/>
		</g>
		<g class="st1">
			<path class="st8" d="M794.9,821.7c-3,0-5.4-0.9-7.3-2.8c-1.9-1.9-2.8-4.4-2.8-7.6v-0.6c0-2.1,0.4-4,1.2-5.7c0.8-1.7,2-3,3.4-3.9
				c1.5-0.9,3.1-1.4,4.9-1.4c2.9,0,5.1,0.9,6.7,2.8c1.6,1.8,2.4,4.4,2.4,7.8v1.9h-13.8c0.1,1.7,0.7,3.1,1.7,4.1c1,1,2.3,1.5,3.9,1.5
				c2.2,0,3.9-0.9,5.3-2.6l2.6,2.4c-0.8,1.3-2,2.2-3.4,2.9C798.2,821.3,796.7,821.7,794.9,821.7z M794.3,803.6
				c-1.3,0-2.4,0.5-3.2,1.4s-1.3,2.2-1.5,3.8h9v-0.4c-0.1-1.6-0.5-2.8-1.3-3.6S795.6,803.6,794.3,803.6z"/>
			<path class="st8" d="M817.5,821.7c-3,0-5.4-0.9-7.3-2.8c-1.9-1.9-2.8-4.4-2.8-7.6v-0.6c0-2.1,0.4-4,1.2-5.7c0.8-1.7,2-3,3.4-3.9
				c1.5-0.9,3.1-1.4,4.9-1.4c2.9,0,5.1,0.9,6.7,2.8c1.6,1.8,2.4,4.4,2.4,7.8v1.9h-13.8c0.1,1.7,0.7,3.1,1.7,4.1c1,1,2.3,1.5,3.9,1.5
				c2.2,0,3.9-0.9,5.3-2.6l2.6,2.4c-0.8,1.3-2,2.2-3.4,2.9C820.9,821.3,819.3,821.7,817.5,821.7z M817,803.6c-1.3,0-2.4,0.5-3.2,1.4
				s-1.3,2.2-1.5,3.8h9v-0.4c-0.1-1.6-0.5-2.8-1.3-3.6S818.3,803.6,817,803.6z"/>
		</g>
		<g class="st1">
			<path class="st0" d="M268.6,444.7h-8.2v22.6h-4.5v-22.6h-8.1V441h20.9V444.7z"/>
		</g>
		<g class="st1">
			<path class="st0" d="M281.4,467.3c-0.2-0.4-0.4-1-0.5-1.8c-1.4,1.5-3.1,2.2-5.1,2.2c-2,0-3.6-0.6-4.8-1.7
				c-1.2-1.1-1.9-2.5-1.9-4.2c0-2.1,0.8-3.7,2.3-4.8c1.5-1.1,3.8-1.7,6.6-1.7h2.7v-1.3c0-1-0.3-1.8-0.8-2.4
				c-0.6-0.6-1.4-0.9-2.6-0.9c-1,0-1.8,0.2-2.5,0.7c-0.6,0.5-1,1.1-1,1.9h-4.4c0-1.1,0.4-2.1,1.1-3c0.7-0.9,1.7-1.7,2.9-2.2
				c1.2-0.5,2.6-0.8,4.1-0.8c2.3,0,4.1,0.6,5.5,1.7c1.4,1.2,2.1,2.8,2.1,4.9v8.8c0,1.8,0.2,3.2,0.7,4.2v0.3H281.4z M276.6,464.1
				c0.9,0,1.7-0.2,2.4-0.6c0.8-0.4,1.3-1,1.7-1.7v-3.7h-2.4c-1.6,0-2.8,0.3-3.7,0.8c-0.8,0.6-1.2,1.4-1.2,2.4c0,0.8,0.3,1.5,0.8,2
				C274.9,463.9,275.6,464.1,276.6,464.1z"/>
			<path class="st0" d="M301.8,462c0-0.8-0.3-1.4-1-1.8c-0.6-0.4-1.7-0.8-3.2-1.1c-1.5-0.3-2.7-0.7-3.7-1.2
				c-2.2-1.1-3.3-2.6-3.3-4.6c0-1.7,0.7-3.1,2.1-4.2c1.4-1.1,3.2-1.7,5.4-1.7c2.3,0,4.2,0.6,5.7,1.7c1.4,1.2,2.2,2.7,2.2,4.5h-4.4
				c0-0.8-0.3-1.5-0.9-2.1c-0.6-0.6-1.5-0.8-2.5-0.8c-1,0-1.7,0.2-2.4,0.7c-0.6,0.4-0.9,1-0.9,1.8c0,0.7,0.3,1.2,0.8,1.6
				c0.6,0.4,1.7,0.7,3.4,1.1c1.7,0.4,3.1,0.8,4.1,1.4c1,0.5,1.7,1.2,2.2,1.9c0.5,0.7,0.7,1.6,0.7,2.7c0,1.8-0.7,3.2-2.2,4.3
				c-1.5,1.1-3.4,1.6-5.7,1.6c-1.6,0-3-0.3-4.3-0.9c-1.3-0.6-2.2-1.4-2.9-2.4c-0.7-1-1-2.1-1-3.3h4.3c0.1,1,0.5,1.8,1.2,2.4
				c0.7,0.6,1.7,0.8,2.9,0.8c1.2,0,2-0.2,2.6-0.7C301.5,463.3,301.8,462.7,301.8,462z"/>
			<path class="st0" d="M317.4,458.9l-2,2v6.4h-4.4v-27.8h4.4v16l1.4-1.7l5.4-6.1h5.3l-7.3,8.1l8,11.4h-5.1L317.4,458.9z"/>
			<path class="st0" d="M356.9,461.2h-10.2l-2.1,6.1h-4.8l9.9-26.3h4.1l10,26.3h-4.8L356.9,461.2z M348,457.5h7.6l-3.8-10.9
				L348,457.5z"/>
		</g>
		<g class="st1">
			<path class="st0" d="M207.5,506.4c0-0.8-0.3-1.4-1-1.8c-0.6-0.4-1.7-0.8-3.2-1.1c-1.5-0.3-2.7-0.7-3.7-1.2
				c-2.2-1.1-3.3-2.6-3.3-4.6c0-1.7,0.7-3.1,2.1-4.2c1.4-1.1,3.2-1.7,5.4-1.7c2.3,0,4.2,0.6,5.7,1.7c1.4,1.2,2.2,2.7,2.2,4.5h-4.4
				c0-0.8-0.3-1.5-0.9-2.1c-0.6-0.6-1.5-0.8-2.5-0.8c-1,0-1.7,0.2-2.4,0.7c-0.6,0.4-0.9,1-0.9,1.8c0,0.7,0.3,1.2,0.8,1.6
				c0.6,0.4,1.7,0.7,3.4,1.1c1.7,0.4,3.1,0.8,4.1,1.4c1,0.5,1.7,1.2,2.2,1.9c0.5,0.7,0.7,1.6,0.7,2.7c0,1.8-0.7,3.2-2.2,4.3
				c-1.5,1.1-3.4,1.6-5.7,1.6c-1.6,0-3-0.3-4.3-0.9c-1.3-0.6-2.2-1.4-2.9-2.4c-0.7-1-1-2.1-1-3.3h4.3c0.1,1,0.5,1.8,1.2,2.4
				c0.7,0.6,1.7,0.8,2.9,0.8c1.2,0,2-0.2,2.6-0.7C207.2,507.7,207.5,507.1,207.5,506.4z"/>
			<path class="st0" d="M222.2,487.4v4.8h3.5v3.3h-3.5v10.9c0,0.7,0.1,1.3,0.4,1.6c0.3,0.3,0.8,0.5,1.6,0.5c0.5,0,1-0.1,1.5-0.2v3.4
				c-1,0.3-2,0.4-2.9,0.4c-3.4,0-5.1-1.9-5.1-5.6v-11.1h-3.2v-3.3h3.2v-4.8H222.2z"/>
			<path class="st0" d="M241.8,511.7c-0.2-0.4-0.4-1-0.5-1.8c-1.4,1.5-3.1,2.2-5.1,2.2c-2,0-3.6-0.6-4.8-1.7
				c-1.2-1.1-1.9-2.5-1.9-4.2c0-2.1,0.8-3.7,2.3-4.8c1.5-1.1,3.8-1.7,6.6-1.7h2.7v-1.3c0-1-0.3-1.8-0.8-2.4
				c-0.6-0.6-1.4-0.9-2.6-0.9c-1,0-1.8,0.2-2.5,0.7c-0.6,0.5-1,1.1-1,1.9H230c0-1.1,0.4-2.1,1.1-3c0.7-0.9,1.7-1.7,2.9-2.2
				c1.2-0.5,2.6-0.8,4.1-0.8c2.3,0,4.1,0.6,5.5,1.7c1.4,1.2,2.1,2.8,2.1,4.9v8.8c0,1.8,0.2,3.2,0.7,4.2v0.3H241.8z M237,508.5
				c0.9,0,1.7-0.2,2.4-0.6c0.8-0.4,1.3-1,1.7-1.7v-3.7h-2.4c-1.6,0-2.8,0.3-3.7,0.8c-0.8,0.6-1.2,1.4-1.2,2.4c0,0.8,0.3,1.5,0.8,2
				C235.3,508.3,236.1,508.5,237,508.5z"/>
			<path class="st0" d="M268.4,502.1c0,3-0.7,5.5-2,7.2c-1.4,1.8-3.2,2.7-5.6,2.7c-2.3,0-4.1-0.8-5.3-2.5l-0.2,2.1h-4v-27.8h4.4V494
				c1.3-1.5,3-2.2,5.1-2.2c2.4,0,4.3,0.9,5.6,2.7c1.4,1.8,2,4.2,2,7.4V502.1z M264.1,501.7c0-2.1-0.4-3.7-1.1-4.8
				c-0.7-1.1-1.8-1.6-3.3-1.6c-1.9,0-3.2,0.8-4,2.5v8.1c0.8,1.7,2.1,2.5,4,2.5c1.4,0,2.4-0.5,3.2-1.5c0.7-1,1.1-2.6,1.2-4.6V501.7z"
				/>
			<path class="st0" d="M277.9,511.7h-4.4v-27.8h4.4V511.7z"/>
			<path class="st0" d="M292.4,512c-2.8,0-5-0.9-6.8-2.6c-1.7-1.8-2.6-4.1-2.6-7v-0.5c0-2,0.4-3.7,1.1-5.2c0.8-1.5,1.8-2.7,3.2-3.6
				c1.4-0.9,2.9-1.3,4.6-1.3c2.7,0,4.7,0.8,6.2,2.5c1.5,1.7,2.2,4.1,2.2,7.2v1.8h-12.8c0.1,1.6,0.7,2.9,1.6,3.8
				c0.9,0.9,2.1,1.4,3.6,1.4c2,0,3.6-0.8,4.9-2.4l2.4,2.3c-0.8,1.2-1.8,2.1-3.1,2.7C295.5,511.7,294,512,292.4,512z M291.9,495.3
				c-1.2,0-2.2,0.4-2.9,1.3c-0.7,0.8-1.2,2-1.4,3.5h8.4v-0.3c-0.1-1.5-0.5-2.6-1.2-3.3S293.1,495.3,291.9,495.3z"/>
			<path class="st0" d="M326.8,511.7c-0.2-0.4-0.4-1-0.5-1.8c-1.4,1.5-3.1,2.2-5.1,2.2c-2,0-3.6-0.6-4.8-1.7
				c-1.2-1.1-1.9-2.5-1.9-4.2c0-2.1,0.8-3.7,2.3-4.8c1.5-1.1,3.8-1.7,6.6-1.7h2.7v-1.3c0-1-0.3-1.8-0.8-2.4
				c-0.6-0.6-1.4-0.9-2.6-0.9c-1,0-1.8,0.2-2.5,0.7c-0.6,0.5-1,1.1-1,1.9h-4.4c0-1.1,0.4-2.1,1.1-3c0.7-0.9,1.7-1.7,2.9-2.2
				c1.2-0.5,2.6-0.8,4.1-0.8c2.3,0,4.1,0.6,5.5,1.7c1.4,1.2,2.1,2.8,2.1,4.9v8.8c0,1.8,0.2,3.2,0.7,4.2v0.3H326.8z M321.9,508.5
				c0.9,0,1.7-0.2,2.4-0.6c0.8-0.4,1.3-1,1.7-1.7v-3.7h-2.4c-1.6,0-2.8,0.3-3.7,0.8c-0.8,0.6-1.2,1.4-1.2,2.4c0,0.8,0.3,1.5,0.8,2
				C320.2,508.3,321,508.5,321.9,508.5z"/>
			<path class="st0" d="M341.7,487.4v4.8h3.5v3.3h-3.5v10.9c0,0.7,0.1,1.3,0.4,1.6c0.3,0.3,0.8,0.5,1.6,0.5c0.5,0,1-0.1,1.5-0.2v3.4
				c-1,0.3-2,0.4-2.9,0.4c-3.4,0-5.1-1.9-5.1-5.6v-11.1h-3.2v-3.3h3.2v-4.8H341.7z"/>
			<path class="st0" d="M371.5,511.7h-4.4v-21.1l-6.4,2.2v-3.7l10.3-3.8h0.6V511.7z"/>
			<path class="st0" d="M398.9,500.6c0,3.8-0.7,6.6-2.1,8.6c-1.4,1.9-3.6,2.9-6.5,2.9c-2.8,0-5-0.9-6.4-2.8
				c-1.4-1.9-2.2-4.6-2.2-8.3v-4.6c0-3.8,0.7-6.6,2.1-8.5c1.4-1.9,3.6-2.8,6.5-2.8c2.9,0,5,0.9,6.4,2.8c1.4,1.8,2.1,4.6,2.2,8.3
				V500.6z M394.6,495.7c0-2.5-0.3-4.3-1-5.4c-0.7-1.1-1.7-1.7-3.2-1.7c-1.4,0-2.5,0.5-3.2,1.6c-0.7,1.1-1,2.8-1.1,5.1v6
				c0,2.5,0.3,4.3,1,5.5s1.8,1.8,3.2,1.8c1.4,0,2.5-0.6,3.1-1.7c0.7-1.1,1-2.9,1.1-5.2V495.7z"/>
			<path class="st0" d="M424.8,508.3c-1,1.2-2.3,2.2-4,2.8c-1.7,0.6-3.6,1-5.7,1c-2.2,0-4.2-0.5-5.9-1.5c-1.7-1-3-2.4-3.9-4.3
				c-0.9-1.9-1.4-4-1.4-6.5v-2.1c0-4,1-7.1,2.9-9.3c1.9-2.2,4.6-3.4,8-3.4c2.9,0,5.3,0.7,7,2.2c1.7,1.5,2.8,3.5,3.1,6.3h-4.5
				c-0.5-3.2-2.3-4.8-5.5-4.8c-2,0-3.6,0.7-4.7,2.2c-1.1,1.5-1.6,3.6-1.7,6.5v2c0,2.8,0.6,5,1.8,6.6c1.2,1.6,2.9,2.4,5,2.4
				c2.3,0,4-0.5,5-1.6v-5.1h-5.4v-3.5h10V508.3z"/>
		</g>
		<path class="st7" d="M157.8,723h309.5c5.1,0,9.2,4.1,9.2,9.2v143.5c0,5.1-4.1,9.2-9.2,9.2H157.8c-5.1,0-9.2-4.1-9.2-9.2V732.2
			C148.5,727.1,152.6,723,157.8,723z"/>
		<g class="st1">
			<path class="st0" d="M234.2,784.9c0-1.1-0.4-1.9-1.2-2.5c-0.8-0.6-2.2-1.2-4.2-1.8c-2-0.6-3.6-1.3-4.8-2
				c-2.3-1.4-3.4-3.3-3.4-5.6c0-2,0.8-3.7,2.5-5c1.6-1.3,3.8-1.9,6.4-1.9c1.7,0,3.3,0.3,4.6,1c1.4,0.6,2.4,1.5,3.2,2.7
				c0.8,1.2,1.2,2.5,1.2,3.9h-4.3c0-1.3-0.4-2.3-1.2-3.1c-0.8-0.7-2-1.1-3.5-1.1c-1.4,0-2.5,0.3-3.3,0.9c-0.8,0.6-1.2,1.4-1.2,2.5
				c0,0.9,0.4,1.7,1.3,2.3c0.8,0.6,2.2,1.2,4.2,1.8c1.9,0.6,3.5,1.2,4.7,2c1.2,0.7,2,1.6,2.6,2.5c0.5,1,0.8,2.1,0.8,3.3
				c0,2.1-0.8,3.7-2.4,4.9c-1.6,1.2-3.7,1.8-6.5,1.8c-1.8,0-3.5-0.3-5-1c-1.5-0.7-2.7-1.6-3.5-2.8c-0.8-1.2-1.3-2.5-1.3-4.1h4.3
				c0,1.4,0.5,2.5,1.4,3.3c0.9,0.8,2.3,1.2,4,1.2c1.5,0,2.6-0.3,3.4-0.9C233.8,786.7,234.2,785.9,234.2,784.9z"/>
			<path class="st0" d="M251.1,791.6c-2.6,0-4.8-0.8-6.4-2.5c-1.6-1.7-2.5-3.9-2.5-6.6V782c0-1.8,0.4-3.5,1.1-4.9
				c0.7-1.5,1.7-2.6,3-3.4c1.3-0.8,2.7-1.2,4.3-1.2c2.5,0,4.5,0.8,5.8,2.4c1.4,1.6,2.1,3.9,2.1,6.8v1.7h-12.1
				c0.1,1.5,0.6,2.7,1.5,3.6s2,1.3,3.4,1.3c1.9,0,3.5-0.8,4.6-2.3l2.2,2.1c-0.7,1.1-1.7,2-3,2.6C254,791.3,252.7,791.6,251.1,791.6z
				 M250.6,775.8c-1.1,0-2.1,0.4-2.8,1.2c-0.7,0.8-1.1,1.9-1.3,3.3h7.9V780c-0.1-1.4-0.5-2.4-1.1-3.2
				C252.7,776.1,251.8,775.8,250.6,775.8z"/>
			<path class="st0" d="M268,768.3v4.5h3.3v3.1H268v10.3c0,0.7,0.1,1.2,0.4,1.5c0.3,0.3,0.8,0.5,1.5,0.5c0.5,0,1-0.1,1.5-0.2v3.2
				c-0.9,0.3-1.9,0.4-2.7,0.4c-3.2,0-4.8-1.8-4.8-5.3v-10.5h-3v-3.1h3v-4.5H268z"/>
		</g>
		<g class="st1">
		</g>
		<g class="st1">
			<path class="st0" d="M302.6,769.9h-7.8v21.4h-4.3v-21.4h-7.7v-3.5h19.7V769.9z"/>
		</g>
		<g class="st1">
			<path class="st0" d="M314.7,791.3c-0.2-0.4-0.3-0.9-0.5-1.7c-1.3,1.4-2.9,2.1-4.9,2.1c-1.9,0-3.4-0.5-4.5-1.6
				c-1.2-1.1-1.8-2.4-1.8-3.9c0-2,0.7-3.5,2.2-4.5c1.5-1.1,3.6-1.6,6.3-1.6h2.5v-1.2c0-1-0.3-1.7-0.8-2.3c-0.5-0.6-1.4-0.9-2.4-0.9
				c-0.9,0-1.7,0.2-2.3,0.7c-0.6,0.5-0.9,1.1-0.9,1.8h-4.2c0-1,0.3-2,1-2.8c0.7-0.9,1.6-1.6,2.7-2.1c1.2-0.5,2.4-0.8,3.9-0.8
				c2.2,0,3.9,0.5,5.2,1.6c1.3,1.1,1.9,2.6,2,4.6v8.3c0,1.7,0.2,3,0.7,4v0.3H314.7z M310.1,788.3c0.8,0,1.6-0.2,2.3-0.6
				c0.7-0.4,1.3-0.9,1.6-1.6v-3.5h-2.2c-1.5,0-2.7,0.3-3.5,0.8c-0.8,0.5-1.2,1.3-1.2,2.3c0,0.8,0.3,1.4,0.8,1.9
				C308.5,788.1,309.3,788.3,310.1,788.3z"/>
			<path class="st0" d="M334,786.3c0-0.7-0.3-1.3-0.9-1.7c-0.6-0.4-1.6-0.7-3-1c-1.4-0.3-2.6-0.7-3.5-1.1c-2.1-1-3.1-2.5-3.1-4.4
				c0-1.6,0.7-2.9,2-4c1.3-1.1,3.1-1.6,5.1-1.6c2.2,0,4,0.5,5.4,1.6c1.4,1.1,2,2.5,2,4.3h-4.2c0-0.8-0.3-1.5-0.9-2
				c-0.6-0.5-1.4-0.8-2.4-0.8c-0.9,0-1.7,0.2-2.2,0.6c-0.6,0.4-0.9,1-0.9,1.7c0,0.6,0.3,1.1,0.8,1.5c0.5,0.4,1.6,0.7,3.2,1.1
				c1.6,0.4,2.9,0.8,3.8,1.3c0.9,0.5,1.6,1.1,2.1,1.8c0.4,0.7,0.7,1.5,0.7,2.5c0,1.7-0.7,3-2.1,4c-1.4,1-3.2,1.5-5.4,1.5
				c-1.5,0-2.9-0.3-4.1-0.8c-1.2-0.5-2.1-1.3-2.8-2.3c-0.7-1-1-2-1-3.1h4c0.1,1,0.4,1.7,1.1,2.3c0.7,0.5,1.6,0.8,2.7,0.8
				c1.1,0,1.9-0.2,2.5-0.6C333.7,787.5,334,786.9,334,786.3z"/>
			<path class="st0" d="M348.8,783.4l-1.8,1.9v6h-4.2V765h4.2v15.1l1.3-1.6l5.1-5.8h5l-6.9,7.7l7.6,10.8h-4.8L348.8,783.4z"/>
			<path class="st0" d="M386.2,785.5h-9.6l-2,5.8H370l9.4-24.9h3.9l9.4,24.9h-4.5L386.2,785.5z M377.7,782h7.2l-3.6-10.3L377.7,782z
				"/>
		</g>
		<g class="st1">
			<path class="st0" d="M187.9,833.3c-0.2-0.4-0.3-0.9-0.5-1.7c-1.3,1.4-2.9,2.1-4.9,2.1c-1.9,0-3.4-0.5-4.5-1.6
				c-1.2-1.1-1.8-2.4-1.8-3.9c0-2,0.7-3.5,2.2-4.5c1.5-1.1,3.6-1.6,6.3-1.6h2.5v-1.2c0-1-0.3-1.7-0.8-2.3c-0.5-0.6-1.4-0.9-2.4-0.9
				c-0.9,0-1.7,0.2-2.3,0.7c-0.6,0.5-0.9,1.1-0.9,1.8h-4.2c0-1,0.3-2,1-2.8c0.7-0.9,1.6-1.6,2.7-2.1c1.2-0.5,2.4-0.8,3.9-0.8
				c2.2,0,3.9,0.5,5.2,1.6c1.3,1.1,1.9,2.6,2,4.6v8.3c0,1.7,0.2,3,0.7,4v0.3H187.9z M183.3,830.3c0.8,0,1.6-0.2,2.3-0.6
				c0.7-0.4,1.3-0.9,1.6-1.6v-3.5H185c-1.5,0-2.7,0.3-3.5,0.8c-0.8,0.5-1.2,1.3-1.2,2.3c0,0.8,0.3,1.4,0.8,1.9
				C181.7,830.1,182.4,830.3,183.3,830.3z"/>
			<path class="st0" d="M201.2,833.3h-4.2V807h4.2V833.3z"/>
			<path class="st0" d="M211.2,833.3h-4.2V807h4.2V833.3z"/>
			<path class="st0" d="M216,823.9c0-1.8,0.4-3.4,1.1-4.9c0.7-1.5,1.7-2.6,3-3.3s2.8-1.2,4.5-1.2c2.5,0,4.5,0.8,6.1,2.4
				c1.6,1.6,2.4,3.7,2.5,6.4l0,1c0,1.8-0.4,3.5-1.1,4.9c-0.7,1.4-1.7,2.5-3,3.3c-1.3,0.8-2.8,1.2-4.5,1.2c-2.6,0-4.7-0.9-6.3-2.6
				c-1.6-1.7-2.4-4.1-2.4-6.9V823.9z M220.2,824.2c0,1.9,0.4,3.4,1.2,4.5c0.8,1.1,1.9,1.6,3.3,1.6s2.5-0.5,3.3-1.6
				c0.8-1.1,1.2-2.7,1.2-4.8c0-1.9-0.4-3.3-1.2-4.4c-0.8-1.1-1.9-1.6-3.3-1.6c-1.4,0-2.4,0.5-3.2,1.6
				C220.6,820.5,220.2,822.1,220.2,824.2z"/>
			<path class="st0" d="M245.4,830.3c1,0,1.9-0.3,2.6-0.9c0.7-0.6,1-1.4,1.1-2.2h3.9c0,1.2-0.4,2.2-1.1,3.2c-0.7,1-1.6,1.8-2.7,2.4
				c-1.2,0.6-2.4,0.9-3.7,0.9c-2.6,0-4.6-0.8-6.2-2.5c-1.5-1.7-2.3-4-2.3-6.9v-0.4c0-2.8,0.8-5.1,2.3-6.8c1.5-1.7,3.6-2.5,6.2-2.5
				c2.2,0,4,0.6,5.4,1.9c1.4,1.3,2.1,3,2.2,5H249c0-1.1-0.4-1.9-1.1-2.6c-0.7-0.7-1.5-1-2.6-1c-1.3,0-2.4,0.5-3.1,1.5
				c-0.7,1-1.1,2.5-1.1,4.4v0.7c0,2,0.4,3.5,1.1,4.5C243,829.8,244,830.3,245.4,830.3z"/>
			<path class="st0" d="M268.2,833.3c-0.2-0.4-0.3-0.9-0.5-1.7c-1.3,1.4-2.9,2.1-4.9,2.1c-1.9,0-3.4-0.5-4.5-1.6
				c-1.2-1.1-1.8-2.4-1.8-3.9c0-2,0.7-3.5,2.2-4.5c1.5-1.1,3.6-1.6,6.3-1.6h2.5v-1.2c0-1-0.3-1.7-0.8-2.3c-0.5-0.6-1.4-0.9-2.4-0.9
				c-0.9,0-1.7,0.2-2.3,0.7c-0.6,0.5-0.9,1.1-0.9,1.8h-4.2c0-1,0.3-2,1-2.8c0.7-0.9,1.6-1.6,2.7-2.1c1.2-0.5,2.4-0.8,3.9-0.8
				c2.2,0,3.9,0.5,5.2,1.6c1.3,1.1,1.9,2.6,2,4.6v8.3c0,1.7,0.2,3,0.7,4v0.3H268.2z M263.6,830.3c0.8,0,1.6-0.2,2.3-0.6
				c0.7-0.4,1.3-0.9,1.6-1.6v-3.5h-2.2c-1.5,0-2.7,0.3-3.5,0.8c-0.8,0.5-1.2,1.3-1.2,2.3c0,0.8,0.3,1.4,0.8,1.9
				C262,830.1,262.7,830.3,263.6,830.3z"/>
			<path class="st0" d="M282.3,810.3v4.5h3.3v3.1h-3.3v10.3c0,0.7,0.1,1.2,0.4,1.5c0.3,0.3,0.8,0.5,1.5,0.5c0.5,0,1-0.1,1.5-0.2v3.2
				c-0.9,0.3-1.9,0.4-2.7,0.4c-3.2,0-4.8-1.8-4.8-5.3v-10.5h-3v-3.1h3v-4.5H282.3z"/>
			<path class="st0" d="M298,833.6c-2.6,0-4.8-0.8-6.4-2.5c-1.6-1.7-2.5-3.9-2.5-6.6V824c0-1.8,0.4-3.5,1.1-4.9
				c0.7-1.5,1.7-2.6,3-3.4c1.3-0.8,2.7-1.2,4.3-1.2c2.5,0,4.5,0.8,5.8,2.4c1.4,1.6,2.1,3.9,2.1,6.8v1.7h-12.1
				c0.1,1.5,0.6,2.7,1.5,3.6s2,1.3,3.4,1.3c1.9,0,3.5-0.8,4.6-2.3l2.2,2.1c-0.7,1.1-1.7,2-3,2.6C300.9,833.3,299.5,833.6,298,833.6z
				 M297.5,817.8c-1.1,0-2.1,0.4-2.8,1.2c-0.7,0.8-1.1,1.9-1.3,3.3h7.9V822c-0.1-1.4-0.5-2.4-1.1-3.2
				C299.5,818.1,298.6,817.8,297.5,817.8z"/>
			<path class="st0" d="M308.9,823.9c0-2.8,0.7-5.1,2-6.9c1.3-1.7,3.1-2.6,5.3-2.6c2,0,3.5,0.7,4.8,2.1V807h4.2v26.2h-3.8l-0.2-1.9
				c-1.2,1.5-2.9,2.3-5,2.3c-2.2,0-3.9-0.9-5.3-2.6C309.5,829.3,308.9,826.9,308.9,823.9z M313,824.3c0,1.9,0.4,3.3,1.1,4.4
				c0.7,1.1,1.8,1.6,3.1,1.6c1.7,0,2.9-0.8,3.7-2.3v-7.9c-0.8-1.5-2-2.2-3.7-2.2c-1.3,0-2.4,0.5-3.1,1.6
				C313.4,820.5,313,822.1,313,824.3z"/>
		</g>
		<g class="st1">
			<path class="st0" d="M345.4,810.3v4.5h3.3v3.1h-3.3v10.3c0,0.7,0.1,1.2,0.4,1.5c0.3,0.3,0.8,0.5,1.5,0.5c0.5,0,1-0.1,1.5-0.2v3.2
				c-0.9,0.3-1.9,0.4-2.7,0.4c-3.2,0-4.8-1.8-4.8-5.3v-10.5h-3v-3.1h3v-4.5H345.4z"/>
		</g>
		<g class="st1">
			<path class="st0" d="M351.6,823.9c0-1.8,0.4-3.4,1.1-4.9c0.7-1.5,1.7-2.6,3-3.3s2.8-1.2,4.5-1.2c2.5,0,4.5,0.8,6.1,2.4
				c1.6,1.6,2.4,3.7,2.5,6.4l0,1c0,1.8-0.4,3.5-1.1,4.9c-0.7,1.4-1.7,2.5-3,3.3c-1.3,0.8-2.8,1.2-4.5,1.2c-2.6,0-4.7-0.9-6.3-2.6
				c-1.6-1.7-2.4-4.1-2.4-6.9V823.9z M355.8,824.2c0,1.9,0.4,3.4,1.2,4.5c0.8,1.1,1.9,1.6,3.3,1.6s2.5-0.5,3.3-1.6
				c0.8-1.1,1.2-2.7,1.2-4.8c0-1.9-0.4-3.3-1.2-4.4c-0.8-1.1-1.9-1.6-3.3-1.6c-1.4,0-2.4,0.5-3.2,1.6
				C356.2,820.5,355.8,822.1,355.8,824.2z"/>
			<path class="st0" d="M394.1,833.3H390v-20l-6.1,2.1v-3.5l9.7-3.6h0.5V833.3z"/>
			<path class="st0" d="M420,822.8c0,3.6-0.7,6.3-2,8.1c-1.3,1.8-3.4,2.7-6.1,2.7c-2.7,0-4.7-0.9-6.1-2.7s-2.1-4.4-2.1-7.9v-4.3
				c0-3.6,0.7-6.3,2-8c1.3-1.8,3.4-2.7,6.1-2.7c2.7,0,4.8,0.9,6.1,2.6c1.3,1.7,2,4.4,2.1,7.8V822.8z M415.9,818.2c0-2.3-0.3-4-1-5.1
				c-0.6-1.1-1.7-1.6-3-1.6c-1.4,0-2.4,0.5-3,1.5c-0.6,1-1,2.6-1,4.8v5.6c0,2.3,0.3,4.1,1,5.2c0.6,1.1,1.7,1.7,3.1,1.7
				c1.3,0,2.3-0.5,3-1.6c0.6-1.1,1-2.7,1-4.9V818.2z"/>
			<path class="st0" d="M444.5,830c-0.9,1.2-2.1,2.1-3.7,2.7c-1.6,0.6-3.4,0.9-5.4,0.9c-2.1,0-3.9-0.5-5.5-1.4
				c-1.6-0.9-2.8-2.3-3.7-4.1c-0.9-1.8-1.3-3.8-1.4-6.2V820c0-3.8,0.9-6.7,2.7-8.8c1.8-2.1,4.3-3.2,7.5-3.2c2.8,0,5,0.7,6.6,2.1
				c1.6,1.4,2.6,3.3,2.9,5.9h-4.2c-0.5-3-2.2-4.5-5.2-4.5c-1.9,0-3.4,0.7-4.4,2.1c-1,1.4-1.5,3.4-1.6,6.1v1.9c0,2.7,0.6,4.8,1.7,6.3
				c1.1,1.5,2.7,2.2,4.7,2.2c2.2,0,3.8-0.5,4.7-1.5v-4.9h-5.1v-3.3h9.4V830z"/>
		</g>
		<g>
			<line class="st9" x1="312.8" y1="250.1" x2="313" y2="369.3"/>
			<polygon class="st0" points="304.8,366.9 313,381 321.1,366.9 			"/>
		</g>
		<g>
			<line class="st10" x1="310.8" y1="562.1" x2="311" y2="692.8"/>
			<polygon class="st0" points="302.5,690.3 311,705 319.5,690.3 			"/>
		</g>
		<g>
			<line class="st11" x1="731.8" y1="579" x2="732" y2="690.7"/>
			<polygon class="st12" points="722,687.8 732,705 741.9,687.7 			"/>
		</g>
	</g>
</g>
</svg>
