<?xml version="1.0" encoding="utf-8"?>
<!-- Generator: Adobe Illustrator 26.4.1, SVG Export Plug-In . SVG Version: 6.00 Build 0)  -->
<svg version="1.1" id="图层_1" xmlns="http://www.w3.org/2000/svg" xmlns:xlink="http://www.w3.org/1999/xlink" x="0px" y="0px"
	 viewBox="0 0 1391 1080" style="enable-background:new 0 0 1391 1080;" xml:space="preserve">
<style type="text/css">
	.st0{opacity:0.22;fill:#2386AD;enable-background:new    ;}
	.st1{fill:none;stroke:#4877AF;stroke-width:3.27;stroke-miterlimit:10;}
	.st2{enable-background:new    ;}
	.st3{fill:#0E355B;}
	.st4{opacity:0.22;fill:#6AAF22;enable-background:new    ;}
	.st5{fill:none;stroke:#73B02C;stroke-width:3.27;stroke-miterlimit:10;}
	.st6{fill:none;stroke:#73B02C;stroke-width:1.19;stroke-miterlimit:10;}
	.st7{fill:#73B02C;}
	.st8{opacity:0.22;fill:#C4BB12;enable-background:new    ;}
	.st9{fill:none;stroke:#ADA649;stroke-width:3.27;stroke-miterlimit:10;}
	.st10{opacity:0.22;fill:#2651A8;enable-background:new    ;}
	.st11{opacity:0.22;fill:#00126D;enable-background:new    ;}
	.st12{opacity:0.22;fill:#26A2A8;enable-background:new    ;}
	.st13{fill:none;stroke:#87CCCC;stroke-width:0.77;stroke-miterlimit:10;}
	.st14{fill:none;stroke:#4765C4;stroke-width:1.19;stroke-miterlimit:10;}
	.st15{fill:#4765C4;}
	.st16{fill:none;stroke:#8B92A5;stroke-width:1.19;stroke-miterlimit:10;}
	.st17{fill:#8B92A5;}
	.st18{fill:#73B02C;stroke:#73B02C;stroke-width:0.43;stroke-miterlimit:10;}
	.st19{fill:#4765C4;stroke:#4765C4;stroke-width:0.43;stroke-miterlimit:10;}
	.st20{fill:#8B92A5;stroke:#8B92A5;stroke-width:0.34;stroke-miterlimit:10;}
</style>
<g>
	<g id="_图层_1">
		<g>
			<g>
				<rect x="211.4" y="439.8" class="st0" width="157.6" height="172"/>
				<g>
					<path class="st1" d="M254.4,473.2h71.3c1.2,0,2.2,1,2.2,2.2v71.3c0,1.2-1,2.2-2.2,2.2h-71.3c-1.2,0-2.2-1-2.2-2.2v-71.3
						C252.1,474.2,253.1,473.2,254.4,473.2z"/>
					<line class="st1" x1="268" y1="473.2" x2="268" y2="458.6"/>
					<line class="st1" x1="290" y1="473.2" x2="290" y2="458.6"/>
					<line class="st1" x1="312" y1="473.2" x2="312" y2="458.6"/>
					<line class="st1" x1="268" y1="562.2" x2="268" y2="547.5"/>
					<line class="st1" x1="290" y1="562.2" x2="290" y2="547.5"/>
					<line class="st1" x1="312" y1="562.2" x2="312" y2="547.5"/>
					<line class="st1" x1="237.6" y1="489" x2="252.2" y2="489"/>
					<line class="st1" x1="237.6" y1="511" x2="252.2" y2="511"/>
					<line class="st1" x1="237.6" y1="533.1" x2="252.2" y2="533.1"/>
					<line class="st1" x1="327.8" y1="489" x2="342.4" y2="489"/>
					<line class="st1" x1="327.8" y1="511" x2="342.4" y2="511"/>
					<line class="st1" x1="327.8" y1="533.1" x2="342.4" y2="533.1"/>
					<path class="st1" d="M275.7,496.3h28.7c0.3,0,0.5,0.2,0.5,0.5v28.7c0,0.3-0.2,0.5-0.5,0.5h-28.7c-0.3,0-0.5-0.2-0.5-0.5v-28.7
						C275.2,496.5,275.4,496.3,275.7,496.3z"/>
				</g>
				<g class="st2">
					<path class="st3" d="M272.7,590.7c-0.5,0.7-1.3,1.2-2.2,1.6c-0.9,0.4-2,0.5-3.2,0.5c-1.2,0-2.3-0.3-3.3-0.8s-1.7-1.4-2.2-2.4
						c-0.5-1-0.8-2.2-0.8-3.6v-1.1c0-2.2,0.5-3.9,1.6-5.2c1.1-1.2,2.5-1.9,4.4-1.9c1.6,0,2.9,0.4,3.9,1.2s1.5,2,1.7,3.5h-2.5
						c-0.3-1.8-1.3-2.6-3.1-2.6c-1.1,0-2,0.4-2.6,1.2c-0.6,0.8-0.9,2-0.9,3.6v1.1c0,1.6,0.3,2.8,1,3.7c0.7,0.9,1.6,1.3,2.8,1.3
						c1.3,0,2.2-0.3,2.8-0.9V587h-3v-1.9h5.6V590.7z"/>
					<path class="st3" d="M278.6,587.2v5.4h-2.5v-14.7h5.6c1.6,0,2.9,0.4,3.9,1.3c1,0.9,1.4,2,1.4,3.4c0,1.4-0.5,2.6-1.4,3.4
						s-2.3,1.2-4,1.2H278.6z M278.6,585.1h3.1c0.9,0,1.6-0.2,2.1-0.6c0.5-0.4,0.7-1,0.7-1.8c0-0.8-0.2-1.4-0.7-1.9
						c-0.5-0.5-1.1-0.7-2-0.7h-3.1V585.1z"/>
					<path class="st3" d="M300.6,577.9v9.8c0,1.6-0.5,2.8-1.5,3.7c-1,0.9-2.3,1.4-4,1.4c-1.7,0-3-0.4-4-1.3c-1-0.9-1.5-2.1-1.5-3.7
						v-9.8h2.5v9.8c0,1,0.2,1.7,0.7,2.2c0.5,0.5,1.2,0.8,2.2,0.8c2,0,2.9-1,2.9-3.1v-9.7H300.6z"/>
					<path class="st3" d="M318.9,586.4c0,2.1-0.4,3.7-1.2,4.8c-0.8,1.1-2,1.6-3.6,1.6c-1.6,0-2.8-0.5-3.6-1.6
						c-0.8-1-1.2-2.6-1.2-4.6v-2.5c0-2.1,0.4-3.7,1.2-4.7c0.8-1.1,2-1.6,3.6-1.6c1.6,0,2.8,0.5,3.6,1.5c0.8,1,1.2,2.6,1.2,4.6V586.4
						z M316.4,583.7c0-1.4-0.2-2.4-0.6-3c-0.4-0.6-1-1-1.8-1c-0.8,0-1.4,0.3-1.8,0.9c-0.4,0.6-0.6,1.6-0.6,2.8v3.3
						c0,1.4,0.2,2.4,0.6,3.1c0.4,0.7,1,1,1.8,1c0.8,0,1.4-0.3,1.7-0.9s0.6-1.6,0.6-2.9V583.7z"/>
				</g>
			</g>
			<g>
				<rect x="451.4" y="440.5" class="st4" width="157.6" height="172"/>
				<g>
					<path class="st5" d="M494.4,473.9h71.3c1.2,0,2.2,1,2.2,2.2v71.3c0,1.2-1,2.2-2.2,2.2h-71.3c-1.2,0-2.2-1-2.2-2.2v-71.3
						C492.2,474.8,493.2,473.9,494.4,473.9z"/>
					<line class="st5" x1="508" y1="473.9" x2="508" y2="459.3"/>
					<line class="st5" x1="530" y1="473.9" x2="530" y2="459.3"/>
					<line class="st5" x1="552" y1="473.9" x2="552" y2="459.3"/>
					<line class="st5" x1="508" y1="562.8" x2="508" y2="548.2"/>
					<line class="st5" x1="530" y1="562.8" x2="530" y2="548.2"/>
					<line class="st5" x1="552" y1="562.8" x2="552" y2="548.2"/>
					<line class="st5" x1="477.6" y1="489.7" x2="492.2" y2="489.7"/>
					<line class="st5" x1="477.6" y1="511.7" x2="492.2" y2="511.7"/>
					<line class="st5" x1="477.6" y1="533.7" x2="492.2" y2="533.7"/>
					<line class="st5" x1="567.8" y1="489.7" x2="582.5" y2="489.7"/>
					<line class="st5" x1="567.8" y1="511.7" x2="582.5" y2="511.7"/>
					<line class="st5" x1="567.8" y1="533.7" x2="582.5" y2="533.7"/>
					<path class="st5" d="M515.7,496.9h28.7c0.3,0,0.5,0.2,0.5,0.5V526c0,0.3-0.2,0.5-0.5,0.5h-28.7c-0.3,0-0.5-0.2-0.5-0.5v-28.6
						C515.2,497.1,515.4,496.9,515.7,496.9z"/>
				</g>
				<g class="st2">
					<path class="st3" d="M512.7,591.4c-0.5,0.7-1.3,1.2-2.2,1.6c-0.9,0.4-2,0.5-3.2,0.5c-1.2,0-2.3-0.3-3.3-0.8
						c-0.9-0.6-1.7-1.4-2.2-2.4c-0.5-1-0.8-2.2-0.8-3.6v-1.1c0-2.2,0.5-3.9,1.6-5.2c1.1-1.2,2.5-1.9,4.4-1.9c1.6,0,2.9,0.4,3.9,1.2
						c1,0.8,1.5,2,1.7,3.5h-2.5c-0.3-1.8-1.3-2.6-3.1-2.6c-1.1,0-2,0.4-2.6,1.2c-0.6,0.8-0.9,2-0.9,3.6v1.1c0,1.6,0.3,2.8,1,3.7
						c0.7,0.9,1.6,1.3,2.8,1.3c1.3,0,2.2-0.3,2.8-0.9v-2.9h-3v-1.9h5.6V591.4z"/>
					<path class="st3" d="M518.7,587.8v5.4h-2.5v-14.7h5.6c1.6,0,2.9,0.4,3.9,1.3c1,0.9,1.4,2,1.4,3.4c0,1.4-0.5,2.6-1.4,3.4
						c-0.9,0.8-2.3,1.2-4,1.2H518.7z M518.7,585.8h3.1c0.9,0,1.6-0.2,2.1-0.6c0.5-0.4,0.7-1,0.7-1.8c0-0.8-0.2-1.4-0.7-1.9
						c-0.5-0.5-1.1-0.7-2-0.7h-3.1V585.8z"/>
					<path class="st3" d="M540.6,578.6v9.8c0,1.6-0.5,2.8-1.5,3.7c-1,0.9-2.3,1.4-4,1.4c-1.7,0-3-0.4-4-1.3c-1-0.9-1.5-2.1-1.5-3.7
						v-9.8h2.5v9.8c0,1,0.2,1.7,0.7,2.2c0.5,0.5,1.2,0.8,2.2,0.8c2,0,2.9-1,2.9-3.1v-9.7H540.6z"/>
					<path class="st3" d="M556,593.3h-2.4v-11.8l-3.6,1.2v-2.1l5.7-2.1h0.3V593.3z"/>
				</g>
			</g>
			<g>
				<rect x="211.4" y="683.1" class="st4" width="157.6" height="172"/>
				<g>
					<path class="st5" d="M254.4,716.5h71.3c1.2,0,2.2,1,2.2,2.2V790c0,1.2-1,2.2-2.2,2.2h-71.3c-1.2,0-2.2-1-2.2-2.2v-71.3
						C252.1,717.5,253.1,716.5,254.4,716.5z"/>
					<line class="st5" x1="268" y1="716.5" x2="268" y2="701.9"/>
					<line class="st5" x1="290" y1="716.5" x2="290" y2="701.9"/>
					<line class="st5" x1="312" y1="716.5" x2="312" y2="701.9"/>
					<line class="st5" x1="268" y1="805.5" x2="268" y2="790.8"/>
					<line class="st5" x1="290" y1="805.5" x2="290" y2="790.8"/>
					<line class="st5" x1="312" y1="805.5" x2="312" y2="790.8"/>
					<line class="st5" x1="237.6" y1="732.3" x2="252.2" y2="732.3"/>
					<line class="st5" x1="237.6" y1="754.3" x2="252.2" y2="754.3"/>
					<line class="st5" x1="237.6" y1="776.4" x2="252.2" y2="776.4"/>
					<line class="st5" x1="327.8" y1="732.3" x2="342.4" y2="732.3"/>
					<line class="st5" x1="327.8" y1="754.3" x2="342.4" y2="754.3"/>
					<line class="st5" x1="327.8" y1="776.4" x2="342.4" y2="776.4"/>
					<path class="st5" d="M275.7,739.6h28.7c0.3,0,0.5,0.2,0.5,0.5v28.7c0,0.3-0.2,0.5-0.5,0.5h-28.7c-0.3,0-0.5-0.2-0.5-0.5V740
						C275.2,739.8,275.4,739.6,275.7,739.6z"/>
				</g>
				<g class="st2">
					<path class="st3" d="M272.7,834c-0.5,0.7-1.3,1.2-2.2,1.6c-0.9,0.4-2,0.5-3.2,0.5c-1.2,0-2.3-0.3-3.3-0.8s-1.7-1.4-2.2-2.4
						c-0.5-1-0.8-2.2-0.8-3.6v-1.1c0-2.2,0.5-3.9,1.6-5.2c1.1-1.2,2.5-1.9,4.4-1.9c1.6,0,2.9,0.4,3.9,1.2s1.5,2,1.7,3.5h-2.5
						c-0.3-1.8-1.3-2.6-3.1-2.6c-1.1,0-2,0.4-2.6,1.2c-0.6,0.8-0.9,2-0.9,3.6v1.1c0,1.6,0.3,2.8,1,3.7c0.7,0.9,1.6,1.3,2.8,1.3
						c1.3,0,2.2-0.3,2.8-0.9v-2.9h-3v-1.9h5.6V834z"/>
					<path class="st3" d="M278.6,830.5v5.4h-2.5v-14.7h5.6c1.6,0,2.9,0.4,3.9,1.3c1,0.9,1.4,2,1.4,3.4c0,1.4-0.5,2.6-1.4,3.4
						s-2.3,1.2-4,1.2H278.6z M278.6,828.4h3.1c0.9,0,1.6-0.2,2.1-0.6c0.5-0.4,0.7-1,0.7-1.8c0-0.8-0.2-1.4-0.7-1.9
						c-0.5-0.5-1.1-0.7-2-0.7h-3.1V828.4z"/>
					<path class="st3" d="M300.6,821.2v9.8c0,1.6-0.5,2.8-1.5,3.7c-1,0.9-2.3,1.4-4,1.4c-1.7,0-3-0.4-4-1.3c-1-0.9-1.5-2.1-1.5-3.7
						v-9.8h2.5v9.8c0,1,0.2,1.7,0.7,2.2c0.5,0.5,1.2,0.8,2.2,0.8c2,0,2.9-1,2.9-3.1v-9.7H300.6z"/>
					<path class="st3" d="M319.2,835.9h-9.9v-1.7l4.9-5.3c0.7-0.8,1.2-1.4,1.5-2s0.4-1.1,0.4-1.6c0-0.7-0.2-1.3-0.6-1.7
						c-0.4-0.4-0.9-0.6-1.6-0.6c-0.8,0-1.4,0.2-1.8,0.7s-0.7,1.1-0.7,2H309c0-0.9,0.2-1.7,0.6-2.4c0.4-0.7,1-1.3,1.7-1.7
						c0.8-0.4,1.6-0.6,2.6-0.6c1.4,0,2.5,0.4,3.4,1.1c0.8,0.7,1.2,1.7,1.2,3c0,0.7-0.2,1.5-0.6,2.3c-0.4,0.8-1.1,1.7-2,2.7l-3.6,3.8
						h6.8V835.9z"/>
				</g>
			</g>
			<g>
				<rect x="451.4" y="683.8" class="st4" width="157.6" height="172"/>
				<g>
					<path class="st5" d="M494.4,717.2h71.3c1.2,0,2.2,1,2.2,2.2v71.3c0,1.2-1,2.2-2.2,2.2h-71.3c-1.2,0-2.2-1-2.2-2.2v-71.3
						C492.2,718.1,493.2,717.2,494.4,717.2z"/>
					<line class="st5" x1="508" y1="717.2" x2="508" y2="702.6"/>
					<line class="st5" x1="530" y1="717.2" x2="530" y2="702.6"/>
					<line class="st5" x1="552" y1="717.2" x2="552" y2="702.6"/>
					<line class="st5" x1="508" y1="806.1" x2="508" y2="791.5"/>
					<line class="st5" x1="530" y1="806.1" x2="530" y2="791.5"/>
					<line class="st5" x1="552" y1="806.1" x2="552" y2="791.5"/>
					<line class="st5" x1="477.6" y1="733" x2="492.2" y2="733"/>
					<line class="st5" x1="477.6" y1="755" x2="492.2" y2="755"/>
					<line class="st5" x1="477.6" y1="777" x2="492.2" y2="777"/>
					<line class="st5" x1="567.8" y1="733" x2="582.5" y2="733"/>
					<line class="st5" x1="567.8" y1="755" x2="582.5" y2="755"/>
					<line class="st5" x1="567.8" y1="777" x2="582.5" y2="777"/>
					<path class="st5" d="M515.7,740.2h28.7c0.3,0,0.5,0.2,0.5,0.5v28.7c0,0.3-0.2,0.5-0.5,0.5h-28.7c-0.3,0-0.5-0.2-0.5-0.5v-28.7
						C515.2,740.4,515.4,740.2,515.7,740.2z"/>
				</g>
				<g class="st2">
					<path class="st3" d="M512.7,834.7c-0.5,0.7-1.3,1.2-2.2,1.6c-0.9,0.4-2,0.5-3.2,0.5c-1.2,0-2.3-0.3-3.3-0.8s-1.7-1.4-2.2-2.4
						c-0.5-1-0.8-2.2-0.8-3.6v-1.1c0-2.2,0.5-3.9,1.6-5.2c1.1-1.2,2.5-1.9,4.4-1.9c1.6,0,2.9,0.4,3.9,1.2s1.5,2,1.7,3.5h-2.5
						c-0.3-1.8-1.3-2.6-3.1-2.6c-1.1,0-2,0.4-2.6,1.2c-0.6,0.8-0.9,2-0.9,3.6v1.1c0,1.6,0.3,2.8,1,3.7c0.7,0.9,1.6,1.3,2.8,1.3
						c1.3,0,2.2-0.3,2.8-0.9V831h-3V829h5.6V834.7z"/>
					<path class="st3" d="M518.7,831.1v5.4h-2.5v-14.7h5.6c1.6,0,2.9,0.4,3.9,1.3c1,0.9,1.4,2,1.4,3.4c0,1.4-0.5,2.6-1.4,3.4
						s-2.3,1.2-4,1.2H518.7z M518.7,829.1h3.1c0.9,0,1.6-0.2,2.1-0.6c0.5-0.4,0.7-1,0.7-1.8c0-0.8-0.2-1.4-0.7-1.9
						c-0.5-0.5-1.1-0.7-2-0.7h-3.1V829.1z"/>
					<path class="st3" d="M540.6,821.9v9.8c0,1.6-0.5,2.8-1.5,3.7c-1,0.9-2.3,1.4-4,1.4c-1.7,0-3-0.4-4-1.3c-1-0.9-1.5-2.1-1.5-3.7
						v-9.8h2.5v9.8c0,1,0.2,1.7,0.7,2.2c0.5,0.5,1.2,0.8,2.2,0.8c2,0,2.9-1,2.9-3.1v-9.7H540.6z"/>
					<path class="st3" d="M552.2,828.1h1.5c0.8,0,1.3-0.2,1.8-0.6c0.4-0.4,0.7-0.9,0.7-1.7c0-0.7-0.2-1.2-0.5-1.6
						c-0.4-0.4-0.9-0.6-1.7-0.6c-0.7,0-1.2,0.2-1.6,0.6c-0.4,0.4-0.6,0.9-0.6,1.5h-2.4c0-0.8,0.2-1.4,0.6-2.1c0.4-0.6,1-1.1,1.7-1.4
						c0.7-0.3,1.5-0.5,2.4-0.5c1.5,0,2.6,0.4,3.5,1.1c0.8,0.7,1.3,1.8,1.3,3.1c0,0.7-0.2,1.3-0.6,1.9c-0.4,0.6-1,1-1.6,1.3
						c0.8,0.3,1.4,0.7,1.8,1.3c0.4,0.6,0.6,1.3,0.6,2.1c0,1.3-0.5,2.4-1.4,3.1c-0.9,0.8-2.1,1.2-3.6,1.2c-1.4,0-2.6-0.4-3.5-1.1
						s-1.3-1.8-1.3-3h2.4c0,0.6,0.2,1.2,0.6,1.6c0.4,0.4,1,0.6,1.7,0.6c0.8,0,1.4-0.2,1.8-0.6c0.4-0.4,0.7-1,0.7-1.8
						c0-0.8-0.2-1.4-0.7-1.8c-0.5-0.4-1.1-0.6-2-0.6h-1.4V828.1z"/>
				</g>
			</g>
			<g>
				<line class="st6" x1="289.9" y1="621.7" x2="290" y2="673.2"/>
				<polygon class="st7" points="283.9,623.4 289.9,613.1 295.9,623.4 				"/>
				<polygon class="st7" points="284,671.5 290,681.8 296,671.5 				"/>
			</g>
			<g>
				<line class="st6" x1="529.9" y1="621.7" x2="530" y2="673.2"/>
				<polygon class="st7" points="524,623.4 529.9,613.1 535.9,623.4 				"/>
				<polygon class="st7" points="524.1,671.5 530.1,681.8 536,671.5 				"/>
			</g>
			<g>
				<line class="st6" x1="436.3" y1="525.5" x2="384.8" y2="525.6"/>
				<polygon class="st7" points="434.5,519.5 444.9,525.5 434.6,531.5 				"/>
				<polygon class="st7" points="386.5,519.7 376.2,525.6 386.5,531.6 				"/>
			</g>
			<g>
				<line class="st6" x1="433.7" y1="769.5" x2="382.1" y2="769.6"/>
				<polygon class="st7" points="431.9,763.5 442.3,769.4 432,775.4 				"/>
				<polygon class="st7" points="383.9,763.6 373.6,769.6 383.9,775.5 				"/>
			</g>
			<g>
				<line class="st6" x1="428.8" y1="661.4" x2="391" y2="626.4"/>
				<polygon class="st7" points="431.6,655.9 435.1,667.2 423.5,664.6 				"/>
				<polygon class="st7" points="396.3,623.2 384.7,620.6 388.2,632 				"/>
			</g>
			<g>
				<line class="st6" x1="391" y1="661.4" x2="428.8" y2="626.4"/>
				<polygon class="st7" points="396.3,664.6 384.7,667.2 388.2,655.9 				"/>
				<polygon class="st7" points="431.6,632 435.1,620.6 423.5,623.2 				"/>
			</g>
		</g>
		<g>
			<g>
				<rect x="779.2" y="439.8" class="st8" width="157.6" height="172"/>
				<g>
					<path class="st9" d="M822.2,473.2h71.3c1.2,0,2.2,1,2.2,2.2v71.3c0,1.2-1,2.2-2.2,2.2h-71.3c-1.2,0-2.2-1-2.2-2.2v-71.3
						C820,474.2,821,473.2,822.2,473.2z"/>
					<line class="st9" x1="835.8" y1="473.2" x2="835.8" y2="458.6"/>
					<line class="st9" x1="857.8" y1="473.2" x2="857.8" y2="458.6"/>
					<line class="st9" x1="879.8" y1="473.2" x2="879.8" y2="458.6"/>
					<line class="st9" x1="835.8" y1="562.2" x2="835.8" y2="547.5"/>
					<line class="st9" x1="857.8" y1="562.2" x2="857.8" y2="547.5"/>
					<line class="st9" x1="879.8" y1="562.2" x2="879.8" y2="547.5"/>
					<line class="st9" x1="805.4" y1="489" x2="820" y2="489"/>
					<line class="st9" x1="805.4" y1="511" x2="820" y2="511"/>
					<line class="st9" x1="805.4" y1="533.1" x2="820" y2="533.1"/>
					<line class="st9" x1="895.6" y1="489" x2="910.2" y2="489"/>
					<line class="st9" x1="895.6" y1="511" x2="910.2" y2="511"/>
					<line class="st9" x1="895.6" y1="533.1" x2="910.2" y2="533.1"/>
					<path class="st9" d="M843.5,496.3h28.7c0.3,0,0.5,0.2,0.5,0.5v28.7c0,0.3-0.2,0.5-0.5,0.5h-28.7c-0.3,0-0.5-0.2-0.5-0.5v-28.7
						C843,496.5,843.2,496.3,843.5,496.3z"/>
				</g>
				<g class="st2">
					<path class="st3" d="M840.5,590.7c-0.5,0.7-1.3,1.2-2.2,1.6c-0.9,0.4-2,0.5-3.2,0.5c-1.2,0-2.3-0.3-3.3-0.8
						c-0.9-0.6-1.7-1.4-2.2-2.4c-0.5-1-0.8-2.2-0.8-3.6v-1.1c0-2.2,0.5-3.9,1.6-5.2c1.1-1.2,2.5-1.9,4.4-1.9c1.6,0,2.9,0.4,3.9,1.2
						c1,0.8,1.5,2,1.7,3.5H838c-0.3-1.8-1.3-2.6-3.1-2.6c-1.1,0-2,0.4-2.6,1.2c-0.6,0.8-0.9,2-0.9,3.6v1.1c0,1.6,0.3,2.8,1,3.7
						c0.7,0.9,1.6,1.3,2.8,1.3c1.3,0,2.2-0.3,2.8-0.9V587h-3v-1.9h5.6V590.7z"/>
					<path class="st3" d="M846.5,587.2v5.4h-2.5v-14.7h5.6c1.6,0,2.9,0.4,3.9,1.3c1,0.9,1.4,2,1.4,3.4c0,1.4-0.5,2.6-1.4,3.4
						s-2.3,1.2-4,1.2H846.5z M846.5,585.1h3.1c0.9,0,1.6-0.2,2.1-0.6c0.5-0.4,0.7-1,0.7-1.8c0-0.8-0.2-1.4-0.7-1.9
						c-0.5-0.5-1.1-0.7-2-0.7h-3.1V585.1z"/>
					<path class="st3" d="M868.4,577.9v9.8c0,1.6-0.5,2.8-1.5,3.7c-1,0.9-2.3,1.4-4,1.4c-1.7,0-3-0.4-4-1.3s-1.5-2.1-1.5-3.7v-9.8
						h2.5v9.8c0,1,0.2,1.7,0.7,2.2c0.5,0.5,1.2,0.8,2.2,0.8c2,0,2.9-1,2.9-3.1v-9.7H868.4z"/>
					<path class="st3" d="M877.8,585.3l0.8-7.4h7.9v2.1h-5.8l-0.4,3.5c0.7-0.4,1.4-0.6,2.3-0.6c1.4,0,2.5,0.4,3.3,1.3
						c0.8,0.9,1.2,2.1,1.2,3.6c0,1.5-0.4,2.7-1.3,3.6s-2,1.3-3.5,1.3c-1.3,0-2.5-0.4-3.3-1.1c-0.9-0.8-1.4-1.8-1.4-3h2.4
						c0.1,0.7,0.3,1.3,0.8,1.6c0.4,0.4,1,0.6,1.6,0.6c0.8,0,1.3-0.3,1.8-0.8c0.4-0.5,0.6-1.3,0.6-2.2c0-0.9-0.2-1.6-0.7-2.1
						c-0.5-0.5-1.1-0.8-1.9-0.8c-0.4,0-0.8,0.1-1.1,0.2c-0.3,0.1-0.6,0.3-1,0.7L877.8,585.3z"/>
				</g>
			</g>
			<g>
				<rect x="1019.2" y="440.5" class="st4" width="157.6" height="172"/>
				<g>
					<path class="st5" d="M1062.2,473.9h71.3c1.2,0,2.2,1,2.2,2.2v71.3c0,1.2-1,2.2-2.2,2.2h-71.3c-1.2,0-2.2-1-2.2-2.2v-71.3
						C1060,474.8,1061,473.9,1062.2,473.9z"/>
					<line class="st5" x1="1075.8" y1="473.9" x2="1075.8" y2="459.3"/>
					<line class="st5" x1="1097.8" y1="473.9" x2="1097.8" y2="459.3"/>
					<line class="st5" x1="1119.9" y1="473.9" x2="1119.9" y2="459.3"/>
					<line class="st5" x1="1075.8" y1="562.8" x2="1075.8" y2="548.2"/>
					<line class="st5" x1="1097.8" y1="562.8" x2="1097.8" y2="548.2"/>
					<line class="st5" x1="1119.9" y1="562.8" x2="1119.9" y2="548.2"/>
					<line class="st5" x1="1045.4" y1="489.7" x2="1060" y2="489.7"/>
					<line class="st5" x1="1045.4" y1="511.7" x2="1060" y2="511.7"/>
					<line class="st5" x1="1045.4" y1="533.7" x2="1060" y2="533.7"/>
					<line class="st5" x1="1135.7" y1="489.7" x2="1150.3" y2="489.7"/>
					<line class="st5" x1="1135.7" y1="511.7" x2="1150.3" y2="511.7"/>
					<line class="st5" x1="1135.7" y1="533.7" x2="1150.3" y2="533.7"/>
					<path class="st5" d="M1083.5,496.9h28.7c0.3,0,0.5,0.2,0.5,0.5V526c0,0.3-0.2,0.5-0.5,0.5h-28.7c-0.3,0-0.5-0.2-0.5-0.5v-28.6
						C1083,497.1,1083.3,496.9,1083.5,496.9z"/>
				</g>
				<g class="st2">
					<path class="st3" d="M1080.5,591.4c-0.5,0.7-1.3,1.2-2.2,1.6c-0.9,0.4-2,0.5-3.2,0.5c-1.2,0-2.3-0.3-3.3-0.8
						c-0.9-0.6-1.7-1.4-2.2-2.4c-0.5-1-0.8-2.2-0.8-3.6v-1.1c0-2.2,0.5-3.9,1.6-5.2c1.1-1.2,2.5-1.9,4.4-1.9c1.6,0,2.9,0.4,3.9,1.2
						c1,0.8,1.5,2,1.7,3.5h-2.5c-0.3-1.8-1.3-2.6-3.1-2.6c-1.1,0-2,0.4-2.6,1.2c-0.6,0.8-0.9,2-0.9,3.6v1.1c0,1.6,0.3,2.8,1,3.7
						c0.7,0.9,1.6,1.3,2.8,1.3c1.3,0,2.2-0.3,2.8-0.9v-2.9h-3v-1.9h5.6V591.4z"/>
					<path class="st3" d="M1086.5,587.8v5.4h-2.5v-14.7h5.6c1.6,0,2.9,0.4,3.9,1.3s1.4,2,1.4,3.4c0,1.4-0.5,2.6-1.4,3.4
						c-0.9,0.8-2.3,1.2-4,1.2H1086.5z M1086.5,585.8h3.1c0.9,0,1.6-0.2,2.1-0.6c0.5-0.4,0.7-1,0.7-1.8c0-0.8-0.2-1.4-0.7-1.9
						c-0.5-0.5-1.1-0.7-2-0.7h-3.1V585.8z"/>
					<path class="st3" d="M1108.5,578.6v9.8c0,1.6-0.5,2.8-1.5,3.7c-1,0.9-2.3,1.4-4,1.4c-1.7,0-3-0.4-4-1.3c-1-0.9-1.5-2.1-1.5-3.7
						v-9.8h2.5v9.8c0,1,0.2,1.7,0.7,2.2c0.5,0.5,1.2,0.8,2.2,0.8c2,0,2.9-1,2.9-3.1v-9.7H1108.5z"/>
					<path class="st3" d="M1125.5,588h1.8v2h-1.8v3.3h-2.4V590h-6.3l-0.1-1.5l6.3-9.9h2.5V588z M1119.2,588h3.8v-6.1l-0.2,0.3
						L1119.2,588z"/>
				</g>
			</g>
			<g>
				<rect x="779.2" y="683.1" class="st8" width="157.6" height="172"/>
				<g>
					<path class="st9" d="M822.2,716.5h71.3c1.2,0,2.2,1,2.2,2.2V790c0,1.2-1,2.2-2.2,2.2h-71.3c-1.2,0-2.2-1-2.2-2.2v-71.3
						C820,717.5,821,716.5,822.2,716.5z"/>
					<line class="st9" x1="835.8" y1="716.5" x2="835.8" y2="701.9"/>
					<line class="st9" x1="857.8" y1="716.5" x2="857.8" y2="701.9"/>
					<line class="st9" x1="879.8" y1="716.5" x2="879.8" y2="701.9"/>
					<line class="st9" x1="835.8" y1="805.5" x2="835.8" y2="790.8"/>
					<line class="st9" x1="857.8" y1="805.5" x2="857.8" y2="790.8"/>
					<line class="st9" x1="879.8" y1="805.5" x2="879.8" y2="790.8"/>
					<line class="st9" x1="805.4" y1="732.3" x2="820" y2="732.3"/>
					<line class="st9" x1="805.4" y1="754.3" x2="820" y2="754.3"/>
					<line class="st9" x1="805.4" y1="776.4" x2="820" y2="776.4"/>
					<line class="st9" x1="895.6" y1="732.3" x2="910.2" y2="732.3"/>
					<line class="st9" x1="895.6" y1="754.3" x2="910.2" y2="754.3"/>
					<line class="st9" x1="895.6" y1="776.4" x2="910.2" y2="776.4"/>
					<path class="st9" d="M843.5,739.6h28.7c0.3,0,0.5,0.2,0.5,0.5v28.7c0,0.3-0.2,0.5-0.5,0.5h-28.7c-0.3,0-0.5-0.2-0.5-0.5V740
						C843,739.8,843.2,739.6,843.5,739.6z"/>
				</g>
				<g class="st2">
					<path class="st3" d="M840.5,834c-0.5,0.7-1.3,1.2-2.2,1.6c-0.9,0.4-2,0.5-3.2,0.5c-1.2,0-2.3-0.3-3.3-0.8
						c-0.9-0.6-1.7-1.4-2.2-2.4c-0.5-1-0.8-2.2-0.8-3.6v-1.1c0-2.2,0.5-3.9,1.6-5.2c1.1-1.2,2.5-1.9,4.4-1.9c1.6,0,2.9,0.4,3.9,1.2
						c1,0.8,1.5,2,1.7,3.5H838c-0.3-1.8-1.3-2.6-3.1-2.6c-1.1,0-2,0.4-2.6,1.2c-0.6,0.8-0.9,2-0.9,3.6v1.1c0,1.6,0.3,2.8,1,3.7
						c0.7,0.9,1.6,1.3,2.8,1.3c1.3,0,2.2-0.3,2.8-0.9v-2.9h-3v-1.9h5.6V834z"/>
					<path class="st3" d="M846.5,830.5v5.4h-2.5v-14.7h5.6c1.6,0,2.9,0.4,3.9,1.3c1,0.9,1.4,2,1.4,3.4c0,1.4-0.5,2.6-1.4,3.4
						s-2.3,1.2-4,1.2H846.5z M846.5,828.4h3.1c0.9,0,1.6-0.2,2.1-0.6c0.5-0.4,0.7-1,0.7-1.8c0-0.8-0.2-1.4-0.7-1.9
						c-0.5-0.5-1.1-0.7-2-0.7h-3.1V828.4z"/>
					<path class="st3" d="M868.4,821.2v9.8c0,1.6-0.5,2.8-1.5,3.7c-1,0.9-2.3,1.4-4,1.4c-1.7,0-3-0.4-4-1.3s-1.5-2.1-1.5-3.7v-9.8
						h2.5v9.8c0,1,0.2,1.7,0.7,2.2c0.5,0.5,1.2,0.8,2.2,0.8c2,0,2.9-1,2.9-3.1v-9.7H868.4z"/>
					<path class="st3" d="M886.9,822.6l-5.9,13.3h-2.6l5.9-12.7h-7.6v-2h10.2V822.6z"/>
				</g>
			</g>
			<g>
				<rect x="1019.2" y="683.8" class="st8" width="157.6" height="172"/>
				<g>
					<path class="st9" d="M1062.2,717.2h71.3c1.2,0,2.2,1,2.2,2.2v71.3c0,1.2-1,2.2-2.2,2.2h-71.3c-1.2,0-2.2-1-2.2-2.2v-71.3
						C1060,718.1,1061,717.2,1062.2,717.2z"/>
					<line class="st9" x1="1075.8" y1="717.2" x2="1075.8" y2="702.6"/>
					<line class="st9" x1="1097.8" y1="717.2" x2="1097.8" y2="702.6"/>
					<line class="st9" x1="1119.9" y1="717.2" x2="1119.9" y2="702.6"/>
					<line class="st9" x1="1075.8" y1="806.1" x2="1075.8" y2="791.5"/>
					<line class="st9" x1="1097.8" y1="806.1" x2="1097.8" y2="791.5"/>
					<line class="st9" x1="1119.9" y1="806.1" x2="1119.9" y2="791.5"/>
					<line class="st9" x1="1045.4" y1="733" x2="1060" y2="733"/>
					<line class="st9" x1="1045.4" y1="755" x2="1060" y2="755"/>
					<line class="st9" x1="1045.4" y1="777" x2="1060" y2="777"/>
					<line class="st9" x1="1135.7" y1="733" x2="1150.3" y2="733"/>
					<line class="st9" x1="1135.7" y1="755" x2="1150.3" y2="755"/>
					<line class="st9" x1="1135.7" y1="777" x2="1150.3" y2="777"/>
					<path class="st9" d="M1083.5,740.2h28.7c0.3,0,0.5,0.2,0.5,0.5v28.7c0,0.3-0.2,0.5-0.5,0.5h-28.7c-0.3,0-0.5-0.2-0.5-0.5v-28.7
						C1083,740.4,1083.3,740.2,1083.5,740.2z"/>
				</g>
				<g class="st2">
					<path class="st3" d="M1080.5,834.7c-0.5,0.7-1.3,1.2-2.2,1.6c-0.9,0.4-2,0.5-3.2,0.5c-1.2,0-2.3-0.3-3.3-0.8s-1.7-1.4-2.2-2.4
						c-0.5-1-0.8-2.2-0.8-3.6v-1.1c0-2.2,0.5-3.9,1.6-5.2c1.1-1.2,2.5-1.9,4.4-1.9c1.6,0,2.9,0.4,3.9,1.2c1,0.8,1.5,2,1.7,3.5h-2.5
						c-0.3-1.8-1.3-2.6-3.1-2.6c-1.1,0-2,0.4-2.6,1.2c-0.6,0.8-0.9,2-0.9,3.6v1.1c0,1.6,0.3,2.8,1,3.7c0.7,0.9,1.6,1.3,2.8,1.3
						c1.3,0,2.2-0.3,2.8-0.9V831h-3V829h5.6V834.7z"/>
					<path class="st3" d="M1086.5,831.1v5.4h-2.5v-14.7h5.6c1.6,0,2.9,0.4,3.9,1.3s1.4,2,1.4,3.4c0,1.4-0.5,2.6-1.4,3.4
						s-2.3,1.2-4,1.2H1086.5z M1086.5,829.1h3.1c0.9,0,1.6-0.2,2.1-0.6c0.5-0.4,0.7-1,0.7-1.8c0-0.8-0.2-1.4-0.7-1.9
						c-0.5-0.5-1.1-0.7-2-0.7h-3.1V829.1z"/>
					<path class="st3" d="M1108.5,821.9v9.8c0,1.6-0.5,2.8-1.5,3.7c-1,0.9-2.3,1.4-4,1.4c-1.7,0-3-0.4-4-1.3c-1-0.9-1.5-2.1-1.5-3.7
						v-9.8h2.5v9.8c0,1,0.2,1.7,0.7,2.2c0.5,0.5,1.2,0.8,2.2,0.8c2,0,2.9-1,2.9-3.1v-9.7H1108.5z"/>
					<path class="st3" d="M1124.8,821.8v2h-0.3c-1.4,0-2.5,0.4-3.3,1.1c-0.8,0.7-1.3,1.8-1.5,3.1c0.8-0.8,1.8-1.2,3-1.2
						c1.3,0,2.3,0.5,3.1,1.4c0.7,0.9,1.1,2.1,1.1,3.5c0,1.5-0.4,2.7-1.3,3.6c-0.9,0.9-2,1.4-3.4,1.4c-1.5,0-2.7-0.5-3.6-1.6
						c-0.9-1.1-1.4-2.5-1.4-4.3v-0.8c0-2.6,0.6-4.6,1.9-6c1.3-1.5,3.1-2.2,5.4-2.2H1124.8z M1122.2,828.8c-0.5,0-1,0.2-1.5,0.5
						c-0.4,0.3-0.8,0.7-1,1.2v0.7c0,1.1,0.2,2,0.7,2.6c0.5,0.6,1,1,1.8,1s1.3-0.3,1.7-0.8c0.4-0.5,0.6-1.3,0.6-2.1s-0.2-1.6-0.6-2.2
						C1123.4,829.1,1122.9,828.8,1122.2,828.8z"/>
				</g>
			</g>
			<g>
				<line class="st6" x1="857.7" y1="621.7" x2="857.8" y2="673.2"/>
				<polygon class="st7" points="851.8,623.4 857.7,613.1 863.7,623.4 				"/>
				<polygon class="st7" points="851.9,671.5 857.8,681.8 863.8,671.5 				"/>
			</g>
			<g>
				<line class="st6" x1="1097.7" y1="621.7" x2="1097.9" y2="673.2"/>
				<polygon class="st7" points="1091.8,623.4 1097.7,613.1 1103.7,623.4 				"/>
				<polygon class="st7" points="1091.9,671.5 1097.9,681.8 1103.8,671.5 				"/>
			</g>
			<g>
				<line class="st6" x1="1004.1" y1="525.5" x2="952.6" y2="525.6"/>
				<polygon class="st7" points="1002.4,519.5 1012.7,525.5 1002.4,531.5 				"/>
				<polygon class="st7" points="954.3,519.7 944,525.6 954.3,531.6 				"/>
			</g>
			<g>
				<line class="st6" x1="1001.5" y1="769.5" x2="950" y2="769.6"/>
				<polygon class="st7" points="999.8,763.5 1010.1,769.4 999.8,775.4 				"/>
				<polygon class="st7" points="951.7,763.6 941.4,769.6 951.7,775.5 				"/>
			</g>
			<g>
				<line class="st6" x1="996.6" y1="661.4" x2="958.8" y2="626.4"/>
				<polygon class="st7" points="999.4,655.9 1002.9,667.2 991.3,664.6 				"/>
				<polygon class="st7" points="964.1,623.2 952.5,620.6 956,632 				"/>
			</g>
			<g>
				<line class="st6" x1="958.8" y1="661.4" x2="996.6" y2="626.4"/>
				<polygon class="st7" points="964.1,664.6 952.5,667.2 956,655.9 				"/>
				<polygon class="st7" points="999.4,632 1002.9,620.6 991.3,623.2 				"/>
			</g>
		</g>
		<g>
			<polyline class="st6" points="530.2,871.8 529.9,898.6 860.5,898.6 860.5,871.8 			"/>
			<polygon class="st7" points="524.2,873.4 530.2,863.2 536.1,873.5 			"/>
			<polygon class="st7" points="866.5,873.5 860.5,863.2 854.5,873.5 			"/>
		</g>
		<g>
			<polyline class="st6" points="290.5,868.5 289.8,915.9 1097.8,915.9 1097.8,868.5 			"/>
			<polygon class="st7" points="284.5,870.1 290.6,859.9 296.4,870.3 			"/>
			<polygon class="st7" points="1103.7,870.2 1097.8,859.9 1091.8,870.2 			"/>
		</g>
		<g>
			<polyline class="st6" points="530.2,422 529.9,395.2 860.5,395.2 860.5,422 			"/>
			<polygon class="st7" points="536.1,420.2 530.2,430.6 524.2,420.3 			"/>
			<polygon class="st7" points="854.5,420.3 860.5,430.6 866.5,420.3 			"/>
		</g>
		<g>
			<polyline class="st6" points="290.5,425.3 289.8,377.9 1097.8,377.9 1097.8,425.3 			"/>
			<polygon class="st7" points="296.4,423.5 290.6,433.9 284.5,423.7 			"/>
			<polygon class="st7" points="1091.8,423.6 1097.8,433.9 1103.7,423.6 			"/>
		</g>
		<g>
			<rect x="348.5" y="247.5" class="st10" width="57.5" height="85"/>
			<rect x="415" y="247.5" class="st10" width="57.3" height="85"/>
			<g class="st2">
				<path class="st3" d="M346.5,358.6v5.4H344v-14.7h5.6c1.6,0,2.9,0.4,3.9,1.3c1,0.9,1.4,2,1.4,3.4c0,1.4-0.5,2.6-1.4,3.4
					s-2.3,1.2-4,1.2H346.5z M346.5,356.6h3.1c0.9,0,1.6-0.2,2.1-0.6c0.5-0.4,0.7-1,0.7-1.8c0-0.8-0.2-1.4-0.7-1.9
					c-0.5-0.5-1.1-0.7-2-0.7h-3.1V356.6z"/>
				<path class="st3" d="M369,359.3c-0.1,1.6-0.7,2.8-1.7,3.7c-1,0.9-2.3,1.3-4,1.3c-1.2,0-2.2-0.3-3.1-0.8
					c-0.9-0.6-1.6-1.3-2.1-2.4c-0.5-1-0.7-2.2-0.8-3.6v-1.4c0-1.4,0.2-2.6,0.7-3.7c0.5-1.1,1.2-1.9,2.1-2.4c0.9-0.6,2-0.9,3.2-0.9
					c1.6,0,2.9,0.4,3.9,1.3c1,0.9,1.6,2.1,1.7,3.7h-2.5c-0.1-1.1-0.4-1.8-0.9-2.3s-1.2-0.7-2.2-0.7c-1.1,0-2,0.4-2.6,1.2
					c-0.6,0.8-0.9,2-0.9,3.6v1.3c0,1.6,0.3,2.8,0.9,3.6c0.6,0.8,1.4,1.2,2.5,1.2c1,0,1.8-0.2,2.3-0.7c0.5-0.5,0.8-1.2,1-2.2H369z"/>
				<path class="st3" d="M374.2,364.1h-2.4v-15.5h2.4V364.1z"/>
				<path class="st3" d="M382.3,364.3c-1.6,0-2.8-0.5-3.8-1.5c-1-1-1.4-2.3-1.4-3.9v-0.3c0-1.1,0.2-2.1,0.6-2.9c0.4-0.9,1-1.5,1.8-2
					c0.8-0.5,1.6-0.7,2.5-0.7c1.5,0,2.6,0.5,3.4,1.4c0.8,0.9,1.2,2.3,1.2,4v1h-7.1c0.1,0.9,0.4,1.6,0.9,2.1c0.5,0.5,1.2,0.8,2,0.8
					c1.1,0,2-0.5,2.7-1.4l1.3,1.3c-0.4,0.7-1,1.2-1.7,1.5C384,364.1,383.2,364.3,382.3,364.3z M382,354.9c-0.7,0-1.2,0.2-1.6,0.7
					c-0.4,0.5-0.7,1.1-0.8,2h4.7v-0.2c-0.1-0.8-0.3-1.4-0.7-1.9S382.7,354.9,382,354.9z"/>
				<path class="st3" d="M402.9,360.3c0-0.6-0.2-1.1-0.7-1.5c-0.5-0.3-1.3-0.7-2.5-1.1c-1.2-0.4-2.1-0.8-2.8-1.2
					c-1.3-0.8-2-1.9-2-3.3c0-1.2,0.5-2.2,1.4-2.9c1-0.8,2.2-1.1,3.8-1.1c1,0,1.9,0.2,2.7,0.6c0.8,0.4,1.4,0.9,1.9,1.6
					c0.5,0.7,0.7,1.5,0.7,2.3h-2.5c0-0.8-0.2-1.4-0.7-1.8c-0.5-0.4-1.2-0.6-2.1-0.6c-0.8,0-1.5,0.2-1.9,0.5
					c-0.5,0.4-0.7,0.9-0.7,1.5c0,0.5,0.2,1,0.7,1.3s1.3,0.7,2.5,1c1.1,0.3,2.1,0.7,2.8,1.2c0.7,0.4,1.2,0.9,1.5,1.5s0.5,1.2,0.5,2
					c0,1.2-0.5,2.2-1.4,2.9c-0.9,0.7-2.2,1.1-3.8,1.1c-1.1,0-2-0.2-2.9-0.6c-0.9-0.4-1.6-0.9-2.1-1.6s-0.7-1.5-0.7-2.4h2.5
					c0,0.8,0.3,1.5,0.8,1.9c0.6,0.5,1.3,0.7,2.4,0.7c0.9,0,1.6-0.2,2-0.5C402.6,361.4,402.9,360.9,402.9,360.3z"/>
				<path class="st3" d="M417.6,360.7l1.7-7.5h2.4l-3,10.9h-2l-2.3-7.5l-2.3,7.5h-2l-3-10.9h2.4l1.8,7.4l2.2-7.4h1.8L417.6,360.7z"
					/>
				<path class="st3" d="M424,350.4c0-0.4,0.1-0.7,0.4-0.9c0.2-0.2,0.6-0.4,1-0.4s0.8,0.1,1,0.4c0.2,0.2,0.4,0.6,0.4,0.9
					c0,0.4-0.1,0.7-0.4,0.9c-0.2,0.2-0.6,0.4-1,0.4s-0.8-0.1-1-0.4C424.1,351,424,350.7,424,350.4z M426.6,364.1h-2.4v-10.9h2.4
					V364.1z"/>
				<path class="st3" d="M432.9,350.5v2.6h1.9v1.8h-1.9v6.1c0,0.4,0.1,0.7,0.2,0.9c0.2,0.2,0.5,0.3,0.9,0.3c0.3,0,0.6,0,0.9-0.1v1.9
					c-0.6,0.2-1.1,0.2-1.6,0.2c-1.9,0-2.8-1-2.8-3.1V355h-1.8v-1.8h1.8v-2.6H432.9z"/>
				<path class="st3" d="M441.8,362.3c0.6,0,1.1-0.2,1.5-0.5c0.4-0.4,0.6-0.8,0.6-1.3h2.3c0,0.7-0.2,1.3-0.6,1.9
					c-0.4,0.6-0.9,1.1-1.6,1.4c-0.7,0.3-1.4,0.5-2.2,0.5c-1.5,0-2.7-0.5-3.6-1.5c-0.9-1-1.3-2.4-1.3-4.1v-0.3c0-1.7,0.4-3,1.3-4
					c0.9-1,2.1-1.5,3.6-1.5c1.3,0,2.4,0.4,3.2,1.1c0.8,0.8,1.2,1.7,1.3,3H444c0-0.6-0.2-1.1-0.6-1.5c-0.4-0.4-0.9-0.6-1.5-0.6
					c-0.8,0-1.4,0.3-1.8,0.9c-0.4,0.6-0.6,1.4-0.7,2.6v0.4c0,1.2,0.2,2.1,0.6,2.6C440.4,362,441,362.3,441.8,362.3z"/>
				<path class="st3" d="M451.2,354.4c0.8-0.9,1.8-1.4,3-1.4c2.3,0,3.5,1.3,3.5,4v7.1h-2.4v-7c0-0.8-0.2-1.3-0.5-1.6
					s-0.8-0.5-1.4-0.5c-1,0-1.7,0.4-2.2,1.3v7.8h-2.4v-15.5h2.4V354.4z"/>
				<path class="st3" d="M465.6,364.3c-1.6,0-2.8-0.5-3.8-1.5c-1-1-1.4-2.3-1.4-3.9v-0.3c0-1.1,0.2-2.1,0.6-2.9c0.4-0.9,1-1.5,1.8-2
					c0.8-0.5,1.6-0.7,2.5-0.7c1.5,0,2.6,0.5,3.4,1.4c0.8,0.9,1.2,2.3,1.2,4v1h-7.1c0.1,0.9,0.4,1.6,0.9,2.1c0.5,0.5,1.2,0.8,2,0.8
					c1.1,0,2-0.5,2.7-1.4l1.3,1.3c-0.4,0.7-1,1.2-1.7,1.5C467.4,364.1,466.5,364.3,465.6,364.3z M465.3,354.9
					c-0.7,0-1.2,0.2-1.6,0.7c-0.4,0.5-0.7,1.1-0.8,2h4.7v-0.2c-0.1-0.8-0.3-1.4-0.7-1.9S466,354.9,465.3,354.9z"/>
				<path class="st3" d="M478.6,361.1c0-0.4-0.2-0.8-0.5-1c-0.4-0.2-1-0.4-1.8-0.6c-0.8-0.2-1.5-0.4-2.1-0.7
					c-1.2-0.6-1.8-1.4-1.8-2.6c0-0.9,0.4-1.7,1.2-2.4c0.8-0.6,1.8-0.9,3-0.9c1.3,0,2.4,0.3,3.2,1c0.8,0.6,1.2,1.5,1.2,2.5h-2.4
					c0-0.5-0.2-0.9-0.5-1.2s-0.8-0.5-1.4-0.5c-0.5,0-1,0.1-1.3,0.4c-0.3,0.2-0.5,0.6-0.5,1c0,0.4,0.2,0.7,0.5,0.9
					c0.3,0.2,1,0.4,1.9,0.6c1,0.2,1.7,0.5,2.3,0.8s1,0.6,1.2,1.1c0.3,0.4,0.4,0.9,0.4,1.5c0,1-0.4,1.8-1.2,2.4s-1.9,0.9-3.2,0.9
					c-0.9,0-1.7-0.2-2.4-0.5c-0.7-0.3-1.2-0.8-1.6-1.3c-0.4-0.6-0.6-1.2-0.6-1.8h2.4c0,0.6,0.3,1,0.7,1.3c0.4,0.3,0.9,0.5,1.6,0.5
					c0.6,0,1.1-0.1,1.5-0.4C478.5,361.8,478.6,361.5,478.6,361.1z"/>
			</g>
		</g>
		<g>
			<rect x="367.6" y="130" class="st11" width="85.7" height="85.7"/>
			<rect x="384.7" y="148.1" class="st11" width="21" height="20.9"/>
			<rect x="415.2" y="148.1" class="st11" width="21" height="20.9"/>
			<rect x="384.7" y="176.7" class="st11" width="21" height="20.9"/>
			<rect x="415.2" y="176.7" class="st11" width="21" height="20.9"/>
			<g class="st2">
				<path class="st3" d="M402.1,107.3c-0.1,1.6-0.7,2.8-1.7,3.7c-1,0.9-2.3,1.3-4,1.3c-1.2,0-2.2-0.3-3.1-0.8
					c-0.9-0.6-1.6-1.3-2.1-2.4c-0.5-1-0.7-2.2-0.8-3.6v-1.4c0-1.4,0.2-2.6,0.7-3.7c0.5-1.1,1.2-1.9,2.1-2.4c0.9-0.6,2-0.9,3.2-0.9
					c1.6,0,2.9,0.4,3.9,1.3c1,0.9,1.6,2.1,1.7,3.7h-2.5c-0.1-1.1-0.4-1.8-0.9-2.3s-1.2-0.7-2.2-0.7c-1.1,0-2,0.4-2.6,1.2
					c-0.6,0.8-0.9,2-0.9,3.6v1.3c0,1.6,0.3,2.8,0.9,3.6c0.6,0.8,1.4,1.2,2.5,1.2c1,0,1.8-0.2,2.3-0.7c0.5-0.5,0.8-1.2,1-2.2H402.1z"
					/>
				<path class="st3" d="M407.5,106.7v5.4h-2.5V97.4h5.6c1.6,0,2.9,0.4,3.9,1.3c1,0.9,1.4,2,1.4,3.4c0,1.4-0.5,2.6-1.4,3.4
					s-2.3,1.2-4,1.2H407.5z M407.5,104.6h3.1c0.9,0,1.6-0.2,2.1-0.6c0.5-0.4,0.7-1,0.7-1.8c0-0.8-0.2-1.4-0.7-1.9
					c-0.5-0.5-1.1-0.7-2-0.7h-3.1V104.6z"/>
				<path class="st3" d="M429.5,97.4v9.8c0,1.6-0.5,2.8-1.5,3.7c-1,0.9-2.3,1.4-4,1.4c-1.7,0-3-0.4-4-1.3c-1-0.9-1.5-2.1-1.5-3.7
					v-9.8h2.5v9.8c0,1,0.2,1.7,0.7,2.2c0.5,0.5,1.2,0.8,2.2,0.8c2,0,2.9-1,2.9-3.1v-9.7H429.5z"/>
			</g>
		</g>
		<g>
			<g>
				<rect x="201.4" y="133.9" class="st12" width="89.5" height="46.3"/>
				<polyline class="st13" points="183.3,120.8 201.4,120.8 201.4,189.8 				"/>
				<rect x="212.6" y="145.1" class="st12" width="23.5" height="23.5"/>
				<line class="st13" x1="253.2" y1="180.1" x2="253.2" y2="187.6"/>
				<line class="st13" x1="259.4" y1="180.1" x2="259.4" y2="187.6"/>
				<line class="st13" x1="265.6" y1="180.1" x2="265.6" y2="187.6"/>
				<line class="st13" x1="271.8" y1="180.1" x2="271.8" y2="187.6"/>
				<line class="st13" x1="277.9" y1="180.1" x2="277.9" y2="187.6"/>
				<line class="st13" x1="284.1" y1="180.1" x2="284.1" y2="187.6"/>
			</g>
			<g class="st2">
				<path class="st3" d="M245.8,112.1h-2.5l-6.5-10.4v10.4h-2.5V97.4h2.5l6.6,10.4V97.4h2.5V112.1z"/>
				<path class="st3" d="M252.2,112.1h-2.5V97.4h2.5V112.1z"/>
				<path class="st3" d="M267.1,107.3c-0.1,1.6-0.7,2.8-1.7,3.7c-1,0.9-2.3,1.3-4,1.3c-1.2,0-2.2-0.3-3.1-0.8
					c-0.9-0.6-1.6-1.3-2.1-2.4c-0.5-1-0.7-2.2-0.8-3.6v-1.4c0-1.4,0.2-2.6,0.7-3.7c0.5-1.1,1.2-1.9,2.1-2.4c0.9-0.6,2-0.9,3.2-0.9
					c1.6,0,2.9,0.4,3.9,1.3c1,0.9,1.6,2.1,1.7,3.7h-2.5c-0.1-1.1-0.4-1.8-0.9-2.3s-1.2-0.7-2.2-0.7c-1.1,0-2,0.4-2.6,1.2
					c-0.6,0.8-0.9,2-0.9,3.6v1.3c0,1.6,0.3,2.8,0.9,3.6c0.6,0.8,1.4,1.2,2.5,1.2c1,0,1.8-0.2,2.3-0.7c0.5-0.5,0.8-1.2,1-2.2H267.1z"
					/>
			</g>
		</g>
		<g>
			<g>
				<rect x="533.8" y="131.1" class="st12" width="89.5" height="46.3"/>
				<polyline class="st13" points="515.7,118 533.8,118 533.8,186.9 				"/>
				<rect x="545" y="142.2" class="st12" width="23.5" height="23.5"/>
				<line class="st13" x1="585.6" y1="177.2" x2="585.6" y2="184.8"/>
				<line class="st13" x1="591.8" y1="177.2" x2="591.8" y2="184.8"/>
				<line class="st13" x1="598" y1="177.2" x2="598" y2="184.8"/>
				<line class="st13" x1="604.1" y1="177.2" x2="604.1" y2="184.8"/>
				<line class="st13" x1="610.3" y1="177.2" x2="610.3" y2="184.8"/>
				<line class="st13" x1="616.5" y1="177.2" x2="616.5" y2="184.8"/>
			</g>
			<g class="st2">
				<path class="st3" d="M578.2,109.2h-2.5l-6.5-10.4v10.4h-2.5V94.6h2.5l6.6,10.4V94.6h2.5V109.2z"/>
				<path class="st3" d="M584.5,109.2H582V94.6h2.5V109.2z"/>
				<path class="st3" d="M599.5,104.5c-0.1,1.6-0.7,2.8-1.7,3.7c-1,0.9-2.3,1.3-4,1.3c-1.2,0-2.2-0.3-3.1-0.8
					c-0.9-0.6-1.6-1.3-2.1-2.4c-0.5-1-0.7-2.2-0.8-3.6v-1.4c0-1.4,0.2-2.6,0.7-3.7c0.5-1.1,1.2-1.9,2.1-2.4c0.9-0.6,2-0.9,3.2-0.9
					c1.6,0,2.9,0.4,3.9,1.3c1,0.9,1.6,2.1,1.7,3.7h-2.5c-0.1-1.1-0.4-1.8-0.9-2.3s-1.2-0.7-2.2-0.7c-1.1,0-2,0.4-2.6,1.2
					c-0.6,0.8-0.9,2-0.9,3.6v1.3c0,1.6,0.3,2.8,0.9,3.6c0.6,0.8,1.4,1.2,2.5,1.2c1,0,1.8-0.2,2.3-0.7c0.5-0.5,0.8-1.2,1-2.2H599.5z"
					/>
			</g>
		</g>
		<g>
			<polyline class="st14" points="307.7,158.6 348.5,158.6 348.5,226.9 			"/>
			<polygon class="st15" points="309.4,164.5 299.1,158.6 309.4,152.6 			"/>
			<polygon class="st15" points="342.6,225.2 348.5,235.5 354.5,225.2 			"/>
		</g>
		<g>
			<polyline class="st14" points="513.3,159.5 472.5,159.5 472.5,227.9 			"/>
			<polygon class="st15" points="511.6,153.6 521.9,159.5 511.6,165.5 			"/>
			<polygon class="st15" points="466.5,226.1 472.5,236.4 478.4,226.1 			"/>
		</g>
		<g>
			<line class="st14" x1="387.1" y1="223.1" x2="387.1" y2="236.2"/>
			<polygon class="st15" points="394.8,224.2 387.1,219.4 379.4,224.2 379.4,224.3 394.8,224.3 			"/>
			<polygon class="st15" points="394.8,235 387.1,239.9 379.4,235 379.4,235 394.8,235 			"/>
		</g>
		<g>
			<line class="st14" x1="435.7" y1="223.1" x2="435.7" y2="236.2"/>
			<polygon class="st15" points="443.3,224.2 435.7,219.4 428,224.2 428,224.3 443.3,224.3 			"/>
			<polygon class="st15" points="443.3,235 435.7,239.9 428,235 428,235 443.3,235 			"/>
		</g>
		<g>
			<polyline class="st14" points="193.8,533.7 172.5,533.7 172.5,309 319.3,309 			"/>
			<polygon class="st15" points="192.1,527.8 202.4,533.7 192.1,539.7 			"/>
			<polygon class="st15" points="317.5,315 327.9,309 317.5,303.1 			"/>
		</g>
		<g>
			<polyline class="st14" points="193.8,774.7 139.1,774.7 139.1,273.8 319.3,273.8 			"/>
			<polygon class="st15" points="192.1,768.7 202.4,774.7 192.1,780.6 			"/>
			<polygon class="st15" points="317.5,279.8 327.9,273.8 317.5,267.9 			"/>
		</g>
		<g>
			<polyline class="st14" points="621.7,532.8 643.1,532.8 643.1,308.1 496.3,308.1 			"/>
			<polygon class="st15" points="623.5,538.7 613.2,532.8 623.5,526.8 			"/>
			<polygon class="st15" points="498,302.1 487.7,308.1 498,314 			"/>
		</g>
		<g>
			<polyline class="st14" points="621.7,773.7 676.4,773.7 676.4,272.9 496.3,272.9 			"/>
			<polygon class="st15" points="623.5,779.7 613.2,773.7 623.5,767.7 			"/>
			<polygon class="st15" points="498,266.9 487.7,272.9 498,278.8 			"/>
		</g>
		<g>
			<rect x="916.1" y="248.4" class="st10" width="57.5" height="85"/>
			<rect x="982.6" y="248.4" class="st10" width="57.3" height="85"/>
			<g class="st2">
				<path class="st3" d="M914.1,359.6v5.4h-2.5v-14.7h5.6c1.6,0,2.9,0.4,3.9,1.3s1.4,2,1.4,3.4c0,1.4-0.5,2.6-1.4,3.4
					s-2.3,1.2-4,1.2H914.1z M914.1,357.5h3.1c0.9,0,1.6-0.2,2.1-0.6c0.5-0.4,0.7-1,0.7-1.8c0-0.8-0.2-1.4-0.7-1.9
					c-0.5-0.5-1.1-0.7-2-0.7h-3.1V357.5z"/>
				<path class="st3" d="M936.6,360.3c-0.1,1.6-0.7,2.8-1.7,3.7c-1,0.9-2.3,1.3-4,1.3c-1.2,0-2.2-0.3-3.1-0.8
					c-0.9-0.6-1.6-1.3-2.1-2.4c-0.5-1-0.7-2.2-0.8-3.6v-1.4c0-1.4,0.2-2.6,0.7-3.7c0.5-1.1,1.2-1.9,2.1-2.4c0.9-0.6,2-0.9,3.2-0.9
					c1.6,0,2.9,0.4,3.9,1.3c1,0.9,1.6,2.1,1.7,3.7H934c-0.1-1.1-0.4-1.8-0.9-2.3c-0.5-0.5-1.2-0.7-2.2-0.7c-1.1,0-2,0.4-2.6,1.2
					c-0.6,0.8-0.9,2-0.9,3.6v1.3c0,1.6,0.3,2.8,0.9,3.6c0.6,0.8,1.4,1.2,2.5,1.2c1,0,1.8-0.2,2.3-0.7s0.8-1.2,1-2.2H936.6z"/>
				<path class="st3" d="M941.8,365h-2.4v-15.5h2.4V365z"/>
				<path class="st3" d="M949.9,365.2c-1.6,0-2.8-0.5-3.8-1.5c-1-1-1.4-2.3-1.4-3.9v-0.3c0-1.1,0.2-2.1,0.6-2.9s1-1.5,1.8-2
					c0.8-0.5,1.6-0.7,2.5-0.7c1.5,0,2.6,0.5,3.4,1.4c0.8,0.9,1.2,2.3,1.2,4v1h-7.1c0.1,0.9,0.4,1.6,0.9,2.1c0.5,0.5,1.2,0.8,2,0.8
					c1.1,0,2-0.5,2.7-1.4l1.3,1.3c-0.4,0.7-1,1.2-1.7,1.5C951.6,365.1,950.8,365.2,949.9,365.2z M949.6,355.9
					c-0.7,0-1.2,0.2-1.6,0.7c-0.4,0.5-0.7,1.1-0.8,2h4.7v-0.2c-0.1-0.8-0.3-1.4-0.7-1.9S950.3,355.9,949.6,355.9z"/>
				<path class="st3" d="M970.5,361.3c0-0.6-0.2-1.1-0.7-1.5c-0.5-0.3-1.3-0.7-2.5-1.1c-1.2-0.4-2.1-0.8-2.8-1.2
					c-1.3-0.8-2-1.9-2-3.3c0-1.2,0.5-2.2,1.4-2.9c1-0.8,2.2-1.1,3.8-1.1c1,0,1.9,0.2,2.7,0.6s1.4,0.9,1.9,1.6s0.7,1.5,0.7,2.3h-2.5
					c0-0.8-0.2-1.4-0.7-1.8c-0.5-0.4-1.2-0.6-2.1-0.6c-0.8,0-1.5,0.2-1.9,0.5c-0.5,0.4-0.7,0.9-0.7,1.5c0,0.5,0.2,1,0.7,1.3
					s1.3,0.7,2.5,1s2.1,0.7,2.8,1.2s1.2,0.9,1.5,1.5s0.5,1.2,0.5,2c0,1.2-0.5,2.2-1.4,2.9c-0.9,0.7-2.2,1.1-3.8,1.1
					c-1.1,0-2-0.2-2.9-0.6s-1.6-0.9-2.1-1.6c-0.5-0.7-0.7-1.5-0.7-2.4h2.5c0,0.8,0.3,1.5,0.8,1.9c0.5,0.5,1.3,0.7,2.4,0.7
					c0.9,0,1.6-0.2,2-0.5C970.2,362.3,970.5,361.8,970.5,361.3z"/>
				<path class="st3" d="M985.2,361.7l1.7-7.5h2.4l-3,10.9h-2l-2.3-7.5l-2.3,7.5h-2l-3-10.9h2.4l1.8,7.4l2.2-7.4h1.8L985.2,361.7z"
					/>
				<path class="st3" d="M991.6,351.3c0-0.4,0.1-0.7,0.4-0.9c0.2-0.2,0.6-0.4,1-0.4s0.8,0.1,1,0.4c0.2,0.2,0.4,0.6,0.4,0.9
					c0,0.4-0.1,0.7-0.4,0.9c-0.2,0.2-0.6,0.4-1,0.4s-0.8-0.1-1-0.4C991.7,352,991.6,351.7,991.6,351.3z M994.2,365h-2.4v-10.9h2.4
					V365z"/>
				<path class="st3" d="M1000.5,351.5v2.6h1.9v1.8h-1.9v6.1c0,0.4,0.1,0.7,0.2,0.9c0.2,0.2,0.5,0.3,0.9,0.3c0.3,0,0.6,0,0.9-0.1
					v1.9c-0.6,0.2-1.1,0.2-1.6,0.2c-1.9,0-2.8-1-2.8-3.1v-6.2h-1.8v-1.8h1.8v-2.6H1000.5z"/>
				<path class="st3" d="M1009.4,363.3c0.6,0,1.1-0.2,1.5-0.5c0.4-0.4,0.6-0.8,0.6-1.3h2.3c0,0.7-0.2,1.3-0.6,1.9
					c-0.4,0.6-0.9,1.1-1.6,1.4c-0.7,0.3-1.4,0.5-2.2,0.5c-1.5,0-2.7-0.5-3.6-1.5c-0.9-1-1.3-2.4-1.3-4.1v-0.3c0-1.7,0.4-3,1.3-4
					c0.9-1,2.1-1.5,3.6-1.5c1.3,0,2.4,0.4,3.2,1.1c0.8,0.8,1.2,1.7,1.3,3h-2.3c0-0.6-0.2-1.1-0.6-1.5c-0.4-0.4-0.9-0.6-1.5-0.6
					c-0.8,0-1.4,0.3-1.8,0.9c-0.4,0.6-0.6,1.4-0.7,2.6v0.4c0,1.2,0.2,2.1,0.6,2.6S1008.6,363.3,1009.4,363.3z"/>
				<path class="st3" d="M1018.8,355.3c0.8-0.9,1.8-1.4,3-1.4c2.3,0,3.5,1.3,3.5,4v7.1h-2.4v-7c0-0.8-0.2-1.3-0.5-1.6
					c-0.3-0.3-0.8-0.5-1.4-0.5c-1,0-1.7,0.4-2.2,1.3v7.8h-2.4v-15.5h2.4V355.3z"/>
				<path class="st3" d="M1033.2,365.2c-1.6,0-2.8-0.5-3.8-1.5c-1-1-1.4-2.3-1.4-3.9v-0.3c0-1.1,0.2-2.1,0.6-2.9
					c0.4-0.9,1-1.5,1.8-2c0.8-0.5,1.6-0.7,2.5-0.7c1.5,0,2.6,0.5,3.4,1.4c0.8,0.9,1.2,2.3,1.2,4v1h-7.1c0.1,0.9,0.4,1.6,0.9,2.1
					c0.5,0.5,1.2,0.8,2,0.8c1.1,0,2-0.5,2.7-1.4l1.3,1.3c-0.4,0.7-1,1.2-1.7,1.5C1034.9,365.1,1034.1,365.2,1033.2,365.2z
					 M1032.9,355.9c-0.7,0-1.2,0.2-1.6,0.7c-0.4,0.5-0.7,1.1-0.8,2h4.7v-0.2c-0.1-0.8-0.3-1.4-0.7-1.9S1033.6,355.9,1032.9,355.9z"
					/>
				<path class="st3" d="M1046.2,362.1c0-0.4-0.2-0.8-0.5-1c-0.4-0.2-1-0.4-1.8-0.6c-0.8-0.2-1.5-0.4-2.1-0.7
					c-1.2-0.6-1.8-1.4-1.8-2.6c0-0.9,0.4-1.7,1.2-2.4c0.8-0.6,1.8-0.9,3-0.9c1.3,0,2.4,0.3,3.2,1s1.2,1.5,1.2,2.5h-2.4
					c0-0.5-0.2-0.9-0.5-1.2c-0.3-0.3-0.8-0.5-1.4-0.5c-0.5,0-1,0.1-1.3,0.4s-0.5,0.6-0.5,1c0,0.4,0.2,0.7,0.5,0.9
					c0.3,0.2,1,0.4,1.9,0.6c1,0.2,1.7,0.5,2.3,0.8c0.5,0.3,1,0.6,1.2,1.1c0.3,0.4,0.4,0.9,0.4,1.5c0,1-0.4,1.8-1.2,2.4
					s-1.9,0.9-3.2,0.9c-0.9,0-1.7-0.2-2.4-0.5c-0.7-0.3-1.2-0.8-1.6-1.3c-0.4-0.6-0.6-1.2-0.6-1.8h2.4c0,0.6,0.3,1,0.7,1.3
					c0.4,0.3,0.9,0.5,1.6,0.5c0.6,0,1.1-0.1,1.5-0.4C1046.1,362.8,1046.2,362.5,1046.2,362.1z"/>
			</g>
		</g>
		<g>
			<rect x="935.2" y="131" class="st11" width="85.7" height="85.7"/>
			<rect x="952.3" y="149.1" class="st11" width="21" height="20.9"/>
			<rect x="982.8" y="149.1" class="st11" width="21" height="20.9"/>
			<rect x="952.3" y="177.6" class="st11" width="21" height="20.9"/>
			<rect x="982.8" y="177.6" class="st11" width="21" height="20.9"/>
			<g class="st2">
				<path class="st3" d="M969.6,108.3c-0.1,1.6-0.7,2.8-1.7,3.7c-1,0.9-2.3,1.3-4,1.3c-1.2,0-2.2-0.3-3.1-0.8
					c-0.9-0.6-1.6-1.3-2.1-2.4c-0.5-1-0.7-2.2-0.8-3.6v-1.4c0-1.4,0.2-2.6,0.7-3.7c0.5-1.1,1.2-1.9,2.1-2.4c0.9-0.6,2-0.9,3.2-0.9
					c1.6,0,2.9,0.4,3.9,1.3c1,0.9,1.6,2.1,1.7,3.7h-2.5c-0.1-1.1-0.4-1.8-0.9-2.3c-0.5-0.5-1.2-0.7-2.2-0.7c-1.1,0-2,0.4-2.6,1.2
					c-0.6,0.8-0.9,2-0.9,3.6v1.3c0,1.6,0.3,2.8,0.9,3.6c0.6,0.8,1.4,1.2,2.5,1.2c1,0,1.8-0.2,2.3-0.7c0.5-0.5,0.8-1.2,1-2.2H969.6z"
					/>
				<path class="st3" d="M975.1,107.6v5.4h-2.5V98.4h5.6c1.6,0,2.9,0.4,3.9,1.3c1,0.9,1.4,2,1.4,3.4c0,1.4-0.5,2.6-1.4,3.4
					s-2.3,1.2-4,1.2H975.1z M975.1,105.5h3.1c0.9,0,1.6-0.2,2.1-0.6c0.5-0.4,0.7-1,0.7-1.8c0-0.8-0.2-1.4-0.7-1.9
					c-0.5-0.5-1.1-0.7-2-0.7h-3.1V105.5z"/>
				<path class="st3" d="M997.1,98.4v9.8c0,1.6-0.5,2.8-1.5,3.7c-1,0.9-2.3,1.4-4,1.4c-1.7,0-3-0.4-4-1.3s-1.5-2.1-1.5-3.7v-9.8h2.5
					v9.8c0,1,0.2,1.7,0.7,2.2c0.5,0.5,1.2,0.8,2.2,0.8c2,0,2.9-1,2.9-3.1v-9.7H997.1z"/>
			</g>
		</g>
		<g>
			<g>
				<rect x="769" y="134.9" class="st12" width="89.5" height="46.3"/>
				<polyline class="st13" points="750.9,121.8 769,121.8 769,190.7 				"/>
				<rect x="780.2" y="146.1" class="st12" width="23.5" height="23.5"/>
				<line class="st13" x1="820.8" y1="181" x2="820.8" y2="188.6"/>
				<line class="st13" x1="827" y1="181" x2="827" y2="188.6"/>
				<line class="st13" x1="833.2" y1="181" x2="833.2" y2="188.6"/>
				<line class="st13" x1="839.3" y1="181" x2="839.3" y2="188.6"/>
				<line class="st13" x1="845.5" y1="181" x2="845.5" y2="188.6"/>
				<line class="st13" x1="851.7" y1="181" x2="851.7" y2="188.6"/>
			</g>
			<g class="st2">
				<path class="st3" d="M813.4,113h-2.5l-6.5-10.4V113h-2.5V98.4h2.5l6.6,10.4V98.4h2.5V113z"/>
				<path class="st3" d="M819.7,113h-2.5V98.4h2.5V113z"/>
				<path class="st3" d="M834.7,108.3c-0.1,1.6-0.7,2.8-1.7,3.7c-1,0.9-2.3,1.3-4,1.3c-1.2,0-2.2-0.3-3.1-0.8
					c-0.9-0.6-1.6-1.3-2.1-2.4c-0.5-1-0.7-2.2-0.8-3.6v-1.4c0-1.4,0.2-2.6,0.7-3.7c0.5-1.1,1.2-1.9,2.1-2.4c0.9-0.6,2-0.9,3.2-0.9
					c1.6,0,2.9,0.4,3.9,1.3c1,0.9,1.6,2.1,1.7,3.7h-2.5c-0.1-1.1-0.4-1.8-0.9-2.3c-0.5-0.5-1.2-0.7-2.2-0.7c-1.1,0-2,0.4-2.6,1.2
					c-0.6,0.8-0.9,2-0.9,3.6v1.3c0,1.6,0.3,2.8,0.9,3.6c0.6,0.8,1.4,1.2,2.5,1.2c1,0,1.8-0.2,2.3-0.7s0.8-1.2,1-2.2H834.7z"/>
			</g>
		</g>
		<g>
			<g>
				<rect x="1101.4" y="132" class="st12" width="89.5" height="46.3"/>
				<polyline class="st13" points="1083.3,118.9 1101.4,118.9 1101.4,187.9 				"/>
				<rect x="1112.6" y="143.2" class="st12" width="23.5" height="23.5"/>
				<line class="st13" x1="1153.2" y1="178.2" x2="1153.2" y2="185.7"/>
				<line class="st13" x1="1159.4" y1="178.2" x2="1159.4" y2="185.7"/>
				<line class="st13" x1="1165.5" y1="178.2" x2="1165.5" y2="185.7"/>
				<line class="st13" x1="1171.7" y1="178.2" x2="1171.7" y2="185.7"/>
				<line class="st13" x1="1177.9" y1="178.2" x2="1177.9" y2="185.7"/>
				<line class="st13" x1="1184.1" y1="178.2" x2="1184.1" y2="185.7"/>
			</g>
			<g class="st2">
				<path class="st3" d="M1145.8,110.2h-2.5l-6.5-10.4v10.4h-2.5V95.5h2.5l6.6,10.4V95.5h2.5V110.2z"/>
				<path class="st3" d="M1152.1,110.2h-2.5V95.5h2.5V110.2z"/>
				<path class="st3" d="M1167,105.4c-0.1,1.6-0.7,2.8-1.7,3.7c-1,0.9-2.3,1.3-4,1.3c-1.2,0-2.2-0.3-3.1-0.8
					c-0.9-0.6-1.6-1.3-2.1-2.4c-0.5-1-0.7-2.2-0.8-3.6v-1.4c0-1.4,0.2-2.6,0.7-3.7c0.5-1.1,1.2-1.9,2.1-2.4c0.9-0.6,2-0.9,3.2-0.9
					c1.6,0,2.9,0.4,3.9,1.3c1,0.9,1.6,2.1,1.7,3.7h-2.5c-0.1-1.1-0.4-1.8-0.9-2.3c-0.5-0.5-1.2-0.7-2.2-0.7c-1.1,0-2,0.4-2.6,1.2
					c-0.6,0.8-0.9,2-0.9,3.6v1.3c0,1.6,0.3,2.8,0.9,3.6c0.6,0.8,1.4,1.2,2.5,1.2c1,0,1.8-0.2,2.3-0.7c0.5-0.5,0.8-1.2,1-2.2H1167z"
					/>
			</g>
		</g>
		<g>
			<polyline class="st14" points="875.3,159.5 916.1,159.5 916.1,227.9 			"/>
			<polygon class="st15" points="877,165.5 866.7,159.5 877,153.6 			"/>
			<polygon class="st15" points="910.2,226.1 916.1,236.4 922.1,226.1 			"/>
		</g>
		<g>
			<polyline class="st14" points="1080.9,160.5 1040,160.5 1040,228.8 			"/>
			<polygon class="st15" points="1079.1,154.5 1089.5,160.5 1079.1,166.4 			"/>
			<polygon class="st15" points="1034.1,227.1 1040,237.4 1046,227.1 			"/>
		</g>
		<g>
			<line class="st14" x1="954.7" y1="224.1" x2="954.7" y2="237.1"/>
			<polygon class="st15" points="962.4,225.2 954.7,220.4 947,225.2 947,225.3 962.4,225.3 			"/>
			<polygon class="st15" points="962.4,236 954.7,240.8 947,236 947,235.9 962.4,235.9 			"/>
		</g>
		<g>
			<line class="st14" x1="1003.2" y1="224.1" x2="1003.2" y2="237.1"/>
			<polygon class="st15" points="1010.9,225.2 1003.2,220.4 995.6,225.2 995.6,225.3 1010.9,225.3 			"/>
			<polygon class="st15" points="1010.9,236 1003.2,240.8 995.6,236 995.6,235.9 1010.9,235.9 			"/>
		</g>
		<g>
			<polyline class="st14" points="761.4,534.7 740.1,534.7 740.1,310 886.9,310 			"/>
			<polygon class="st15" points="759.7,528.7 770,534.7 759.7,540.6 			"/>
			<polygon class="st15" points="885.1,316 895.5,310 885.1,304 			"/>
		</g>
		<g>
			<polyline class="st14" points="761.4,775.6 706.7,775.6 706.7,274.8 886.9,274.8 			"/>
			<polygon class="st15" points="759.7,769.7 770,775.6 759.7,781.6 			"/>
			<polygon class="st15" points="885.1,280.7 895.5,274.8 885.1,268.8 			"/>
		</g>
		<g>
			<polyline class="st14" points="1189.3,533.7 1210.7,533.7 1210.7,309 1063.8,309 			"/>
			<polygon class="st15" points="1191.1,539.7 1180.8,533.7 1191.1,527.8 			"/>
			<polygon class="st15" points="1065.6,303.1 1055.3,309 1065.6,315 			"/>
		</g>
		<g>
			<polyline class="st14" points="1189.3,774.7 1244,774.7 1244,273.8 1063.8,273.8 			"/>
			<polygon class="st15" points="1191.1,780.6 1180.8,774.7 1191.1,768.7 			"/>
			<polygon class="st15" points="1065.6,267.9 1055.3,273.8 1065.6,279.8 			"/>
		</g>
		<g>
			<polyline class="st16" points="410.4,69.6 410.4,43.5 977.9,43.5 977.9,69.6 			"/>
			<polygon class="st17" points="416.4,67.9 410.4,78.2 404.5,67.9 			"/>
			<polygon class="st17" points="971.9,67.9 977.9,78.2 983.8,67.9 			"/>
		</g>
		<g class="st2">
			<path class="st3" d="M635.5,936.7c0,0.7-0.2,1.4-0.6,1.9c-0.4,0.6-0.9,1-1.5,1.3c0.8,0.4,1.4,0.8,1.8,1.5
				c0.4,0.6,0.6,1.3,0.6,2.1c0,1.3-0.4,2.3-1.3,3.1c-0.9,0.8-2,1.1-3.5,1.1c-1.5,0-2.6-0.4-3.5-1.1s-1.3-1.8-1.3-3.1
				c0-0.8,0.2-1.5,0.6-2.1c0.4-0.6,1-1.1,1.8-1.4c-0.6-0.3-1.1-0.8-1.5-1.3c-0.4-0.6-0.5-1.2-0.5-1.9c0-1.2,0.4-2.2,1.2-3
				c0.8-0.7,1.9-1.1,3.3-1.1c1.4,0,2.5,0.4,3.3,1.1C635.1,934.5,635.5,935.5,635.5,936.7z M633.4,943.4c0-0.7-0.2-1.3-0.6-1.8
				c-0.4-0.4-1-0.7-1.7-0.7s-1.3,0.2-1.7,0.7c-0.4,0.4-0.6,1-0.6,1.8c0,0.7,0.2,1.3,0.6,1.7c0.4,0.4,1,0.6,1.7,0.6
				c0.7,0,1.3-0.2,1.7-0.6C633.2,944.7,633.4,944.1,633.4,943.4z M633.1,936.8c0-0.6-0.2-1.2-0.6-1.6s-0.9-0.6-1.5-0.6
				s-1.1,0.2-1.5,0.6c-0.4,0.4-0.5,0.9-0.5,1.6c0,0.7,0.2,1.2,0.5,1.6c0.4,0.4,0.9,0.6,1.5,0.6s1.1-0.2,1.5-0.6
				C632.9,938,633.1,937.5,633.1,936.8z"/>
		</g>
		<g class="st2">
		</g>
		<g class="st2">
			<path class="st3" d="M654.8,934.9h-4.6v12.6h-2.5v-12.6h-4.5v-2.1h11.6V934.9z"/>
		</g>
		<g class="st2">
			<path class="st3" d="M661,947.7c-1.6,0-2.8-0.5-3.8-1.5c-1-1-1.4-2.3-1.4-3.9V942c0-1.1,0.2-2.1,0.6-2.9c0.4-0.9,1-1.5,1.8-2
				c0.8-0.5,1.6-0.7,2.5-0.7c1.5,0,2.6,0.5,3.4,1.4c0.8,0.9,1.2,2.3,1.2,4v1h-7.1c0.1,0.9,0.4,1.6,0.9,2.1c0.5,0.5,1.2,0.8,2,0.8
				c1.1,0,2-0.5,2.7-1.4l1.3,1.3c-0.4,0.7-1,1.2-1.7,1.5C662.7,947.5,661.9,947.7,661,947.7z M660.7,938.4c-0.7,0-1.2,0.2-1.6,0.7
				c-0.4,0.5-0.7,1.1-0.8,2h4.7v-0.2c-0.1-0.8-0.3-1.4-0.7-1.9S661.4,938.4,660.7,938.4z"/>
			<path class="st3" d="M674,944.5c0-0.4-0.2-0.8-0.5-1c-0.4-0.2-1-0.4-1.8-0.6c-0.8-0.2-1.5-0.4-2.1-0.7c-1.2-0.6-1.8-1.4-1.8-2.6
				c0-0.9,0.4-1.7,1.2-2.4c0.8-0.6,1.8-0.9,3-0.9c1.3,0,2.4,0.3,3.2,1c0.8,0.6,1.2,1.5,1.2,2.5h-2.4c0-0.5-0.2-0.9-0.5-1.2
				s-0.8-0.5-1.4-0.5c-0.5,0-1,0.1-1.3,0.4c-0.3,0.2-0.5,0.6-0.5,1c0,0.4,0.2,0.7,0.5,0.9c0.3,0.2,1,0.4,1.9,0.6
				c1,0.2,1.7,0.5,2.3,0.8s1,0.6,1.2,1.1c0.3,0.4,0.4,0.9,0.4,1.5c0,1-0.4,1.8-1.2,2.4s-1.9,0.9-3.2,0.9c-0.9,0-1.7-0.2-2.4-0.5
				c-0.7-0.3-1.2-0.8-1.6-1.3c-0.4-0.6-0.6-1.2-0.6-1.8h2.4c0,0.6,0.3,1,0.7,1.3c0.4,0.3,0.9,0.5,1.6,0.5c0.6,0,1.1-0.1,1.5-0.4
				C673.8,945.3,674,944.9,674,944.5z"/>
			<path class="st3" d="M681.7,947.5h-2.4V932h2.4V947.5z"/>
			<path class="st3" d="M691.5,947.5c-0.1-0.2-0.2-0.5-0.3-1c-0.8,0.8-1.7,1.2-2.9,1.2c-1.1,0-2-0.3-2.7-0.9c-0.7-0.6-1-1.4-1-2.3
				c0-1.2,0.4-2.1,1.3-2.7c0.9-0.6,2.1-0.9,3.7-0.9h1.5v-0.7c0-0.6-0.2-1-0.5-1.4c-0.3-0.3-0.8-0.5-1.4-0.5c-0.6,0-1,0.1-1.4,0.4
				c-0.4,0.3-0.5,0.6-0.5,1.1h-2.4c0-0.6,0.2-1.2,0.6-1.7c0.4-0.5,0.9-0.9,1.6-1.2c0.7-0.3,1.4-0.4,2.3-0.4c1.3,0,2.3,0.3,3.1,1
				s1.1,1.5,1.2,2.7v4.9c0,1,0.1,1.8,0.4,2.3v0.2H691.5z M688.8,945.7c0.5,0,0.9-0.1,1.4-0.4c0.4-0.2,0.7-0.6,1-0.9v-2.1h-1.3
				c-0.9,0-1.6,0.2-2,0.5c-0.5,0.3-0.7,0.8-0.7,1.3c0,0.5,0.2,0.8,0.5,1.1C687.9,945.6,688.3,945.7,688.8,945.7z"/>
			<path class="st3" d="M707.9,944.3l3.7-11.5h2.8l-5.3,14.7h-2.5l-5.3-14.7h2.8L707.9,944.3z"/>
			<path class="st3" d="M723,947.5h-2.4v-11.8l-3.6,1.2v-2.1l5.7-2.1h0.3V947.5z"/>
			<path class="st3" d="M738.3,941.3c0,2.1-0.4,3.7-1.2,4.8s-2,1.6-3.6,1.6c-1.6,0-2.8-0.5-3.6-1.6c-0.8-1-1.2-2.6-1.2-4.6V939
				c0-2.1,0.4-3.7,1.2-4.7c0.8-1.1,2-1.6,3.6-1.6c1.6,0,2.8,0.5,3.6,1.5s1.2,2.6,1.2,4.6V941.3z M735.8,938.6c0-1.4-0.2-2.4-0.6-3
				c-0.4-0.6-1-1-1.8-1c-0.8,0-1.4,0.3-1.8,0.9c-0.4,0.6-0.6,1.6-0.6,2.8v3.3c0,1.4,0.2,2.4,0.6,3.1c0.4,0.7,1,1,1.8,1
				c0.8,0,1.4-0.3,1.7-0.9s0.6-1.6,0.6-2.9V938.6z"/>
			<path class="st3" d="M750.6,941.3c0,2.1-0.4,3.7-1.2,4.8s-2,1.6-3.6,1.6c-1.6,0-2.8-0.5-3.6-1.6c-0.8-1-1.2-2.6-1.2-4.6V939
				c0-2.1,0.4-3.7,1.2-4.7c0.8-1.1,2-1.6,3.6-1.6c1.6,0,2.8,0.5,3.6,1.5s1.2,2.6,1.2,4.6V941.3z M748.2,938.6c0-1.4-0.2-2.4-0.6-3
				c-0.4-0.6-1-1-1.8-1c-0.8,0-1.4,0.3-1.8,0.9c-0.4,0.6-0.6,1.6-0.6,2.8v3.3c0,1.4,0.2,2.4,0.6,3.1c0.4,0.7,1,1,1.8,1
				c0.8,0,1.4-0.3,1.7-0.9s0.6-1.6,0.6-2.9V938.6z"/>
		</g>
		<g class="st2">
			<path class="st7" d="M415.5,1045.5h-4l-7.7-12.6v12.6h-4v-19.2h4l7.7,12.7v-12.7h3.9V1045.5z"/>
			<path class="st7" d="M426.9,1040.7l4.4-14.4h4.4l-6.7,19.2h-4.1l-6.7-19.2h4.4L426.9,1040.7z"/>
			<path class="st7" d="M442.2,1042.3h8.4v3.2h-12.4v-19.2h4V1042.3z"/>
			<path class="st7" d="M453.4,1027.5c0-0.6,0.2-1,0.6-1.4c0.4-0.4,0.9-0.6,1.6-0.6c0.7,0,1.2,0.2,1.6,0.6s0.6,0.8,0.6,1.4
				c0,0.6-0.2,1.1-0.6,1.4c-0.4,0.4-0.9,0.6-1.5,0.6s-1.2-0.2-1.5-0.6S453.4,1028.1,453.4,1027.5z M457.4,1045.5h-3.8v-14.3h3.8
				V1045.5z"/>
			<path class="st7" d="M464.9,1031.2l0.1,1.6c1-1.3,2.4-1.9,4.1-1.9c1.5,0,2.6,0.4,3.4,1.3c0.7,0.9,1.1,2.2,1.1,4v9.2h-3.8v-9.1
				c0-0.8-0.2-1.4-0.5-1.8c-0.4-0.4-0.9-0.5-1.8-0.5c-1.1,0-1.9,0.5-2.4,1.4v10.1h-3.8v-14.3H464.9z"/>
			<path class="st7" d="M482.5,1039.8l-1.4,1.4v4.4h-3.8v-20.2h3.8v11.2l0.7-0.9l3.7-4.3h4.6l-5.2,5.9l5.6,8.3h-4.4L482.5,1039.8z"
				/>
			<path class="st7" d="M492.7,1037.7c0-2,0.3-3.9,0.8-5.7s1.3-3.4,2.4-4.8c1-1.4,2.2-2.4,3.4-2.9l0.7,2.1c-1.3,0.9-2.3,2.4-3,4.4
				s-1.1,4.3-1.1,7v0.4c0,2.7,0.4,5,1.1,7c0.7,2,1.7,3.5,3,4.5l-0.7,2c-1.2-0.5-2.3-1.5-3.3-2.8c-1-1.4-1.8-2.9-2.4-4.7
				c-0.5-1.8-0.8-3.6-0.9-5.6V1037.7z"/>
			<path class="st7" d="M515.8,1045.5h-13.2v-2.6l6.2-6.6c0.9-0.9,1.5-1.7,1.9-2.4c0.4-0.7,0.6-1.4,0.6-2c0-0.9-0.2-1.5-0.6-2
				c-0.4-0.5-1-0.7-1.8-0.7c-0.9,0-1.5,0.3-2,0.9c-0.5,0.6-0.7,1.4-0.7,2.3h-3.8c0-1.2,0.3-2.2,0.8-3.2c0.6-1,1.3-1.7,2.4-2.3
				c1-0.5,2.2-0.8,3.5-0.8c2,0,3.5,0.5,4.6,1.4c1.1,0.9,1.6,2.3,1.6,4c0,0.9-0.2,1.9-0.7,2.9s-1.3,2.1-2.5,3.4l-4.4,4.6h8.3V1045.5z
				"/>
			<path class="st7" d="M519.6,1036.1l1.1-9.8h10.8v3.2h-7.6l-0.5,4.1c0.9-0.5,1.9-0.7,2.9-0.7c1.8,0,3.3,0.6,4.3,1.7
				s1.6,2.7,1.6,4.8c0,1.2-0.3,2.3-0.8,3.3c-0.5,1-1.3,1.7-2.2,2.3c-1,0.5-2.1,0.8-3.5,0.8c-1.2,0-2.2-0.2-3.2-0.7
				c-1-0.5-1.8-1.1-2.4-2c-0.6-0.9-0.9-1.8-0.9-2.9h3.8c0.1,0.8,0.4,1.4,0.8,1.9c0.5,0.4,1.1,0.7,1.9,0.7c0.9,0,1.5-0.3,2-0.9
				c0.5-0.6,0.7-1.5,0.7-2.6c0-1.1-0.3-1.9-0.8-2.5s-1.3-0.9-2.3-0.9c-0.9,0-1.6,0.2-2.2,0.7l-0.4,0.3L519.6,1036.1z"/>
			<path class="st7" d="M550.9,1043.1c-0.7,0.9-1.7,1.5-3,2c-1.3,0.5-2.7,0.7-4.3,0.7c-1.7,0-3.1-0.4-4.4-1.1
				c-1.3-0.7-2.2-1.8-2.9-3.2s-1-3-1-4.9v-1.3c0-1.9,0.3-3.6,1-5c0.6-1.4,1.6-2.5,2.8-3.2c1.2-0.7,2.6-1.1,4.3-1.1
				c2.3,0,4.1,0.5,5.3,1.6c1.3,1.1,2,2.7,2.3,4.7H547c-0.2-1.1-0.6-1.9-1.2-2.4s-1.4-0.8-2.5-0.8c-1.3,0-2.4,0.5-3.1,1.5
				s-1.1,2.5-1.1,4.5v1.2c0,2,0.4,3.5,1.1,4.6s1.9,1.5,3.4,1.5c1.5,0,2.5-0.3,3.2-0.9v-3.3h-3.6v-2.9h7.6V1043.1z"/>
			<path class="st7" d="M554.9,1045.5v-19.2h6.7c2.3,0,4.1,0.4,5.3,1.3c1.2,0.9,1.8,2.2,1.8,3.9c0,0.9-0.2,1.8-0.7,2.5
				c-0.5,0.7-1.2,1.2-2,1.6c1,0.2,1.8,0.7,2.3,1.5c0.6,0.7,0.9,1.7,0.9,2.7c0,1.8-0.6,3.2-1.8,4.2s-2.9,1.4-5,1.5H554.9z
				 M558.9,1034.3h2.9c2,0,3-0.8,3-2.4c0-0.9-0.3-1.5-0.8-1.9c-0.5-0.4-1.3-0.6-2.4-0.6h-2.8V1034.3z M558.9,1037.1v5.2h3.4
				c0.9,0,1.7-0.2,2.2-0.7c0.5-0.4,0.8-1.1,0.8-1.8c0-1.8-0.9-2.7-2.7-2.7H558.9z"/>
			<path class="st7" d="M573.9,1047.1h-2.8l7.1-20.8h2.8L573.9,1047.1z"/>
			<path class="st7" d="M591.3,1041.6c0-0.5-0.2-0.8-0.7-1.1c-0.5-0.3-1.2-0.5-2.2-0.7c-3.4-0.7-5.1-2.2-5.1-4.3
				c0-1.3,0.5-2.3,1.6-3.2c1.1-0.8,2.4-1.3,4.1-1.3c1.8,0,3.3,0.4,4.3,1.3c1.1,0.9,1.6,2,1.6,3.3h-3.8c0-0.5-0.2-1-0.5-1.4
				c-0.4-0.4-0.9-0.5-1.6-0.5c-0.6,0-1.1,0.1-1.5,0.4c-0.4,0.3-0.5,0.7-0.5,1.1c0,0.4,0.2,0.8,0.6,1c0.4,0.3,1.1,0.5,2,0.7
				c0.9,0.2,1.7,0.4,2.4,0.6c2,0.7,3,2,3,3.8c0,1.3-0.6,2.4-1.7,3.2c-1.1,0.8-2.6,1.2-4.3,1.2c-1.2,0-2.3-0.2-3.2-0.6
				c-0.9-0.4-1.7-1-2.2-1.8c-0.5-0.7-0.8-1.5-0.8-2.4h3.6c0,0.7,0.3,1.2,0.8,1.6s1.1,0.5,1.9,0.5c0.7,0,1.3-0.1,1.7-0.4
				C591.1,1042.4,591.3,1042,591.3,1041.6z"/>
			<path class="st7" d="M613.2,1038.8h-7.4v-3.1h7.4V1038.8z"/>
			<path class="st7" d="M633.7,1045.5h-3.8v-14.7l-4.5,1.4v-3.1l7.9-2.8h0.4V1045.5z"/>
			<path class="st7" d="M653.3,1031.4c0,0.9-0.2,1.8-0.7,2.5c-0.5,0.7-1.1,1.3-1.9,1.7c0.9,0.4,1.7,1.1,2.2,1.9
				c0.5,0.8,0.8,1.7,0.8,2.8c0,1.7-0.6,3.1-1.7,4c-1.2,1-2.7,1.5-4.7,1.5s-3.6-0.5-4.7-1.5c-1.2-1-1.8-2.3-1.8-4
				c0-1.1,0.3-2,0.8-2.8s1.3-1.4,2.2-1.8c-0.8-0.4-1.5-1-1.9-1.7c-0.5-0.7-0.7-1.5-0.7-2.5c0-1.6,0.5-2.9,1.6-3.9
				c1.1-1,2.6-1.5,4.4-1.5c1.9,0,3.3,0.5,4.4,1.4C652.7,1028.4,653.3,1029.8,653.3,1031.4z M649.9,1040c0-0.8-0.2-1.5-0.7-2
				s-1.1-0.8-2-0.8c-0.8,0-1.5,0.2-1.9,0.7c-0.5,0.5-0.7,1.2-0.7,2c0,0.8,0.2,1.5,0.7,2s1.1,0.8,2,0.8c0.8,0,1.5-0.2,1.9-0.7
				S649.9,1040.8,649.9,1040z M649.5,1031.6c0-0.7-0.2-1.3-0.6-1.8c-0.4-0.5-1-0.7-1.7-0.7c-0.7,0-1.3,0.2-1.7,0.7
				c-0.4,0.4-0.6,1-0.6,1.8c0,0.8,0.2,1.4,0.6,1.8s1,0.7,1.7,0.7s1.3-0.2,1.7-0.7C649.3,1033,649.5,1032.4,649.5,1031.6z"/>
			<path class="st7" d="M670,1037.6c0,2.7-0.5,4.7-1.6,6.1s-2.7,2.1-4.8,2.1c-2.1,0-3.7-0.7-4.8-2.1c-1.1-1.4-1.7-3.4-1.7-5.9v-3.5
				c0-2.7,0.6-4.7,1.7-6.1s2.7-2.1,4.8-2.1s3.7,0.7,4.8,2.1c1.1,1.4,1.7,3.4,1.7,5.9V1037.6z M666.2,1033.7c0-1.6-0.2-2.8-0.7-3.5
				c-0.4-0.7-1.1-1.1-2-1.1c-0.9,0-1.6,0.3-2,1c-0.4,0.7-0.7,1.8-0.7,3.2v4.7c0,1.6,0.2,2.7,0.6,3.5c0.4,0.8,1.1,1.1,2,1.1
				c0.9,0,1.6-0.4,2-1.1s0.6-1.8,0.6-3.4V1033.7z"/>
			<path class="st7" d="M686.3,1037.6c0,2.7-0.5,4.7-1.6,6.1s-2.7,2.1-4.8,2.1c-2.1,0-3.7-0.7-4.8-2.1c-1.1-1.4-1.7-3.4-1.7-5.9
				v-3.5c0-2.7,0.6-4.7,1.7-6.1s2.7-2.1,4.8-2.1s3.7,0.7,4.8,2.1c1.1,1.4,1.7,3.4,1.7,5.9V1037.6z M682.5,1033.7
				c0-1.6-0.2-2.8-0.7-3.5c-0.4-0.7-1.1-1.1-2-1.1c-0.9,0-1.6,0.3-2,1c-0.4,0.7-0.7,1.8-0.7,3.2v4.7c0,1.6,0.2,2.7,0.6,3.5
				c0.4,0.8,1.1,1.1,2,1.1c0.9,0,1.6-0.4,2-1.1s0.6-1.8,0.6-3.4V1033.7z"/>
			<path class="st7" d="M705.3,1043.1c-0.7,0.9-1.7,1.5-3,2c-1.3,0.5-2.7,0.7-4.3,0.7c-1.7,0-3.1-0.4-4.4-1.1
				c-1.3-0.7-2.2-1.8-2.9-3.2s-1-3-1-4.9v-1.3c0-1.9,0.3-3.6,1-5c0.6-1.4,1.6-2.5,2.8-3.2c1.2-0.7,2.6-1.1,4.3-1.1
				c2.3,0,4.1,0.5,5.3,1.6c1.3,1.1,2,2.7,2.3,4.7h-3.8c-0.2-1.1-0.6-1.9-1.2-2.4c-0.6-0.5-1.4-0.8-2.5-0.8c-1.3,0-2.4,0.5-3.1,1.5
				s-1.1,2.5-1.1,4.5v1.2c0,2,0.4,3.5,1.1,4.6s1.9,1.5,3.4,1.5c1.5,0,2.5-0.3,3.2-0.9v-3.3h-3.6v-2.9h7.6V1043.1z"/>
			<path class="st7" d="M709.3,1045.5v-19.2h6.7c2.3,0,4.1,0.4,5.3,1.3c1.2,0.9,1.8,2.2,1.8,3.9c0,0.9-0.2,1.8-0.7,2.5
				c-0.5,0.7-1.2,1.2-2,1.6c1,0.2,1.8,0.7,2.3,1.5c0.6,0.7,0.9,1.7,0.9,2.7c0,1.8-0.6,3.2-1.8,4.2s-2.9,1.4-5,1.5H709.3z
				 M713.2,1034.3h2.9c2,0,3-0.8,3-2.4c0-0.9-0.3-1.5-0.8-1.9c-0.5-0.4-1.3-0.6-2.4-0.6h-2.8V1034.3z M713.2,1037.1v5.2h3.4
				c0.9,0,1.7-0.2,2.2-0.7c0.5-0.4,0.8-1.1,0.8-1.8c0-1.8-0.9-2.7-2.7-2.7H713.2z"/>
			<path class="st7" d="M728.3,1047.1h-2.8l7.1-20.8h2.8L728.3,1047.1z"/>
			<path class="st7" d="M745.7,1041.6c0-0.5-0.2-0.8-0.7-1.1c-0.5-0.3-1.2-0.5-2.2-0.7c-3.4-0.7-5.1-2.2-5.1-4.3
				c0-1.3,0.5-2.3,1.6-3.2c1.1-0.8,2.4-1.3,4.1-1.3c1.8,0,3.3,0.4,4.3,1.3c1.1,0.9,1.6,2,1.6,3.3h-3.8c0-0.5-0.2-1-0.5-1.4
				c-0.4-0.4-0.9-0.5-1.6-0.5c-0.6,0-1.1,0.1-1.5,0.4c-0.4,0.3-0.5,0.7-0.5,1.1c0,0.4,0.2,0.8,0.6,1c0.4,0.3,1.1,0.5,2,0.7
				c0.9,0.2,1.7,0.4,2.4,0.6c2,0.7,3,2,3,3.8c0,1.3-0.6,2.4-1.7,3.2c-1.1,0.8-2.6,1.2-4.3,1.2c-1.2,0-2.3-0.2-3.2-0.6
				c-0.9-0.4-1.7-1-2.2-1.8c-0.5-0.7-0.8-1.5-0.8-2.4h3.6c0,0.7,0.3,1.2,0.8,1.6s1.1,0.5,1.9,0.5c0.7,0,1.3-0.1,1.7-0.4
				C745.5,1042.4,745.7,1042,745.7,1041.6z"/>
			<path class="st7" d="M759.2,1038c0,2-0.3,3.9-0.9,5.7s-1.4,3.5-2.5,4.9c-1.1,1.4-2.2,2.4-3.4,2.9l-0.7-2c1.2-0.9,2.2-2.4,3-4.4
				s1.1-4.2,1.1-6.8v-0.7c0-2.6-0.4-4.9-1.1-6.9c-0.7-2-1.7-3.5-3-4.5l0.7-2c1.2,0.5,2.3,1.5,3.4,2.8c1.1,1.4,1.9,2.9,2.5,4.8
				c0.6,1.8,0.9,3.7,0.9,5.6V1038z"/>
			<path class="st7" d="M778.3,1037.3l-7.7-2.7v-3.7l11.5,4.8v3.1l-11.5,4.8v-3.7L778.3,1037.3z"/>
			<path class="st7" d="M797,1038.7v6.8h-4v-19.2h7.5c1.4,0,2.7,0.3,3.8,0.8c1.1,0.5,1.9,1.3,2.5,2.2c0.6,1,0.9,2.1,0.9,3.3
				c0,1.9-0.6,3.4-1.9,4.4c-1.3,1.1-3.1,1.6-5.3,1.6H797z M797,1035.5h3.5c1,0,1.8-0.2,2.4-0.7c0.5-0.5,0.8-1.2,0.8-2.1
				c0-0.9-0.3-1.7-0.8-2.3c-0.6-0.6-1.3-0.9-2.3-0.9H797V1035.5z"/>
			<path class="st7" d="M826.4,1039.1c-0.2,2.1-0.9,3.7-2.3,4.9c-1.4,1.2-3.2,1.8-5.4,1.8c-2.5,0-4.4-0.8-5.8-2.5
				c-1.4-1.7-2.1-3.9-2.1-6.8v-1.2c0-1.8,0.3-3.5,1-4.9c0.7-1.4,1.6-2.5,2.8-3.2c1.2-0.8,2.6-1.1,4.2-1.1c2.2,0,4,0.6,5.4,1.8
				c1.4,1.2,2.1,2.9,2.3,5h-4c-0.1-1.2-0.4-2.1-1-2.7c-0.6-0.6-1.5-0.8-2.7-0.8c-1.3,0-2.3,0.5-3,1.4c-0.7,0.9-1,2.4-1,4.4v1.5
				c0,2.1,0.3,3.6,0.9,4.5c0.6,1,1.6,1.4,3,1.4c1.2,0,2.1-0.3,2.7-0.8c0.6-0.6,0.9-1.4,1-2.6H826.4z"/>
			<path class="st7" d="M829.5,1027.5c0-0.6,0.2-1,0.6-1.4c0.4-0.4,0.9-0.6,1.6-0.6c0.7,0,1.2,0.2,1.6,0.6c0.4,0.4,0.6,0.8,0.6,1.4
				c0,0.6-0.2,1.1-0.6,1.4c-0.4,0.4-0.9,0.6-1.5,0.6s-1.2-0.2-1.5-0.6C829.7,1028.6,829.5,1028.1,829.5,1027.5z M833.5,1045.5h-3.8
				v-14.3h3.8V1045.5z"/>
			<path class="st7" d="M844,1045.8c-2.1,0-3.8-0.6-5.1-1.9c-1.3-1.3-2-3-2-5.1v-0.4c0-1.4,0.3-2.7,0.8-3.8c0.6-1.1,1.3-2,2.4-2.6
				c1-0.6,2.2-0.9,3.5-0.9c2,0,3.5,0.6,4.6,1.8c1.1,1.2,1.7,3,1.7,5.2v1.6h-9.1c0.1,0.9,0.5,1.7,1.1,2.2c0.6,0.6,1.4,0.8,2.4,0.8
				c1.5,0,2.6-0.5,3.4-1.6l1.9,2.1c-0.6,0.8-1.3,1.4-2.3,1.9C846.3,1045.5,845.2,1045.8,844,1045.8z M843.6,1034
				c-0.8,0-1.4,0.3-1.8,0.8c-0.5,0.5-0.8,1.2-0.9,2.2h5.3v-0.3c0-0.8-0.2-1.5-0.7-2C845,1034.3,844.4,1034,843.6,1034z"/>
			<path class="st7" d="M853.1,1037.7c0-2,0.3-3.9,0.8-5.7c0.5-1.8,1.3-3.4,2.4-4.8c1-1.4,2.2-2.4,3.4-2.9l0.7,2.1
				c-1.3,0.9-2.3,2.4-3,4.4s-1.1,4.3-1.1,7v0.4c0,2.7,0.4,5,1.1,7c0.7,2,1.7,3.5,3,4.5l-0.7,2c-1.2-0.5-2.3-1.5-3.3-2.8
				c-1-1.4-1.8-2.9-2.4-4.7c-0.5-1.8-0.8-3.6-0.9-5.6V1037.7z"/>
			<path class="st7" d="M872.3,1045.5h-3.8v-14.7l-4.5,1.4v-3.1l8-2.8h0.4V1045.5z"/>
			<path class="st7" d="M889.6,1026.1v3.1h-0.4c-1.7,0-3.1,0.5-4.2,1.3c-1,0.9-1.7,2.1-1.9,3.6c1-1,2.3-1.6,3.9-1.6
				c1.7,0,3,0.6,4,1.8s1.5,2.8,1.5,4.7c0,1.2-0.3,2.4-0.8,3.4c-0.5,1-1.3,1.8-2.3,2.4c-1,0.6-2.1,0.8-3.4,0.8c-2,0-3.7-0.7-4.9-2.1
				c-1.2-1.4-1.9-3.3-1.9-5.6v-1.4c0-2.1,0.4-3.9,1.2-5.5c0.8-1.6,1.9-2.8,3.4-3.7c1.5-0.9,3.2-1.3,5.1-1.3H889.6z M885.9,1035.7
				c-0.6,0-1.2,0.2-1.7,0.5c-0.5,0.3-0.9,0.7-1.1,1.3v1.2c0,1.3,0.3,2.3,0.8,3c0.5,0.7,1.2,1.1,2.1,1.1c0.8,0,1.5-0.3,2-1
				c0.5-0.6,0.8-1.5,0.8-2.5c0-1-0.3-1.9-0.8-2.5C887.5,1036.1,886.8,1035.7,885.9,1035.7z"/>
			<path class="st7" d="M911.2,1043.1c-0.7,0.9-1.7,1.5-3,2c-1.3,0.5-2.7,0.7-4.3,0.7c-1.7,0-3.1-0.4-4.4-1.1
				c-1.3-0.7-2.2-1.8-2.9-3.2c-0.7-1.4-1-3-1-4.9v-1.3c0-1.9,0.3-3.6,1-5c0.6-1.4,1.6-2.5,2.8-3.2c1.2-0.7,2.6-1.1,4.3-1.1
				c2.3,0,4.1,0.5,5.3,1.6c1.3,1.1,2,2.7,2.3,4.7h-3.8c-0.2-1.1-0.6-1.9-1.2-2.4c-0.6-0.5-1.4-0.8-2.5-0.8c-1.3,0-2.4,0.5-3.1,1.5
				s-1.1,2.5-1.1,4.5v1.2c0,2,0.4,3.5,1.1,4.6s1.9,1.5,3.4,1.5c1.5,0,2.5-0.3,3.2-0.9v-3.3h-3.6v-2.9h7.6V1043.1z"/>
			<path class="st7" d="M915.2,1045.5v-19.2h6.7c2.3,0,4.1,0.4,5.3,1.3c1.2,0.9,1.8,2.2,1.8,3.9c0,0.9-0.2,1.8-0.7,2.5
				c-0.5,0.7-1.2,1.2-2,1.6c1,0.2,1.8,0.7,2.3,1.5c0.6,0.7,0.9,1.7,0.9,2.7c0,1.8-0.6,3.2-1.8,4.2s-2.9,1.4-5,1.5H915.2z
				 M919.2,1034.3h2.9c2,0,3-0.8,3-2.4c0-0.9-0.3-1.5-0.8-1.9c-0.5-0.4-1.3-0.6-2.4-0.6h-2.8V1034.3z M919.2,1037.1v5.2h3.4
				c0.9,0,1.7-0.2,2.2-0.7c0.5-0.4,0.8-1.1,0.8-1.8c0-1.8-0.9-2.7-2.7-2.7H919.2z"/>
			<path class="st7" d="M934.2,1047.1h-2.8l7.1-20.8h2.8L934.2,1047.1z"/>
			<path class="st7" d="M951.6,1041.6c0-0.5-0.2-0.8-0.7-1.1c-0.5-0.3-1.2-0.5-2.2-0.7c-3.4-0.7-5.1-2.2-5.1-4.3
				c0-1.3,0.5-2.3,1.6-3.2c1.1-0.8,2.4-1.3,4.1-1.3c1.8,0,3.3,0.4,4.3,1.3c1.1,0.9,1.6,2,1.6,3.3h-3.8c0-0.5-0.2-1-0.5-1.4
				c-0.4-0.4-0.9-0.5-1.6-0.5c-0.6,0-1.1,0.1-1.5,0.4c-0.4,0.3-0.5,0.7-0.5,1.1c0,0.4,0.2,0.8,0.6,1c0.4,0.3,1.1,0.5,2,0.7
				c0.9,0.2,1.7,0.4,2.4,0.6c2,0.7,3,2,3,3.8c0,1.3-0.6,2.4-1.7,3.2c-1.1,0.8-2.6,1.2-4.3,1.2c-1.2,0-2.3-0.2-3.2-0.6
				c-0.9-0.4-1.7-1-2.2-1.8c-0.5-0.7-0.8-1.5-0.8-2.4h3.6c0,0.7,0.3,1.2,0.8,1.6s1.1,0.5,1.9,0.5c0.7,0,1.3-0.1,1.7-0.4
				C951.4,1042.4,951.6,1042,951.6,1041.6z"/>
			<path class="st7" d="M965.2,1038c0,2-0.3,3.9-0.9,5.7s-1.4,3.5-2.5,4.9c-1.1,1.4-2.2,2.4-3.4,2.9l-0.7-2c1.2-0.9,2.2-2.4,3-4.4
				s1.1-4.2,1.1-6.8v-0.7c0-2.6-0.4-4.9-1.1-6.9c-0.7-2-1.7-3.5-3-4.5l0.7-2c1.2,0.5,2.3,1.5,3.4,2.8c1.1,1.4,1.9,2.9,2.5,4.8
				c0.6,1.8,0.9,3.7,0.9,5.6V1038z"/>
		</g>
		<g class="st2">
			<path class="st3" d="M561.3,990.9h-2.5l-6.5-10.4v10.4h-2.5v-14.7h2.5l6.6,10.4v-10.4h2.5V990.9z"/>
			<path class="st3" d="M570.1,987.7l3.7-11.5h2.8l-5.3,14.7h-2.5l-5.3-14.7h2.8L570.1,987.7z"/>
			<path class="st3" d="M581.5,988.9h6.7v2h-9.2v-14.7h2.5V988.9z"/>
			<path class="st3" d="M590.5,977.2c0-0.4,0.1-0.7,0.4-0.9c0.2-0.2,0.6-0.4,1-0.4s0.8,0.1,1,0.4c0.2,0.2,0.4,0.6,0.4,0.9
				c0,0.4-0.1,0.7-0.4,0.9c-0.2,0.2-0.6,0.4-1,0.4s-0.8-0.1-1-0.4C590.6,977.9,590.5,977.5,590.5,977.2z M593,990.9h-2.4V980h2.4
				V990.9z"/>
			<path class="st3" d="M598.6,980l0.1,1.3c0.8-1,1.9-1.5,3.2-1.5c2.3,0,3.4,1.3,3.5,3.9v7.2h-2.4v-7.1c0-0.7-0.1-1.2-0.4-1.5
				c-0.3-0.3-0.8-0.5-1.5-0.5c-1,0-1.7,0.4-2.2,1.3v7.8h-2.4V980H598.6z"/>
			<path class="st3" d="M612,986.2l-1.1,1.1v3.6h-2.4v-15.5h2.4v8.9l0.8-1l3-3.4h2.9l-4,4.5l4.5,6.4h-2.8L612,986.2z"/>
		</g>
		<rect x="513.8" y="983.5" class="st18" width="17.1" height="2.2"/>
		<g class="st2">
			<path class="st3" d="M705.6,985.4v5.4h-2.5v-14.7h5.6c1.6,0,2.9,0.4,3.9,1.3s1.4,2,1.4,3.4c0,1.4-0.5,2.6-1.4,3.4s-2.3,1.2-4,1.2
				H705.6z M705.6,983.3h3.1c0.9,0,1.6-0.2,2.1-0.6c0.5-0.4,0.7-1,0.7-1.8c0-0.8-0.2-1.4-0.7-1.9c-0.5-0.5-1.1-0.7-2-0.7h-3.1V983.3
				z"/>
			<path class="st3" d="M728.1,986c-0.1,1.6-0.7,2.8-1.7,3.7c-1,0.9-2.3,1.3-4,1.3c-1.2,0-2.2-0.3-3.1-0.8c-0.9-0.6-1.6-1.3-2.1-2.4
				c-0.5-1-0.7-2.2-0.8-3.6v-1.4c0-1.4,0.2-2.6,0.7-3.7c0.5-1.1,1.2-1.9,2.1-2.4c0.9-0.6,2-0.9,3.2-0.9c1.6,0,2.9,0.4,3.9,1.3
				c1,0.9,1.6,2.1,1.7,3.7h-2.5c-0.1-1.1-0.4-1.8-0.9-2.3c-0.5-0.5-1.2-0.7-2.2-0.7c-1.1,0-2,0.4-2.6,1.2c-0.6,0.8-0.9,2-0.9,3.6
				v1.3c0,1.6,0.3,2.8,0.9,3.6c0.6,0.8,1.4,1.2,2.5,1.2c1,0,1.8-0.2,2.3-0.7s0.8-1.2,1-2.2H728.1z"/>
			<path class="st3" d="M733.3,990.8h-2.4v-15.5h2.4V990.8z"/>
			<path class="st3" d="M741.4,991c-1.6,0-2.8-0.5-3.8-1.5c-1-1-1.4-2.3-1.4-3.9v-0.3c0-1.1,0.2-2.1,0.6-2.9s1-1.5,1.8-2
				c0.8-0.5,1.6-0.7,2.5-0.7c1.5,0,2.6,0.5,3.4,1.4c0.8,0.9,1.2,2.3,1.2,4v1h-7.1c0.1,0.9,0.4,1.6,0.9,2.1c0.5,0.5,1.2,0.8,2,0.8
				c1.1,0,2-0.5,2.7-1.4l1.3,1.3c-0.4,0.7-1,1.2-1.7,1.5C743.1,990.8,742.3,991,741.4,991z M741.1,981.7c-0.7,0-1.2,0.2-1.6,0.7
				c-0.4,0.5-0.7,1.1-0.8,2h4.7v-0.2c-0.1-0.8-0.3-1.4-0.7-1.9S741.8,981.7,741.1,981.7z"/>
		</g>
		<rect x="664.2" y="982.5" class="st19" width="17.1" height="2.2"/>
		<g class="st2">
			<path class="st3" d="M835.2,983.5c0,1.4-0.2,2.7-0.7,3.8s-1.2,1.9-2.1,2.5c-0.9,0.6-2,0.9-3.2,0.9c-1.2,0-2.2-0.3-3.2-0.9
				c-0.9-0.6-1.6-1.4-2.2-2.5c-0.5-1.1-0.8-2.3-0.8-3.7v-0.8c0-1.4,0.3-2.7,0.8-3.8c0.5-1.1,1.2-1.9,2.1-2.5c0.9-0.6,2-0.9,3.2-0.9
				s2.3,0.3,3.2,0.9c0.9,0.6,1.6,1.4,2.1,2.5c0.5,1.1,0.8,2.3,0.8,3.8V983.5z M832.6,982.8c0-1.6-0.3-2.9-0.9-3.7s-1.5-1.3-2.6-1.3
				c-1.1,0-2,0.4-2.6,1.3c-0.6,0.9-0.9,2.1-1,3.7v0.8c0,1.6,0.3,2.9,0.9,3.7c0.6,0.9,1.5,1.3,2.6,1.3c1.1,0,2-0.4,2.6-1.3
				c0.6-0.9,0.9-2.1,0.9-3.8V982.8z"/>
			<path class="st3" d="M840.9,985.1v5.4h-2.5v-14.7h5.6c1.6,0,2.9,0.4,3.9,1.3s1.4,2,1.4,3.4c0,1.4-0.5,2.6-1.4,3.4s-2.3,1.2-4,1.2
				H840.9z M840.9,983h3.1c0.9,0,1.6-0.2,2.1-0.6c0.5-0.4,0.7-1,0.7-1.8c0-0.8-0.2-1.4-0.7-1.9c-0.5-0.5-1.1-0.7-2-0.7h-3.1V983z"/>
			<path class="st3" d="M854.8,990.5h-2.5v-14.7h2.5V990.5z"/>
		</g>
		<rect x="788" y="983.5" class="st20" width="17.1" height="2.2"/>
	</g>
</g>
</svg>
